<?xml version="1.0" encoding="UTF-8"?>
<svg xmlns="http://www.w3.org/2000/svg" version="1.1" viewBox="0 0 1080 1080">
  <defs>
    <style>
      .cls-1 {
        fill: #7378b2;
      }

      .cls-2 {
        fill: #82c5e7;
      }

      .cls-3 {
        fill: #fff;
      }

      .cls-4 {
        fill: #f2efd0;
      }

      .cls-5 {
        fill: #f0e06d;
      }

      .cls-6 {
        fill: #232443;
      }
    </style>
  </defs>
  <!-- Generator: Adobe Illustrator 28.6.0, SVG Export Plug-In . SVG Version: 1.2.0 Build 709)  -->
  <g>
    <g id="Layer_1">
      <g>
        <path class="cls-3" d="M275.4,523.5c-.4-.3-.8-.6-1.2-.9,9.3-17-.4-39.1-20.6-41.5-13.2-1.6-26.6,7.5-31.4,22.4-6.2,19.2-2.8,37.1,9.6,53,13.9,17.8,36.1,22,55.7,10.8,6.1-3.5,11.4-8,16.5-13.3.2.9.4,1.3.3,1.6-6.2,17.6-7.8,35.5-4,53.8.4,1.8-.1,3-1.3,4.3-8,8.6-10,19.2-8.1,30.2,4.7,27.6,15.5,52.9,31.6,75.6,10.6,15,23.6,27.8,42,33.5,1.5.5,2.6,1.9,4,2.7,14.1,8.9,27.7,18.8,44.4,22.7,11.6,2.7,23,6,34.5,8.7,3.6.8,4.6,2.2,4.4,5.7-.4,7.5-1.6,15.9,3.3,21.9,5.9,7.3,7.1,14.8,5.7,23.4-.1.7,0,1.4,0,2.2-.2,5.6,2.7,8.7,7.9,10,4.1,1.1,8.3,2,13.1,3.1-6.2,7.2-10.7,14.9-13.9,23.4-3.3,8.6-5.7,17.4-8,26.3-1.5,5.7-3.6,11.3-4.9,17.1-2.9,13.2-12,21.4-23.1,27-11.8,6-24.4,10.6-36.7,15.4-4.2,1.6-8,3.7-10.4,7.3-1.7,2.4-6,6,.5,8.5,1,.4,1.7,1.3,1.2,2.6-4,10.7-2.8,22.1-3.8,33.1-1.2,13.1.8,14.7,13.8,14.8,24,.2,48,1.6,71.9,3.9,37.6,3.7,75.3,5.1,113,3,29.9-1.7,59.7-5.6,89.7-6.2,8.7-.2,17.3-.3,26-.8,3.5-.2,8-.1,8.2-5.1.5-13.7.5-27.4-2.7-40.8-.6-2.5-.6-3.9,1.9-5.2,2.5-1.3,2.4-1.6,2-2.8-1.8-4.7-4.7-8.9-9.2-10.5-10.7-3.8-20.6-9.4-31.3-13.1-16.7-5.8-29.1-15.5-33.3-33.5-.9-3.7-2.1-7.3-3.1-10.9-5.2-18.7-9.3-37.9-23.1-53.3,4.7-1.1,8.8-2,13-3.1,5.4-1.4,8.4-4.5,8-10.4-.3-4.5-.2-9-.3-13.5,0-1.6-.3-3.2,1.1-4.5,8.1-7.9,9.5-17.9,8.4-28.5-.4-3.9.2-5.6,4.5-6.5,12.3-2.7,24.4-6,36.6-9.4,8-2.2,15.7-4.8,22.7-9.7,7.7-5.5,15.6-11.3,24.3-14.9,9.1-3.9,17.6-8.3,24.8-14.9,26.5-24.5,39.6-56.3,47.8-90.4,2.9-12.2,1.3-24.5-8.2-34.3-1.1-1.2-1.4-2.3-1-3.9,3.8-17.7,2.2-35.1-3.2-52.3.4-.4.8-.9,1.3-1.3,1.2,1.1,2.4,2.2,3.6,3.3,25,22.5,56.8,18.2,72.1-10.3,9.9-18.5,11.3-37.7-1.3-55.8-8.6-12.3-24.4-15.4-36.5-8.3-11.9,7-16.5,22.1-10.9,35.5.4,1,1.8,2,.3,3.4-4.6-2.2-7.2-6.3-9.6-10.5-7.9-14-6.6-28.4-1.5-42.9,8.1-23,14.2-46.5,17.4-70.7,2.4-17.8,4.1-35.5.3-53.3-5.6-26-22.8-42.7-44.8-55.5-19.1-11.1-38.2-11.6-57.2.4-1.1.7-2.2,1.8-4.1.3,9.3-8.1,17.2-17.4,24.9-26.7,1.6-1.9,1.9-3.5.3-5.2-6.3-6.8-12.2-14.2-23.2-11.7-1.5.3-3.2.5-4.8-.5,2.3-9.1-.2-17.4-5.6-24.4-15.3-19.9-35.9-31.2-60.4-35.7-1.7-.3-2.4-.4-2.7-2.3-1.1-6.9-5.5-11.5-10.8-15.6-9.1-6.9-19.8-10.5-30.6-12.9-12.1-2.8-16.7-11.4-20.4-21.5-.4-1-1.7-2.8.3-3.1,4.7-.6,5.4-4.9,7.4-7.8,4.9-6.8,2.9-11.9-5-13.6-2.2-.5-4.6-.4-7-1.9,5.1-6,6.2-14.2,10.8-20.4,3.8-5,7.4-10.9,15-10.8,3.1,0,6.8,1.1,7.7-2.9.8-3.6-3-4.9-5.4-6.6-.8-.6-2-.7-3-1.1-6-1.9-12.2-1.4-18.3-.8-3,.3-4.4-.3-4.7-3.4-.7-7.2-2.6-14-5-20.9-4.2-11.9-10.9-21.5-21.5-28.2-4.9-3.1-10.6-3-15.5,0-14.9,9.4-21.8,24.2-24.9,40.6-2.2,11.3-1.2,11.4-12.7,11.3-6.1,0-12.3-.2-17.4,4.3-1.7,1.5-3.5,2.9-2.4,5.4,1.1,2.3,3.4,2.7,5.6,2.3,3.4-.6,6.4.2,9.2,2,5.1,3.2,8.3,8,10.6,13.3,2.3,5.4,4.2,11.1,8.5,16-4.1,1-7.6,1.7-11,2.6-3.2.9-4.9,2.6-3.9,6.3,1.6,5.7,3,11.4,9.3,13.9.8.3,1.3.5,1.3,1.8-.4,7-9.8,19.1-16.5,21.2-8.4,2.7-17,4.8-24.9,8.7-9.7,4.7-19.1,9.9-21,22.1-.2,1.5-1.1,1.4-2.2,1.6-22.4,3.5-41.1,14-56.6,30.3-7.2,7.5-11.9,16.5-10.3,27.4.6,3.9-1.8,3.5-3.7,3-10.9-2.5-17.1,4.3-23.4,11.2-1.5,1.7-2.1,3.6-.5,5.3,6.8,7.3,12.3,15.7,20.1,22.2,1.7,1.4,3.6,2.9,4.2,5.4-2.4.7-3.5-1.1-5-1.9-11.2-6.3-23-9.6-35.8-6.8-38,8.4-66,42.4-66.5,81.2-.4,30.9,5.5,60.9,14.7,90.4,3.1,10,7.4,19.6,8.7,30.1,1.8,15.1-1.5,28.6-14.3,38.5Z"/>
        <path class="cls-6" d="M784.7,557.2c5.4,17.2,7,34.6,3.2,52.3-.3,1.6,0,2.7,1,3.9,9.4,9.8,11.1,22.1,8.2,34.3-8.2,34.1-21.3,65.9-47.8,90.4-7.2,6.7-15.7,11-24.8,14.9-8.6,3.7-16.5,9.5-24.3,14.9-6.9,4.9-14.7,7.5-22.7,9.7-12.1,3.4-24.3,6.7-36.6,9.4-4.4,1-5,2.6-4.5,6.5,1.1,10.6-.3,20.6-8.4,28.5-1.4,1.4-1.1,2.9-1.1,4.5,0,4.5,0,9,.3,13.5.4,5.9-2.7,9-8,10.4-4.1,1-8.3,2-13,3.1,13.8,15.4,17.8,34.6,23.1,53.3,1,3.6,2.2,7.2,3.1,10.9,4.2,18,16.6,27.8,33.3,33.5,10.7,3.7,20.6,9.3,31.3,13.1,4.6,1.6,7.5,5.8,9.2,10.5.4,1.2.5,1.5-2,2.8-2.5,1.3-2.5,2.7-1.9,5.2,3.2,13.4,3.2,27.1,2.7,40.8-.2,5-4.7,4.9-8.2,5.1-8.6.5-17.3.6-26,.8-30,.6-59.7,4.5-89.7,6.2-37.8,2.2-75.4.7-113-3-23.9-2.3-47.9-3.7-71.9-3.9-13-.1-15-1.7-13.8-14.8,1-11.1-.2-22.4,3.8-33.1.5-1.3-.2-2.2-1.2-2.6-6.4-2.5-2.1-6-.5-8.5,2.4-3.6,6.2-5.7,10.4-7.3,12.4-4.8,24.9-9.4,36.7-15.4,11.1-5.6,20.2-13.8,23.1-27,1.3-5.8,3.4-11.4,4.9-17.1,2.4-8.9,4.7-17.7,8-26.3,3.3-8.4,7.7-16.2,13.9-23.4-4.8-1.1-9-2-13.1-3.1-5.2-1.3-8.1-4.4-7.9-10,0-.7-.2-1.5,0-2.2,1.4-8.6.2-16.1-5.7-23.4-4.9-6.1-3.8-14.4-3.3-21.9.2-3.6-.9-4.9-4.4-5.7-11.6-2.7-23-6-34.5-8.7-16.7-3.9-30.3-13.8-44.4-22.7-1.4-.9-2.5-2.2-4-2.7-18.3-5.7-31.3-18.5-42-33.5-16.1-22.8-26.9-48-31.6-75.6-1.9-11.1.1-21.6,8.1-30.2,1.2-1.3,1.7-2.5,1.3-4.3-3.8-18.3-2.2-36.2,4-53.8.1-.3,0-.7-.3-1.6-5.1,5.2-10.4,9.8-16.5,13.3-19.5,11.2-41.8,7.1-55.7-10.8-12.4-15.9-15.8-33.8-9.6-53,4.8-14.9,18.2-24,31.4-22.4,20.2,2.4,29.9,24.4,20.6,41.5-.2.4-.5,1.1-.4,1.2.6.6,1.2.2,1.6-.4,12.7-9.9,16.1-23.4,14.3-38.5-1.2-10.4-5.6-20.1-8.7-30.1-9.1-29.4-15.1-59.4-14.7-90.4.5-38.8,28.5-72.8,66.5-81.2,12.8-2.8,24.6.5,35.8,6.8,1.4.8,2.6,2.6,5,1.9-.7-2.5-2.5-4-4.2-5.4-7.8-6.5-13.3-14.9-20.1-22.2-1.6-1.7-1.1-3.6.5-5.3,6.3-6.9,12.6-13.7,23.4-11.2,1.9.5,4.3.8,3.7-3-1.6-10.9,3.1-19.8,10.3-27.4,15.5-16.3,34.2-26.8,56.6-30.3,1.1-.2,2-.1,2.2-1.6,1.9-12.2,11.3-17.4,21-22.1,7.9-3.9,16.5-6,24.9-8.7,6.7-2.1,16.1-14.2,16.5-21.2,0-1.3-.4-1.5-1.3-1.8-6.3-2.5-7.7-8.2-9.3-13.9-1-3.7.7-5.5,3.9-6.3,3.4-.9,6.9-1.6,11-2.6-4.4-4.9-6.2-10.6-8.5-16-2.3-5.4-5.6-10.1-10.6-13.3-2.8-1.8-5.8-2.6-9.2-2-2.2.4-4.5,0-5.6-2.3-1.1-2.5.7-3.9,2.4-5.4,5.1-4.4,11.3-4.3,17.4-4.3,11.5,0,10.5,0,12.7-11.3,3.2-16.4,10-31.2,24.9-40.6,4.9-3.1,10.6-3.2,15.5,0,10.5,6.7,17.3,16.3,21.5,28.2,2.4,6.9,4.3,13.7,5,20.9.3,3.1,1.7,3.6,4.7,3.4,6.1-.6,12.2-1.1,18.3.8,1,.3,2.2.5,3,1.1,2.4,1.7,6.2,3.1,5.4,6.6-.9,4-4.6,3-7.7,2.9-7.6-.1-11.3,5.7-15,10.8-4.6,6.2-5.7,14.3-10.8,20.4,2.4,1.6,4.8,1.4,7,1.9,7.9,1.8,9.9,6.9,5,13.6-2.1,2.9-2.7,7.2-7.4,7.8-2,.3-.7,2-.3,3.1,3.7,10.1,8.3,18.7,20.4,21.5,10.8,2.5,21.5,6,30.6,12.9,5.3,4,9.7,8.7,10.8,15.6.3,1.8,1,2,2.7,2.3,24.5,4.5,45.1,15.8,60.4,35.7,5.4,7.1,7.9,15.4,5.6,24.4,1.6,1,3.3.8,4.8.5,11-2.5,16.9,4.9,23.2,11.7,1.6,1.7,1.3,3.4-.3,5.2-7.8,9.3-15.6,18.6-24.9,26.7,1.9,1.5,3,.4,4.1-.3,19-12,38.1-11.5,57.2-.4,22,12.7,39.2,29.5,44.8,55.5,3.8,17.8,2.1,35.5-.3,53.3-3.2,24.2-9.3,47.7-17.4,70.7-5.1,14.4-6.4,28.9,1.5,42.9,2.4,4.2,5,8.3,9.6,10.5,1.5-1.5.2-2.5-.3-3.4-5.6-13.4-1-28.4,10.9-35.5,12.1-7.2,28-4,36.5,8.3,12.6,18.1,11.2,37.3,1.3,55.8-15.3,28.5-47.1,32.8-72.1,10.3-1.2-1.1-2.4-2.2-3.6-3.3-.5-.4-1.3-1.3-1.4-1.3-1.1.9-.2,1.7.1,2.6ZM388.7,229.5s0,0,0,0c-.3.3-.6.6-.9,1-.2.3-.3.5-.1.9-3.5,5-5,10.4-3.1,16.4,4.6,10.6,14.3,14.7,23.9,18.6,18.2,7.3,37.4,10.7,56.7,12.9,32,3.8,64.1,6.3,96.5,4.7,30.8-1.5,61.5-3.4,91.7-10.1,14.8-3.2,29.5-6.9,42-16.2,6.5-4.8,10-10.7,7.8-19.6-1.8-6.9-5.7-12-10.3-16.7-12.5-12.7-28-20-44.7-25.3-4.1-1.3-8-3.7-12,.6-1.1,1.2-3.7,1.1-5.7.6-1.2-.3-2.4-.7-3.6.4-5.2,4.8-10.9,3.9-16.6,1.3-2.5-1.2-3-.2-3.7,1.8-1.3,4.1-4.4,5.9-8.4,6.6-5.4,1-10.2-1.1-15.1-3.1-5.1-2.1-8.9-5.7-11.9-10.3.8,6.6,1.4,12.9-1.1,19-3.1,7.6-10.4,9.7-17.2,5.1-3.9-2.6-6.1-6.5-8.8-10.4-2.2,2.8-4.2,5.6-6.5,8-3.5,3.7-7.8,6-13.1,4.2-5.3-1.8-7.3-6.3-8-11.3-.5-3,0-6.1-.2-9.2,0-1.4,1-3.1-.8-4.6-1.4,1.8-2.7,3.5-4,5.2-.8.1-1.5.4-1.6,1.4h0c-4.9,2.6-9.8,5.3-15.3,6.4-6.3-.1-11.9-1.3-13.9-8.5-.8-2.8-2.3-.5-3.2,0-4.5,1.8-9.1,2.8-13.6.6-5.4-2.7-12.4-.7-16.7-6.2-.3-.3-1.7,0-2.4.3-10.8,4.7-22.3,7.7-32.4,14.1-8.7,5.5-17.1,11.3-22.7,20.3-.3.4-.7.8-1,1.1ZM615.3,169.9c-.5,1.1.3,1,1,1.2,1.3,1.2,2.7,2.3,4,3.5,4.3,4,8.1,8.3,9,14.3.3,1.8-.5,4.1,2.9,3.9,3.3-.3,4.4-2.4,4.4-5.1,0-3.4-2.1-6-4.4-8.4-4.2-4.4-9.7-6.8-15.3-8.9-.5-.1-1.1-.3-1.6-.4-.4-.3-.8-.5-1.1-.8,0,.2-.1.4-.2.6.5,0,.9,0,1.4,0ZM539.2,687.9h0c.2,1.2.1,2.4,1.2,3.2h0c1.2,5.2,2.4,10.5,3.9,16.7,1-5.3,1.9-9.7,2.7-14,.4-.8.8-1.6,1.1-2.4,2.9-8.3,6.6-16,14.5-20.9,2.8-1.7,2.6-4.6,2.6-7.4-2.6-.2-3.1,3.3-5.9,2.6-.2-2.2,1.3-3.5,2.2-4.8,9.3-12.5,21.2-22,34.9-29.3,16.4-8.7,34.5-10.8,52.6-13.2,14.3-2,28.7-3.5,41.9-9.9,29.3-14.2,38.5-39.9,22.4-70.8-4.3-8.3-11.5-12.8-20.5-14.1-5.8-.8-12-.5-15.7,4.9-3.5,5.2-.2,10.1,2.5,14.5,3.3,5.6,7.3,10.7,10.8,16.2,4.1,6.5,6.9,13.6,5.7,21.5-1.7,11.6-10.1,19.5-23.3,22.5-11.5,2.6-23.3,2.3-35,2.4-14.7,0-28.4,2.7-39,14-1.7,1.8-4.2,2.9-6.4,1.9-2.1-1-.5-3.6-.7-5.4h-.1c8.2-9.5,18.4-15.9,31.5-18.6-1.1-.5-1.5-.6-1.8-.8-2-1.2-6.2-1-5.5-3.9.7-3.1,4-.5,6.1-.3,10.9,1,17.1-2.5,18.3-10.5.2-1.6-.3-3.6,2.2-3.6,2.3,0,2.8,2,3.2,3.8.5,2.6-.8,4.9-1.6,7.2-1,2.9-4.1,4.2-5.4,7.3,6.7,0,12.8.1,18.9,0,6.1-.2,12.2-.9,18.1-3,11.2-4.1,15.3-13.1,10.8-24.2-2.2-5.6-5.8-10.4-9.1-15.3-2.7-4-5.4-8.1-7.1-12.7-3.7-10.2-.3-19.3,9-22.9,10-3.9,19.8-2.3,29.1,2.9,18.7,10.4,31,47.8,14.4,72.4-10.2,15.1-24.3,23.6-41.6,27.9-15.3,3.8-31,4.4-48.1,6.9,16.1,6.3,30.7,12.1,45.5,17.7,2.3.9,5,.9,7.5.9,1.9,0,4.2,0,5.2-2.2,1.1-2.5-1.7-2.7-2.8-3.9-1.4-1.7-3.2-3.2-1.6-5.6,1.7-2.5,3.7-1.7,5.5-.1,3.2,2.7,6.9,2.6,9.1-.4,2.3-3.3-1.7-4.9-3.7-6.6-2.9-2.5-6.3-4.2-9.2-7.7,7.3.1,14.3,3.8,17.4,8.6,1.8,2.8,2.9,6.6.4,8.5-5.4,4.1-8.9,10.3-14.4,14-4.4,3-9.8,1.6-14.8.9-9.2-1.2-17.7-4.8-26.8-7.7-.8,12.5-8.3,19.1-19.4,22.7,1.1,1.8,2.1,3.3,3.1,4.8,0,.9,0,1.8,1.1,2.2h0c1.3,4.9,1.1,10.2,1.6,16,1.9-2.5,3.3-4.3,3.8-6.6,4.6-5.3,9.1-10.8,13.7-16,3.9-4.4,10.5-4.8,15.1-1.3,5.2,4,8.1,9.1,8,15.8,0,2.2,0,4.4,0,8.1,2.2-3.5,3.4-5.5,4.6-7.5,5.5-8.7,9.6-18.2,17.2-25.4,3.3-3.2,7-6.3,11.5-6.5,4.3-.2,8.5,1.8,11.1,6.2,4.3-6.4,6.4-13.7,13.1-17.7,7.5-4.4,14-2.2,20.5,3.6.2-7.2,1.3-13.6,3.5-19.6,2.4-6.6,5.8-13.5,12.9-14.7,7.2-1.3,8.3-5.1,8.5-10.7,0-1.4.1-2.9.2-4.3.9-23.2-7.2-43.9-18.5-63.5-12-20.8-27.3-39.4-40.6-59.4-1.6-2.6-3.2-5.1-4.8-7.7-2.3-3.9-4.5-7.8-7.4-12.8-.5,5.8-.9,10-1.2,14,2.4,1.2,4.3-3.1,6.4.2-1.3,1.6-2.6,3.3-3.9,4.9-5.9,3.6-8.9,10.8-15.6,13.1-5.4,1.8-10.1,4.7-14.9,7.5-13.8,8-28.1,14.5-43.5,18.8-10.4,2.9-21.1,5-32.3,7,6.1,6.6,13.7,9.2,20.9,12.3,7.6,3.3,15.3,6.4,21.4,12.3,6,5.8,9.4,12.7,8.4,21.3-1.1,9.6-10.6,16.6-18.3,13.4-2.6-1.1-4.5-2.8-3.6-5.8.9-3.3,3.7-2.9,6.2-2.3,5.6,1.3,8.6-.7,9.1-6.5.5-6.5-2.7-11.4-7.3-15.6-5.2-4.8-11.6-7.9-17.9-11-8.7-4.3-17.7-8.3-23.4-16.8-.8-1.2-1.8-.9-2.9-.6-7.9.5-15.9.9-23.8,1.4-.7,0-1.4-.3-2.1-.3-26,1.2-52,.5-77.9-1.3-1.5-.1-2.8-.1-3.8,1.3-5.4,8-13.9,11.8-22.1,15.8-6.5,3.2-13,6.2-18.5,11.1-4.4,4-7.7,8.6-7.5,15,.2,6.5,3,8.7,9.3,7.3,2.4-.5,5-.7,6,2.1,1.1,2.9-.7,4.7-3.3,5.9-5.1,2.4-12.3-.2-15.9-5.9-4.2-6.7-3.8-13.7-.3-20.6,3.9-7.8,10.6-12.6,18.3-16.2,6.3-3,12.9-5.6,19.2-8.6,3.9-1.9,7.8-4,10.6-8.1-9.5-1.4-18.1-3.2-26.7-5.4-19.4-4.9-37.4-13-54.3-23.6-5.9-3.7-13.5-4.3-17.8-10.6-3.3-4.4-8.6-6.9-10.8-12.3,2.5-1.4,4,1.4,6.4.9-.9-4.4-1-8.9-2-13.6-2.3,4-4.6,8-6.8,11.9-1.7,2.8-3.5,5.5-5.2,8.3-5.7,8.1-11.3,16.2-17.1,24.2-10.5,14.6-21.1,29.2-29,45.4-4.6,9.4-8.8,18.9-10.3,29.4-2,5.7-2.5,11.6-2.1,17.7-.5,2.6-.4,5.1,0,7.6-.3,2.9.3,5.6.6,8.5.3,3.1,1.7,4,4.5,3.3,17.2,5.4,17.3,20.9,20,34.9,13.2-8.2,21-6.2,28.5,6.9,1.5,2.6,2.9,5.2,4.4,7.9,6.8-7.4,13.2-7.7,20.9-1.3,5.2,4.3,8.6,10.1,12.9,15.2.2.9.2,2,1.3,2.5h0c1.2,5.1,4.8,8.9,7.4,13.3.5.8,1.4,1.1,2.1.1-.4-8.1,1.3-15.4,8.5-20.4,4.3-3,10.9-2.8,14.3,1.1,5.3,6.1,11.3,11.5,15.3,19.4,5.1-5.9,3-14.2,8.7-19.3-11.6-3.7-18.9-10.3-19.7-22.8-3.5,1.2-6.7,2.3-9.9,3.4-8.6,2.8-17.2,5.2-26.4,4.9-4.7-.2-8.7-2-10.4-6.4-1-2.7-2.5-3.8-4.9-4.9-5.3-2.4-7.2-7.5-4.3-12,3.9-6,9.7-9.1,17.9-9.7-3.5,4.6-7.9,6.4-11.2,9.5-1.4,1.3-3.3,2.8-2.1,5,1,1.9,3.2,2.2,5.2,2.3,1.5,0,2.8-.5,3.9-1.5,1.8-1.6,3.8-2.7,5.6-.4,1.5,2,.4,4-1.2,5.8-1.1,1.3-4.4,1.5-2.8,4.3,1.3,2.2,3.8,2,5.9,1.9,4.9-.2,9.5-1.8,14-3.7,12.1-4.9,24.4-9.6,37.8-15-19.2-2.9-37.1-3.5-54.3-8.8-38-11.6-53.7-48.5-34.8-83.3,7.5-13.9,19.5-20.8,35.6-19.9,14.2.9,21.4,12.4,16.3,25.6-1.7,4.2-4.1,8-6.7,11.7-3.2,4.8-6.6,9.4-9,14.8-5,11.4-.9,20.9,10.8,25,12,4.1,24.3,2.8,37.8,2.9-5.5-4.5-8.7-8.9-8-15.1.2-1.7,1.1-3.2,3.1-3.1,1.9,0,2.2,1.6,2.2,3.1,0,4.7,2.5,7.7,6.5,9.7,3.5,1.8,7.4,1,11.2,1.3,2.3.2,5.9-2.9,6.6.4.6,2.8-3.8,2.8-6.1,4.1-.2,0-.2.4-.3.8,11.1,2.2,20.1,7.7,28,15.5,2.5,2.4,3.1,5.7,1.4,7.7-1.8,2.1-4.5-.2-6.5-1.7-1-.8-1.8-1.7-2.8-2.6-7-6.1-15.1-9.5-24.4-10.4-9.6-.9-19.1-.6-28.7-1-8.5-.4-16.9-1.1-24.9-4.5-13.9-6-19.5-19.2-14.4-33.4,2.2-6.2,6-11.5,9.7-16.8,3.1-4.4,6.4-8.7,8-14,1.9-6.1,0-10.3-6.1-12.1-9.5-2.9-18.3-.5-25.1,6.1-17,16.5-17.7,46.5-2.1,64.1,10.7,12.1,25,17.3,40.3,20.4,17.3,3.5,35,4.4,52.2,8.7,21.7,5.4,39,17.4,53.5,33.9,1.9,2.2,4.6,4.4,4,8.6-2.2-1.7-4-3.1-6.7-5.2,1.8,4,1.1,7.8,4.6,9.8,2.9,1.6,5,4.1,7.2,6.5,1.6,2.7,3.2,5.5,4.8,8.2h0c.3.8.6,1.5.9,2.3ZM290.1,521h0c-2.8,2.8-5.7,5.7-8.5,8.6-12.9,6.4-27.9,1.4-34-11.4-1.3-2.6-2.6-6,.8-7.6,3.4-1.6,4,2,4.8,4.2.8,2.1,2.2,3.8,4.2,3.7,7.2-.4,12.6-6.5,10.8-12.9-3.7-13.3-19-17.3-29.8-7.5-6.1,5.5-8.3,12.9-9.4,20.7-2.4,16.7,6.8,34.6,21.9,42.6,13.1,7,28.7,3.8,42-8.6,11.6-10.9,19-24.4,24.3-39.2,3.9-11,5.2-22.3,3.7-34.1-1.9-14.8-6.9-28.7-11.8-42.6-6.2-17.4-8.8-35.3-7.9-53.7,1.6-34.4,24.4-54.1,57-48.7,14.3,2.4,25.5,9.8,31.1,23.9,1.6,4,2.4,8.2-.4,12.2-1.9-4.4-3.3-9.1-5.9-13.1-8.8-13.7-22.2-18.1-37.5-16.1-15.9,2-27.9,10.2-32.1,26.4-5.6,21-3.2,41.8,3.5,62.2,3.8,11.6,8.3,23,11.2,35,3.3,13.8,3.8,27.7,1.1,42.2,1-.7,1.5-.9,1.8-1.2,13.5-18.7,27.7-36.9,39.5-56.8,12.5-21.2,22.7-43.3,26.4-68,1.9-11.6,2.7-23.3.6-34.8-3-16.6-4.9-33.8-21.3-44.4-10.1-6.5-19.8-13.2-32.6-11.7-9.4,0-17.7,3.4-25.3,8.5-17.1,9.5-30.2,22.5-37.3,41-4.5,11.8-5.9,24-5.1,36.6,1.3,19.2,3.7,38.2,9.1,56.8,3,16.2,10,31.2,14,47.2,1.3,13,0,25.6-6.4,37.3-.7,1.1-1.5,2.2-2.2,3.3ZM469,407.2l-.3-.2h.3c2.3,4.7,5.5,8.9,6.5,15.3,2.6-5.4,5.4-9.1,8.9-13.1-5.6-.7-10.6-1.3-15.5-2ZM712.1,302.6c-.6.6-1.2,1.1-1.8,1.7-6,3.1-9.7,7.8-12.2,14.2-7.6,19.6-9.8,39.7-7,60.5.9,4.6,1.5,9.2,2.6,13.7,5.2,21.5,14.7,41.2,26.3,59.9,11.6,18.6,24.1,36.4,37.8,53.5.5.7,0,1.9,1.5,2.4-.2-1.2-.4-2.2-.5-3.2-1.2-7.8-1.9-15.7-1.2-23.6,1.4-17.1,7.4-33,13-48.9,6.7-19.1,9.1-38.5,5.9-58.5-2.3-14.6-9.8-25.5-24.2-30.5-14.1-4.9-27.6-3.9-39.7,5.8-.4.4-.8.8-1.3,1.2h0c-7,4.6-8.3,12.8-11.9,20.6-2.3-3.9-2.2-7.1-1.2-10.4,4-14.1,14.6-21.1,27.6-25.7,3.9-.7,7.8-1.3,11.8-2,12.5-.2,23.5,3.8,33.5,11.1,5.1,5,9,10.8,12,17.2,3.3,11.5,4.7,23.2,4.1,35.1-.5,9.7-2.2,19.2-4.1,28.7-2.9,8.7-5.8,17.4-8.7,26.1-2.1,3.6-2.7,7.8-3.8,11.7-9.9,34.9.6,64.3,25,89.5,8.5,8.8,19.2,13.7,31.7,11.7,26.9-4.4,41.6-39.6,26.3-62.1-2.9-4.3-6.8-7.4-11.8-9-8.1-2.5-15.4.4-19.6,7.9-4.7,8.6-2.2,14.9,6.6,16.3,3.8,2.3,5.2-.4,6.4-3.1.9-2.2,1.5-5.2,4.5-4,3.4,1.3,2.3,4.3,1.3,6.9-1.4,3.8-5,5.5-7.4,8.2-10.7,11.7-23.4,8-30.7.3-10.7-11.1-14.6-24.6-13.6-39.7.6-10,4.3-19.3,7.4-28.7,10.3-30.8,17.4-62.3,15.7-95-1.6-32-20-53-47.7-66.9-.8-1-1.9-1.3-3.1-1.3h.2c-15.7-8.2-34.2-5.2-49.4,8.1v.2ZM401.6,397.4c1.6,1.2,2.1-.6,2.9-1.2,4.9-3.6,10.1-6.8,16.4-3.9,6.6,3,9.2,8.9,10,15.6.4,4,0,8.1,0,12.1,4.9-7.6,10.6-13.7,19.9-17.1-5.8-2-10.6-3.4-15.1-5.3-11.2-4.7-22.2-9.7-28.9-20.6,2.1-2.8,3.2.1,4.2,1,10.8,9.5,24,14.1,37.4,17.9,21.9,6.2,44.5,8.7,67.2,9,23.3.3,46.5,1.1,69.8-.8,33-2.7,65.8-5.7,93.1-27.3,1.2-.9,2.2-1.4,2.8.5-10.7,14.8-27,20.2-44.5,25.7,9.9,3.3,15.3,9.8,20.1,17.3-.2-4.6-.2-9,.4-13.4,2-14.8,13.9-19.9,25.8-11,1,.8,1.7,2.3,3.9,1.9-2.4-6.8-2.3-13.9-3.7-20.7-.4-13.8-.3-27.5,2.7-41.2,3.5-15.5,10.3-29.3,19.2-42.2.2-.3.3-.7.5-1-.4,0-.8.2-1.2.2-10.4,4.4-20.9,8.5-31.9,11.5-21,5.9-42.5,9-64.1,11.8-17,2.1-33.9,4.8-51.1,4.5-18.6-.3-37.2.4-55.7-1.4-9.8-1.3-19.6-2.6-29.4-3.9-30.8-4.6-61.5-9.4-90.2-22.8,18.8,25.3,24.5,53.8,22.5,84.3-1,6.9-2.1,13.7-3.1,20.6,0,.3-.9.5,0,.8,0-.3,0-.6-.1-.9ZM598.9,860c.2.2.4.4.7.6,0-.2,0-.4,0-.6h-.8c-1.3-2.9-2.4-6.4-6.7-5.4-8.6,1.9-17.2,1.2-25.8,1.2-14.8,0-29.6,0-44.4,0,11,4.2,17.5,12.5,22.2,23.1.8-1.9,1.3-3,1.9-4.1,6.4-12.1,15.5-19.4,30.1-18.5,7.8.5,15.4,1.3,22.8,3.8ZM590.5,698c-.8,4.7-1.6,9.4-2.6,15.4,3.3-5.2,5.5-9.6,7.1-14.3,5.9-11.3,10.1-23.5,19.5-32.7.6-.6.7-1,.6-1.8-2.1-9.7-1.7-10.5,6.1-14.5,1.6-.9,4.3-1.1,4-3.6-.2-2.5-2.6-3.3-4.6-4.1-1.5-.6-3.1-1-4.7-1.2-16.5-2.6-37.2,9.5-44.2,26,5,.5,9.3,2.5,13,5.8,1,1.6,2,3.1,3,4.7,2.7,6.6,2.8,13.5,2.8,20.4ZM498.1,702c0-2-.1-4-.2-5.9-.3-6.5,0-13,3-19,3.2-6.4,8.9-9.3,16-10.3-1-1.8-1.7-3-2.4-4.2-.6-.9-1.2-1.8-1.8-2.7-10.7-12.8-23.6-21-41.1-18.7-3.4.4-7.6,1.4-8.4,4.9-.8,3.5,3.9,3.3,6,4.9.6.4,1.2.7,1.8,1.2,3,2.3,6.1,5.4,4,9-2.3,3.9-.9,5.8,1.7,8.2,1.6,1.6,2.8,3.7,4.1,5.6,5.5,8.5,9.3,17.8,13.7,26.9,1.5,3.9,3.2,7.6,6.1,10.8-.8-3.6-1.6-7.2-2.4-10.8ZM388.5,758.5c.9.9,1.7,2,3.3,1.7-.3-1.4-1.3-1.9-2.2-2.6-8.9-10.1-16.5-21.1-20.5-33.9-4.3-13.5-8.2-27.2-6.8-41.8.6-5.7.5-11.4-1.6-17-2.2-6.1-4.8-12.1-9-17.1-4.4-5.2-10.2-4.2-13.5,1.9-1.1,2-1.2,4.1-1.2,6.3.4,18.6,1.8,36.8,9.3,54.3,8.9,20.8,20.7,38.6,42.1,48.2ZM573.5,776.2c21.4-11.5,35.1-29.7,45.1-51.3,6.5-14.1,11.4-28.3,9.6-44.2-.4-4-1.4-7.7-5.8-8.8-4.2-1-6.1,2.5-7.9,5.3-4.7,7.3-8,15.3-11.7,23.1-11.4,24.5-20,50-30.1,75-.2.4-.3.7-.5,1.1.4,0,.8-.2,1.2-.3ZM736.9,739.1c3.7-2,6.7-4.8,9.6-7.8,23.7-24,36.9-53.4,42.8-86.2,1.4-7.8,1.2-16.2-3.9-22.9-6.6-8.5-13.7-7.7-17.9.9-1.2,2.6-1.9,5.4-2.8,8.1-3.9,12,.2,24.7-4.1,37.1-4.2,11.9-4,25.2-8.4,37.2-4.2,11.5-9.4,22.5-16.4,32.7-.2.5-.6,1.2-.5,1.3.7.7,1.2.1,1.6-.4ZM636.5,771.6c-2.2,1.4-4.3,2.8-6.9,4.4,3.3,1.1,5.9,1.4,8.6.7,12.1-.5,24.3-1.8,34.6-8.6,33.4-22,48.4-53.5,46.2-93.2-.3-4.9-1.1-10.1-4.3-14.3-3.7-4.6-6.6-1.6-9.6,1-5.1,4.4-8.5,10.1-12.1,15.7-7,10.9-10.3,23.3-15.2,35-9.4,22.6-21.7,43.5-41.2,59.2ZM391.1,981.7c1,3.1,1.1,5.8,1,8.5-.4,8.3-.7,16.6-1.2,24.8-.2,3.5,1,4.3,4.3,4.1,7.2-.6,14.4-.9,21.6-1.1,27.5-.5,54.7,3.3,82,5.2,34.8,2.5,69.6,2,104.3-1.1,29.6-2.7,59.2-5.9,89.1-3.1,3.8.4,5.7-.3,5.4-4.7-.7-10.5-1.6-21.1-1.1-32.1-3.3,1.2-5.9,2.9-8.9,3.5-37.5,7-75.3,10.4-113.4,10.6-49,.3-98.1,1-146.8-6.4-12-1.8-24.4-2.2-36.2-8.2ZM733.5,264.3c-4.6-7.8-11.1-12.9-21.3-11.3-1.9.3-3.7.3-5.1,2.4-5.1,7.8-12.6,12.7-21,16.4-18,7.9-37.2,11.1-56.4,13.9-32.4,4.6-65,4.4-97.6,4.5-21.3,0-42.6-1-63.7-3.4-20.8-2.3-41.4-5.5-61.1-12.8-10.5-3.9-20-9.2-26.4-18.8-.9-1.4-2-1.7-3.5-2-9.2-1.7-17.1,1.9-22.2,9.7-1.3,1.9-.2,2.4.9,3.3,15.2,11.8,31.1,22,49.9,27.3,40.3,11.3,81.3,17,123.1,18.3,12.6.4,25.2.8,37.8.2,25.2-1.2,50.3-4.8,75.1-9.1,33.5-5.7,66-14.3,91.5-38.7ZM445.5,948.4c-12.8,7.2-24,15.1-37.4,18.5-3.1.8-5.9,2.6-9,3.7-1.4.5-2.5,1.4-2.4,2.6,0,1.5,1.7,1.4,2.9,1.5,10.5,1.5,21,3.4,31.6,4.4,34.7,3.4,69.5,4.3,104.4,5.7,17,.7,33.9,0,50.9-1.3,26.1-1.9,52.3-1.2,78.3-5.4,9.4-1.5,19-2.7,28.4-4,.2-.5.3-.9.5-1.4-17.2-7.4-35.6-12.7-51.7-25.3,1.8,4.6,4.6,6.4,6.6,8.9,1.4,1.7,1.9,3.6.9,5.5-.9,1.8-2.6,2.3-4.5,2.4-2.1,0-3.8-.7-5.5-1.9-5.2-3.6-10.4-7.1-15.5-10.8-2.6-1.9-5.7-5.5-9.9-2.8-8.8,5.7-16.9,11.8-16.6,24,0,2.4-.9,4.9-3.8,5.2-2.9.4-4-1.7-4.9-4.1-3-7.8-7.5-14.5-13.3-20.7-5.6-5.9-11.3-5.9-18.1-3.5-5.9,2.1-11.1,4.6-10.6,12.2.1,1.9-.1,3.2-2.9,3.3-3.4.2-2.4-2.1-2.5-3.5-.2-5-2.2-8.6-6.9-10.5-12.1-4.8-15.8-4.6-23.1,3.3-5.4,5.9-9.3,12.2-12.1,19.5-.9,2.3-2.1,4.5-5,3.9-3-.6-3.9-3.1-3.7-5.8.4-4.8-1.8-8.5-4-12.5-2.6-4.6-7.6-6.1-10.7-9.7-4-4.6-7.2-2.5-10.3.3-5.6,4.9-11.9,8.8-18,12.9-2.8,1.9-6.1,2.1-8.4-.5-2.4-2.7-.8-5.3,1.5-7.5,1.6-1.7,3.5-3.1,4.8-6.5ZM627.7,942.6c-1.5-3.7-3.2-6.2-3.6-8.9-2.2-15.5-8.3-30.1-11.1-45.5-1.2-6.9-5-11.6-10.6-15.4-8.9-6-18.8-6.5-29-6.9-7-.3-12.2,2.4-16.1,8-5.5,7.9-8.8,16.4-8.5,26.2.2,8.8,0,17.7-.2,26.5,0,3.2,0,7.2-4.5,7.3-4.4,0-4.6-3.8-4.7-7.1,0-.9,0-1.8,0-2.7,0-8.7,0-17.3,0-26-.1-10.4-4.3-19.2-10.8-27-2.3-2.8-5.8-4.9-9.3-5-9.5-.3-19.3-.5-28.1,3.8-8.2,3.9-14.1,9.3-16.2,19.3-3.7,17.8-8.9,35.3-13.5,53.3,4.1-2.3,8.4-4.4,12.5-6.9,3.9-2.3,6-5.5,6.4-10.5,1-11.9,3.3-23.6,9.2-34.2,4.1-7.3,8.3-14.2,18.6-13.9,8.1.2,16,6.8,16.3,15,.5,12.5-2.1,24.3-7.1,35.7-1.8,4.1-3.6,8.1-5.6,12.5,7.7,0,14.8-1.2,21.9,1.9,3.9,1.7,6.9,5.9,10.5,6,3.6.1,6.6-4.2,10.4-6,7.1-3.2,14.4-1.7,22.1-2-1.2-2.7-2.2-4.8-3.2-6.9-5.6-12-9.4-24.4-9.6-37.9,0-6.1,1.7-10.6,6.2-14.7,6-5.4,16.7-5.1,22.2.9,8.6,9.5,13.3,20.9,14.1,33.2.9,13.2,5.6,22.2,18.4,26.4.7.2,1.3.6,3,1.4ZM535.6,821.3c0-.5,0-.9,0-1.4,18,0,36.1,0,54.1,0,11,0,21.7-2,32.2-5.8,5.8-2.1,7.8-5.8,8.4-11,.4-3.4,0-6.9,0-10.3.1-2.8-1.1-3.2-3.6-2.9-15.2,1.4-30.3,3.2-45.5,4-40.2,2-80.3-2.4-120.4-4-2.3,0-2.8.4-2.6,2.5,1.1,14.7,9.8,23.9,24.5,26.5,17.5,3,35.2,1.8,52.9,2.5ZM458.5,776.2c-3.3-2.4-5.6-4-7.9-5.8-20.8-16.7-33.3-39.1-42.1-63.6-5.2-14.4-11.3-27.9-20.5-40.1-1.4-1.9-3-3.6-4.7-5.2-5.7-5.2-9.5-4.3-11.8,3-1.4,4.3-2.2,8.7-2.4,13.2-.6,19.8,2.8,38.6,13.2,55.9,13.6,22.7,31.6,39.1,58.8,42.8,5.4.7,11,1.3,17.4-.3ZM522.1,460.2c0,2.2-.2,4.4,0,6.5,1.3,12.2,3.8,24,12.6,33.2,6.2,6.6,12.3,6.5,18.7.1,3.3-3.2,5.6-7.1,7.4-11.2,4.7-11.2,6.5-22.9,5.4-34.9-1-11.2-3.7-22.1-11.2-31-6.7-8-14.8-8-21.6-.1-1.9,2.2-3.5,4.6-4.8,7.2-4.7,9.5-7,19.6-6.5,30.3ZM493.8,777.5c-4-2.9-7.4-5.5-10.1-8.9-10.9-14.3-16.7-31.1-24.5-47-7.8-16.1-14.4-32.9-27.5-45.9-2-2-3.5-5.3-7-3.8-3.5,1.5-5.5,4.6-5.8,8.5-1.5,18.2,2,35.3,11.3,51.3,4.2,7.3,10.2,13,15.4,19.4,9.3,11.4,21.7,18.2,34.8,23.9,3.8,1.7,8.2,2.5,13.3,2.5ZM596.5,776.5c7.1.9,13.2-2,19.4-5,14.6-7.1,26-18.1,35.8-30.7,13.8-17.8,19.4-38.3,17.6-60.8-.3-3.2-2.2-5.7-5.3-6.8-2.3-.8-4.5-1.1-6.4,1.1-5.1,5.8-10.4,11.4-14.2,18.3-9.2,17.1-17.5,34.6-25.2,52.5-5.1,11.8-11.9,22.7-21.7,31.4ZM513.3,434.4c.2-4.5,0-9-1.1-13.4-1.8-6.8-5.5-9.6-12.5-9.3-7.6.3-12.3,4.8-15.3,11.2-7.1,15.2-9.6,31.3-8.6,47.9.6,9,2.5,17.9,7.6,25.6,2.6,4,6.5,8.2,10.9,7.9,4.2-.2,6-5.7,7.8-9.6,1-2.3,1.8-4.7,2.6-7.1,5.9-17.2,7.8-35.1,8.5-53.1ZM612.9,463.5c-.7-5.5-1.3-12.5-2.5-19.4-1.6-8.9-3.6-17.7-9.1-25.2-4.4-6.1-11.9-9.1-18-6.9-6.8,2.4-7.6,8.5-8.3,14.5,0,.4,0,.7,0,1.1-.4,21.1,2.2,41.7,8.9,61.7,1.4,4.1,3,8.1,5.6,11.6,2.5,3.4,4.8,4.6,8.8,1.5,4.1-3.2,7.4-6.8,9.3-11.6,3.3-8.3,4.7-17,5.3-27.3ZM468.6,837.3c-1.3,4.8,1.5,6.2,5.8,6.7,18,2.5,36.1,3.5,54.3,3,22.7-.6,45.4,1.1,68-1.1,6.3-.6,12.5-1.4,18.7-2.2,1.9-.3,4-.6,4.2-3.3.3-3.9.6-7.9.9-11.8.3-3.1-1-3.5-3.9-2.9-5.8,1.1-11.5,2.4-17.3,3.3-20.5,3.4-41.2,2.1-61.8,2.6-9.6.3-19.4-.5-29.1-.6-10.3,0-20.3-1.7-30.3-4-10.6-2.4-10.6-2.6-9.6,8.5,0,.5,0,1.1.1,1.8ZM658.5,461.3c.3-11.9-2.3-23.2-6.5-34.2-2.5-6.5-6-12.3-12.3-15.9-8.9-5-17-1.9-19.9,7.9-1.3,4.4-1.5,8.8-.8,13.4,1.5,10.9,4.2,21.5,7.3,32,2.6,8.6,5.2,17.2,13.3,23.2,7.9,5.9,12.1,5.4,15.7-4,2.8-7.2,3.3-14.7,3.2-22.3ZM430,460.8c0,3.2-.2,6.5,0,9.7.4,5.6,1.4,11.1,4.1,16.1,3.3,5.9,6.9,6.6,12.2,2.7,6.5-4.8,11.2-10.5,13.6-18.6,3.1-10.5,6-21,8.2-31.8,1.2-5.9,1.9-11.7.8-17.7-2.1-11.5-11.5-15.6-21.4-9.5-3.9,2.5-6.8,5.9-8.9,10-6.2,12.3-9,25.3-8.7,39ZM537,782.9c.5-2.3,1-4,1.1-5.8,1.7-23.4,1.3-46.8-2.2-70.1-1.6-10.3-4-20.6-11.8-28.4-7-7-15.3-5.1-18.4,4.4-2.2,6.7-1.6,13.6-.4,20.3,3,17.7,9.8,34.2,15.4,51.1,3.5,10.3,7.6,20.2,16.2,28.6ZM551.4,782.4c5.5-5,9.2-10.8,11.8-17.4,6.9-17.4,13-35.1,17.8-53.2,2.4-9,4.2-18.3,1.7-27.7-1.2-4.3-3.1-8.2-7.9-9.4-5-1.2-8.7,1.3-11.8,4.8-5.3,6-7.9,13.3-9.4,20.9-4.8,23.1-4.9,46.5-3.9,70,.2,3.8-.2,7.9,1.8,11.9ZM352.7,739.6c-4.8-8.9-9.8-17.5-13.9-26.8-4.2-9.5-6.3-19.4-8-29.5-2.3-13.8-7.4-27.2-6.1-41.6.6-6.1-1.1-12.2-3.7-17.8-1.8-3.9-4.2-7.8-9-7.4-4.2.3-7.9,2.6-10.2,6.7-3.3,5.9-4.3,12.3-3.4,18.8,4.8,34.3,18.8,64.3,43,89.3,3.2,3.3,6.7,6.5,11.2,8.3ZM516.9,777.6c-4.2-10-8.5-18.7-11.5-27.9-6.5-19.9-15.7-38.6-23.6-57.9-2.5-6-5.9-11.5-9.6-16.8-1.5-2.2-3.5-3.8-6.4-3.2-2.7.6-4.5,2.5-5,5.1-1,5.1-1.8,10.3-1.2,15.5,1.5,12.3,5.4,23.8,11.3,34.6,6.6,12.1,12.3,24.9,23.2,34,6.9,5.8,14,11.3,22.8,16.5ZM497.7,73.5c6.5,5,9.5,12.1,12.1,19.4,1,2.9,2.3,5.7,3.7,8.4,2.4,5,5.9,7.4,12,7.1,12.4-.5,24.9-.5,37.3,0,6.3.3,9.8-2.4,12.3-7.5,1.2-2.6,2.4-5.2,3.4-7.9,2.6-7.3,5.5-14.3,12-19.5-11.7,1.7-23.4,3-28.6,16.1-.9,2.4-2.7,4.1-5.5,3.1-3-1-3.5-3.6-2.7-6.2,3-10-2.3-17.3-7.7-24.6-1.4-1.9-2.6-1.4-3.7.2-5.3,7.3-10.7,14.6-7.5,24.6.9,2.8,0,5.2-2.9,6-2.7.8-4.4-.9-5.4-3.3-5.3-13-17-14.3-28.6-16ZM696.6,759.2c.8,0,1.4.3,1.8.1,9.5-5.2,19.2-10.2,26-18.9,16.5-21,25.2-45,26.4-71.7.2-5.2.2-10.5,0-15.7-.1-4-2.6-6.7-6.1-8.2-3-1.2-5.9,0-7.7,2.4-6.3,7.9-11,16.7-11.1,26.9,0,12.8-.3,25.4-3.3,38.1-4.4,18-12.9,33.3-26,47ZM388.5,455.1c-.3,5.3.3,11.7,4.5,17.2,2,2.6,4.1,4.6,7.6.7,11.5-12.7,16.8-28.3,21.6-44.1,2.3-7.6,3.6-15.5,1.1-23.4-2.1-6.9-6.5-8.2-12.3-4-2.8,2-5.1,4.5-7.2,7.2-10.4,13.3-14.8,28.6-15.4,46.5ZM699.7,455c-.5-10.8-2.1-21.5-6.6-31.5-3.8-8.4-8.6-16.3-16.1-22.1-5.7-4.4-9.9-3-12.3,3.8-1.1,3.1-1.3,6.4-1,9.6,2.3,21.4,9.6,40.8,23.5,57.5,3.2,3.9,5.1,3.8,8.1-.4,3.6-5.1,4.6-10.8,4.3-17ZM516.5,65.2c0,3.8.2,3.6,5.3,7.1,3.2,2.3,4.8,2.5,6.4-1.8,2.3-6.3,6.4-11.6,11.3-16.3,3.2-3.1,6.1-3.1,9.4,0,5.2,4.9,9.1,10.7,11.6,17.3,1.3,3.3,2.3,2.6,5,1.5,6-2.5,7.1-6.3,5.5-12.3-3.4-13.2-7.7-25.9-18.8-34.8-6.8-5.4-10.1-5.2-16.7.5-11.8,10.2-16.1,24.2-18.9,38.9ZM590.9,960.7c4.1-6.9,8.5-13.1,15.7-16.7,3-1.5,1.6-2.9-.3-4.1-4.4-2.7-6.2-6.7-6.4-11.7,0-2.9-.7-5.7-1.1-8.6-1.7-11.1-4.6-21.8-11.9-30.8-2.7-3.4-6.4-3.8-9.6-2.6-3.1,1.2-5.5,4-5.1,8.1.4,3.8.3,7.6.9,11.3,2.2,13.7,7,26.5,15.1,37.7,4.7,6.4,5.1,7.6-1.3,11.8,1.3,1.7,2.5,3.5,4.1,5.6ZM497.4,960.8c1.5-3.3,6.6-5.6,0-8.6-2.4-1.1-1.6-4.5.2-6.7,12.1-15,17.8-32.2,18.1-51.3,0-4.1-1.9-6.9-5.1-8-3.3-1.2-6.9-.6-9.6,2.8-7,8.8-9.8,19-11.7,29.8-1.4,7.9.3,17-8.7,22-2.2,1.2-.7,2.5.6,3.1,7.2,3.6,11.7,9.8,16,16.9ZM593.3,201.6c3.5,0,5.8-.6,7.2-3.5,1.4-2.8-.6-4.4-2-6.2-2.1-2.7-4.8-4.8-7.6-6.9-13.7-9.8-25.6-21.2-30.5-38.1-1.1-3.6-1.8-7.3-2.5-11-.3-1.2-.7-2-2-1.9-1.6.1-1.5,1.2-1.4,2.3,0,.9.1,1.8.3,2.7,4.4,17.8,7,36.1,19.9,50.7,5.4,6.1,11,10.7,18.5,11.7ZM493.2,201.8c2.1-.3,4.2-.5,6.3-1.2,11.5-3.9,17.4-13.9,22.3-23.3,6.2-12,9.5-25.5,11.5-39.1.2-1.3,2-3.4-.8-3.9-2.8-.5-2.3,2-2.7,3.6-.3,1.6-.6,3.2-.9,4.8-4.1,18.8-16.4,31.6-31.4,42.3-3.3,2.3-6.3,4.8-8.7,8-1.4,1.9-2.5,4.2-1.4,6.5,1.1,2.3,3.6,2,5.7,2.3ZM522.2,204.5c.4,1.5.6,3.9,1.5,6,1.6,4.1,4.9,5.2,8.1,2.2,5.7-5.4,9.4-11.9,8.5-20.1-2.2-18.7-1.9-37.3,2-55.8.2-1,.8-2.3-.6-2.7-1.9-.5-1.8,1.1-1.9,2.4-1.5,15.2-6.6,29.4-11.6,43.6-2.7,7.6-5.2,15.3-5.9,24.3ZM565.5,204.8c0-8.1-1.9-14.2-4-20.3-5.3-15.3-10.7-30.5-13.2-46.6-.2-1.3,1-4-1.7-3.5-1.5.3-.4,2.4-.2,3.8,3.1,16.7,3.9,33.6,2,50.5-.8,6.8-.2,12.9,3.5,18.6,2.2,3.4,4.4,8.1,9.2,6.8,4.8-1.4,4.3-6.4,4.4-9.1ZM471.7,196c3.6-.3,7.8-2.1,10.4-5.6,6.1-8,14-14,21.3-20.7,9.6-8.8,15.5-19.7,18-32.5.3-1.3,1.2-2.8-1.1-3.4-2.4-.7-2.8.8-3.1,2.5-3.7,16.6-15,27-29,35.2-5.7,3.4-11.7,6.3-17.1,10.3-2.3,1.7-4.5,3.6-5.7,6.4-1.9,4.6.3,7.9,6.2,7.8ZM616.3,196c5.5.1,8.2-4,6.1-8.4-1.1-2.3-3-4-5-5.5-5.8-4.4-12.3-7.4-18.5-11.2-13.2-8-23.9-18.1-27.7-33.8-.4-1.5.2-4.2-2.8-3.5-3.2.7-1.7,3.1-1.3,4.8,2.8,13.6,9.7,24.7,20.2,33.7,6.5,5.5,13,10.9,18.2,17.7,2.8,3.7,7,5.5,10.9,6.2ZM447.5,498.5c11.2,3.2,21.2,6,32.7,7.3-9.3-10.9-11.8-23.3-13.4-36.8-5.6,10.9-8.9,22-19.2,29.6ZM640.7,498.4c-10.7-7.4-13.6-19-19.6-29.6-.9,14.1-4.3,26.1-13,37.1,11.4-1.6,21.6-4.1,32.6-7.5ZM573.5,477.3c-3.1,12.5-7.2,24-18.5,32.8,11.9-.5,22.2-1,33.6-1.5-9.2-9.1-11.3-20.3-15.1-31.3ZM531.8,509c-9.7-7.6-13.8-18.7-17.1-31.5-3.9,11.5-6.1,22.4-15.4,31.5h32.5ZM427.1,491.1c-5.7-13.7-5.6-26.9-4.8-41.7-3.8,7.8-7,14.2-11.1,20-2.1,3-6.9,4.8-4.7,10.2.4,1,0,1.8,1.5,2.4,6.1,2.7,12,5.6,19.2,9.1ZM661,491.1c6.1-2.9,10.9-6.3,16.2-7.2,5.1-.9,2.6-6.4,6.2-7.5-1.3-1.3-2.6-2.7-3.9-4-5.7-6-8.8-13.7-13.4-22,.4,14.3.7,27.2-5.1,40.7ZM620.3,634.9c5.1,2.4,10.4,4.7,10.8,11,.4,6.1-4.7,8.3-9.2,10.7-1.2.6-2.9,1.3-2.4,3.1.4,1.6,2,1.8,3.5,2.1,7.7,1.4,17-4,19.6-11.3,1.9-5.2.7-7.6-4.5-9.4-1.9-.6-4.3-.9-5.2-2.6-3-5.7-8-4-12.6-3.7ZM467.9,635.3c-3.8-.4-8.2-2.4-10.7.7-2.3,2.9-4.8,4.6-8.2,5.4-3.2.7-4.2,2.7-4.1,5.9.3,8.9,13.3,17.6,21.6,14.2.9-.4,2.2-.8,2.3-2,.1-1.3-1-1.8-1.9-2.4-.9-.6-1.9-1.1-2.8-1.6-3.7-2.1-7.2-4.4-7.1-9.3.1-5,3.6-7.6,7.6-9.5,1.1-.5,2.2-1,3.3-1.4ZM471.6,170.4c-8.7,3-15.5,6.5-19.3,14.2-.9,1.9-1,3.8-.2,5.7.9,1.9,2.4,2.4,4.4,2.4,2.7,0,2.1-1.9,2.2-3.4.4-4.6,2.8-8.1,5.7-11.4,2-2.3,4.1-4.4,7.1-7.6ZM566.9,118.4c-4.8-1.5-9.8-1.8-14.7-1.8-4.6,0-.8,4.4-2.5,6.2-.7.8-1.1,2.1,1,2.7,6.2,1.8,12.9-.9,16.2-7.2ZM521.1,118.1c3.4,6.3,7,8.2,14.2,7.5,2.2-.2,3.3,0,3.3-3.4,0-5.8-2.1-6.5-6.8-5.5-3.4.7-7,.9-10.7,1.3ZM557.6,412.8c4.6,4.5,7.5,9.2,11,15.2-.4-6.6,1.8-11.1,3.3-16.1-4.7.3-9,.6-14.3.9ZM530.8,412.8c-5.6-.4-10.1-.7-15.3-1.1,3.1,5.1,3.5,10.1,4.7,15.5,2.7-5.5,5.8-9.9,10.6-14.4ZM619.8,406.8c-5.7.9-10.5,1.7-16.1,2.6,3.8,4.1,6.3,8.1,9.1,12.7.9-5.9,3.6-10.3,7-15.2ZM579.9,121c-2.5-.7-3.9-1.2-5.5-1.4-1.3-.2-3.2-1.7-3.7,1-.3,1.6-2.2,3.5-1,4.6,1.3,1.2,3.3.2,4.8-.9,1.4-1,3-1.9,5.3-3.3ZM508.6,121c3.6,2,5.7,5.7,10,4.3.1-8.4-4.8-6-10-4.3ZM506.2,856.3c-6.3,0-13.4-3.4-18.3,4.5,6.4-2,12-4.6,18.3-4.5ZM543.9,122.5c2-1.8,2.9-4,2.2-6.1-.3-.9-3.1-.9-3.8,0-1.8,2.3.5,4,1.6,6.1ZM587.5,714.7c0-.1,0-.3.1-.4,0,.1,0,.3,0,.4,0,.1,0,.3,0,.4,0-.1,0-.3,0-.4Z"/>
        <path class="cls-5" d="M720.7,471.1c13.3,19.9,28.6,38.6,40.6,59.4,11.4,19.6,19.4,40.3,18.5,63.5,0,1.4-.1,2.9-.2,4.3-.2,5.6-1.3,9.5-8.5,10.7-7.1,1.2-10.5,8.2-12.9,14.7-2.2,6-3.3,12.4-3.5,19.6-6.4-5.8-12.9-8-20.5-3.6-6.7,3.9-8.7,11.2-13.1,17.7-2.6-4.4-6.7-6.4-11.1-6.2-4.5.2-8.2,3.3-11.5,6.5-7.6,7.2-11.8,16.8-17.2,25.4-1.2,2-2.4,4-4.6,7.5,0-3.7,0-5.9,0-8.1,0-6.6-2.9-11.8-8-15.8-4.6-3.5-11.2-3.1-15.1,1.3-4.7,5.2-9.2,10.7-13.7,16-3.9-2-1.6-7.4-5.4-9.5h0c.2-.9-.3-1.6-1.1-2.1-1-1.5-1.9-3-3.1-4.8,11.1-3.6,18.6-10.2,19.4-22.7,9.1,2.9,17.6,6.5,26.8,7.7,5,.7,10.4,2.1,14.8-.9,5.5-3.8,8.9-9.9,14.4-14,2.5-1.9,1.4-5.7-.4-8.5-3.1-4.8-10.2-8.5-17.4-8.6,2.9,3.4,6.4,5.2,9.2,7.7,2,1.7,6,3.3,3.7,6.6-2.1,3-5.9,3.2-9.1.4-1.8-1.5-3.9-2.3-5.5.1-1.6,2.4.2,4,1.6,5.6,1.1,1.2,3.9,1.4,2.8,3.9-.9,2.1-3.3,2.2-5.2,2.2-2.5,0-5.2,0-7.5-.9-14.7-5.6-29.4-11.4-45.5-17.7,17.1-2.6,32.8-3.2,48.1-6.9,17.3-4.2,31.4-12.8,41.6-27.9,16.6-24.6,4.2-61.9-14.4-72.4-9.3-5.2-19-6.8-29.1-2.9-9.3,3.6-12.7,12.8-9,22.9,1.7,4.6,4.4,8.7,7.1,12.7,3.3,4.9,6.9,9.7,9.1,15.3,4.5,11.1.4,20.1-10.8,24.2-5.8,2.1-11.9,2.8-18.1,3-6.1.2-12.3,0-18.9,0,1.3-3.1,4.4-4.4,5.4-7.3.9-2.4,2.2-4.6,1.6-7.2-.4-1.8-.8-3.8-3.2-3.8-2.4,0-1.9,2-2.2,3.6-1.2,8.1-7.3,11.5-18.3,10.5-2.1-.2-5.4-2.8-6.1.3-.7,2.9,3.5,2.7,5.5,3.9.3.2.6.3,1.8.8-13.1,2.7-23.3,9.1-31.5,18.7-1-.7-.4-1.6-.2-2.4,2.8-10.2,3.6-20.5,3.3-31.1-.1-4.9-.2-9.7-.1-14.6,0-1.5-.4-3.5,2.6-2.1,6.1,2.9,9.4.7,9.8-6.1.7-11-7.7-20.7-19.6-22.8-6.8-1.2-13.7-.8-20.5-.4-8,.4-15-1.5-20.6-7.5-1.5-1.6-2.3-2.3-4.1-.2-5.7,6.4-13.2,8.2-21.6,7.6-6.5-.4-13-.7-19.4.3-10.6,1.7-18.6,9.7-19.9,19.9-.4,3.7-.1,7.4,3.2,9.8,3.3,2.4,5.9-.2,9.4-2.6,0,2.8,0,4.7,0,6.5,0,8.1-.3,16.2,0,24.3.6,14,4.1,27,14.5,37.3,5.9,5.9,12.8,9.8,20.2,13.2,4.6,2,8.3,5.2,14,5.6,7.7.5,13-3.7,19.2-6.5,12.8-5.8,22.6-14.6,28.4-27.6.3-.6.5-1.4,1.4-1,.2,1.8-1.4,4.4.7,5.4,2.2,1,4.7,0,6.4-1.9,10.6-11.3,24.3-13.9,39-14,11.7,0,23.5.2,35-2.4,13.2-2.9,21.6-10.9,23.3-22.5,1.2-7.9-1.7-14.9-5.7-21.5-3.4-5.5-7.4-10.6-10.8-16.2-2.6-4.4-6-9.4-2.5-14.5,3.7-5.4,9.8-5.7,15.7-4.9,9,1.3,16.2,5.8,20.5,14.1,16,30.8,6.9,56.5-22.4,70.8-13.2,6.4-27.6,7.9-41.9,9.9-18,2.5-36.2,4.5-52.6,13.2-13.7,7.3-25.6,16.8-34.9,29.3-1,1.3-2.4,2.6-2.2,4.8,2.7.6,3.3-2.8,5.9-2.6,0,2.8.2,5.7-2.6,7.4-7.9,4.9-11.5,12.6-14.5,20.9-.3.8-.7,1.6-1.1,2.4-2.2-.9-4.4-1.8-6.6-2.7,0,0,0,0,0,0,0-1.2,0-2.4-1.2-3.2,0,0,0,0,0,0,0-.9-.1-1.7-.9-2.2,0,0,0,0,0,0,0-1.8,0-3.6.2-5.4.1-1.5,1.7-3.6.2-4.5-1.7-1.1-3.6.5-5.2,1.7-2.2-2.4-4.3-4.9-7.2-6.5-3.6-2-2.8-5.8-4.6-9.8,2.7,2.1,4.5,3.5,6.7,5.2.6-4.2-2.1-6.4-4-8.6-14.5-16.5-31.8-28.5-53.5-33.9-17.2-4.3-34.9-5.2-52.2-8.7-15.3-3.1-29.5-8.2-40.3-20.4-15.6-17.7-14.9-47.7,2.1-64.1,6.8-6.6,15.6-8.9,25.1-6.1,6.1,1.8,8,6,6.1,12.1-1.6,5.3-4.9,9.6-8,14-3.8,5.3-7.5,10.6-9.7,16.8-5.1,14.2.5,27.4,14.4,33.4,7.9,3.4,16.4,4.1,24.9,4.5,9.6.4,19.1,0,28.7,1,9.3.9,17.4,4.3,24.4,10.4,1,.8,1.8,1.8,2.8,2.6,1.9,1.6,4.7,3.8,6.5,1.7,1.7-2,1.1-5.3-1.4-7.7-7.9-7.8-17-13.4-28-15.5.2-.4.2-.7.3-.8,2.2-1.2,6.7-1.2,6.1-4.1-.7-3.2-4.3-.2-6.6-.4-3.7-.3-7.6.5-11.2-1.3-4-2-6.5-5-6.5-9.7,0-1.5-.2-3.1-2.2-3.1-2,0-2.9,1.4-3.1,3.1-.8,6.2,2.5,10.6,8,15.1-13.5,0-25.8,1.2-37.8-2.9-11.8-4-15.9-13.6-10.8-25,2.3-5.3,5.8-10,9-14.8,2.5-3.7,5-7.5,6.7-11.7,5.2-13.2-2.1-24.7-16.3-25.6-16-1-28,5.9-35.6,19.9-18.8,34.8-3.1,71.8,34.8,83.3,17.2,5.3,35.1,5.8,54.3,8.8-13.5,5.3-25.7,10-37.8,15-4.5,1.8-9.1,3.5-14,3.7-2.1,0-4.6.2-5.9-1.9-1.6-2.8,1.6-3,2.8-4.3,1.6-1.8,2.8-3.7,1.2-5.8-1.7-2.3-3.8-1.2-5.6.4-1.1,1-2.4,1.6-3.9,1.5-2-.1-4.2-.5-5.2-2.3-1.2-2.2.7-3.7,2.1-5,3.3-3.1,7.8-4.9,11.2-9.5-8.2.6-14,3.7-17.9,9.7-2.9,4.5-1,9.6,4.3,12,2.4,1.1,3.9,2.2,4.9,4.9,1.7,4.5,5.7,6.3,10.4,6.4,9.2.4,17.8-2,26.4-4.9,3.2-1.1,6.4-2.2,9.9-3.4.8,12.5,8.2,19.1,19.7,22.8-5.7,5.1-3.6,13.4-8.7,19.3-4-7.9-10-13.3-15.3-19.4-3.4-3.9-10-4.1-14.3-1.1-7.2,5-8.8,12.3-8.4,20.4-1.9-1.2-2.9-2.9-3.8-4.9-1.4-3.1-2.8-6.4-5.8-8.5h0c.1-1-.7-1.7-1.3-2.4-4.3-5-7.7-10.9-12.9-15.2-7.7-6.4-14-6.1-20.9,1.3-1.5-2.7-2.9-5.3-4.4-7.9-7.5-13.1-15.3-15.1-28.5-6.9-2.7-13.9-2.8-29.4-20-34.9-.7-4.4-3.8-7.7-5.1-11.8-.5-2.5-.6-5.1,0-7.6,2.8-5.6,3-11.6,2.1-17.7,1.5-10.5,5.7-20,10.3-29.4,7.9-16.2,18.5-30.8,29-45.4,5.8-8,11.4-16.1,17.1-24.2,2.6-.6,5.2-1.2,7.7-1.8,3.4,2.4,5.7,6.8,10.7,6.6,4.3,6.3,11.9,7,17.8,10.6,16.9,10.6,34.9,18.7,54.3,23.6,8.6,2.2,17.2,3.9,26.7,5.4-2.9,4.1-6.7,6.2-10.6,8.1-6.3,3-12.9,5.6-19.2,8.6-7.6,3.6-14.4,8.4-18.3,16.2-3.5,6.9-3.8,13.9.3,20.6,3.6,5.7,10.8,8.3,15.9,5.9,2.5-1.2,4.4-3,3.3-5.9-1-2.7-3.6-2.6-6-2.1-6.3,1.4-9.1-.8-9.3-7.3-.2-6.3,3-11,7.5-15,5.4-4.9,12-8,18.5-11.1,8.3-4,16.7-7.9,22.1-15.8,1-1.4,2.3-1.4,3.8-1.3,25.9,1.8,51.9,2.5,77.9,1.3.7,0,1.4.2,2.1.3,5.7,1.7,12.5-2.3,17.6,3.2.1.2,1.5-.7,2.1-1.2,1.4-1.1,2.7-2.2,4.1-3.4,1.1-.3,2.1-.6,2.9.6,5.7,8.5,14.7,12.5,23.4,16.8,6.3,3.1,12.7,6.1,17.9,11,4.5,4.2,7.8,9,7.3,15.6-.5,5.8-3.4,7.8-9.1,6.5-2.5-.6-5.3-.9-6.2,2.3-.8,3,1.1,4.7,3.6,5.8,7.6,3.2,17.1-3.8,18.3-13.4,1-8.6-2.4-15.5-8.4-21.3-6.1-5.9-13.8-9-21.4-12.3-7.2-3.2-14.8-5.8-20.9-12.3,11.2-2,21.8-4.1,32.3-7,15.4-4.3,29.7-10.8,43.5-18.8,4.8-2.8,9.5-5.7,14.9-7.5,6.7-2.3,9.7-9.5,15.6-13.1,3.7-.3,7.4-.1,11,1.3ZM377.7,558.5c2.4-.9,2.1-3.4,2.7-5.3.5-1.6,3.2-3.6.8-4.8-1.9-1-2.9,1.9-4.1,3.4-1,1.3-1.6,2.7-1.4,4.4.1,1.2.7,1.9,2,2.2ZM707.5,548.1c-.3,0-.9,0-.9.3-1.2,2.9,1.8,4.8,1.8,7.4,0,1.3.6,2.5,2.1,2.6.5,0,1.3-.6,1.6-1.1,1.3-1.8-2.4-9-4.6-9.2Z"/>
        <path class="cls-1" d="M681.4,377.1c-.6-1.9-1.6-1.4-2.8-.5-27.4,21.7-60.2,24.7-93.1,27.3-23.3,1.9-46.5,1.1-69.8.8-22.7-.3-45.3-2.7-67.2-9-13.4-3.8-26.6-8.4-37.4-17.9-1-.9-2.1-3.8-4.2-1-.7,0-1.4,0-2.1,0,2-30.5-3.7-59-22.5-84.3,28.7,13.4,59.5,18.2,90.2,22.8,9.3,4.9,19.4,4.1,29.4,3.9,18.5,1.8,37.1,1.1,55.7,1.4,17.2.2,34.1-2.4,51.1-4.5,21.6-2.7,43.1-5.9,64.1-11.8,10.9-3,21.5-7.1,31.9-11.5.2.3.4.6.7.8-8.9,13-15.7,26.8-19.2,42.2-3,13.6-3.1,27.4-2.7,41.2-.6,0-1.3,0-1.9.1Z"/>
        <path class="cls-5" d="M511.6,200c1.3-1.7,2.6-3.4,4-5.2,1.8,1.5.8,3.2.8,4.6.1,3.1-.2,6.2.2,9.2.8,5,2.8,9.4,8,11.3,5.3,1.9,9.5-.5,13.1-4.2,2.3-2.4,4.3-5.2,6.5-8,2.7,3.8,4.9,7.8,8.8,10.4,6.8,4.6,14.2,2.4,17.2-5.1,2.5-6.1,1.9-12.4,1.1-19,3,4.7,6.7,8.2,11.9,10.3,4.9,2,9.6,4.1,15.1,3.1,4-.7,7.1-2.6,8.4-6.6.6-2,1.1-2.9,3.7-1.8,5.6,2.7,11.4,3.5,16.6-1.3,1.1-1.1,2.4-.7,3.6-.4,2,.5,4.6.6,5.7-.6,4-4.3,7.9-1.9,12-.6,16.7,5.3,32.3,12.6,44.7,25.3,4.6,4.7,8.6,9.8,10.3,16.7,2.3,8.9-1.2,14.8-7.8,19.6-12.5,9.2-27.2,12.9-42,16.2-30.2,6.6-60.9,8.6-91.7,10.1-32.4,1.5-64.5-1-96.5-4.7-19.3-2.3-38.5-5.6-56.7-12.9-9.6-3.9-19.4-8-23.9-18.6,1-5.5,2.1-10.9,3.1-16.4-.1-.3,0-.6.1-.9.3-.3.6-.6.9-1,0,0,0,0,0,0,.3-.4.7-.8,1-1.1,5.6-9,14.1-14.7,22.7-20.3,10.1-6.4,21.6-9.4,32.4-14.1.7-.3,2.1-.6,2.4-.3,4.4,5.4,11.4,3.5,16.7,6.2,4.5,2.2,9.1,1.2,13.6-.6.9-.4,2.5-2.7,3.2,0,2,7.2,7.6,8.4,13.9,8.5,6.6,3,11.7.8,15.3-6.5,0,0,0,0,0,0,.5-.5,1-.9,1.6-1.4Z"/>
        <path class="cls-4" d="M292.3,517.7c6.4-11.7,7.7-24.3,6.4-37.3-.3-3.7.9-7.6-.4-11.2-4.4-12-9-24-13.5-36-5.4-18.5-7.8-37.6-9.1-56.8-.9-12.6.5-24.8,5.1-36.6,7.1-18.4,20.2-31.5,37.3-41,8.1-.1,14.8-5.3,22.7-6,.9,0,1.7-1.7,2.6-2.6,12.8-1.5,22.5,5.2,32.6,11.7,16.4,10.6,18.3,27.8,21.3,44.4,2.1,11.5,1.3,23.2-.6,34.8-5.6,1.1-7.7-.6-7.9-6.3,0-1.4,0-2.8,0-4.2,2.9-4,2-8.2.4-12.2-5.6-14.1-16.8-21.5-31.1-23.9-32.6-5.4-55.3,14.2-57,48.7-.9,18.4,1.7,36.3,7.9,53.7,5,13.9,9.9,27.8,11.8,42.6,1.5,11.7.2,23.1-3.7,34.1-5.2,14.8-12.7,28.3-24.3,39.2-13.2,12.4-28.9,15.6-42,8.6-15.1-8-24.2-25.8-21.9-42.6,1.1-7.8,3.3-15.2,9.4-20.7,10.8-9.8,26.1-5.8,29.8,7.5,1.8,6.4-3.6,12.5-10.8,12.9-2,.1-3.4-1.6-4.2-3.7-.8-2.2-1.4-5.8-4.8-4.2-3.4,1.6-2,4.9-.8,7.6,6.1,12.8,21.1,17.8,34,11.4,1.4.5,2.9,2.1,4.1,0,1.7-2.8,4.7-5,4.4-8.7,0,0,0,0,0,0,1.5-.6,2.1-1.8,2.2-3.3Z"/>
        <path class="cls-4" d="M783.1,425.5c1.9-9.5,3.6-19,4.1-28.7.6-11.9-.7-23.6-4.1-35.1.2-4.5-2.3-8.2-3.6-12.3-1.3-4.1-3.3-7.2-8.4-4.9-10-7.3-21.1-11.3-33.5-11.1-4.4-3.9-9-3.1-11.8,2-12.9,4.5-23.5,11.5-27.6,25.7-1,3.3-1.1,6.5,1.2,10.4,3.5-7.8,4.8-16,11.9-20.7.8,3-1.3,5.1-2.3,7.5-.9,2.3-2.7,4-2.9,6.8-.7,12.6-2.7,14.4-15,13.9-2.9-20.7-.7-40.8,7-60.5,2.5-6.4,6.2-11.1,12.2-14.2,1-.1,2.2,0,1.8-1.7,0,0,.1-.2.1-.1,2,1.4,3.7,0,5.5-.7,3.6-1.5,7.1-3.2,11-4.1,10.9-2.4,21.8-3.3,32.9-3.2,0,0-.2,0-.2,0,.6,1.4,2,1,3.1,1.3,27.7,13.9,46.1,34.9,47.7,66.9,1.7,32.6-5.4,64.1-15.7,95-3.1,9.4-6.8,18.7-7.4,28.7-.9,15.1,3,28.6,13.6,39.7,7.4,7.7,20,11.4,30.7-.3,2.5-2.7,6.1-4.5,7.4-8.2,1-2.6,2.1-5.7-1.3-6.9-3-1.1-3.6,1.8-4.5,4-1.1,2.7-2.6,5.5-6.4,3.1.5-6.5-2.7-11.5-6.6-16.3,4.2-7.5,11.5-10.4,19.6-7.9,5,1.6,8.9,4.7,11.8,9,15.4,22.5.6,57.7-26.3,62.1-12.5,2-23.3-2.9-31.7-11.7-24.3-25.2-34.8-54.6-25-89.5,1.1-3.9,1.8-8.1,3.8-11.7,4.8-2.7,6.7-7.2,7.4-12.3.6-4.6.9-9.2,1.3-13.8Z"/>
        <path class="cls-3" d="M388.6,370.7c0,1.4,0,2.8,0,4.2.2,5.8,2.3,7.4,7.9,6.3-3.7,24.6-13.9,46.7-26.4,68-11.7,19.9-26,38.1-39.5,56.8-.3.4-.8.6-1.8,1.2,2.8-14.5,2.2-28.4-1.1-42.2-2.8-11.9-7.4-23.3-11.2-35-6.7-20.4-9.1-41.2-3.5-62.2,4.3-16.2,16.3-24.4,32.1-26.4,15.3-1.9,28.7,2.4,37.5,16.1,2.5,4,4,8.7,5.9,13.1Z"/>
        <path class="cls-1" d="M391.1,981.7c11.8,6,24.2,6.4,36.2,8.2,48.7,7.4,97.8,6.7,146.8,6.4,38.1-.3,75.9-3.6,113.4-10.6,3-.6,5.6-2.3,8.9-3.5-.5,11.1.4,21.6,1.1,32.1.3,4.4-1.6,5.1-5.4,4.7-29.8-2.8-59.4.4-89.1,3.1-34.7,3.1-69.6,3.6-104.3,1.1-27.3-1.9-54.5-5.7-82-5.2-7.2.1-14.4.5-21.6,1.1-3.3.3-4.5-.6-4.3-4.1.6-8.3.8-16.6,1.2-24.8.1-2.7,0-5.4-1-8.5Z"/>
        <path class="cls-3" d="M691.2,378.9c12.2.5,14.3-1.3,15-13.9.2-2.8,2-4.5,2.9-6.8,1-2.4,3.2-4.5,2.3-7.5,0,0,0,0,0,0,.8,0,1.1-.5,1.3-1.2,12.1-9.7,25.6-10.6,39.7-5.8,14.4,5,21.9,15.8,24.2,30.5,3.1,20,.8,39.4-5.9,58.5-5.6,15.9-11.6,31.8-13,48.9-.6,8,0,15.8,1.2,23.6-.3.3-.7.5-1,.8-13.6-17.1-26.2-35-37.8-53.5-11.7-18.7-21.1-38.4-26.3-59.9-1.1-4.5-1.7-9.1-2.6-13.7Z"/>
        <path class="cls-2" d="M733.5,264.3c-25.6,24.4-58.1,32.9-91.5,38.7-24.9,4.3-49.9,7.9-75.1,9.1-12.6.6-25.2.2-37.8-.2-41.7-1.3-82.8-7-123.1-18.3-18.8-5.3-34.8-15.5-49.9-27.3-1.2-.9-2.2-1.3-.9-3.3,5.1-7.9,12.9-11.4,22.2-9.7,1.5.3,2.6.6,3.5,2,6.4,9.6,15.9,14.9,26.4,18.8,19.7,7.3,40.4,10.5,61.1,12.8,21.2,2.3,42.4,3.4,63.7,3.4,32.6,0,65.2,0,97.6-4.5,19.2-2.7,38.4-5.9,56.4-13.9,8.4-3.7,15.9-8.6,21-16.4,1.4-2.1,3.2-2.1,5.1-2.4,10.2-1.6,16.7,3.5,21.3,11.3Z"/>
        <path class="cls-5" d="M445.5,948.4c-1.3,3.3-3.2,4.8-4.8,6.5-2.2,2.3-3.9,4.8-1.5,7.5,2.3,2.6,5.6,2.4,8.4.5,6.1-4.1,12.4-8,18-12.9,3.1-2.8,6.3-4.9,10.3-.3,3.1,3.6,8,5.1,10.7,9.7,2.3,4,4.4,7.7,4,12.5-.2,2.7.7,5.3,3.7,5.8,2.8.5,4.1-1.6,5-3.9,2.9-7.2,6.7-13.6,12.1-19.5,7.3-7.9,11-8.1,23.1-3.3,4.7,1.9,6.7,5.5,6.9,10.5,0,1.4-.9,3.7,2.5,3.5,2.7-.1,3-1.4,2.9-3.3-.5-7.6,4.7-10,10.6-12.2,6.8-2.5,12.5-2.5,18.1,3.5,5.8,6.2,10.3,12.8,13.3,20.7.9,2.4,2,4.5,4.9,4.1,2.9-.4,3.8-2.9,3.8-5.2-.3-12.1,7.8-18.3,16.6-24,4.2-2.7,7.3.9,9.9,2.8,5.1,3.7,10.4,7.2,15.5,10.8,1.7,1.2,3.4,1.9,5.5,1.9,2,0,3.6-.6,4.5-2.4,1-2,.5-3.8-.9-5.5-2-2.5-4.8-4.3-6.6-8.9,16.1,12.6,34.4,17.9,51.7,25.3-.2.5-.3.9-.5,1.4-9.5,1.3-19,2.5-28.4,4-25.9,4.2-52.2,3.4-78.3,5.4-16.9,1.2-33.9,2-50.9,1.3-34.8-1.4-69.7-2.2-104.4-5.7-10.6-1-21.1-2.9-31.6-4.4-1.2-.2-2.8,0-2.9-1.5,0-1.2,1-2.1,2.4-2.6,3-1.1,5.9-2.9,9-3.7,13.4-3.4,24.7-11.2,37.4-18.5Z"/>
        <path class="cls-5" d="M627.7,942.6c-1.7-.8-2.3-1.2-3-1.4-12.8-4.2-17.6-13.2-18.4-26.4-.8-12.3-5.5-23.8-14.1-33.2-5.5-6-16.3-6.3-22.2-.9-4.5,4.1-6.3,8.5-6.2,14.7.2,13.5,4.1,25.9,9.6,37.9,1,2.1,1.9,4.2,3.2,6.9-7.8.3-15.1-1.2-22.1,2-3.9,1.7-6.9,6.1-10.4,6-3.6-.1-6.6-4.3-10.5-6-7-3.1-14.2-1.8-21.9-1.9,2-4.4,3.8-8.5,5.6-12.5,5-11.4,7.6-23.2,7.1-35.7-.3-8.2-8.2-14.8-16.3-15-10.3-.2-14.5,6.6-18.6,13.9-5.9,10.6-8.2,22.3-9.2,34.2-.4,4.9-2.6,8.1-6.4,10.5-4.1,2.5-8.3,4.6-12.5,6.9,4.6-18,9.8-35.5,13.5-53.3,2.1-9.9,8-15.4,16.2-19.3,8.9-4.2,18.6-4.1,28.1-3.8,3.6.1,7,2.2,9.3,5,6.5,7.8,10.7,16.6,10.8,27,0,8.7,0,17.3,0,26,0,.9,0,1.8,0,2.7.1,3.4.3,7.1,4.7,7.1,4.5,0,4.5-4.1,4.5-7.3.2-8.8.4-17.7.2-26.5-.3-9.8,3-18.3,8.5-26.2,3.9-5.6,9.1-8.3,16.1-8,10.1.4,20.1.9,29,6.9,5.6,3.8,9.4,8.4,10.6,15.4,2.7,15.4,8.8,30,11.1,45.5.4,2.7,2.1,5.3,3.6,8.9Z"/>
        <path class="cls-1" d="M535.6,821.3c-17.6-.7-35.3.6-52.9-2.5-14.8-2.6-23.5-11.8-24.5-26.5-.2-2.2.3-2.6,2.6-2.5,40.1,1.6,80.2,6,120.4,4,15.2-.7,30.3-2.5,45.5-4,2.5-.2,3.7,0,3.6,2.9-.2,3.4.3,6.9,0,10.3-.6,5.2-2.6,8.9-8.4,11-10.5,3.8-21.1,5.7-32.2,5.8-18,0-36.1,0-54.1,0,0,.5,0,.9,0,1.4Z"/>
        <path class="cls-2" d="M458.5,776.2c-6.5,1.6-12,1-17.4.3-27.2-3.7-45.3-20.1-58.8-42.8-10.3-17.3-13.8-36-13.2-55.9.1-4.6,1-8.9,2.4-13.2,2.4-7.3,6.1-8.2,11.8-3,1.7,1.6,3.3,3.3,4.7,5.2,9.2,12.1,15.4,25.7,20.5,40.1,8.8,24.5,21.3,46.8,42.1,63.6,2.2,1.8,4.6,3.4,7.9,5.8Z"/>
        <path class="cls-2" d="M714.7,660.6c3.2,4.2,4,9.4,4.3,14.3,2.2,39.7-12.8,71.2-46.2,93.2-10.3,6.8-22.5,8.1-34.6,8.6-1-1.6-1.9-3.2-1.7-5.1,19.5-15.7,31.8-36.6,41.2-59.2,4.9-11.7,8.2-24.1,15.2-35,3.6-5.6,7-11.3,12.1-15.7,3.2,0,6.3-1.7,9.6-1Z"/>
        <path class="cls-2" d="M522.1,460.2c-.5-10.7,1.8-20.8,6.5-30.3,1.3-2.6,2.9-5,4.8-7.2,6.8-7.9,14.9-7.8,21.6.1,7.5,8.9,10.2,19.8,11.2,31,1.1,12-.7,23.8-5.4,34.9-1.7,4.2-4.1,8-7.4,11.2-6.4,6.4-12.5,6.5-18.7-.1-8.8-9.3-11.3-21.1-12.6-33.2-.2-2.1,0-4.3,0-6.5Z"/>
        <path class="cls-2" d="M493.8,777.5c-5.2,0-9.5-.8-13.3-2.5-13.1-5.7-25.5-12.5-34.8-23.9-5.2-6.4-11.2-12.2-15.4-19.4-9.3-16-12.8-33.1-11.3-51.3.3-3.9,2.3-7,5.8-8.5,3.4-1.5,5,1.8,7,3.8,13.1,13,19.7,29.8,27.5,45.9,7.8,15.9,13.6,32.8,24.5,47,2.6,3.5,6.1,6,10.1,8.9Z"/>
        <path class="cls-2" d="M596.5,776.5c9.8-8.7,16.6-19.7,21.7-31.4,7.7-17.8,16-35.4,25.2-52.5,3.7-6.9,9.1-12.5,14.2-18.3,1.9-2.2,4.1-1.9,6.4-1.1,3.1,1.1,5.1,3.6,5.3,6.8,1.7,22.4-3.8,43-17.6,60.8-9.8,12.6-21.1,23.6-35.8,30.7-6.2,3-12.3,5.9-19.4,5Z"/>
        <path class="cls-2" d="M513.3,434.4c-.8,18-2.7,35.9-8.5,53.1-.8,2.4-1.6,4.8-2.6,7.1-1.8,4-3.6,9.4-7.8,9.6-4.4.2-8.3-4-10.9-7.9-5.1-7.7-7.1-16.7-7.6-25.6-1.1-16.6,1.4-32.7,8.6-47.9,3-6.4,7.8-10.8,15.3-11.2,7-.3,10.7,2.5,12.5,9.3,1.1,4.4,1.3,8.9,1.1,13.4Z"/>
        <path class="cls-2" d="M612.9,463.5c-.7,10.4-2.1,19-5.3,27.3-1.9,4.8-5.2,8.4-9.3,11.6-3.9,3.1-6.3,1.9-8.8-1.5-2.6-3.5-4.2-7.5-5.6-11.6-6.7-20-9.3-40.7-8.9-61.7,0-.4,0-.7,0-1.1.7-6,1.5-12.1,8.3-14.5,6.1-2.1,13.6.8,18,6.9,5.4,7.5,7.5,16.3,9.1,25.2,1.2,6.9,1.8,13.9,2.5,19.4Z"/>
        <path class="cls-1" d="M468.6,837.3c0-.7,0-1.2-.1-1.8-1-11.1-1-10.9,9.6-8.5,9.9,2.3,20,3.9,30.3,4,9.7,0,19.5.9,29.1.6,20.6-.6,41.3.7,61.8-2.6,5.8-1,11.6-2.3,17.3-3.3,2.8-.5,4.2-.2,3.9,2.9-.4,3.9-.7,7.9-.9,11.8-.2,2.7-2.3,3.1-4.2,3.3-6.2.8-12.5,1.7-18.7,2.2-22.7,2.1-45.4.5-68,1.1-18.2.4-36.3-.5-54.3-3-4.2-.6-7-1.9-5.8-6.7Z"/>
        <path class="cls-2" d="M658.5,461.3c0,7.6-.5,15.1-3.2,22.3-3.6,9.4-7.8,9.9-15.7,4-8.1-6-10.7-14.5-13.3-23.2-3.2-10.5-5.8-21.1-7.3-32-.6-4.5-.5-9,.8-13.4,3-9.7,11-12.9,19.9-7.9,6.3,3.6,9.8,9.4,12.3,15.9,4.2,11,6.8,22.3,6.5,34.2Z"/>
        <path class="cls-2" d="M430,460.8c-.3-13.7,2.5-26.8,8.7-39,2.1-4.1,4.9-7.5,8.9-10,9.9-6.2,19.3-2,21.4,9.5,1.1,5.9.4,11.8-.8,17.7-2.1,10.8-5.1,21.3-8.2,31.8-2.3,8-7.1,13.8-13.6,18.6-5.3,3.9-8.9,3.2-12.2-2.7-2.7-5-3.7-10.5-4.1-16.1-.3-3.2,0-6.5,0-9.7Z"/>
        <path class="cls-2" d="M537,782.9c-8.6-8.4-12.8-18.3-16.2-28.6-5.7-16.9-12.4-33.4-15.4-51.1-1.2-6.8-1.8-13.6.4-20.3,3.1-9.4,11.4-11.4,18.4-4.4,7.8,7.9,10.2,18.1,11.8,28.4,3.5,23.2,3.9,46.6,2.2,70.1-.1,1.8-.7,3.5-1.1,5.8Z"/>
        <path class="cls-2" d="M551.4,782.4c-2-4-1.6-8.1-1.8-11.9-1-23.4-.9-46.9,3.9-70,1.6-7.6,4.1-14.9,9.4-20.9,3.2-3.6,6.9-6,11.8-4.8,4.8,1.1,6.8,5,7.9,9.4,2.5,9.4.7,18.7-1.7,27.7-4.8,18.1-10.9,35.8-17.8,53.2-2.6,6.6-6.4,12.4-11.8,17.4Z"/>
        <path class="cls-2" d="M735.7,738.2c7-10.1,12.2-21.2,16.4-32.7,4.4-12,4.2-25.3,8.4-37.2,4.4-12.4.2-25,4.1-37.1.9-2.7,1.6-5.6,2.8-8.1,4.2-8.6,11.3-9.4,17.9-.9,5.2,6.7,5.3,15.1,3.9,22.9-5.9,32.8-19.1,62.2-42.8,86.2-2.9,2.9-6,5.8-9.6,7.8-.4-.3-.8-.6-1.2-.9Z"/>
        <path class="cls-2" d="M352.7,739.6c-4.5-1.9-8-5-11.2-8.3-24.2-25-38.2-55-43-89.3-.9-6.5.1-12.9,3.4-18.8,2.3-4.1,5.9-6.3,10.2-6.7,4.8-.4,7.2,3.6,9,7.4,2.6,5.6,4.3,11.7,3.7,17.8-1.4,14.5,3.7,27.8,6.1,41.6,1.7,10.1,3.8,20,8,29.5,4.1,9.2,9.1,17.8,13.9,26.8Z"/>
        <path class="cls-2" d="M516.9,777.6c-8.8-5.1-15.9-10.7-22.8-16.5-11-9.2-16.6-21.9-23.2-34-5.9-10.8-9.8-22.4-11.3-34.6-.7-5.3.2-10.4,1.2-15.5.5-2.7,2.4-4.5,5-5.1,2.9-.7,4.8,1,6.4,3.2,3.7,5.3,7.2,10.8,9.6,16.8,7.9,19.3,17.1,38,23.6,57.9,3,9.2,7.3,17.9,11.5,27.9Z"/>
        <path class="cls-2" d="M572.7,775.3c10-25,18.6-50.6,30.1-75,3.7-7.8,6.9-15.8,11.7-23.1,1.8-2.9,3.7-6.3,7.9-5.3,4.4,1,5.4,4.8,5.8,8.8,1.8,15.8-3.1,30.1-9.6,44.2-10,21.6-23.6,39.9-45.1,51.3-.2-.3-.5-.6-.7-.8Z"/>
        <path class="cls-2" d="M497.7,73.5c11.7,1.7,23.4,3,28.6,16,1,2.4,2.6,4.1,5.4,3.3,2.9-.9,3.8-3.3,2.9-6-3.3-10,2.2-17.3,7.5-24.6,1.2-1.6,2.3-2.2,3.7-.2,5.4,7.3,10.8,14.6,7.7,24.6-.8,2.6-.3,5.2,2.7,6.2,2.8.9,4.5-.8,5.5-3.1,5.2-13.1,16.9-14.4,28.6-16.1-6.4,5.1-9.4,12.2-12,19.5-1,2.7-2.2,5.3-3.4,7.9-2.5,5.1-5.9,7.8-12.3,7.5-12.4-.5-24.9-.5-37.3,0-6,.3-9.5-2.2-12-7.1-1.3-2.7-2.6-5.5-3.7-8.4-2.6-7.3-5.5-14.4-12.1-19.4Z"/>
        <path class="cls-2" d="M388.5,758.5c-21.5-9.6-33.2-27.4-42.1-48.2-7.5-17.5-8.9-35.7-9.3-54.3,0-2.2.1-4.3,1.2-6.3,3.3-6.1,9-7.1,13.5-1.9,4.2,5,6.8,11,9,17.1,2,5.6,2.1,11.3,1.6,17-1.4,14.6,2.5,28.3,6.8,41.8,4.1,12.8,11.7,23.8,20.5,33.9-.4.3-.7.6-1.1,1Z"/>
        <path class="cls-2" d="M696.6,759.2c13.1-13.6,21.6-29,26-47,3.1-12.6,3.3-25.2,3.3-38.1,0-10.2,4.8-19,11.1-26.9,1.9-2.4,4.7-3.7,7.7-2.4,3.5,1.4,6,4.1,6.1,8.2.2,5.2.2,10.5,0,15.7-1.2,26.7-9.9,50.7-26.4,71.7-6.8,8.7-16.5,13.7-26,18.9-.4.2-1,0-1.8-.1Z"/>
        <path class="cls-2" d="M388.5,455.1c.6-17.9,5-33.2,15.4-46.5,2.1-2.7,4.4-5.2,7.2-7.2,5.8-4.2,10.1-2.9,12.3,4,2.5,7.9,1.2,15.8-1.1,23.4-4.9,15.8-10.1,31.5-21.6,44.1-3.5,3.9-5.6,2-7.6-.7-4.2-5.4-4.8-11.9-4.5-17.2Z"/>
        <path class="cls-2" d="M699.7,455c.3,6.1-.8,11.9-4.3,17-3,4.2-4.8,4.3-8.1.4-14-16.6-21.3-36.1-23.5-57.5-.3-3.2-.1-6.5,1-9.6,2.5-6.9,6.6-8.3,12.3-3.8,7.5,5.8,12.3,13.6,16.1,22.1,4.5,10,6.1,20.7,6.6,31.5Z"/>
        <path class="cls-1" d="M516.5,65.2c2.8-14.6,7.1-28.6,18.9-38.9,6.6-5.7,10-5.8,16.7-.5,11.1,8.9,15.4,21.6,18.8,34.8,1.6,6,.4,9.8-5.5,12.3-2.6,1.1-3.7,1.9-5-1.5-2.5-6.6-6.4-12.4-11.6-17.3-3.3-3.1-6.2-3-9.4,0-4.9,4.7-9,10-11.3,16.3-1.6,4.3-3.1,4-6.4,1.8-5.1-3.5-5.2-3.3-5.3-7.1Z"/>
        <path class="cls-5" d="M494.3,702c-4.4-9-8.1-18.4-13.7-26.9-1.3-1.9-2.5-4.1-4.1-5.6-2.5-2.5-4-4.3-1.7-8.2,2.1-3.6-.9-6.7-4-9-.6-.4-1.3-.7-1.8-1.2-2.1-1.7-6.8-1.4-6-4.9.8-3.5,5-4.5,8.4-4.9,17.6-2.3,30.4,5.9,41.1,18.7.7.8,1.3,1.7,1.8,2.7.7,1.2,1.4,2.5,2.4,4.2-7.1,1-12.7,3.9-16,10.3-3,6-3.3,12.4-3,19,0,2,.1,4,.2,5.9-1.2,0-2.5,0-3.7,0Z"/>
        <path class="cls-5" d="M584.7,672.9c-3.7-3.3-8-5.3-13-5.8,6.9-16.5,27.6-28.6,44.2-26,1.6.3,3.2.7,4.7,1.2,2,.8,4.3,1.6,4.6,4.1.2,2.6-2.4,2.8-4,3.6-7.8,4-8.1,4.8-6.1,14.5.2.8,0,1.3-.6,1.8-9.4,9.2-13.6,21.5-19.5,32.7-1.5-.4-3-.8-4.5-1.1,0-6.9,0-13.9-2.8-20.4.6-3.2,2.6-6.1,2.4-10.1-2.4,1.7-4.2,3.3-5.4,5.4Z"/>
        <path class="cls-5" d="M590.9,960.7c-1.5-2.1-2.8-3.9-4.1-5.6,6.4-4.2,6-5.4,1.3-11.8-8.1-11.2-12.9-24-15.1-37.7-.6-3.7-.5-7.5-.9-11.3-.4-4.1,2-6.9,5.1-8.1,3.2-1.2,6.9-.8,9.6,2.6,7.3,9,10.2,19.7,11.9,30.8.4,2.8,1,5.7,1.1,8.6.2,5.1,2,9.1,6.4,11.7,1.9,1.2,3.4,2.6.3,4.1-7.2,3.6-11.6,9.8-15.7,16.7Z"/>
        <path class="cls-5" d="M497.4,960.8c-4.3-7.1-8.9-13.3-16-16.9-1.3-.7-2.7-1.9-.6-3.1,9-5,7.3-14.2,8.7-22,1.9-10.8,4.7-21,11.7-29.8,2.7-3.4,6.3-4,9.6-2.8,3.2,1.1,5.1,3.9,5.1,8-.3,19.2-6,36.4-18.1,51.3-1.8,2.2-2.6,5.6-.2,6.7,6.6,3.1,1.4,5.3,0,8.6Z"/>
        <path class="cls-2" d="M593.3,201.6c-7.5-1-13.2-5.6-18.5-11.7-12.9-14.6-15.5-33-19.9-50.7-.2-.9-.2-1.8-.3-2.7-.1-1.1-.3-2.2,1.4-2.3,1.4,0,1.8.6,2,1.9.8,3.7,1.5,7.4,2.5,11,4.9,16.8,16.8,28.2,30.5,38.1,2.8,2,5.5,4.1,7.6,6.9,1.3,1.7,3.4,3.4,2,6.2-1.4,2.8-3.8,3.4-7.2,3.5Z"/>
        <path class="cls-2" d="M493.2,201.8c-2.1-.2-4.6,0-5.7-2.3-1.2-2.4,0-4.6,1.4-6.5,2.4-3.2,5.4-5.7,8.7-8,15-10.7,27.3-23.5,31.4-42.3.3-1.6.6-3.2.9-4.8.4-1.6-.2-4.2,2.7-3.6,2.8.5,1,2.6.8,3.9-1.9,13.6-5.2,27.1-11.5,39.1-4.9,9.4-10.8,19.4-22.3,23.3-2.1.7-4.2.9-6.3,1.2Z"/>
        <path class="cls-2" d="M522.2,204.5c.7-8.9,3.2-16.6,5.9-24.3,5-14.2,10.1-28.5,11.6-43.6.1-1.3,0-2.8,1.9-2.4,1.4.4.8,1.7.6,2.7-3.9,18.5-4.2,37.1-2,55.8,1,8.2-2.8,14.7-8.5,20.1-3.1,3-6.4,1.9-8.1-2.2-.9-2.1-1.1-4.5-1.5-6Z"/>
        <path class="cls-2" d="M565.5,204.8c0,2.7.3,7.8-4.4,9.1-4.8,1.4-7-3.3-9.2-6.8-3.6-5.7-4.2-11.8-3.5-18.6,1.9-16.9,1.1-33.8-2-50.5-.3-1.4-1.3-3.5.2-3.8,2.7-.5,1.5,2.3,1.7,3.5,2.5,16.1,7.9,31.3,13.2,46.6,2.1,6.1,4.1,12.3,4,20.3Z"/>
        <path class="cls-2" d="M471.7,196c-5.9,0-8.1-3.2-6.2-7.8,1.2-2.8,3.3-4.6,5.7-6.4,5.4-4,11.4-6.9,17.1-10.3,13.9-8.2,25.2-18.6,29-35.2.4-1.7.8-3.1,3.1-2.5,2.3.7,1.3,2.1,1.1,3.4-2.5,12.7-8.4,23.7-18,32.5-7.3,6.7-15.2,12.7-21.3,20.7-2.6,3.4-6.8,5.2-10.4,5.6Z"/>
        <path class="cls-2" d="M616.3,196c-3.9-.7-8.1-2.5-10.9-6.2-5.2-6.8-11.7-12.2-18.2-17.7-10.5-8.9-17.4-20.1-20.2-33.7-.4-1.7-1.9-4.1,1.3-4.8,3-.7,2.4,2,2.8,3.5,3.8,15.7,14.5,25.8,27.7,33.8,6.2,3.7,12.7,6.8,18.5,11.2,2,1.5,3.9,3.2,5,5.5,2.1,4.3-.6,8.5-6.1,8.4Z"/>
        <path class="cls-5" d="M598.9,860.1c-7.4-2.4-15-3.2-22.8-3.8-14.7-1-23.7,6.4-30.1,18.5-.6,1.1-1,2.3-1.9,4.1-4.7-10.6-11.2-18.9-22.2-23.1,14.8,0,29.6,0,44.4,0,8.6,0,17.3.7,25.8-1.2,4.3-1,5.5,2.5,6.7,5.6h0Z"/>
        <path class="cls-2" d="M447.5,498.5c10.4-7.6,13.7-18.7,19.2-29.6,1.6,13.5,4.2,26,13.4,36.8-11.4-1.2-21.5-4.1-32.7-7.3Z"/>
        <path class="cls-2" d="M640.7,498.4c-11.1,3.4-21.2,5.9-32.6,7.5,8.7-10.9,12.1-23,13-37.1,6.1,10.6,8.9,22.2,19.6,29.6Z"/>
        <path class="cls-2" d="M404.8,376.8c.7,0,1.4,0,2.1,0,6.7,10.9,17.7,16,28.9,20.6,4.6,1.9,9.3,3.3,15.1,5.3-9.3,3.4-15,9.5-19.9,17.1,0-4,.4-8.1,0-12.1-.8-6.7-3.4-12.6-10-15.6-6.3-2.9-11.4.3-16.4,3.9-.8.6-1.3,2.5-2.9,1.2h.1c1-6.8,2.1-13.7,3.1-20.5Z"/>
        <path class="cls-2" d="M681.4,377.1c.6,0,1.3-.1,1.9-.1,1.4,6.9,1.3,13.9,3.7,20.7-2.2.4-2.9-1.2-3.9-1.9-11.8-8.9-23.8-3.8-25.8,11-.6,4.4-.6,8.8-.4,13.4-4.8-7.5-10.2-14.1-20.1-17.3,17.6-5.4,33.9-10.9,44.5-25.7Z"/>
        <path class="cls-2" d="M573.5,477.3c3.7,11,5.8,22.2,15.1,31.3-11.3.5-21.6,1-33.6,1.5,11.3-8.9,15.4-20.3,18.5-32.8Z"/>
        <path class="cls-2" d="M531.8,509h-32.5c9.4-9.2,11.5-20.1,15.4-31.5,3.3,12.8,7.4,24,17.1,31.5Z"/>
        <path class="cls-2" d="M427.1,491.1c-7.2-3.4-13.1-6.4-19.2-9.1-1.5-.7-1.1-1.4-1.5-2.4-2.1-5.3,2.6-7.1,4.7-10.2,4.1-5.8,7.3-12.2,11.1-20-.8,14.8-.9,27.9,4.8,41.7Z"/>
        <path class="cls-2" d="M661,491.1c5.8-13.5,5.4-26.4,5.1-40.7,4.6,8.3,7.7,15.9,13.4,22,1.3,1.4,2.6,2.7,3.9,4-3.5,1.1-1.1,6.5-6.2,7.5-5.3,1-10.1,4.4-16.2,7.2Z"/>
        <path class="cls-5" d="M620.3,634.9c4.6-.3,9.6-2,12.6,3.7.9,1.7,3.3,2,5.2,2.6,5.2,1.7,6.3,4.2,4.5,9.4-2.6,7.3-12,12.6-19.6,11.3-1.4-.3-3-.5-3.5-2.1-.5-1.8,1.2-2.5,2.4-3.1,4.5-2.4,9.6-4.6,9.2-10.7-.4-6.3-5.7-8.5-10.8-11Z"/>
        <path class="cls-5" d="M467.9,635.3c-1.1.5-2.2.9-3.3,1.4-4.1,1.9-7.5,4.5-7.6,9.5-.1,4.8,3.3,7.2,7.1,9.3.9.5,1.9,1,2.8,1.6.9.6,2,1.1,1.9,2.4-.1,1.3-1.3,1.7-2.3,2-8.3,3.4-21.2-5.3-21.6-14.2-.1-3.2.9-5.2,4.1-5.9,3.4-.8,5.9-2.5,8.2-5.4,2.5-3.1,7-1.1,10.7-.7Z"/>
        <path class="cls-3" d="M761.6,294.5c-11.1,0-22,.9-32.9,3.2-3.9.8-7.4,2.5-11,4.1-1.8.7-3.5,2.1-5.5.7,15.2-13.3,33.8-16.3,49.4-8Z"/>
        <path class="cls-2" d="M616.8,170.4c5.6,2.1,11,4.5,15.3,8.9,2.3,2.4,4.4,5,4.4,8.4,0,2.7-1.1,4.8-4.4,5.1-3.3.3-2.6-2-2.9-3.9-1-6.1-4.8-10.3-9-14.3-1.3-1.2-2.7-2.4-4-3.5.2-.2.4-.4.6-.7Z"/>
        <path class="cls-2" d="M471.6,170.4c-3,3.2-5.1,5.3-7.1,7.6-2.9,3.3-5.4,6.8-5.7,11.4-.1,1.5.4,3.4-2.2,3.4-2,0-3.6-.5-4.4-2.4-.9-1.9-.8-3.8.2-5.7,3.8-7.7,10.6-11.1,19.3-14.2Z"/>
        <path class="cls-2" d="M566.9,118.4c-3.3,6.2-10,9-16.2,7.2-2-.6-1.7-1.9-1-2.7,1.7-1.9-2.1-6.3,2.5-6.2,4.9,0,9.9.3,14.7,1.8Z"/>
        <path class="cls-2" d="M521.1,118.1c3.7-.4,7.2-.6,10.7-1.3,4.7-1,6.9-.3,6.8,5.5,0,3.4-1.1,3.2-3.3,3.4-7.2.6-10.8-1.2-14.2-7.5Z"/>
        <path class="cls-2" d="M385.5,476.4c-5,.2-7.3-4.2-10.7-6.6-.8-2.1-1.7-4.3-2.5-6.4,2.3-4,4.6-8,6.8-11.9,1,4.7,1.1,9.2,2,13.6-2.4.5-4-2.3-6.4-.9,2.2,5.4,7.6,7.9,10.8,12.3Z"/>
        <path class="cls-2" d="M557.6,412.8c5.3-.3,9.6-.6,14.3-.9-1.5,4.9-3.7,9.5-3.3,16.1-3.5-6-6.4-10.7-11-15.2Z"/>
        <path class="cls-2" d="M530.8,412.8c-4.8,4.6-7.8,8.9-10.6,14.4-1.2-5.4-1.6-10.4-4.7-15.5,5.2.4,9.7.7,15.3,1.1Z"/>
        <path class="cls-2" d="M619.8,406.8c-3.5,4.9-6.1,9.4-7,15.2-2.7-4.6-5.2-8.6-9.1-12.7,5.6-.9,10.4-1.7,16.1-2.6Z"/>
        <path class="cls-3" d="M284.7,433.2c4.5,12,9.1,23.9,13.5,36,1.3,3.6.2,7.5.4,11.2-4-15.9-11-30.9-14-47.2Z"/>
        <path class="cls-2" d="M469,407.2c4.9.6,9.8,1.3,15.5,2-3.5,4.1-6.3,7.7-8.9,13.1-1-6.4-4.2-10.5-6.5-15.2h0Z"/>
        <path class="cls-3" d="M822.1,501.4c3.9,4.7,7,9.8,6.6,16.3-8.8-1.4-11.3-7.7-6.6-16.3Z"/>
        <path class="cls-3" d="M783.1,425.5c-.4,4.6-.7,9.2-1.3,13.8-.7,5.1-2.7,9.6-7.4,12.3,2.9-8.7,5.8-17.4,8.7-26.1Z"/>
        <path class="cls-3" d="M343.3,290.3c-.9.9-1.7,2.5-2.6,2.6-8,.6-14.7,5.9-22.7,6,7.7-5.1,15.9-8.6,25.3-8.5Z"/>
        <path class="cls-2" d="M713.7,464.8c-2.1-3.2-4.1,1.1-6.4-.2.3-4,.7-8.3,1.2-14,2.9,5,5.2,8.9,7.4,12.8-.7.5-1.5.9-2.2,1.4Z"/>
        <path class="cls-3" d="M771.1,344.5c5.1-2.3,7.1.8,8.4,4.9,1.3,4.1,3.8,7.8,3.6,12.3-3-6.4-6.9-12.2-12-17.2Z"/>
        <path class="cls-4" d="M540.4,691c2.2.9,4.4,1.8,6.6,2.7-.8,4.4-1.7,8.7-2.7,14-1.4-6.2-2.6-11.5-3.9-16.8Z"/>
        <path class="cls-2" d="M501.9,319.3c-10,.2-20.1,1-29.4-3.9,9.8,1.3,19.6,2.6,29.4,3.9Z"/>
        <path class="cls-2" d="M510.1,201.3c-3.6,7.3-8.8,9.5-15.3,6.5,5.6-1.1,10.4-3.9,15.3-6.5Z"/>
        <path class="cls-3" d="M590.5,698c1.5.4,3,.8,4.5,1.1-1.6,4.7-3.8,9-7.1,14.3,1-6,1.8-10.7,2.6-15.4Z"/>
        <path class="cls-3" d="M713.7,464.8c.7-.5,1.5-.9,2.2-1.4,1.6,2.6,3.2,5.1,4.8,7.7-3.5-1.5-7.2-1.7-11-1.3,1.3-1.6,2.6-3.3,3.9-4.9Z"/>
        <path class="cls-4" d="M596.2,517c-1.4,1.1-2.7,2.3-4.1,3.4-.7.5-2,1.3-2.1,1.2-5.1-5.5-11.9-1.5-17.6-3.2,8-.5,15.9-.9,23.8-1.4Z"/>
        <path class="cls-2" d="M579.9,121c-2.4,1.5-3.9,2.3-5.3,3.3-1.5,1.1-3.6,2.1-4.8.9-1.2-1.2.6-3,1-4.6.5-2.7,2.4-1.2,3.7-1,1.5.2,3,.8,5.5,1.4Z"/>
        <path class="cls-2" d="M508.6,121c5.3-1.7,10.2-4.1,10,4.3-4.4,1.4-6.5-2.2-10-4.3Z"/>
        <path class="cls-2" d="M634.6,674.7c3.8,2.1,1.4,7.5,5.4,9.5-.5,2.3-1.9,4.1-3.8,6.6-.4-5.8-.3-11-1.6-16.1Z"/>
        <path class="cls-5" d="M506.2,856.3c-6.3,0-12,2.5-18.3,4.5,5-8,12.1-4.5,18.3-4.5Z"/>
        <path class="cls-4" d="M308.7,595.9c1.4,4.1,4.4,7.4,5.1,11.8-2.8.6-4.2-.2-4.5-3.3-.3-2.8-.9-5.6-.6-8.5Z"/>
        <path class="cls-4" d="M533.4,677.4c1.6-1.2,3.4-2.7,5.2-1.7,1.5.9,0,3-.2,4.5-.1,1.8-.1,3.6-.2,5.4-1.6-2.7-3.2-5.5-4.8-8.2Z"/>
        <path class="cls-3" d="M725.8,335.3c2.7-5,7.3-5.8,11.8-2-3.9.7-7.8,1.3-11.8,2Z"/>
        <path class="cls-4" d="M494.3,702c1.2,0,2.5,0,3.7,0,.8,3.6,1.6,7.2,2.4,10.8-3-3.2-4.6-7-6.1-10.8Z"/>
        <path class="cls-2" d="M401.7,673.7c3,2.1,4.3,5.4,5.8,8.5.9,2,1.9,3.7,3.8,4.9-.8,1-1.6.7-2.1,0-2.6-4.4-6.2-8.2-7.4-13.3Z"/>
        <path class="cls-3" d="M290.1,520.9c.2,3.8-2.7,5.9-4.4,8.7-1.2,2.1-2.7.5-4.1,0,2.8-2.9,5.7-5.8,8.5-8.7Z"/>
        <path class="cls-4" d="M372.3,463.4c.8,2.1,1.7,4.3,2.5,6.4-2.6.6-5.2,1.2-7.7,1.8,1.7-2.8,3.5-5.5,5.2-8.3Z"/>
        <path class="cls-4" d="M584.7,672.9c1.2-2.2,3-3.7,5.4-5.4.3,4.1-1.8,6.9-2.4,10.1-1-1.6-2-3.1-3-4.7Z"/>
        <path class="cls-3" d="M636.5,771.6c-.2,2,.7,3.6,1.7,5.1-2.7.6-5.3.4-8.6-.7,2.6-1.7,4.7-3,6.9-4.4Z"/>
        <path class="cls-4" d="M310.7,570.6c.9,6.1.6,12-2.1,17.7-.4-6,.1-11.9,2.1-17.7Z"/>
        <path class="cls-4" d="M387.7,231.3c-1,5.5-2.1,10.9-3.1,16.4-1.9-6-.4-11.4,3.1-16.4Z"/>
        <path class="cls-2" d="M543.9,122.5c-1.1-2.1-3.4-3.8-1.6-6.1.7-.9,3.5-.8,3.8,0,.7,2.1-.3,4.2-2.2,6.1Z"/>
        <path class="cls-5" d="M714.7,660.6c-3.3-.6-6.4,1-9.6,1,2.9-2.7,5.9-5.6,9.6-1Z"/>
        <path class="cls-2" d="M389.6,757.5c.9.7,1.9,1.3,2.2,2.6-1.6.4-2.4-.8-3.3-1.7.4-.3.7-.6,1.1-1Z"/>
        <path class="cls-3" d="M292.3,517.7c0,1.5-.7,2.7-2.2,3.3.7-1.1,1.5-2.2,2.2-3.3Z"/>
        <path class="cls-3" d="M758.8,505.3c.2,1,.3,2,.5,3.2-1.5-.5-1.1-1.7-1.5-2.4.3-.3.7-.5,1-.8Z"/>
        <path class="cls-4" d="M539.2,687.9c1.3.7,1.1,2,1.2,3.2-1.1-.8-1-2-1.2-3.2Z"/>
        <path class="cls-3" d="M764.5,295.7c-1.1-.3-2.5.1-3.1-1.3,1.2,0,2.3.4,3.1,1.3Z"/>
        <path class="cls-2" d="M633.6,672.6c.8.5,1.3,1.2,1.1,2.2-1-.4-1-1.3-1.1-2.2Z"/>
        <path class="cls-2" d="M615.3,169.9c-.5,0-.9,0-1.4,0,0-.2.1-.4.2-.6.4.3.8.5,1.1.8,0,0,0,0,0,0Z"/>
        <path class="cls-2" d="M400.4,671.3c.7.7,1.4,1.4,1.3,2.5-1.1-.5-1.1-1.5-1.3-2.5Z"/>
        <path class="cls-3" d="M784.7,557.2c-.4-.9-1.3-1.7-.1-2.6,0,0,.9.8,1.4,1.3-.4.4-.8.9-1.3,1.3Z"/>
        <path class="cls-4" d="M538.2,685.6c.8.5.9,1.4.9,2.2-.3-.7-.6-1.5-.9-2.2Z"/>
        <path class="cls-3" d="M587.5,714.7c0,.1,0,.3,0,.4,0-.1,0-.3,0-.4,0-.1,0-.3,0-.4,0,.1,0,.3-.1.4Z"/>
        <path class="cls-5" d="M598.8,860.2c.3,0,.5,0,.8-.1,0,.2,0,.4,0,.6-.2-.2-.4-.4-.7-.6,0,0,0,.1,0,.1Z"/>
        <path class="cls-2" d="M401.6,397.4c0,.3,0,.6.1.9-.9-.3,0-.5,0-.8,0,0-.1,0-.1,0Z"/>
        <path class="cls-3" d="M712.1,302.6c.4,1.6-.8,1.5-1.8,1.7.6-.6,1.2-1.1,1.8-1.7Z"/>
        <path class="cls-3" d="M275.4,523.5c-.4.6-1,.9-1.6.4-.1-.1.3-.8.4-1.2.4.3.8.6,1.2.9Z"/>
        <path class="cls-2" d="M616.2,171.1c-.6-.2-1.5-.1-1-1.2,0,0,0,0,0,0,.6.1,1.1.3,1.7.4-.2.3-.4.5-.6.7Z"/>
        <path class="cls-4" d="M388.7,229.5c-.3.3-.6.7-.9,1,.3-.3.6-.7.9-1Z"/>
        <path class="cls-2" d="M736.9,739.1c-.4.6-.9,1.2-1.6.4-.2-.2.3-.9.5-1.3.4.3.8.6,1.2.9Z"/>
        <path class="cls-2" d="M573.5,776.2c-.4,0-.8.2-1.2.3.2-.4.3-.7.5-1.1.2.3.5.6.7.8Z"/>
        <path class="cls-1" d="M704.6,292.8c.4,0,.8-.2,1.2-.2-.2.3-.3.7-.5,1-.3-.2-.5-.5-.7-.8Z"/>
        <path class="cls-4" d="M389.7,228.4c-.3.4-.7.8-1,1.1.3-.4.7-.8,1-1.1Z"/>
        <path class="cls-2" d="M511.6,200c-.5.5-1,.9-1.6,1.4,0-1,.7-1.2,1.6-1.4Z"/>
        <polygon class="cls-2" points="469 407.1 468.7 407 469 407.2 469 407.1"/>
        <path class="cls-4" d="M712.6,349.5c-.1.7-.5,1.2-1.3,1.2.4-.4.8-.8,1.3-1.2Z"/>
        <path class="cls-6" d="M591.5,616.1c-1-.4-1.2.3-1.4,1-5.8,13-15.5,21.8-28.4,27.6-6.2,2.8-11.5,7-19.2,6.5-5.7-.3-9.4-3.5-14-5.6-7.4-3.3-14.4-7.3-20.2-13.2-10.4-10.4-13.8-23.3-14.5-37.3-.4-8.1,0-16.2,0-24.3,0-1.9,0-3.8,0-6.5-3.5,2.4-6.1,5-9.4,2.6-3.3-2.4-3.6-6.1-3.2-9.8,1.2-10.2,9.3-18.2,19.9-19.9,6.5-1.1,13-.8,19.4-.3,8.3.6,15.9-1.2,21.6-7.6,1.9-2.1,2.7-1.4,4.1.2,5.5,6,12.6,7.9,20.6,7.5,6.8-.4,13.7-.8,20.5.4,11.9,2.1,20.3,11.8,19.6,22.8-.4,6.8-3.7,9-9.8,6.1-3-1.4-2.6.6-2.6,2.1,0,4.9,0,9.7.1,14.6.3,10.5-.5,20.9-3.3,31.1-.2.8-.8,1.7.2,2.4,0,0,.1-.1.1-.1ZM544.1,543.9c-4.7,7.3-11.3,11.2-19.1,12.9-6.9,1.5-13.7,2.8-20.6,4.1-3.5.7-5.2,2.4-5,6.3.7,10.8,1.4,21.6,1.5,32.4.2,18.4,9.8,30.3,25,39.4,12.4,7.5,24.1,8.2,36.2,0,10-6.8,20.3-13.2,23.1-26.4,3.3-15.7,2.8-31.6,3.3-47.4,0-2.5-1.7-3.5-3.7-3.9-4.2-.9-8.5-1.6-12.7-2.4-10.8-1.9-21.4-4.2-28-14.9ZM599.7,561c.1-6.1-2.8-10.9-8.1-13.4-4.8-2.3-10.1-2.9-15.3-2.6-10.5.5-20.4-.9-29.4-8.2,0,3.2,1.3,5.2,2.8,6.9,4.2,4.7,9.8,6.8,15.8,7.5,11.9,1.4,23.2,4.5,34.2,9.8ZM541.4,536.5c-8.1,6.6-16.9,8.9-26.6,8.4-5.6-.3-11.2,0-16.5,1.9-6.6,2.4-10.3,7.8-9.5,14.1,1.7-3,4.7-.6,6.6-2.2,4.5-3.9,10-4.6,15.5-5.5,7.2-1.2,14.7-1.7,21.4-5.1,4.7-2.4,8.2-5.5,9.1-11.6Z"/>
        <path class="cls-6" d="M377.7,558.5c-1.2-.3-1.8-1-2-2.2-.2-1.7.4-3.1,1.4-4.4,1.1-1.5,2.2-4.4,4.1-3.4,2.4,1.2-.2,3.2-.8,4.8-.6,1.9-.3,4.4-2.7,5.3Z"/>
        <path class="cls-6" d="M707.5,548.1c2.2.2,5.9,7.3,4.6,9.2-.4.5-1.1,1.1-1.6,1.1-1.5,0-2.1-1.3-2.1-2.6,0-2.6-3-4.5-1.8-7.4,0-.2.6-.2.9-.3Z"/>
        <path class="cls-5" d="M544.1,543.9c6.7,10.7,17.3,12.9,28,14.9,4.2.8,8.5,1.5,12.7,2.4,2,.4,3.7,1.4,3.7,3.9-.5,15.8,0,31.7-3.3,47.4-2.8,13.3-13.1,19.6-23.1,26.4-12.1,8.3-23.8,7.6-36.2,0-15.1-9.1-24.7-21-25-39.4-.1-10.8-.8-21.6-1.5-32.4-.3-3.9,1.5-5.6,5-6.3,6.9-1.3,13.8-2.6,20.6-4.1,7.9-1.7,14.4-5.5,19.1-12.9ZM550.1,600.7c-1.2.1-1.9.3-2.7.3-2.9,0-6.6.8-8.4-.6-1.7-1.3,1.2-4.8,1.3-7.3.2-6.2,1.5-12.8-4.1-17.7-6-5.3-17.7-6-24.2-1.3-2.6,1.8-5.3,4.4-2.6,7.6,2.8,3.3,4.1-.7,5.8-2.1,4.9-4.2,10.2-2.9,15.3-1.1,4.5,1.6,4.7,5.9,4.5,10-.2,4.6-1.8,8.7-3.4,12.9-1.7,4.2-.4,6.5,3.9,6.2,5.8-.4,11.6-.4,17.5,0,4,.3,5.3-2.1,3.9-5.9-1.1-3-2.3-6-3.1-9.1-2.7-10.8,2.1-16.2,13.3-15.5,3.2.2,5.4,1.7,7.2,4.1,1.1,1.4,2.3,2.4,4.1,1.2,1.6-1.1,1.5-2.8,1.1-4.4-.5-1.8-2-2.9-3.5-3.9-6.7-4.3-17.1-3.9-23.3,1-2.9,2.3-4.6,5.4-4.7,9.3-.2,5.6,0,11.1,2.2,16.5ZM543.4,629.3c5.5,0,9.7-3,14.3-4.5,1-.3,1.3-1.2,1.2-2.1,0-1.2-.9-1.6-2-2.1-8.8-3.5-17.5-3.1-26.2,0-.9.3-1.6.9-1.9,1.7-.3.9.3,1.9,1.1,2.2,4.5,1.8,8.8,4.3,13.4,4.7ZM519.8,597.9c2.9-.3,5.1-.4,7.2-.7,1.6-.2,3.6-.2,3.5-2.5-.1-2.1-2-2.2-3.7-2.3-5-.1-10.1-.2-14.9-2-1.4-.5-3.4-.9-4.2,1.2-.7,2.1.7,3.6,2.3,4.3,3.3,1.4,6.8,2.4,9.7,2ZM567.7,597.9c3.8.3,7.5-.4,10.9-2.2,1.4-.8,2.5-2.2,1.8-4-.6-1.5-2-1.6-3.2-1.3-5.5,1.8-11.2,2.1-17,2.2-1.4,0-2.4.7-2.5,2.3,0,1.6,1.1,2.1,2.5,2.3,2.5.3,5,.5,7.5.7Z"/>
        <path class="cls-5" d="M599.7,561c-11-5.3-22.3-8.4-34.2-9.8-5.9-.7-11.6-2.8-15.8-7.5-1.5-1.7-2.8-3.7-2.8-6.9,9,7.2,18.9,8.7,29.4,8.2,5.3-.3,10.5.3,15.3,2.6,5.2,2.5,8.2,7.4,8.1,13.4Z"/>
        <path class="cls-5" d="M541.4,536.5c-.9,6.1-4.5,9.3-9.1,11.6-6.7,3.4-14.2,3.9-21.4,5.1-5.5.9-11,1.6-15.5,5.5-1.8,1.6-4.9-.9-6.6,2.2-.8-6.3,2.9-11.7,9.5-14.1,5.3-2,10.9-2.1,16.5-1.9,9.7.4,18.5-1.8,26.6-8.4Z"/>
        <path class="cls-6" d="M550.1,600.7c-2.3-5.4-2.4-10.9-2.2-16.5.1-3.9,1.8-6.9,4.7-9.3,6.3-5,16.7-5.4,23.3-1,1.5,1,3,2.1,3.5,3.9.4,1.6.5,3.3-1.1,4.4-1.8,1.2-3,.2-4.1-1.2-1.8-2.4-4.1-3.9-7.2-4.1-11.2-.7-15.9,4.7-13.3,15.5.8,3.1,2,6.1,3.1,9.1,1.4,3.8.1,6.2-3.9,5.9-5.8-.4-11.6-.4-17.5,0-4.3.3-5.6-2-3.9-6.2,1.7-4.2,3.2-8.3,3.4-12.9.2-4.1,0-8.4-4.5-10-5.1-1.8-10.5-3.1-15.3,1.1-1.7,1.4-3,5.4-5.8,2.1-2.7-3.2,0-5.7,2.6-7.6,6.5-4.7,18.2-4,24.2,1.3,5.6,4.9,4.3,11.5,4.1,17.7,0,2.6-2.9,6-1.3,7.3,1.8,1.4,5.5.5,8.4.6.7,0,1.4-.1,2.7-.3Z"/>
        <path class="cls-6" d="M543.4,629.3c-4.6-.4-8.9-2.9-13.4-4.7-.8-.3-1.4-1.3-1.1-2.2.3-.8.9-1.4,1.9-1.7,8.7-3.1,17.4-3.5,26.2,0,1.1.4,1.9.8,2,2.1,0,.9-.2,1.8-1.2,2.1-4.7,1.4-8.8,4.5-14.3,4.5Z"/>
        <path class="cls-6" d="M519.8,597.9c-2.9.4-6.4-.5-9.7-2-1.7-.7-3.1-2.2-2.3-4.3.7-2.1,2.8-1.7,4.2-1.2,4.9,1.8,9.9,1.9,14.9,2,1.7,0,3.5.1,3.7,2.3.1,2.3-1.9,2.3-3.5,2.5-2.1.3-4.3.4-7.2.7Z"/>
        <path class="cls-6" d="M567.7,597.9c-2.5-.2-5-.5-7.5-.7-1.3-.2-2.5-.6-2.5-2.3,0-1.5,1.1-2.2,2.5-2.3,5.7-.1,11.4-.4,17-2.2,1.2-.4,2.6-.2,3.2,1.3.7,1.9-.4,3.3-1.8,4-3.4,1.8-7,2.5-10.9,2.2Z"/>
      </g>
    </g>
  </g>
</svg>