<?xml version="1.0" encoding="UTF-8"?>
<svg xmlns="http://www.w3.org/2000/svg" version="1.1" viewBox="0 0 1080 1080">
  <defs>
    <style>
      .cls-1 {
        fill: #46465a;
      }

      .cls-2 {
        fill: #83c6e9;
      }

      .cls-3 {
        fill: #4d4e67;
      }

      .cls-4 {
        fill: #f2e16f;
      }

      .cls-5 {
        fill: #fff;
      }

      .cls-6 {
        fill: #7479b2;
      }
    </style>
  </defs>
  <!-- Generator: Adobe Illustrator 28.6.0, SVG Export Plug-In . SVG Version: 1.2.0 Build 709)  -->
  <g>
    <g id="Layer_1">
      <g>
        <path class="cls-5" d="M377.5,550.6c.1.4.3.9.4,1.3-11.2,11.6-25,19.3-39.1,26.7-11.1,5.8-22.5,11.1-31.3,20.4-7.4,7.8-10.6,16.8-7.3,27.5,1,3.3.2,6.2-2,8.8-5.4,6.3-10.9,12.7-16.3,19-10.5,12.4-20,25.4-25.7,40.8-9,24-9.7,48.9-8.4,74,1.5,30.2,6.5,60,12,89.7,2.5,13.6,5.3,27.2,4.6,41.2-.1,2.9-.2,5.9-2.2,8.5-3.7,4.8-2.5,10.2,2.6,13.8,4.3,3,11.1,1.8,14.3-2.6,1.9-2.7.3-11.7-3.1-13.4-2.8-1.4-2.5-2.6-1.9-5,1.7-7.3,3.2-14.6,4.5-22,1.4-8.2,2.5-16.4,3.8-25.8,4.2,7,8.8,12.5,10.8,19.5.6,2.1,2.1,3.9.8,6.6-2.8,5.7-1.5,9.7,3.5,14.1,3,2.6,6.2,3.1,9.6,1.2,4.4-2.4,6.5-7.9,5.2-13.5-.9-3.7-3.1-6.8-7.1-6.5-4.2.3-4.6-1.8-4.7-4.9,0-1.5-.4-3-.7-4.4-5.2-31.3-9.1-62.7-8.7-94.5.3-19.3,2.6-38.2,9.2-56.5,6.9-19.3,18.2-36.4,27-54.7.3-.5.4-1.2,1.3-1.2,5.1-.3,11.4,5.9,11.9,11.8-2.5.3-3.5,2.3-3.7,4.2-.2,3-1.7,5.3-2.9,7.9-6.4,13.4-12.4,26.9-16.5,41.2-6.4,22.1-7.8,44.9-9.5,67.7-2.2,29.8,2.1,58.5,13.6,86.1,28.5,68.9,111.2,129.4,183.8,134.9,31.1,2.3,61.9,3.7,92.5-3.7,56.8-13.7,102-45.2,137.2-91.1,21.5-28,33.8-59.9,36.8-95.2,1.5-17.4,0-34.7-1.5-52-1.7-19.3-4.6-38.3-11-56.8-4.8-13.9-12.4-26.5-16.8-40.4-.5-1.5-1.5-2.6-3.2-2.8.2-4.6.9-8.9,6.9-9.4,1.1,0,2.2-.8,3.2-1.5,1.9-1.4,2.7-.6,3.6,1.2,4.3,8.3,8.6,16.6,13.1,24.8,13.5,24.1,21.4,49.8,22.4,77.6,1.3,36.7-3.8,72.9-9.3,109-.3,2-.9,2.9-3.1,2.8-5.1-.4-7.7,2.6-8.6,7.2-1.1,5.7,1.3,11.2,5.8,13.2,4.6,2.1,8,0,11-3.4,3-3.4,4.1-7.2,2.3-11.6-.5-1.2-1.4-2.3-1.1-3.8,2-8.3,6.8-15.1,11.9-22.4.5,1.3.7,1.7.8,2.2,1.4,15.6,4,31.1,7.9,46.3.4,1.8.2,2.5-1.6,3.4-3,1.6-5.7,9.3-4.7,12.2,1.5,4.3,8.8,7.1,13.7,5.2,5.1-2,8.3-8.9,5.1-13.2-3.5-4.8-3.5-9.9-3.3-15.2.4-16.1,3.8-31.8,6.7-47.5,6.4-34.5,11.1-69.2,10.3-104.4-.7-31.7-9.8-60.4-31-84.6-6.6-7.5-13-15.2-19.5-22.8-2-2.4-3.4-5.1-2.4-8.3,4.4-14.5-1.9-25-12.8-33.5-8.6-6.8-18.4-11.5-28-16.5-12-6.2-23.6-13.1-33.7-22.4-1.2-1.1-2.8-1.9-3-4.2,4.7,1.4,7-1.5,9.4-4.7,3.4-4.6,6.9-9,10.4-13.5,10-12.3,19.6-25,26.9-39.1,7.7-15,15.5-29.9,23.4-44.8,28.3-52.9,37-108.9,25.2-167.8-4.9-24.3-13.4-47.3-30.8-65.8-27-28.6-57.1-38.3-93.9-15-7.3,4.6-14.7,9.2-23.1,11.9-7.7,2.5-15.1,2.5-22.2-1.6-1.5-.9-2.6-1.7-2.6-3.8.6-20.1,6.7-37.3,24.1-49.2,5.5-3.8,11.2-7.3,17.4-9.9,11.4-4.8,22.8-9.6,34.3-14,9.7-3.7,16.7-11.5,25.6-16.3,1.6-.9,2.8-2.5,2.2-4.6-.5-1.7-1.9-2.3-3.5-2.2-8.8.5-16.4-4.7-26.4-4.3,8.9-6.9,18.1-10,27.3-12.6,6.6-1.9,13.3-3,19.9-4.9,4.6-1.3,5-4.2,1.9-7.7-4.3-4.9-9.7-7.4-15.9-8.7-16.2-3.4-31.4,0-46.1,7-4.7-10-10.3-13.5-21.5-13-10,.5-18.6,4.7-27,9.7-16.3,9.8-32.5,19.8-52,22.3-3.9.5-4.8,4.1-1.9,7.1,2.6,2.7,5.3,5.6,8.9,7.1,1,6.1,5.9,6.2,10.5,6.8-28.6,17.4-49,42-62.6,72.9-14.4-32.7-36.1-58.1-67.7-75.7,2.1-.4,3.2-.7,4.3-.9,7.1-1.8,14.4-3.1,19.4-9.3,1.3-1.6,2.9-2.8,2.2-5.1-.8-2.7-3-2.8-5.2-3-3.7-.4-7.2-1.2-10.7-2.4-14.1-4.5-26.8-11.9-39.3-19.6-5.9-3.6-12-6.5-18.6-8.5-6.4-1.9-12.9-2.2-19.2.1-5.6,2.1-8.9,6.6-10.9,11.7-14.4-7-29.1-10.3-44.8-7.2-5.7,1.1-11.4,2.5-15.4,7.4-1.5,1.9-4.4,3-3.5,6.1.9,3.2,3.9,3.4,6.4,3.9,10.4,2.2,20.9,4.5,30.7,8.7,4.5,1.9,9,3.9,13.3,7.8-5.9.2-10.7,1.3-15.4,2.8-3.1.9-6,1.8-9.2,1.7-1.9,0-3.8-.1-4.7,2-.9,2.3.6,3.9,2.3,5,3,2.1,6.6,3.5,9.2,6,6,5.6,13.2,8.9,20.6,12,12.6,5.3,25.6,9.6,37.7,16,21.6,11.4,32.8,29,33.6,53.4,0,3.2-.8,4.8-3.6,6.2-9.9,4.9-19.3,2.6-28.3-1.9-8-4-15.7-8.9-23.6-13.2-24.3-13.3-47.7-11.5-70,4.7-21.6,15.7-35.2,37-42.6,62.4-10,34.9-12.2,70.2-6.6,106,4.3,27.4,13.7,53.2,26.4,77.9,17.9,34.7,35.3,69.7,61.7,99.2,2.5,2.8,4.4,6.1,9,4.5Z"/>
        <path class="cls-3" d="M592.1,112.3c-3.6-1.5-6.2-4.4-8.9-7.1-2.9-3-2-6.6,1.9-7.1,19.5-2.5,35.7-12.5,52-22.3,8.4-5,17.1-9.2,27-9.7,11.2-.5,16.8,3,21.5,13,14.7-7,29.8-10.4,46.1-7,6.2,1.3,11.6,3.8,15.9,8.7,3.1,3.5,2.7,6.4-1.9,7.7-6.6,1.9-13.3,3-19.9,4.9-9.3,2.6-18.4,5.7-27.3,12.6,10-.5,17.6,4.7,26.4,4.3,1.6,0,3,.5,3.5,2.2.6,2.1-.6,3.8-2.2,4.6-8.9,4.8-15.9,12.7-25.6,16.3-11.5,4.4-22.9,9.2-34.3,14-6.2,2.6-11.9,6.1-17.4,9.9-17.3,11.9-23.5,29.1-24.1,49.2,0,2.1,1.1,2.9,2.6,3.8,7.2,4.1,14.6,4.1,22.2,1.6,8.4-2.7,15.8-7.3,23.1-11.9,36.8-23.3,66.9-13.6,93.9,15,17.4,18.5,25.9,41.4,30.8,65.8,11.8,58.9,3.1,114.8-25.2,167.8-7.9,14.9-15.7,29.8-23.4,44.8-7.3,14.2-16.9,26.8-26.9,39.1-3.6,4.4-7.1,8.9-10.4,13.5-2.4,3.2-4.7,6.1-9.4,4.7.2,2.4,1.9,3.1,3,4.2,10,9.2,21.6,16.1,33.7,22.4,9.6,5,19.4,9.7,28,16.5,10.9,8.6,17.2,19,12.8,33.5-1,3.2.3,5.9,2.4,8.3,6.5,7.6,12.9,15.3,19.5,22.8,21.2,24.2,30.3,52.9,31,84.6.8,35.2-4,69.9-10.3,104.4-2.9,15.7-6.3,31.4-6.7,47.5-.1,5.3-.2,10.4,3.3,15.2,3.1,4.4,0,11.3-5.1,13.2-4.9,1.9-12.3-.9-13.7-5.2-1-2.9,1.7-10.7,4.7-12.2,1.7-.9,2-1.7,1.6-3.4-3.9-15.2-6.6-30.6-7.9-46.3,0-.5-.3-.9-.8-2.2-5.1,7.3-9.9,14.1-11.9,22.4-.4,1.4.6,2.6,1.1,3.8,1.8,4.4.7,8.1-2.3,11.6-3,3.4-6.4,5.5-11,3.4-4.5-2-6.9-7.5-5.8-13.2.9-4.6,3.5-7.6,8.6-7.2,2.2.2,2.8-.8,3.1-2.8,5.6-36.1,10.7-72.3,9.3-109-1-27.8-8.9-53.5-22.4-77.6-4.6-8.1-8.8-16.5-13.1-24.8-.9-1.8-1.7-2.7-3.6-1.2-.9.7-2.1,1.4-3.2,1.5-6,.5-6.7,4.8-6.9,9.4-.6,1.7-1.2,3.4-1.9,5.2-.8-.9-1.7-1.8-2.5-2.7-2.4.2-4.7.4-7.1.7-2.2.3-4.6-1.1-6.4,1-2-3.5-1.8-7.5-2.1-11.3-.2-2.7-1.3-3.9-4-3.7-.3-.6-.8-1.2-.9-1.8-.2-1.7-1.1-4.2,1.3-4.7,1.6-.3,3.2,1.3,3.8,3.4.4,1.8,1.3,3.4,1.8,5.1,1.1,3.5,4.9,5.4,8.8,3.8,3.4-1.4,2.8-4.2,1.7-7.1-1.9-4.8-3.5-9.6-6.6-13.9-1.2-1.6-.9-3.2.7-4.4,1.5-1.2,2.8-.2,4,.7,2.7,2.1,4.4,5,6.4,7.7,1.4,1.8,2.5,4.3,4.9,4.8,6.1,1.3,13.5-7.1,10.8-12.7-2.1-4.5-.4-10-4.4-13.8-.8-.7-1-3,.6-4,1.4-.8,2.5.5,3.5,1.4,2.4,1.9,4.1,4.3,5.5,7.1,1.7,3.3,4,3.6,6.9,1.5,2.2-1.5,3.7-8,2.4-10.7-1.7-3.6-4.3-6.3-7-9-1.1-1.1-3.9-1.9-2.2-4.1,1.3-1.8,3.4-1.4,5.5-.6,3.6,1.4,6,4.4,9.4,7.2-2.6-7.6-8.9-13.9-19.3-20.2-13.1-8-27-14.6-39.4-23.7-14-10.2-26.6-21.8-34.7-37.4-1.8-3.4-3.4-7-5.1-10.5-5.3,4-7.7,10.1-13.8,12.8-2.9,1.3-5.1,1.2-7.5-.3-3.1-1.8-6.7-3.3-7.3-7.6-.1-1.3.3-2.5,1.6-2.8,1.4-.3,1.2,1.2,1.7,2,1.4,2.7,4.1,3.8,6.6,5.1,1.1.5,2.1.3,2-1.1-.4-7.2,2.9-3.5,5.8-1.4.2-3.4.7-5.6,4.2-6.7,1.9-.6,5.8-2.3,4.8-5.9-1.5-5.5-2.6-11.1-2.9-17.8-2.9,2.6-5.1,4.5-7.3,6.5-10.3,9.9-22,17.7-34.4,24.8-1.9,1.1-5.4,1.3-5.2,3.8.1,1.9,3.5,2,5.4,2.9,31.2,13.6,49,37.2,53.8,70.9,2.1,14.5,2.5,29.2,6,43.4,1.2,5,1.3,10.6,5.9,14.3-2.4,4.5.4,8.7,1.1,13-5.6-3.6-8.5-9.2-11-15.1-4.7-11.2-6.6-23-8.1-34.9-2.4-18.6-5.6-36.9-16-53.1,1.1-.2,2.5.3,2.9-1.3.3-1.4-.8-2-1.7-2.7-2.1-1.9-5.3-1.9-7-4.4-9.2-10.5-20.5-18-33.5-23-1.7-.7-3.8-1.5-4.2-3.3-.9-4.6-3.3-3-6-2-45.8,18.2-91.6,18.4-137.6.7-3.1-1.2-6.7-4.3-8.2,2-.2,1.1-2.2,1.9-3.6,2.5-13,5.1-24.3,12.5-33.5,23-1.7,2.5-4.9,2.6-7,4.4-.9.8-2,1.4-1.7,2.7.3,1.6,1.8,1.1,2.9,1.3-9.1,14-12.7,29.8-15.1,46.1-2.1,14.7-3.4,29.5-9.7,43.3-2.5,5.4-5.3,10.3-10.4,13.5.8-4.2,3.4-8.3,1.1-12.8,4.3-3.8,4.6-9.3,5.9-14.3,3.5-13.9,4-28.3,5.9-42.4,4.7-35.2,23.4-59.4,56.2-72.9,1.2-.5,3.1-.4,3.3-1.9.2-1.9-1.8-2.1-3.1-2.7-14.7-7.8-28.1-17.2-39.9-29-1.1-1.1-1.9-2.8-4.3-2.6.2,4.7-.2,9.4-2,13.6-2.1,4.8.4,7.6,3.9,9.1,3.2,1.4,4.4,3.3,4.6,6.4,2.2-.1,2.5-3.4,4.8-2.2,2.1,1.2-.1,3.9,1.8,5.4,3-1.1,5.8-2.4,7.6-5.2.6-.9.1-3.3,2.3-2,1.5.9,1.4,2.7.7,4.1-2.2,4.1-6.1,6.7-10.3,7-3.9.3-7.9-2-10.2-5.3-2.2-3.1-4.9-5.6-7.8-8.4-9.6,25.7-28.9,42-50.9,55.7-11.2,6.9-23.2,12.4-34,20.1-5.6,4-10.8,8.6-13.8,16.5,3.7-2.9,6-5.9,9.4-7.3,2.2-.9,4.4-1.6,5.9.5,1.5,2.2-1.3,2.9-2.3,4.2-3.7,4.7-9.5,7.9-6.6,16,1.1,3,2.6,3.8,4.5,4.7,2.3,1.1,3.6-.9,4.6-2.8,1.5-2.9,3.3-5.4,5.9-7.3.9-.7,1.9-1.6,3.1-.9,1.2.7,1.2,2.4.6,3.1-2.9,4.1-2.4,9.1-4.2,13.4-1.9,4.6-.4,9.4,4.1,12,4.9,2.9,7.5,2.3,11.2-2.7,1.9-2.6,3.4-5.3,5.9-7.4,1.4-1.2,2.9-2.6,4.8-1,1.8,1.5,1.3,3.4.1,5-2.8,3.8-4.3,8.1-6,12.5-1.1,3-2.5,5.9,1.1,7.7,3.9,1.9,7.9-.3,9.2-4.4.4-1.3,1-2.4,1.5-3.7.8-2.3,2.1-5,4.6-3.9,1.9.8,1.1,3.8,0,5.8,0,.1-.2.3-.3.4-3.6-.3-3.8,2-4,4.8-.5,8.1-.6,8.1-8.5,8.2-1.2,0-2.3-.2-3.4.6-.6,0-1.2,0-1.7,0-1.6,0-2.6-3.6-4.5-.6-1.3-.1-1.8-.9-1.9-2.1-.4-5.8-6.8-12.1-11.9-11.8-.9,0-1,.7-1.3,1.2-8.8,18.3-20.1,35.4-27,54.7-6.6,18.3-8.9,37.2-9.2,56.5-.4,31.8,3.5,63.2,8.7,94.5.2,1.5.6,3,.7,4.4,0,3.2.5,5.2,4.7,4.9,4-.3,6.2,2.8,7.1,6.5,1.3,5.6-.8,11.1-5.2,13.5-3.4,1.9-6.7,1.4-9.6-1.2-4.9-4.4-6.2-8.4-3.5-14.1,1.3-2.7-.2-4.5-.8-6.6-2-7-6.6-12.5-10.8-19.5-1.4,9.4-2.4,17.7-3.8,25.8-1.3,7.4-2.8,14.7-4.5,22-.6,2.4-.9,3.6,1.9,5,3.3,1.6,5,10.7,3.1,13.4-3.2,4.4-10,5.6-14.3,2.6-5.1-3.6-6.3-9.1-2.6-13.8,2-2.6,2.1-5.6,2.2-8.5.6-14-2.1-27.6-4.6-41.2-5.5-29.7-10.5-59.5-12-89.7-1.3-25.1-.6-50,8.4-74,5.8-15.4,15.2-28.4,25.7-40.8,5.4-6.4,10.8-12.7,16.3-19,2.2-2.6,3-5.5,2-8.8-3.3-10.7,0-19.7,7.3-27.5,8.8-9.3,20.2-14.6,31.3-20.4,14.1-7.4,27.9-15.1,39.1-26.7,9.1-9.5,17.3-19.8,23.5-31.5,3.5-6.5,4.2-14,6.3-21,.8-2.6-.7-4-2.1-5.6-10.4-11.7-19.1-24.4-26-38.4-7.4-15.1-12.7-31-15.5-47.7-6.5,4.4-8.5,4-14.2-2.6-3.1,4.4-8.8,3.6-12.9,6.8-6.6,5.2-14.9,4.6-20.9-1.3-3.1-3.1-5.2-5.1-10.2-3-5.3,2.2-5.5,1.5-3.5,7,6.1,16.3,14.5,31.5,22.8,46.8,11.1,20.7,22,41.6,37,59.9,5.2,6.3,10.1,12.9,14.9,19.5,2.3,3.1,3.5,6.6.2,9.9-4.5,1.6-6.5-1.7-9-4.5-26.4-29.4-43.8-64.4-61.7-99.2-12.7-24.7-22.1-50.4-26.4-77.9-5.6-35.8-3.5-71.2,6.6-106,7.3-25.5,20.9-46.7,42.6-62.4,22.3-16.2,45.7-18,70-4.7,7.9,4.3,15.5,9.1,23.6,13.2,9,4.5,18.4,6.9,28.3,1.9,2.8-1.4,3.7-3,3.6-6.2-.8-24.4-12-42.1-33.6-53.4-12.2-6.4-25.1-10.8-37.7-16-7.4-3.1-14.6-6.4-20.6-12-2.6-2.5-6.2-3.9-9.2-6-1.7-1.2-3.2-2.7-2.3-5,.8-2.1,2.8-2.1,4.7-2,3.2.1,6.2-.8,9.2-1.7,4.7-1.4,9.5-2.6,15.4-2.8-4.3-3.9-8.8-5.9-13.3-7.8-9.9-4.2-20.3-6.5-30.7-8.7-2.5-.5-5.5-.7-6.4-3.9-.9-3.1,2-4.2,3.5-6.1,4-4.9,9.7-6.3,15.4-7.4,15.7-3,30.4.3,44.8,7.2,2-5.1,5.3-9.6,10.9-11.7,6.3-2.3,12.8-2.1,19.2-.1,6.6,2,12.7,4.9,18.6,8.5,12.5,7.7,25.2,15,39.3,19.6,3.5,1.1,7,2,10.7,2.4,2.2.2,4.4.3,5.2,3,.7,2.3-.9,3.5-2.2,5.1-5,6.2-12.3,7.5-19.4,9.3-1.1.3-2.2.5-4.3.9,31.5,17.6,53.2,43,67.7,75.7,13.6-30.9,34-55.5,62.6-72.9,1.6-.8,3.1-1.5,5.4-2.6-5.8-1.5-10.9-2.9-15.9-4.2ZM783.5,393.9c.7-.3.8-1,.8-1.6,3.5-8.9,5.5-18.2,6-27.6,1-16.7-.1-33.3-3.9-49.6-1-4.6-1.1-9.4-7.8-9.3-1.9,0-3.6-1.7-4.9-3.2-1.9-2.2-3.9-4.4-5.8-6.5-4.6,5.1-5,9.7-1.8,16.1,6.1,11.9,7.6,25.4,9.2,38.6,1.2,10.4,1.6,20.9.2,31.4-1,7.1-3.4,13.7-5.6,20.6h4.9c1,0,2,.2,2.7-.9h0c3.8-1.3,5.4-4.3,6.1-8h0ZM804.6,837.8h0c.4,4.9,0,9.9,1.2,14.9,0,7,1.1,13.8,2.1,20.7,1.4-.7,1.3-1.8,1.4-2.7,1.4-11.9,4-23.6,6.2-35.4,2.5-13.6,5.5-27.1,6.2-40.9,2.3-18.3,3.4-36.6,2.3-55.1,0-18.6-4.4-36.2-12-53-4.5-10-11-18.8-17.6-27.5-5.1-6.8-11.3-12.6-16.9-18.9-.4-1.6-1-3-2.4-4.3-1.5,1.6-3,3.2-4.5,4.8,0,0,.1,0,.1,0-.5.3-1,.6-1.6.9-1.4.6-2.8,1.1-4.1,1.8-5.6,3-7.4,10.2-4.2,15.5,4.7,7.7,9.1,15.5,13.7,23.3,13.3,22.5,21.2,46.6,22.7,72.8.9,15.3.8,30.7-.2,46-.4,3.9-.8,7.8-1.2,11.7-1.7,11-3.4,21.9-5.1,32.9-.7,2.5-1.3,5-2,7.6.3,0,.6.2.8.3,1.2-2.3,2.4-4.6,3.7-6.9,1.7-2.1,2.7-4.6,3.2-7.1.6-3.6,2.6-4.6,5.9-4.3.8,1,1.6,2.1,2.4,3.1ZM387.6,289.6c-4.1,2.2-7.2,5.2-9.8,9.2-3.3,4.8-7.9,10.2-14.3,7.6-4.8-1.9-8.1-1.6-12.7,0-3,1.1-4.7,2.2-6,4.9-10.2,22.1-13.2,45.6-11.9,69.6.3,6.5.9,13.3,4.3,19.3,2.1,3.9,5.1,5.6,9.5,4.3,2-.6,3.3-1.2,2-3.7-1.6-3.1-2.4-6.5-3.1-10-2.8-14-2.5-28.2-.8-42.3,1.3-10.9,3.3-21.7,6.8-32.1.7-2,1.8-4.3,3.8-3.9,2.2.4,1.2,3.1,1.3,4.8,0,.8,0,1.7-.2,2.5-2.1,6.9-3.2,13.9-4.4,20.9-2.8,17.2-4,34.4-.4,51.6.8,3.7,1.8,7.5,3.9,10.7,2.4,3.8,4,3.6,6.6,0,2.8-3.6.6-7.1.4-10.6-1.7-32.3,4.3-62.9,19.8-91.5,2-3.6,4.8-6.8,5.6-11.1.7-.3,1.5-.5,1.5-1.5,0-.1-.1-.3-.2-.4-.6.5-1.1.9-1.7,1.4ZM692.4,289.6c-.6-.5-1.1-.9-1.7-1.4,0,.1-.2.3-.2.4,0,.9.8,1.2,1.5,1.5,0,2,1.3,3.4,2.2,4.9,14.5,25.1,23,51.9,23.2,81.1,0,7.5.6,15-.8,22.5-.6,3.2,1.2,6,3.7,7,2.9,1.2,4.1-2,5.2-4.2,3.4-7.4,4.5-15.3,4.9-23.3,1-19.4-1.8-38.5-6.4-57.3-.7-2.8-2.2-7.2.8-8,3.1-.8,3.9,3.8,4.7,6.6,3.8,13,6,26.3,6.8,39.7.9,13.6.8,27.4-4.3,40.4-1.8,4.5,0,5,3.4,5.5,3.1.4,5.2-1,6.7-3.4,1.7-2.7,2.8-5.6,3.4-8.8,2.5-12.7,2.4-25.4,1-38.3-1.7-15.7-4.7-31-12.5-44.8-1.8-3.3-7.8-4.2-11.8-6.2-.1,0-.5.4-.8.6-7.2,4.3-10.7,3.8-16.6-2.2-4-4.2-6.4-10-12.4-12.2ZM289.4,844.6c-1.8-12.7-4-25.3-5.3-38.1-2.7-25-2.6-49.9,2-74.8,5.1-27.6,19.9-50.7,34-74.2,1.4-2.3,4.1-4.4.9-7.3-2.1-1.9-1.5-5.8-4.6-6.8-4.5-1.6-8-4.6-11.8-8.4-1.7,8.9-10,11.6-14.3,17.9-7.2,10.4-16,19.7-20.9,31.6-2.1,2.9-3.3,6.2-4.4,9.5-5.1,12.3-7.6,25.2-8.2,38.5-1.4,12.7-1.3,25.3-.1,38,0,1,0,2,0,3,.4,14.3,1.9,28.4,4.7,42.4,2.4,16.8,6,33.4,9.2,50.1-.1,3.5.5,6.9,1.5,10.8.3-3.6.6-6.7.9-9.8.2-1,.4-2,.4-2.9.7-8,1.3-15.9,2-23.9.2-2.6.8-5.2,4-5.4,3-.3,3.7,1.9,4.3,4.4.4,1.9,1.5,3.6,2.4,5.4,1.5,2.8,3,5.6,4.5,8.4.3-.1.5-.3.8-.4-.7-2.7-1.4-5.3-2.1-8ZM652.6,143.2c3.6-1.7,7.2-3.5,10.8-5.2,10.2-3.6,20.4-7.3,30.7-10.7,6.1-2,11-5.6,16.3-9.7-2.5-1.2-4.5-2.4-6.6-3.3-6-2.5-12-4.8-16.6,2.4-.3.4-.8.6-1.2.9-1,.7-2.1,1.3-3.2.6-1.3-.8-1.4-2.2-1-3.6,1.1-3.4,3.1-6.3,5.5-8.8,8.8-9.5,20-14.8,32.1-18.5,5.5-1.7,11.1-2.9,16.9-4.5-11.4-6.2-46.9-2.5-52.1,5.3-3.7-4.4-4.1-11.1-9.7-14-4.2-3.1-8.7-2.7-13.3-1.2-3.7.7-6.8,2.6-10,4.5-17.6,10.3-34.3,22.4-55.4,27.4,1.9.7,2.8,1.2,3.7,1.4,5.2,1.1,10.5,2,15.8,2.3,3.2.2,6.3.6,8.7,3.1,1.4,1.4,1.6,2.5-.1,3.6-4,2.6-7.4,5.9-11.7,8.2-30,15.5-50.5,40-65.2,69.8-1.7,3.5-3.5,7.2-2.9,11.4.1,1.1-.4,2.9,1.3,2.7,5.6-.5,10.1,3.2,15,3.9,18.1,2.4,35.8,6,52.6,13.2,3.2,1.3,3.6.1,3.5-2.8-.2-5.8-.3-11.7-.1-17.5.7-20.5,6.7-38.7,23.6-51.9,4.1-3.2,8.4-5.9,12.7-8.9ZM466.7,122.7c-3.1-1.4-5.8-3.5-8.2-5.8-1-1.4-3.9-1.7-3.3-3.9.6-2.1,2.7-3.4,4.9-3.8,2.3-.4,4.6-.6,6.9-.9,5.4-.8,10.9-.9,16.7-3.4-2-.7-3.3-1.2-4.5-1.5-12.8-3.6-24.4-10-35.7-16.6-6.5-3.8-12.6-8.5-19.6-11.7-.7-.3-1.4-.7-2-1-3.9-2.4-8.1-2.7-12.5-1.8-8.5,1.8-9.4,10.4-13.5,15.9-1.8-.6-.7-3.2-2.8-3.2-8.3-.2-15.6-4.6-23.8-5.3-8.6-.7-17.2-.9-26.2,3.1,4,1,7.1,1.8,10.1,2.5,11.6,2.7,22.6,6.9,32.3,14,4.7,3.5,8.9,7.5,11.7,12.8,1,1.9,2.4,4.3.2,5.9-2.2,1.5-4.3-.5-5.4-2.3-2.5-4-6-4.4-9.9-3.4-4.4,1-8.5,2.6-12.2,5.4,5.7,5.1,12,8.4,19.1,10.7,10.2,3.2,20.3,6.5,30,11,20.9,9.6,37.3,23.4,42.4,47.2,2.3,10.7,2.6,21.5,2.1,32.4-.2,4.5,2,5.1,5.5,4.4,1-.2,1.9-.7,2.8-1,12.8-5.1,26.1-8,39.6-10.1,3.6-.6,7.7.4,10.6-1.9,3.3-2.6,7-3.3,10.8-2.9,4.3.4,4-1.2,3.3-4.4-3.9-16.8-13.9-30.2-24.3-43.2-12.5-15.4-26.9-28.8-45.3-37.1ZM710.1,380.9c-.3-10.4-1.1-20.6-3.1-30.6-17.7-90.2-107.8-146.7-193.9-132.4-41.5,6.9-76.9,25.9-103.8,58.2-40.3,48.3-50.6,103.3-27.8,162.1,34.3,88.5,138.9,130.8,226.1,92.2,64.6-28.6,98.6-79,102.5-149.5ZM715.9,407.5c-.3,1.7-.5,2.5-.6,3.2-5.5,28.7-17.1,54.7-36,77.1-5.5,6.5-9.4,12.2-3.7,20.3.3.4.4,1,.4,1.4.2,8.6,4.5,15.6,9.1,22.4,4.4,6.4,8.9,12.8,15.7,18.1-1.1-8,3.8-12.6,7.8-17.2,26.6-30.8,44-67.2,62.4-102.9,3.6-7,6-14.6,9.2-22.3-3.3,0-5.7.8-7.8-.5-3.1-2-4.8-.6-6.9,1.8-6.3,7.2-15,8.2-22.4,3.1-5.4-3.7-10.8-6.1-17.2-2.4-3.2,1.9-6.4.9-9.8-2.2ZM624.2,213.7c0,4.2.2,7.6,0,10.9-.3,3.7,1.2,5.6,4.4,7.3,16.7,9.1,31.7,20.3,44.3,34.6.9,1,2,2.7,2.9,2.6,6.3-.3,12.3,2.4,18.6,1.5,4.5-.6,6.5-6.1,3.9-9.9-.8-1.2-1.4-2.6-2.1-3.9-1.2-2.2-1.1-4.4,1.4-5.5,2.2-1,4,.4,4.8,2.3,2.4,5.8,7.1,6.4,12.4,5.9,4.9-.4,5.6-1.4,3.5-5.8-.9-1.9-.5-3.2.9-4.4,1.7-1.4,3.2-.6,4.5.5,1.5,1.3,2.6,3,4.1,4.4,2.5,2.3,5.3,1.4,7.9.2,3-1.4,1.6-3.5.6-5.5-.8-1.6-.7-3,.6-4,1.5-1.2,3.2-1,4.6.2,1.2,1.1,2.2,2.5,3.2,3.8,2.2,2.9,5,2.9,7.1-.2,2-2.9,1.6-5.4-1.1-7.8-1.7-1.5-2.4-4-.6-5.8,2-2,4-.7,5.6,1,1.4,1.5,2.6,3,3.9,4.5,1.8,2.1,4,2.3,6.3,1.2,2.3-1.1,3.2-3.2,2.4-5.4-1.9-5.6-3.1-11.6-8-15.7-4-3.5-7.7-7.4-11.9-10.7-10.7-8.4-22.3-14.4-36.4-14.6-12.5-.2-23.3,4.7-33.8,10.8-6.8,4-13.5,7.9-20.9,10.7-11.2,4.2-22.2,5.7-33-3.2ZM368.3,195.5c-2.1.1-4.6,0-7.1.5-16.3,2.7-28.4,12.4-40,23.2-5,4.7-7.4,10.5-9.3,16.7-.8,2.5-.3,4.7,2.2,6,2.5,1.2,4.7.9,6.6-1.5,1.4-1.8,3.1-3.5,4.7-5.1,1.2-1.1,2.7-1.4,4.1-.5,1.7,1.1,1.5,2.9.9,4.5-.4,1-1.2,2-2,2.8-3.1,3.2-1.3,5.9,1.2,8.1,2.7,2.4,4.8,1,6.2-1.9.4-.7,1-1.3,1.6-2,1.4-1.6,3.1-2.7,5.3-1.5,2.4,1.3,1.9,3.3.7,5.1-2.1,3.4.2,4.5,2.7,5.4,4.6,1.7,7-1.6,9.5-4.5,1.3-1.6,2.9-3,5.1-1.4,2.1,1.5,2,3.3.5,5.2-2.8,3.4,0,4.3,2.5,4.9,6.3,1.5,9.9,0,13.6-5.3,1.4-2.1,2.9-4.1,5.5-2.6,2.7,1.5,1.7,4,.7,6.2-.5,1.1-.9,2.3-1.8,3-2.5,2-1.5,4.1-.6,6.3.6,1.4,1.5,2.9,2.9,3.3,6.6,1.9,13-1.5,19.6-1,2,.2,3.3-2.6,4.7-4.2,11.2-12.3,23.9-22.8,38.7-30.5,6.9-3.6,9.9-7.8,8.8-15.5-.5-3.5-.7-4.6-4.3-2.5-5.3,3.1-11,4.1-17.3,3.2-12.1-1.7-22.2-7.7-32.4-13.7-10.3-6-20.9-11.1-33.6-10.8ZM305.6,240.2c-3.6,8.3-8.6,15-8.1,24,.2,3.7-.8,7.6-1.5,11.3-1.1,6.2-1.8,12.5-1.5,18.9.1,2.7.2,5.9,3,6.9,2.9,1.1,4.9-1.6,6.5-3.6,3.6-4.4,6.3-9.2,6.7-15.2.3-4.8,1.2-9.5,2.8-14.1.6-1.8,1.7-2.9,3.7-2.5,1.7.3,2.5,1.6,2.5,3.3,0,2.5,0,5-.6,7.4-1.4,6.2-2.4,12.4-.4,18.7.8,2.4,1.5,5.1,4.5,5.4,2.7.3,4.6-1.5,6.2-3.5,4.2-5.3,5.4-11.6,6.2-18.1.3-2.6-1.7-7.1,3-7,5.1.1,2.9,4.8,2.9,7.5,0,6.2-.5,12.4,2.2,18.2,1.2,2.5,2.9,4.9,6.1,3.9,3.1-.9,6-2.8,5.2-6.8-.8-4.3,1.2-7.8,2.3-11.6.6-1.8,1.8-2.8,3.8-2.5,1.8.3,2.5,1.6,2.4,3.3,0,3.6.8,7.4-1,10.8-1.3,2.4-.2,4.2,1.4,5.7,1.8,1.8,3.9,1.5,6,.5,1.7-.9,3-2.1,4-3.7,3.3-5.1,6.6-10.2,10-15.4,1.8,2.3-.8,4,0,6.1,2.4-1.8,3.9-5.2,7.8-3.8,1.1.4,1.7-.8,2.3-1.6,1.8-2.4,3.5-4.8,5.2-7.3-2.7-1.3-4.8-1.8-7.9-1-4.3,1.2-10.2,2-12.9-2.6-3.4-5.6-7.2-6.9-13.6-6.9-7.5,0-14.4-5.3-22.4-4.8-1.3,0-2.8-1-4-1.8-1.7-1.2-3.6-1.6-5.6-1.6-5,0-9.1-2-11.5-6.6-.9-1.6-1.8-2.6-3.8-2.4-5.4.5-9.2-1.9-12-7.4ZM696.1,281.5c2.4,4,4.4,7.5,6.6,11,1.9,3.1,3.8,6.3,7.1,8.2,2,1.2,4.1,1.5,6-.1,1.9-1.6,2.9-3.5,1.5-6.1-1.8-3.4-.9-7.2-.9-10.8,0-1.6.8-2.9,2.6-3.1,1.7-.2,2.9.6,3.5,2.2,1.2,3.7,3.3,7.3,2.5,11.5-.8,4,1.9,5.9,4.9,7,3.4,1.2,5.2-1.3,6.4-4,1.9-4.4,2.4-9,2.2-13.7-.2-3-.2-6-.1-9,0-2,1.2-3.1,3.2-3,1.8,0,2.7,1.2,2.8,2.9,0,1.2,0,2.3,0,3.5.4,6.9,1.8,13.5,6.3,19.1,1.6,2,3.5,3.8,6.3,3.4,2.7-.4,3.5-2.9,4.2-5.1,1.4-4.7,1.6-9.4.6-14.3-.8-3.9-1.8-7.8-1.5-11.8.1-1.8.7-3.3,2.7-3.6,2-.2,3.1.9,3.5,2.8.6,2.7,1.5,5.5,1.9,8.2,1,6.2,1.2,12.6,5.3,17.9,2.3,3,4.5,7.6,8.5,6.5,4.3-1.2,3.1-6.3,3.3-10,.5-9.4-3.2-18.4-3.1-27.7.1-8.7-4.6-15.3-8.2-23.1-2.7,5.4-6.4,7.7-11.6,7.3-2.2-.2-3.2.8-4.2,2.6-2.3,4.3-6.2,6.3-11.1,6.4-1.3,0-3-.2-3.9.5-4.6,3.5-9.8,3.8-15.2,3.6-.9,0-2.1.1-2.8.7-5,3.7-10.6,4.5-16.5,3.3-2-.4-3.3.2-4.3,2.3-3.4,7.1-8.7,9.7-16.4,7.3-3-.9-5.1-.9-7.1.7,1.6,8.2,9.9,8.3,14.9,12.6.5-1.9-1.6-3.4,0-6.1ZM744.1,296.9c-1.6,2.4-2.8,4.8-4.6,6.7-1.4,1.4-1.2,2.2-.3,3.7,13.5,24.6,17.7,50.9,14.2,78.6-1.1,8.4-3.3,16.7-10.5,22.4,8.7,4.7,15.3,2.9,20.2-5.5,5-8.5,5.8-18,6.3-27.4,1.2-23.2-4-45.5-9.9-67.7-.3-1.1-.6-2-1.8-2-6.6.3-10.1-4.1-13.5-8.8ZM337.5,408.3c-4.4-2.9-6.5-6.8-8-11.1-5.5-16.2-4.7-32.7-2.4-49.3,2-14.5,6.8-28,13.9-40.8.6-1,1.3-1.7,0-3-1.9-2.1-3.4-4.7-5.1-7.1q-5.1,6.4-13.3,8.6c-1.1.3-1.7.6-2,1.8-6,22.8-11.4,45.8-9.9,69.7.5,8.6,1.6,17.2,5.9,25,4.9,8.8,11.2,10.9,20.9,6.1ZM310.2,402.5c-4.5-10.5-6.4-21-6.7-31.9-.2-9.4.7-18.6,2.2-27.8,2-12.6,4.2-25.3,10.9-36.5.7-1.1,1.1-1.9.2-3.1-1.6-2.3-3-4.7-4.8-7.4-4.2,5.6-8.2,11.3-16.1,11.2-1.2,0-1.2,1.4-1.3,2.4-1.3,9-3.4,17.9-4.3,27-2,20-.8,39.5,6.1,58.5,2.5,7,5.6,8.8,13.9,7.7ZM773.6,885.3c.2,1.4.5,3.8,3.5,3.6,2.6-.1,4.4-1.8,4.5-4.5.1-3.1-2.1-3.7-4.7-3.8-2.9-.1-3.3,1.6-3.3,4.6ZM306.5,884.9c0-2.6-.3-4.4-3.2-4.2-2.5.1-4.8.4-4.8,3.6,0,2.9,1.8,4.6,4.6,4.7,2.8,0,3.2-2.2,3.4-4ZM814.4,913.5c-1-2-3.1-2.4-5.2-2.6-1.7-.2-2.4.9-2.2,2.5.4,2.2,1.5,3.6,4,3.5,1.8-.1,3.2-.9,3.4-3.3ZM270.2,910.9c-1.6.8-4.5.4-4.4,3.4,0,2,1.9,2.5,3.7,2.5,2.6,0,3.4-1.8,3.6-3.9.1-1.8-1.1-2.2-2.9-2Z"/>
        <path class="cls-1" d="M737.6,675.4c.6-1.7,1.2-3.4,1.9-5.2,1.7.2,2.7,1.3,3.2,2.8,4.4,14,12,26.6,16.8,40.4,6.3,18.4,9.3,37.5,11,56.8,1.5,17.3,3,34.5,1.5,52-3,35.4-15.3,67.2-36.8,95.2-35.3,45.9-80.4,77.4-137.2,91.1-30.6,7.4-61.4,6-92.5,3.7-72.6-5.5-155.3-66-183.8-134.9-11.4-27.6-15.8-56.4-13.6-86.1,1.7-22.8,3.1-45.6,9.5-67.7,4.1-14.3,10.1-27.8,16.5-41.2,1.2-2.5,2.7-4.9,2.9-7.9.1-1.9,1.2-3.9,3.7-4.2,0,1.2.6,2,1.9,2.1-.3,2-.6,4-.9,6h0c-.8.4-.9,1.1-.8,1.9-1.6,4.2-2.2,8.7-4.4,12.7-6.1,11-9.9,22.9-12.9,35-4.9,20-6,40.5-7.4,61-2.5,36.3,4.2,70.6,21.9,102.7,22.9,41.5,58.3,69.9,99.4,90.8,45.6,23.1,94.4,29.8,145,20,30.6-5.9,59.5-16,84.8-34.9.3-.2.7-.5,1-.7,0,0,0,0,0,0,.4-.3.8-.7,1.1-1h0c3.9-1.8,7.3-4.4,10.6-7.1,16.3-9.9,29.9-22.9,41.7-37.7,17.6-22,31.7-45.8,37.4-73.8,3.2-12.1,5-24.3,5.1-36.8.9-9.5,0-19-.7-28.4-1.3-20.9-3.3-41.7-9-62-4.3-15.4-12.8-29.2-16.8-44.7Z"/>
        <path class="cls-2" d="M377.5,550.6c3.3-3.4,2.1-6.8-.2-9.9-4.9-6.6-9.7-13.1-14.9-19.5-15.1-18.3-25.9-39.2-37-59.9-8.2-15.3-16.7-30.4-22.8-46.8-2.1-5.5-1.8-4.9,3.5-7,5-2,7.1-.1,10.2,3,6,6,14.3,6.6,20.9,1.3,4-3.2,9.7-2.4,12.9-6.8,5.7,6.6,7.7,7,14.2,2.6,2.8,16.8,8.1,32.6,15.5,47.7,6.8,14.1,15.6,26.8,26,38.4,1.5,1.6,2.9,3.1,2.1,5.6-2.1,7-2.9,14.5-6.3,21-6.2,11.6-14.4,21.9-23.5,31.5-.1-.4-.3-.9-.4-1.3Z"/>
        <path class="cls-4" d="M592.1,112.3c5,1.3,10.1,2.6,15.9,4.2-2.3,1.1-3.9,1.9-5.4,2.6-4.5-.6-9.5-.7-10.5-6.8Z"/>
        <path class="cls-5" d="M385.7,679.1c5.1-3.2,7.9-8.2,10.4-13.5,6.3-13.8,7.6-28.6,9.7-43.3,2.4-16.2,6-32,15.1-46.1,2-.3,4-.3,5.9-.8,18-4.8,36.4-6.9,54.9-7.1,15.4-.2,30.8-2,46.4-.3,11.4,1.2,23.2-.3,34.9-.8,24.8-1.2,49.6,1,74.3,4.7,7.4,1.1,14.4,4.2,22,4.4,10.5,16.2,13.7,34.5,16,53.1,1.5,11.9,3.4,23.7,8.1,34.9,2.5,5.9,5.4,11.4,11,15.1,1.6,1.7,2.2,3.4,1.6,5.9-1.1,4.6-.7,9.3-.2,13.9,1.6,15.1,7.9,28.8,13.1,42.9,4.2,11.7,8.3,23.5,8.3,35.9-.3,59.2-22.3,107.7-72.1,141.7-26.2,17.9-55.9,27.3-86.4,34.5-10.8,2.6-21.6,3.5-32.7,1-14.8-3.3-29.5-7.2-43.8-12.3-48.4-17.3-86.6-45.9-106.2-95.5-10.7-27.2-17.1-54.7-11.3-84,2.8-14,8.7-26.9,13.4-40.3,4.8-13.5,8.1-27.1,5.5-41.6.3-.4.5-.7.8-1.1v-.3c.4-.2.6-.5.8-.7h.2c0,0,.1-.2.1-.2Z"/>
        <path class="cls-5" d="M710.1,380.9c-3.9,70.5-38,120.9-102.5,149.5-87.2,38.6-191.8-3.8-226.1-92.2-22.8-58.7-12.5-113.7,27.8-162.1,27-32.3,62.4-51.4,103.8-58.2,86.1-14.2,176.2,42.2,193.9,132.4,2,10,2.8,20.2,3.1,30.6ZM455.7,405.6c-4.5.4-8,2.1-11.1,4.7-.9.7-2.9,1.3-1.8,2.9,1,1.4,2.7,1.1,4,0,3-2.3,6.3-4.4,8.9-7.8ZM533.7,453.7c5.8-1.9,9-4.4,11.2-10-4.3,3.3-7.6,5.8-11.2,10Z"/>
        <path class="cls-4" d="M759.1,847.3c-5.8,28-19.9,51.8-37.4,73.8-11.9,14.8-25.4,27.8-41.7,37.7-4.2,1.5-8.4,2.8-10.6,7.2,0,0,0,0,0,0-.4.3-.8.7-1.1,1,0,0,0,0,0,0-.3.2-.7.5-1,.7-25.3,18.9-54.2,29-84.8,34.9-50.6,9.7-99.4,3.1-145-20-41.1-20.9-76.5-49.3-99.4-90.8-17.7-32.1-24.4-66.3-21.9-102.7,1.4-20.5,2.5-40.9,7.4-61,3-12.1,6.8-24,12.9-35,2.2-4,2.7-8.5,4.4-12.7.3-.7.6-1.3.8-2,0,0,0,0,0,0,2.5-1.1,3.2-4.1,5.4-5.5.6,0,1.2,0,1.7,0,1.5.1,3,.6,4.4.3,3.5-.7,4.9.9,6.1,4,2.8,8,7.3,10.6,15.8,9.3,3.1-.5,3.8.3,3.6,3.2-.4,9.5-3.3,18.3-6.4,27.1-3,8.3-8.1,15.4-11.2,23.6-11.2,29.2-10.7,58.4-1.5,87.8,11.6,36.9,29.5,69.7,61.5,93.1,25,18.3,52.8,30.4,82.5,38.5,9.4,2.6,18.4,6.3,28.7,6,14.3-.4,28.3-1.6,42-5.3,2.5-1.2,6.5,2.8,7.9-2.3,1.6-.5,3.2-1,4.8-1.5,26.4-8.1,51-19.6,73.2-36.2,33.5-25.1,51.5-60.1,62.4-99.4,7.8-28,7-55.8-4.5-82.8-3.9-9-8.9-17.6-12.2-26.9-2.3-6.5-3.9-13.1-4.3-20-.2-3.3.2-5.6,4.9-4.8,5.1.9,9.9-1,13.1-5.5,3.4-2.4,5.6-6.4,10.2-7.3,1.8-.3,4,.9,5.4-1.3.8.9,1.7,1.8,2.5,2.7,4,15.5,12.4,29.3,16.8,44.7,5.7,20.3,7.7,41.1,9,62,.6,9.5,1.6,18.9.7,28.4-1,4.8-2.3,9.6-2.8,14.5-.8,7.4-4.1,14.6-2.2,22.3Z"/>
        <path class="cls-4" d="M424,75c7,3.2,13,7.9,19.6,11.7,11.3,6.6,22.9,13,35.7,16.6,1.3.4,2.5.8,4.5,1.5-5.9,2.5-11.4,2.6-16.7,3.4-2.3.3-4.6.5-6.9.9-2.2.4-4.3,1.7-4.9,3.8-.6,2.2,2.2,2.5,3.3,3.9-.6.4-2.2-.2-1.9.5,1.6,3.6,7,6.3,10.2,5.4,18.4,8.3,32.8,21.6,45.3,37.1,10.5,13,20.5,26.4,24.3,43.2.7,3.3,1.1,4.9-3.3,4.4-3.8-.4-7.5.4-10.8,2.9-3,2.3-7.1,1.3-10.6,1.9-13.5,2.1-26.8,5-39.6,10.1-.9.4-1.8.8-2.8,1-3.6.8-5.8.1-5.5-4.4.6-10.9.3-21.7-2.1-32.4-5.2-23.8-21.5-37.5-42.4-47.2-9.7-4.5-19.8-7.8-30-11-7.1-2.2-13.5-5.6-19.1-10.7,3.6-2.8,7.8-4.4,12.2-5.4,3.9-.9,7.5-.6,9.9,3.4,1.1,1.8,3.2,3.8,5.4,2.3,2.2-1.5.8-4-.2-5.9-2.7-5.3-6.9-9.3-11.7-12.8-9.7-7.1-20.7-11.3-32.3-14-3.1-.7-6.1-1.5-10.1-2.5,9-4,17.5-3.8,26.2-3.1,8.2.7,15.5,5.1,23.8,5.3,2.2,0,1,2.6,2.8,3.2,4.1-5.6,5-14.1,13.5-15.9,4.4-.9,8.6-.6,12.5,1.8-.3.3-.5.6-.8,1-1.9-.6-3.5-.3-4.9,1.4,1.9,1.5,3.8,1.8,5.8,1.7,1.8,0,1.2-1.1.8-2,.4-.4.7-.7,1.1-1.1ZM418.8,79.4c-2.1,1.1-4.5.6-6.8,1.1-1.3.3-3.2,1.6-2.2,2.6,2.7,2.7,6,4.9,9.1,7.2.3.2,1.7-.5,2-1.1,1.4-3.1,3-3.5,5.3-.8.8,1,2.1,1.4,3.1.4,1.2-1.1.9-2.5-.1-3.6-2.9-2.9-6.3-4.8-10.4-5.9ZM486.9,157.3c4.6,6.7,9.3,13.4,14.1,20.4,2.1-6.7-4.1-16.5-14.1-20.4ZM501.6,198.5c.4,2.9,1.5,5.7,2.9,8.3.7,1.2,1.8,2.1,3.3,1.5,1.5-.5,2-1.8,1.7-3.2-.8-3-1.6-6.1-3.8-8.6-.7-.8-1.6-2.1-2.8-1.6-1.5.6-1.2,2.2-1.3,3.5ZM522.8,184.5c1.5,6.2,2.9,11.5,4.2,16.9.2,1,1,1.3,1.9,1.1,1.1-.2,1.6-1.1,1.9-2.1,1-3.7-3.2-13.1-8-16ZM482.4,186.4c2.6-7.2-1.2-14-8.1-15.6,2.7,5.2,6.5,9.3,8.1,15.6ZM480.4,210.2c-.6-1.8-1.1-3.9-1.9-5.9-.4-1-1.1-2.3-2.5-2-1.6.4-1,1.8-.8,2.9.3,1.8.9,3.6.8,5.4,0,1.8-.2,3.7,2,3.7,2.1,0,2.2-2.1,2.3-4.1ZM457.5,139.3c-1.4-1-1.5-3.8-4.2-3.8-1.1,0-1.7,1-1.6,2.1.2,2.4,1.9,3.3,3.9,3.7,1,.2,2-.2,1.9-2Z"/>
        <path class="cls-4" d="M674.4,74.1c5.6,3,6,9.7,9.7,14,5.2-7.8,40.7-11.5,52.1-5.3-5.9,1.5-11.5,2.8-16.9,4.5-12.1,3.7-23.3,9-32.1,18.5-2.4,2.6-4.4,5.4-5.5,8.8-.4,1.4-.3,2.8,1,3.6,1.1.7,2.2,0,3.2-.6.4-.3.9-.5,1.2-.9,4.6-7.2,10.6-4.9,16.6-2.4,2.1.9,4.2,2.1,6.6,3.3-5.3,4.1-10.2,7.7-16.3,9.7-10.3,3.4-20.5,7.1-30.7,10.7-.6-.8-1.5-1.9-2.3-1.1-2.5,2.7-6.6,2.9-8.6,6.3-4.2,2.9-8.6,5.7-12.7,8.9-16.9,13.2-22.9,31.4-23.6,51.9-.2,5.8,0,11.7.1,17.5,0,2.9-.4,4.1-3.5,2.8-16.8-7.2-34.5-10.7-52.6-13.2-4.9-.7-9.4-4.4-15-3.9-1.6.2-1.1-1.7-1.3-2.7-.6-4.2,1.2-7.9,2.9-11.4,14.7-29.8,35.2-54.3,65.2-69.8,4.4-2.3,7.8-5.5,11.7-8.2,1.7-1.1,1.5-2.2.1-3.6-2.5-2.5-5.6-2.9-8.7-3.1-5.3-.3-10.6-1.2-15.8-2.3-1-.2-1.8-.7-3.7-1.4,21.2-5,37.8-17.1,55.4-27.4,3.1-1.8,6.3-3.8,10-4.5,4.3,1.5,8.8,2.3,13.3,1.2ZM660.4,79.6c-3,.8-6.3,2.7-9.1,5.2-1.2,1.1-1.9,2.6-.6,3.9,1.2,1.3,2.5.4,3.4-.6,1.8-1.9,3-2.6,4.7.6,1.5,2.8,5,2.3,5.4-.6.4-2.8,1.7-3.1,3.9-3,1.3,0,2.2-.8,2.3-2.2,0-1.5-1.1-2.1-2.2-2.3-2.3-.4-4.6-.6-7.7-1ZM592.3,156.6c-6.1,4.1-11.2,9.1-14.2,16-.2.6-.2,1.3-.1,2,.1.9-.2,2.2,1,2.6,1.3.4,1.5-1,2-1.7,2.5-3.7,5-7.4,7.4-11.1,1.6-2.4,3.9-4.3,3.9-7.7ZM578.5,198.5c0-1.2.2-2.9-1.1-3.5-1.4-.7-2.4.8-3.2,1.7-2,2.3-2.7,5.3-3.5,8.1-.4,1.5,0,2.7,1.4,3.3,1.7.8,3-.3,3.7-1.7,1.3-2.5,2.4-5.1,2.7-8.1ZM549.1,198.8c0,1.7,0,3.6,2.3,3.7,2.1.1,1.5-1.7,1.7-2.9.6-3.8,1.9-7.4,3.3-10.9.5-1.2,1.4-2.8-.1-3.5-1.3-.6-2.4.9-3.1,2-2.2,3.6-3.3,7.5-4.1,11.6ZM597.3,185.3c1.9-5.2,5.8-9.3,7.9-14.4-7.1,3.1-9.7,7.8-7.9,14.4ZM599.6,210.7c.2,1.6.2,3.6,2.5,3.5,1.9,0,2.1-1.7,1.9-3.3-.1-.8.3-1.7,0-2.5-.5-2.1,2.9-5.3-.3-6-2.7-.6-2.7,3.5-3.6,5.7-.3.8-.4,1.6-.5,2.5ZM589.4,198.9c3.5-6.5,1.5-11.4-.6-16.2,0,0,0,0,.1-.3-.8,5.5.6,10.3.5,16.6ZM628.3,137.7c-.1-1.5-.8-2.6-2.1-2.2-2.1.5-3,2.5-3.7,4.3-.4,1.2.8,1.7,1.8,1.5,2-.4,3.7-1.4,4-3.6Z"/>
        <path class="cls-6" d="M693.3,666.3c-4.5-3.7-4.6-9.3-5.9-14.3-3.5-14.2-4-28.9-6-43.4-4.8-33.7-22.5-57.3-53.8-70.9-1.9-.8-5.3-.9-5.4-2.9-.2-2.5,3.3-2.7,5.2-3.8,12.3-7.1,24.1-14.9,34.4-24.8,2.1-2,4.4-3.9,7.3-6.5.3,6.6,1.4,12.2,2.9,17.8,1,3.6-2.9,5.3-4.8,5.9-3.6,1.1-4,3.3-4.2,6.7-2.8-2.1-6.2-5.8-5.8,1.4,0,1.4-.9,1.6-2,1.1-2.5-1.2-5.2-2.4-6.6-5.1-.4-.8-.3-2.3-1.7-2-1.3.3-1.7,1.5-1.6,2.8.5,4.3,4.2,5.7,7.3,7.6,2.4,1.4,4.6,1.5,7.5.3,6.1-2.6,8.5-8.8,13.8-12.8,1.7,3.6,3.3,7.1,5.1,10.5,8.1,15.6,20.7,27.2,34.7,37.4,12.4,9.1,26.3,15.7,39.4,23.7,10.4,6.3,16.7,12.6,19.3,20.2-3.3-2.8-5.8-5.8-9.4-7.2-2.1-.8-4.1-1.2-5.5.6-1.7,2.3,1.1,3,2.2,4.1,2.7,2.8,5.4,5.5,7,9,1.3,2.7-.2,9.2-2.4,10.7-2.9,2-5.3,1.8-6.9-1.5-1.4-2.7-3.1-5.1-5.5-7.1-1-.8-2-2.2-3.5-1.4-1.7.9-1.4,3.2-.6,4,4,3.9,2.3,9.3,4.4,13.8,2.7,5.7-4.7,14-10.8,12.7-2.4-.5-3.5-2.9-4.9-4.8-2-2.7-3.7-5.6-6.4-7.7-1.2-.9-2.5-1.9-4-.7-1.5,1.2-1.8,2.8-.7,4.4,3.1,4.2,4.7,9.1,6.6,13.9,1.2,2.9,1.7,5.7-1.7,7.1-4,1.6-7.7-.3-8.8-3.8-.5-1.7-1.4-3.4-1.8-5.1-.5-2.1-2.1-3.7-3.8-3.4-2.3.5-1.4,3-1.3,4.7,0,.6.6,1.2.9,1.8-.7,5,1,10-.4,15.2-1.2,4.7-4.6,7.9-9,5.6-3.2-1.7-6.1-4-6.7-8.1-.3-2-.6-3.9-1.2-5.8-.4-1.2-.9-2.7-2.6-2.7-1.6,0-2.1,1.4-2.4,2.8ZM667.8,547.4c-1.4-1.2-2.2-3.9-4.6-2.8-1.7.8-1.6,2.6-1,4.4.4,1.1,2,2.7.4,3.5-1.6.8-3.1-.4-4.1-1.9-.5-.9-.4-2.7-2.2-1.8-1.2.6-1.2,2-.9,3.1.4,2,1.4,3.6,3.6,4.4,4.5,1.7,9.6-.4,13.1-6.1,1.4-2.2,2.5-5.2-.4-6.6-3.1-1.5-2.7,2.3-4,3.8Z"/>
        <path class="cls-6" d="M364.6,659.4c0-.1.2-.3.3-.4,1.1-2,1.8-5,0-5.8-2.5-1.1-3.8,1.6-4.6,3.9-.4,1.3-1.1,2.4-1.5,3.7-1.3,4.1-5.3,6.3-9.2,4.4-3.6-1.8-2.2-4.7-1.1-7.7,1.6-4.4,3.1-8.7,6-12.5,1.1-1.5,1.6-3.5-.1-5-1.9-1.6-3.4-.2-4.8,1-2.5,2.1-4.1,4.8-5.9,7.4-3.7,5.1-6.2,5.7-11.2,2.7-4.4-2.6-6-7.5-4.1-12,1.8-4.3,1.3-9.4,4.2-13.4.5-.7.6-2.4-.6-3.1-1.2-.7-2.2.2-3.1.9-2.5,2-4.4,4.5-5.9,7.3-.9,1.8-2.3,3.8-4.6,2.8-1.9-.9-3.4-1.7-4.5-4.7-2.9-8.1,2.8-11.4,6.6-16,1-1.3,3.9-1.9,2.3-4.2-1.4-2.1-3.7-1.4-5.9-.5-3.5,1.4-5.7,4.4-9.4,7.3,2.9-7.9,8.2-12.5,13.8-16.5,10.7-7.7,22.8-13.2,34-20.1,22-13.7,41.3-30,50.9-55.7,3,2.8,5.6,5.3,7.8,8.4,2.4,3.3,6.4,5.6,10.2,5.3,4.3-.3,8.1-2.9,10.3-7,.7-1.4.8-3.2-.7-4.1-2.2-1.3-1.7,1.1-2.3,2-1.9,2.8-4.7,4.1-7.6,5.2-1.9-1.5.4-4.3-1.8-5.4-2.3-1.2-2.6,2.1-4.8,2.2-.1-3.1-1.3-5.1-4.6-6.4-3.5-1.4-5.9-4.2-3.9-9.1,1.8-4.2,2.2-8.9,2-13.6,2.4-.2,3.2,1.5,4.3,2.6,11.8,11.8,25.2,21.2,39.9,29,1.2.6,3.3.9,3.1,2.7-.2,1.5-2.1,1.4-3.3,1.9-32.8,13.5-51.5,37.6-56.2,72.9-1.9,14.1-2.4,28.5-5.9,42.4-1.3,5-1.6,10.5-5.9,14.3-.3-1.3-.8-2.7-2.4-2.8-1.6,0-2.2,1.5-2.6,2.7-.6,1.7-1,3.5-1.2,5.3-.4,4.4-3.4,6.8-6.7,8.6-4.4,2.3-7.8-.8-9-5.6-1.3-5.2.3-10.1-.4-15.1ZM412.2,547.4c-1.1-1.7-1-5-3.7-3.9-2.7,1.1-2.3,4.1-.8,6,2.1,2.7,4.6,5.2,7.4,7.1,2.9,2,8.5-.7,9.4-4,.4-1.3.6-2.9-.6-3.7-2-1.3-1.8,1.1-2.5,1.9-1,1.3-2.5,2.4-3.8,1.8-1.7-.8-.2-2.3.2-3.4.6-1.7.9-3.6-.8-4.5-2.5-1.4-3.2,1.5-4.8,2.7Z"/>
        <path class="cls-1" d="M364.6,659.4c.7,5-.9,9.9.4,15.1,1.2,4.8,4.6,7.9,9,5.6,3.4-1.8,6.3-4.2,6.7-8.6.2-1.8.6-3.6,1.2-5.3.4-1.2.9-2.7,2.6-2.7,1.6,0,2.1,1.4,2.4,2.8,2.3,4.5-.3,8.6-1.1,12.8,0,0-.1.2-.1.2,0,0-.2,0-.2,0-.2.2-.5.5-.7.7v.3c-.4.4-.7.7-.9,1.1,2.6,14.5-.7,28.1-5.5,41.6-4.7,13.3-10.7,26.3-13.4,40.3-5.8,29.3.6,56.8,11.3,84,19.6,49.6,57.8,78.2,106.2,95.5,14.3,5.1,29,9,43.8,12.3,11.1,2.5,21.9,1.6,32.7-1,30.5-7.2,60.2-16.7,86.4-34.5,49.8-34,71.9-82.5,72.1-141.7,0-12.4-4-24.2-8.3-35.9-5.1-14.1-11.5-27.8-13.1-42.9-.5-4.7-.9-9.3.2-13.9.6-2.4,0-4.2-1.6-5.9-.7-4.3-3.4-8.4-1.1-13,.3-1.4.7-2.7,2.4-2.8,1.6,0,2.2,1.5,2.6,2.7.6,1.9.9,3.8,1.2,5.8.6,4.1,3.5,6.5,6.7,8.1,4.5,2.3,7.8-.8,9-5.6,1.3-5.2-.3-10.1.4-15.2,2.7-.2,3.8,1,4,3.7.3,3.8.2,7.8,2.1,11.3-.2.7-.4,1.3-.6,2-.1.4-.3.8-.4,1.2-.3,1.2-.6,2.5-.9,3.7-3.2,4.6-8,6.4-13.1,5.5-4.7-.8-5.1,1.5-4.9,4.8.4,6.9,2,13.5,4.3,20,3.3,9.3,8.3,17.8,12.2,26.9,11.6,27,12.3,54.8,4.5,82.8-10.9,39.2-28.9,74.3-62.4,99.4-22.1,16.6-46.8,28.1-73.2,36.2-1.6.5-3.2,1-4.7,1.5-2.8.3-5.4,1.1-7.9,2.3-13.8,3.7-27.8,5-42,5.3-10.3.3-19.3-3.4-28.7-6-29.7-8.1-57.5-20.3-82.5-38.5-32-23.4-49.9-56.3-61.5-93.1-9.2-29.3-9.8-58.6,1.5-87.8,3.2-8.2,8.3-15.4,11.2-23.6,3.2-8.8,6.1-17.6,6.4-27.1.1-2.9-.6-3.7-3.6-3.2-8.4,1.4-13-1.3-15.8-9.3-1.1-3.2-2.6-4.7-6.1-4-1.4.3-3-.2-4.4-.3,1-.8,2.2-.6,3.4-.6,7.9-.2,8-.2,8.5-8.2.2-2.8.4-5.1,4-4.8Z"/>
        <path class="cls-2" d="M715.9,407.5c3.4,3,6.5,4,9.8,2.2,6.5-3.7,11.9-1.3,17.2,2.4,7.5,5.2,16.1,4.1,22.4-3.1,2.2-2.4,3.8-3.8,6.9-1.8,2.1,1.3,4.5.5,7.8.5-3.1,7.7-5.6,15.3-9.2,22.3-18.4,35.8-35.7,72.1-62.4,102.9-4,4.6-8.9,9.3-7.8,17.2-6.8-5.3-11.4-11.7-15.7-18.1-4.6-6.7-8.9-13.7-9.1-22.4,0-.5,0-1.1-.4-1.4-5.7-8.1-1.8-13.7,3.7-20.3,18.9-22.4,30.5-48.4,36-77.1.1-.8.3-1.6.6-3.2Z"/>
        <path class="cls-6" d="M624.2,213.7c10.8,8.9,21.8,7.4,33,3.2,7.4-2.8,14.1-6.7,20.9-10.7,10.4-6.1,21.2-11,33.8-10.8,14.1.2,25.7,6.2,36.4,14.6,4.2,3.3,7.8,7.2,11.9,10.7,4.9,4.2,6.1,10.1,8,15.7.8,2.2-.1,4.4-2.4,5.4-2.3,1.1-4.5.9-6.3-1.2-1.3-1.5-2.6-3.1-3.9-4.5-1.6-1.7-3.6-3-5.6-1-1.8,1.8-1.1,4.3.6,5.8,2.7,2.5,3.1,4.9,1.1,7.8-2.1,3.1-4.9,3.1-7.1.2-1-1.3-2-2.7-3.2-3.8-1.4-1.2-3.1-1.3-4.6-.2-1.4,1.1-1.5,2.5-.6,4,1,1.9,2.4,4-.6,5.5-2.6,1.3-5.4,2.2-7.9-.2-1.5-1.4-2.6-3-4.1-4.4-1.3-1.2-2.8-2-4.5-.5-1.4,1.2-1.8,2.5-.9,4.4,2.1,4.5,1.4,5.4-3.5,5.8-5.3.4-10-.1-12.4-5.9-.8-1.9-2.6-3.3-4.8-2.3-2.4,1.1-2.5,3.3-1.4,5.5.7,1.3,1.3,2.7,2.1,3.9,2.6,3.8.6,9.2-3.9,9.9-6.3.9-12.3-1.8-18.6-1.5-.9,0-2-1.6-2.9-2.6-12.6-14.3-27.6-25.5-44.3-34.6-3.2-1.8-4.7-3.6-4.4-7.3.3-3.3,0-6.7,0-10.9Z"/>
        <path class="cls-6" d="M368.3,195.5c12.7-.3,23.3,4.8,33.6,10.8,10.2,5.9,20.4,12,32.4,13.7,6.2.9,12,0,17.3-3.2,3.6-2.1,3.8-1,4.3,2.5,1.1,7.7-1.9,11.9-8.8,15.5-14.7,7.7-27.5,18.2-38.7,30.5-1.4,1.6-2.8,4.3-4.7,4.2-6.6-.6-13,2.9-19.6,1-1.4-.4-2.4-1.9-2.9-3.3-.8-2.2-1.8-4.3.6-6.3.8-.7,1.3-1.9,1.8-3,1-2.2,2-4.6-.7-6.2-2.7-1.5-4.1.5-5.5,2.6-3.6,5.4-7.3,6.8-13.6,5.3-2.5-.6-5.2-1.5-2.5-4.9,1.5-1.9,1.6-3.7-.5-5.2-2.2-1.6-3.8-.2-5.1,1.4-2.5,3-4.9,6.2-9.5,4.5-2.5-.9-4.8-2.1-2.7-5.4,1.1-1.8,1.7-3.8-.7-5.1-2.1-1.1-3.8,0-5.3,1.5-.6.6-1.2,1.2-1.6,2-1.4,2.9-3.5,4.4-6.2,1.9-2.4-2.2-4.3-4.9-1.2-8.1.8-.8,1.6-1.8,2-2.8.6-1.6.8-3.3-.9-4.5-1.5-.9-3-.6-4.1.5-1.7,1.6-3.3,3.3-4.7,5.1-1.9,2.4-4.1,2.8-6.6,1.5-2.5-1.2-3-3.4-2.2-6,1.9-6.2,4.2-12,9.3-16.7,11.6-10.8,23.7-20.5,40-23.2,2.5-.4,5-.3,7.1-.5Z"/>
        <path class="cls-4" d="M256.7,732.6c.6-13.3,3.1-26.2,8.2-38.5,5.7-1.2,3.2-6.2,4.4-9.5,4.9-11.9,13.7-21.2,20.9-31.6,4.4-6.3,12.7-9.1,14.3-17.9,3.9,3.8,7.3,6.8,11.8,8.4,3,1.1,2.5,4.9,4.6,6.8,3.1,2.9.5,4.9-.9,7.3-14.1,23.5-28.8,46.6-34,74.2-4.6,24.8-4.7,49.8-2,74.8,1.4,12.7,3.5,25.4,5.3,38.1-1.1,0-2.2,0-3.3,0-.8-1.8-1.9-3.5-2.4-5.4-.6-2.5-1.3-4.7-4.3-4.4-3.2.3-3.8,2.8-4,5.4-.7,8-1.3,15.9-2,23.9,0,1-.3,2-.4,2.9-.8-.3-1.6-.6-2.4-1-3.2-16.7-6.9-33.3-9.2-50.1.4-13.9-3.5-27.5-3.5-41.4,0-.7-.4-1.2-1.2-1,0-1,0-2,0-3,1.5-5.7.6-11.5.4-17.2-.2-6.9,1.6-13.9-.3-20.8Z"/>
        <path class="cls-4" d="M790.6,845.2c1.7-11,3.4-21.9,5.1-32.9,2.2-2.4,2.1-5.8,3.4-8.6.9-2-.9-2.5-2.2-3.1,1-15.3,1-30.6.2-46-1.5-26.2-9.4-50.3-22.7-72.8-4.6-7.7-9-15.6-13.7-23.3-3.2-5.3-1.4-12.4,4.2-15.5,1.3-.7,2.7-1.2,4.1-1.8.5-.3,1-.6,1.6-.9h-.1c2.3-.1,4.6-.3,6.9-.4,5.6,6.3,11.8,12.1,16.9,18.9,6.6,8.7,13.1,17.5,17.6,27.5,7.6,16.8,11.9,34.5,12,53-1.2,18.3-2.4,36.7-2.3,55.1-.6,13.9-3.6,27.4-6.2,40.9-2.2,11.8-4.8,23.5-6.2,35.4-.1.9,0,2-1.4,2.7-1-7-2.1-13.8-2.1-20.7-.4-5,0-10.1-1.2-15,0,0,0,.1,0,.1.2-2.3-1-4.3-1.6-6.8-.3,1.5-.6,2.6-.9,3.7-3.3-.4-5.3.7-5.9,4.3-.4,2.5-1.5,5-3.2,7.1-.9-.3-1.7-.6-2.6-.9Z"/>
        <path class="cls-6" d="M305.6,240.2c2.8,5.5,6.7,8,12,7.4,2-.2,3,.8,3.8,2.4,2.4,4.6,6.4,6.6,11.5,6.6,2.1,0,3.9.4,5.6,1.6,1.2.8,2.7,1.9,4,1.8,8-.5,14.9,4.8,22.4,4.8,6.4,0,10.2,1.3,13.6,6.9,2.8,4.5,8.6,3.8,12.9,2.6,3.1-.9,5.2-.4,7.9,1-1.7,2.4-3.5,4.9-5.2,7.3-.6.8-1.1,2-2.3,1.6-3.9-1.3-5.4,2-7.8,3.8-.9-2,1.8-3.8,0-6.1-3.4,5.2-6.7,10.3-10,15.4-1,1.6-2.3,2.8-4,3.7-2.1,1.1-4.2,1.3-6-.5-1.6-1.6-2.7-3.3-1.4-5.7,1.8-3.4,1-7.2,1-10.8,0-1.6-.6-3-2.4-3.3-2-.3-3.2.6-3.8,2.5-1.2,3.8-3.2,7.3-2.3,11.6.8,3.9-2.1,5.8-5.2,6.8-3.2,1-4.9-1.4-6.1-3.9-2.6-5.8-2.1-12-2.2-18.2,0-2.7,2.1-7.4-2.9-7.5-4.8-.1-2.7,4.4-3,7-.8,6.5-2,12.8-6.2,18.1-1.6,2-3.5,3.9-6.2,3.5-3-.4-3.7-3-4.5-5.4-2.1-6.3-1-12.5.4-18.7.6-2.5.6-4.9.6-7.4,0-1.7-.7-3-2.5-3.3-2-.3-3.1.7-3.7,2.5-1.6,4.6-2.4,9.4-2.8,14.1-.4,6-3.2,10.8-6.7,15.2-1.6,2-3.6,4.7-6.5,3.6-2.8-1-2.8-4.2-3-6.9-.3-6.3.4-12.6,1.5-18.9.7-3.8,1.7-7.6,1.5-11.3-.5-8.9,4.5-15.7,8.1-24Z"/>
        <path class="cls-6" d="M696.1,281.5c-1.6,2.7.5,4.3,0,6.1-5-4.3-13.3-4.4-14.9-12.6,2-1.6,4.1-1.7,7.1-.7,7.6,2.4,13-.2,16.4-7.3,1-2.1,2.3-2.7,4.3-2.3,6,1.1,11.5.4,16.5-3.3.7-.5,1.9-.7,2.8-.7,5.4.3,10.6,0,15.2-3.6.9-.7,2.6-.5,3.9-.5,4.9-.1,8.7-2.1,11.1-6.4,1-1.8,2-2.8,4.2-2.6,5.2.5,8.9-1.9,11.6-7.3,3.6,7.8,8.3,14.4,8.2,23.1-.1,9.3,3.5,18.3,3.1,27.7-.2,3.7,1,8.8-3.3,10-4,1.1-6.2-3.5-8.5-6.5-4.1-5.3-4.3-11.7-5.3-17.9-.4-2.8-1.3-5.5-1.9-8.2-.4-1.9-1.5-3-3.5-2.8-2,.2-2.6,1.7-2.7,3.6-.3,4.1.7,7.9,1.5,11.8,1,4.9.8,9.6-.6,14.3-.7,2.2-1.5,4.7-4.2,5.1-2.8.4-4.7-1.4-6.3-3.4-4.5-5.6-5.8-12.2-6.3-19.1,0-1.2,0-2.3,0-3.5-.1-1.7-1-2.8-2.8-2.9-2,0-3.2,1-3.2,3,0,3,0,6,.1,9,.2,4.7-.3,9.3-2.2,13.7-1.2,2.8-3,5.2-6.4,4-3.1-1-5.8-2.9-4.9-7,.8-4.2-1.2-7.8-2.5-11.5-.5-1.6-1.7-2.4-3.5-2.2-1.8.2-2.6,1.4-2.6,3.1,0,3.6-.9,7.4.9,10.8,1.4,2.6.3,4.5-1.5,6.1-1.9,1.6-4,1.3-6,.1-3.3-1.9-5.1-5.2-7.1-8.2-2.2-3.5-4.2-7-6.6-11Z"/>
        <path class="cls-6" d="M692.4,289.5c6,2.2,8.4,8.1,12.4,12.2,5.9,6.1,9.4,6.5,16.6,2.2.3-.2.6-.7.8-.6,4.1,2,10,3,11.8,6.2,7.8,13.7,10.8,29.1,12.5,44.8,1.4,12.8,1.4,25.5-1,38.3-.6,3.2-1.6,6.1-3.4,8.8-1.5,2.4-3.7,3.8-6.7,3.4-3.5-.4-5.2-1-3.4-5.5,5.1-13,5.2-26.8,4.3-40.4-.9-13.4-3-26.7-6.8-39.7-.8-2.8-1.6-7.4-4.7-6.6-3,.8-1.5,5.2-.8,8,4.5,18.8,7.4,37.9,6.4,57.3-.4,8-1.6,15.9-4.9,23.3-1,2.2-2.2,5.4-5.2,4.2-2.5-1-4.3-3.8-3.7-7,1.5-7.5.9-15,.8-22.5-.2-29.2-8.7-56-23.2-81.1-.9-1.6-2.2-3-2.2-4.9.1-.2.3-.3.4-.5Z"/>
        <path class="cls-6" d="M388,290c-.8,4.2-3.7,7.4-5.6,11-15.5,28.6-21.5,59.2-19.8,91.5.2,3.5,2.3,7-.4,10.6-2.7,3.5-4.3,3.7-6.6,0-2.1-3.3-3.1-7-3.9-10.7-3.6-17.2-2.4-34.4.4-51.6,1.1-7,2.3-14.1,4.4-20.9.2-.8.3-1.7.2-2.5-.1-1.7.9-4.4-1.3-4.8-2-.4-3.2,1.9-3.8,3.9-3.4,10.5-5.4,21.3-6.8,32.1-1.7,14.1-2.1,28.2.8,42.3.7,3.4,1.5,6.9,3.1,10,1.3,2.5,0,3.1-2,3.7-4.4,1.3-7.3-.4-9.5-4.3-3.4-6-3.9-12.8-4.3-19.3-1.3-24,1.8-47.5,11.9-69.6,1.2-2.7,2.9-3.8,6-4.9,4.6-1.7,7.9-2,12.7,0,6.4,2.6,11.1-2.8,14.3-7.6,2.7-4,5.8-7,9.8-9.2.1.2.3.3.4.5Z"/>
        <path class="cls-2" d="M426.7,567.8c9.2-10.5,20.5-17.9,33.5-23,1.4-.5,3.3-1.4,3.6-2.5,1.5-6.4,5.1-3.2,8.2-2,46,17.7,91.8,17.5,137.6-.7,2.7-1.1,5.1-2.7,6,2,.4,1.8,2.5,2.6,4.2,3.3,13,5,24.3,12.5,33.5,23-1.6.9-3.2.3-4.8-.2-24.9-7.2-50.4-9.1-76.1-9.5-13.3-.2-26.6,2.1-40,1.1-34.6-2.6-68.9-.7-102.5,8.8-1.1.3-2.2.9-3.2-.3Z"/>
        <path class="cls-1" d="M426.7,567.8c.9,1.2,2.1.6,3.2.3,33.6-9.5,67.9-11.4,102.5-8.8,13.4,1,26.6-1.3,40-1.1,25.7.4,51.2,2.3,76.1,9.5,1.6.5,3.2,1,4.8.2,1.7,2.5,4.9,2.6,7,4.4.9.8,2,1.4,1.7,2.7-.3,1.6-1.8,1.1-2.9,1.3-7.6-.2-14.5-3.3-22-4.4-24.7-3.6-49.5-5.9-74.3-4.7-11.6.6-23.4,2.1-34.9.8-15.6-1.7-31,.1-46.4.3-18.5.3-36.9,2.3-54.9,7.1-1.9.5-3.9.6-5.9.8-1.1-.2-2.5.3-2.9-1.3-.3-1.4.8-1.9,1.7-2.7,2.1-1.9,5.3-1.9,7-4.4Z"/>
        <path class="cls-6" d="M744.1,296.9c3.4,4.7,6.9,9.2,13.5,8.8,1.2,0,1.5.9,1.8,2,5.9,22.2,11.1,44.5,9.9,67.7-.5,9.4-1.3,18.9-6.3,27.4-4.9,8.3-11.4,10.2-20.2,5.5,7.2-5.7,9.5-14,10.5-22.4,3.5-27.6-.7-54-14.2-78.6-.8-1.5-1-2.3.3-3.7,1.8-1.9,3-4.3,4.6-6.7Z"/>
        <path class="cls-6" d="M337.5,408.3c-9.7,4.7-15.9,2.7-20.9-6.1-4.4-7.8-5.4-16.4-5.9-25-1.4-23.8,3.9-46.8,9.9-69.7.3-1.2.9-1.5,2-1.8q8.2-2.2,13.3-8.6c1.7,2.4,3.2,4.9,5.1,7.1,1.2,1.3.5,2,0,3-7.1,12.8-11.9,26.3-13.9,40.8-2.3,16.6-3.2,33.1,2.4,49.3,1.5,4.3,3.6,8.2,8,11.1Z"/>
        <path class="cls-6" d="M310.2,402.5c-8.3,1-11.4-.8-13.9-7.7-6.9-19-8.1-38.5-6.1-58.5.9-9.1,3-18,4.3-27,.1-1,0-2.4,1.3-2.4,7.9.1,11.9-5.6,16.1-11.2,1.7,2.7,3.2,5.1,4.8,7.4.9,1.2.5,2-.2,3.1-6.7,11.3-8.9,23.9-10.9,36.5-1.4,9.2-2.4,18.5-2.2,27.8.3,10.9,2.2,21.5,6.7,31.9Z"/>
        <path class="cls-6" d="M774.9,402.7h-4.9c2.2-6.9,4.7-13.5,5.6-20.6,1.4-10.5,1.1-21-.2-31.4-1.6-13.2-3.1-26.6-9.2-38.6-3.3-6.4-2.9-11.1,1.8-16.1,1.9,2.1,3.9,4.3,5.8,6.5,1.4,1.5,3,3.2,4.9,3.2,6.7-.1,6.7,4.7,7.8,9.3,3.7,16.4,4.9,33,3.9,49.6-.6,9.4-2.5,18.8-6,27.6-.3.5-.5,1.1-.8,1.6,0,0,0,0,0,0-2.1,2.6-5.1,4.6-6.1,8.1h0c-1,0-2-.2-2.7.8Z"/>
        <path class="cls-5" d="M821.6,794.4c0-18.4,1.1-36.8,2.3-55.1,1.1,18.5,0,36.8-2.3,55.1Z"/>
        <path class="cls-5" d="M256.6,773.5c.9-.3,1.2.3,1.2,1,0,13.9,3.8,27.5,3.5,41.4-2.8-14-4.3-28.1-4.7-42.4Z"/>
        <path class="cls-5" d="M256.7,732.6c1.9,6.9,0,13.8.3,20.8.2,5.7,1.1,11.5-.4,17.2-1.2-12.7-1.2-25.3.1-38Z"/>
        <path class="cls-2" d="M773.6,885.3c0-3,.3-4.8,3.3-4.6,2.6.1,4.8.7,4.7,3.8,0,2.7-1.8,4.3-4.5,4.5-3,.2-3.3-2.2-3.5-3.6Z"/>
        <path class="cls-2" d="M306.5,884.9c-.2,1.8-.6,4.1-3.4,4-2.8,0-4.6-1.8-4.6-4.7,0-3.1,2.3-3.5,4.8-3.6,2.9-.1,3.2,1.6,3.2,4.2Z"/>
        <path class="cls-5" d="M719.6,681.3c.3-1.2.6-2.5.9-3.7.5-.3.7-.7.4-1.2.2-.7.4-1.3.6-2,1.9-2.1,4.3-.7,6.4-1,2.4-.3,4.7-.5,7.1-.7-1.3,2.2-3.6,1-5.4,1.3-4.6.9-6.8,4.9-10.2,7.3Z"/>
        <path class="cls-2" d="M814.4,913.5c-.2,2.4-1.5,3.1-3.4,3.3-2.5.2-3.6-1.2-4-3.5-.3-1.6.4-2.7,2.2-2.5,2.1.2,4.2.6,5.2,2.6Z"/>
        <path class="cls-2" d="M270.2,910.9c1.8-.2,3.1.1,2.9,2-.2,2.2-1,3.9-3.6,3.9-1.8,0-3.6-.5-3.7-2.5-.1-3,2.8-2.6,4.4-3.4Z"/>
        <path class="cls-5" d="M674.4,74.1c-4.6,1.1-9,.3-13.3-1.2,4.6-1.5,9.1-1.9,13.3,1.2Z"/>
        <path class="cls-5" d="M466.7,122.7c-3.2.9-8.6-1.7-10.2-5.4-.3-.7,1.3,0,1.9-.5,2.5,2.4,5.1,4.5,8.3,5.8Z"/>
        <path class="cls-5" d="M796.9,800.6c1.3.7,3,1.1,2.2,3.1-1.2,2.8-1.2,6.1-3.4,8.6.4-3.9.8-7.8,1.2-11.7Z"/>
        <path class="cls-5" d="M652.6,143.2c1.9-3.3,6.1-3.6,8.6-6.3.8-.9,1.7.3,2.3,1.1-3.6,1.7-7.2,3.5-10.8,5.2Z"/>
        <path class="cls-5" d="M347,673c-2.2,1.4-2.9,4.4-5.4,5.5.3-2,.6-4,.9-6,1.9-3.1,3,.7,4.5.6Z"/>
        <path class="cls-5" d="M270.6,866c.8.3,1.6.6,2.4,1-.3,3.1-.6,6.2-.9,9.9-1-3.9-1.6-7.3-1.5-10.8Z"/>
        <path class="cls-5" d="M286.1,844.6c1.1,0,2.2,0,3.3,0,.7,2.7,1.4,5.3,2.1,8-.3.1-.5.3-.8.4-1.5-2.8-3-5.6-4.5-8.4Z"/>
        <path class="cls-5" d="M269.3,684.6c-1.2,3.3,1.3,8.3-4.4,9.5,1.1-3.3,2.3-6.6,4.4-9.5Z"/>
        <path class="cls-5" d="M777.3,639.9c-2.3.2-4.6.3-6.9.5,1.5-1.6,3-3.2,4.5-4.8,1.4,1.3,2,2.8,2.4,4.3Z"/>
        <path class="cls-5" d="M790.6,845.2c.9.3,1.7.6,2.6.9-1.2,2.3-2.4,4.6-3.7,6.9-.3,0-.6-.2-.8-.3.7-2.5,1.3-5,2-7.6Z"/>
        <path class="cls-5" d="M804.5,837.6c1.2,5,.8,10,1.2,15-1.2-5-.8-10-1.2-15Z"/>
        <path class="cls-2" d="M777.5,401.9c1-3.5,4-5.5,6.1-8.1-.7,3.7-2.3,6.7-6.1,8.1Z"/>
        <path class="cls-5" d="M802.2,834.7c.3-1.1.5-2.2.9-3.7.6,2.5,1.8,4.5,1.6,6.8-.8-1-1.6-2.1-2.4-3.1Z"/>
        <path class="cls-6" d="M387.6,289.6c.6-.5,1.1-.9,1.7-1.4,0,.1.2.3.2.4,0,.9-.8,1.2-1.5,1.5-.1-.2-.2-.3-.4-.5Z"/>
        <path class="cls-6" d="M692,290c-.7-.3-1.4-.5-1.5-1.5,0-.1.1-.3.2-.4.6.5,1.1.9,1.7,1.4-.1.2-.3.3-.4.5Z"/>
        <path class="cls-2" d="M774.9,402.7c.7-1,1.7-.8,2.7-.9-.6,1.1-1.7.9-2.7.9Z"/>
        <path class="cls-4" d="M422,74c.7.3,1.4.7,2,1-.4.4-.7.7-1.1,1.1-.6-.4-1.1-.8-1.7-1.1.3-.3.5-.6.8-1Z"/>
        <path class="cls-5" d="M770.5,640.3c-.5.3-1,.6-1.6.9.5-.3,1-.6,1.6-.9Z"/>
        <path class="cls-2" d="M783.5,393.9c.3-.5.5-1.1.8-1.6,0,.7,0,1.3-.8,1.6Z"/>
        <path class="cls-5" d="M759.1,847.3c-1.9-7.7,1.4-14.9,2.2-22.3.5-4.9,1.9-9.7,2.8-14.5,0,12.5-1.9,24.8-5.1,36.8Z"/>
        <path class="cls-5" d="M669.3,966c2.2-4.4,6.4-5.8,10.6-7.2-3.3,2.8-6.7,5.4-10.6,7.2Z"/>
        <path class="cls-5" d="M341.6,678.3c-.3.7-.6,1.3-.8,2,0-.8,0-1.5.8-2Z"/>
        <path class="cls-5" d="M668.2,966.9c.4-.3.8-.7,1.1-1-.4.3-.8.7-1.1,1Z"/>
        <path class="cls-5" d="M667.3,967.6c.3-.2.7-.5,1-.7-.3.2-.7.5-1,.7Z"/>
        <path class="cls-3" d="M384.6,680c.2-.2.5-.5.7-.7-.2.2-.5.5-.7.7Z"/>
        <path class="cls-3" d="M383.7,681.4c.3-.4.5-.7.8-1.1-.3.4-.5.7-.8,1.1Z"/>
        <path class="cls-4" d="M455.7,405.6c-2.7,3.4-5.9,5.5-8.9,7.8-1.3,1-3.1,1.3-4,0-1.1-1.6.9-2.2,1.8-2.9,3.1-2.6,6.6-4.4,11.1-4.7Z"/>
        <path class="cls-4" d="M533.7,453.7c3.6-4.3,6.9-6.7,11.2-10-2.2,5.6-5.5,8.1-11.2,10Z"/>
        <path class="cls-5" d="M574.3,960.6c2.5-1.1,5.1-1.9,7.9-2.3-1.4,5-5.4,1.1-7.9,2.3Z"/>
        <path class="cls-3" d="M418.8,79.4c4.1,1.1,7.5,3,10.4,5.9,1,1,1.3,2.5.1,3.6-1,.9-2.2.5-3.1-.4-2.3-2.6-3.9-2.3-5.3.8-.3.6-1.7,1.3-2,1.1-3.1-2.3-6.4-4.5-9.1-7.2-1-1,.8-2.3,2.2-2.6,2.3-.6,4.7,0,6.8-1.1Z"/>
        <path class="cls-3" d="M486.9,157.3c10,4,16.3,13.7,14.1,20.4-4.8-7-9.5-13.7-14.1-20.4Z"/>
        <path class="cls-3" d="M501.6,198.5c.2-1.3-.2-3,1.3-3.5,1.3-.5,2.1.8,2.8,1.6,2.2,2.4,3,5.5,3.8,8.6.4,1.4-.2,2.7-1.7,3.2-1.5.5-2.7-.3-3.3-1.5-1.5-2.6-2.5-5.4-2.9-8.3Z"/>
        <path class="cls-3" d="M522.8,184.5c4.8,2.9,9,12.2,8,16-.3,1-.7,1.9-1.9,2.1-.9.1-1.6-.1-1.9-1.1-1.3-5.4-2.7-10.7-4.2-16.9Z"/>
        <path class="cls-3" d="M482.4,186.4c-1.6-6.3-5.4-10.4-8.1-15.6,7,1.6,10.7,8.4,8.1,15.6Z"/>
        <path class="cls-3" d="M480.4,210.2c0,2-.2,4.1-2.3,4.1-2.3,0-2.1-1.9-2-3.7,0-1.8-.5-3.6-.8-5.4-.2-1.1-.8-2.5.8-2.9,1.4-.3,2.1.9,2.5,2,.8,2,1.3,4.1,1.9,5.9Z"/>
        <path class="cls-3" d="M457.5,139.3c.1,1.8-.9,2.2-1.9,2-2-.4-3.8-1.3-3.9-3.7,0-1.1.5-2.1,1.6-2.1,2.7,0,2.8,2.8,4.2,3.8Z"/>
        <path class="cls-5" d="M421.2,75c.6.4,1.1.8,1.7,1.1.4.9,1,2-.8,2-2,0-3.9-.2-5.8-1.7,1.4-1.7,3-2,4.9-1.4Z"/>
        <path class="cls-3" d="M660.4,79.6c3.1.4,5.5.6,7.7,1,1.2.2,2.2.8,2.2,2.3,0,1.4-1,2.2-2.3,2.2-2.2,0-3.5.2-3.9,3-.5,3-4,3.4-5.4.6-1.6-3.1-2.8-2.5-4.7-.6-1,1-2.3,1.8-3.4.6-1.2-1.3-.6-2.8.6-3.9,2.9-2.6,6.2-4.4,9.1-5.2Z"/>
        <path class="cls-3" d="M592.3,156.6c0,3.4-2.3,5.3-3.9,7.7-2.5,3.7-4.9,7.4-7.4,11.1-.5.7-.6,2.1-2,1.7-1.2-.4-.8-1.6-1-2.6,0-.6-.1-1.4.1-2,2.9-6.9,8.1-11.9,14.2-16Z"/>
        <path class="cls-3" d="M578.5,198.5c-.4,3-1.5,5.6-2.7,8.1-.7,1.4-2,2.4-3.7,1.7-1.3-.6-1.8-1.9-1.4-3.3.8-2.9,1.5-5.8,3.5-8.1.8-1,1.8-2.4,3.2-1.7,1.3.6,1.1,2.3,1.1,3.5Z"/>
        <path class="cls-3" d="M549.1,198.8c.8-4.1,1.9-8.1,4.1-11.6.7-1.1,1.8-2.6,3.1-2,1.5.7.6,2.3.1,3.5-1.4,3.5-2.7,7.1-3.3,10.9-.2,1.2.3,3-1.7,2.9-2.3-.1-2.3-2-2.3-3.7Z"/>
        <path class="cls-3" d="M597.3,185.3c-1.8-6.6.8-11.4,7.9-14.4-2.1,5.1-5.9,9.2-7.9,14.4Z"/>
        <path class="cls-3" d="M599.6,210.7c.2-.9.2-1.8.5-2.5.9-2.2.9-6.3,3.6-5.7,3.2.7-.2,3.9.3,6,.2.8-.2,1.7,0,2.5.3,1.7,0,3.3-1.9,3.3-2.2,0-2.3-2-2.5-3.5Z"/>
        <path class="cls-5" d="M589.4,198.9c.1-6.2-1.4-11.1-.5-16.6-.1.4-.1.4-.1.3,2.2,4.8,4.1,9.7.6,16.2Z"/>
        <path class="cls-3" d="M628.3,137.7c-.3,2.2-1.9,3.2-4,3.6-1,.2-2.3-.3-1.8-1.5.6-1.8,1.6-3.7,3.7-4.3,1.3-.4,2,.7,2.1,2.2Z"/>
        <path class="cls-3" d="M667.8,547.4c1.3-1.5.9-5.3,4-3.8,2.9,1.4,1.7,4.4.4,6.6-3.5,5.7-8.6,7.8-13.1,6.1-2.2-.8-3.1-2.4-3.6-4.4-.2-1.1-.3-2.5.9-3.1,1.7-.9,1.6.9,2.2,1.8.9,1.5,2.5,2.8,4.1,1.9,1.6-.8,0-2.4-.4-3.5-.6-1.8-.7-3.7,1-4.4,2.4-1.1,3.2,1.6,4.6,2.8Z"/>
        <path class="cls-3" d="M412.2,547.4c1.6-1.2,2.3-4.1,4.8-2.7,1.7.9,1.4,2.8.8,4.5-.4,1.1-1.9,2.6-.2,3.4,1.3.6,2.8-.5,3.8-1.8.7-.9.4-3.2,2.5-1.9,1.2.8,1,2.4.6,3.7-.9,3.3-6.5,6-9.4,4-2.8-1.9-5.3-4.5-7.4-7.1-1.5-1.9-1.9-4.9.8-6,2.8-1.1,2.6,2.2,3.7,3.9Z"/>
        <path class="cls-3" d="M720.9,676.4c.3.6,0,.9-.4,1.2.1-.4.3-.8.4-1.2Z"/>
      </g>
    </g>
  </g>
</svg>