<?xml version="1.0" encoding="UTF-8"?>
<svg xmlns="http://www.w3.org/2000/svg" version="1.1" viewBox="0 0 1080 1080">
  <defs>
    <style>
      .cls-1 {
        fill: #81c3e5;
      }

      .cls-2 {
        fill: #44455a;
      }

      .cls-3 {
        fill: #fff;
      }

      .cls-4 {
        fill: #6baa46;
      }

      .cls-5 {
        fill: #757ab3;
      }

      .cls-6 {
        fill: #efde6e;
      }
    </style>
  </defs>
  <!-- Generator: Adobe Illustrator 28.6.0, SVG Export Plug-In . SVG Version: 1.2.0 Build 709)  -->
  <g>
    <g id="Layer_1">
      <g>
        <path class="cls-3" d="M699.8,834.9c-.4-1.1-.8-2.3-1.2-3.4,1.5-1.4,3.6-1.5,5.4-2.2,2.8-1,4.4-3.3,2.3-5.7-5-5.7-5-12.7-5.9-19.4-1.3-10.2-2.2-20.4-9.7-28.4-.6-.7-.8-1.3-.6-2.2,3-11.8,3.9-24.1,7.7-35.8,8-24.9,20.4-47.7,34.7-69.4,13.9-21.1,29-41.5,42.6-62.8,28-44.1,42.2-92.2,38-144.6-2.4-30.2-13.6-57.2-36-78.5-19.3-18.4-42.8-29.6-68-37.6-2.6-.8-6.3,0-8.1-1.6-2.6-2.2,2.3-5,1.2-8,0-.2.3-.5.4-.8,8,2.3,16,2.4,23.9,0,2.1-.6,3.9-.7,5.9.9,19.8,15.7,45.3,15.4,64.6-.8,12-10,17.4-23,12.9-38-4.6-15.8-14.4-27.8-31.8-31.2-2.7-.5-4.1-1.4-4.9-4.3-3-10.1-9.3-17.4-19.6-20.7-4.2-1.4-8.6-1.5-13.1-1,0-.8,0-1.2.1-1.4,17.9-23.7,29.4-50.4,36.2-79.1,3.3-14,5.7-28.3,2-42.7-1.3-5-2.3-7.9,3.4-11.5,7-4.4,7.6-13.1,8.2-20.9,0-1.2-.7-2.6.7-3.6,5.7-4.2,6.5-9.9,3.9-15.8-2.5-5.8-8.3-6.7-13.8-6.9-8.4-.3-10.4,2.3-8.8,11-8.5-2.1-15.1.4-19.2,8.3-3.7,7.1-6.6,14.2.5,21.5-9.5,2.8-17,8-23.3,14.6-6.5,6.9-13.4,13.3-18.4,21.6-7.5,12.4-15.1,24.6-20.7,37.9-4.2,9.9-8.1,19.9-10.8,30.2-2.1,8-5.3,16-4.2,24.2.6,5-.4,7.7-4.2,10.1-.4-2.3-.8-4.6-1.2-7,.2-3-.8-5.8-1.6-8.6-4.5-16.9-17.1-24.5-34-20.3-1.8.4-2.8,0-3.7-1.3-5-7.5-12.7-9.7-21-10.3-21.1-1.7-40.4,10-50.9,30.3-15.3,29.7-5.1,61.2,33,71.7,1.4.4,3.2.7,4.4.1,2.9-1.3,3.6.2,4.4,2.5,2.9,8.5,8.1,15,16.3,19,2.5,1.2,6.7.4,7.4,3.6.6,2.7-2.9,4.9-3.4,7.9-.1.9-1,1.7-1.5,2.5-.6-.2-1.3-.3-1.9-.5-1.7-3.2-3.7-6.2-6.9-8.1-24.6-15.3-50.3-17.1-76.6-5.4-19.1,8.5-33.2,23.1-45.2,39.9-8.8,12.4-17.3,25.1-26.6,37.1-6.7,8.6-13.7,17-26.8,16.1-7.9-.6-15.9,1.3-23.8-1.7-6.3-2.4-13.1-3.3-20-2.4-1.1-5.3-5.4-7.6-9.6-9.9-3.9-5.6-5.4-12-5.7-18.6-1.2-24.7,3.1-48.9,7.5-73.1,1.4-7.9,4.8-15.4,4.1-23.7.5-2.6-.2-5-.8-7.4,5,.2,9.9.5,14.9.7,1.3,0,2.7,0,3.9-.2,4.4-.9,5.3-3,3.1-6.8-.4-.8-.7-1.3-.4-2.2,4.5-11.9,5-24.5,6.2-37,1.2-12.4.8-12.5-11.1-14.2-3.1-.4-3.6-1.5-3.6-4.3-.4-18.5-1.6-36.9-4.9-55.2-5.1-28.3-20-49.1-46-61.8-9.4-4.6-19-8.5-28.7-12.3-15.6-6.1-31.6-8-48.2-5.8-.9.1-2.1.3-2.9-.2-4-2.2-7-.5-9.7,2.2-5.5,5.5-10.8,11.2-16.4,16.5-7.2,6.8-13.9,14.2-22.6,19.3-5.7,3.3-5.9,7.1-.2,10.6,12.6,7.9,25.9,14.7,37.5,24.1,2.5,2.1,5.5,2.3,8.2,0,2.7-2.3,5.8-2.8,9.2-2.8,29.4-.6,54.4,18.5,62,47.3.8,3,2.2,5.9,2.9,8.9.7,3.2,2.3,1.9,3.9,1.2,0,2.6,0,5.1,0,7.7-6.9.8-13.8-.5-20.7,1.2-5.6,1.4-6.4,2.4-5.7,8.1,1.6,14.6,1.5,29.3,0,43.9-1,9.6-.6,10.4,8.8,9.5,1-.1,2-.2,3-.3-.6,4-3.4,7.5-2.9,11.7-2.1,2.3-1.2,5.4-1.7,8-2.3,12.8-4.8,25.7-6.3,38.6-2.3,19.1-1.2,38.3,1.1,57.4,2.3,18.8,7,36.9,16.1,53.7,5.7,10.5,13.4,18.9,24.8,23.1,2.6,1,2.8,2.6,2.9,4.9.7,12.4,3,24.3,11.2,34.2,1,1.2,1.2,2.3.3,3.5-5,6.7-5.8,15.8-12.4,21.6-.9.8-1,2.1-.5,3.2.7,1.7,0,3.2-.6,4.7-7.6,20.8-13.4,42.1-15.7,64.3-1.9,18.5-1.9,37,3.6,55,4.9,16.3,13.7,29.6,30.2,36.5,23.2,9.7,54.6,3.6,72.4-14.1,1.1-1.1,1.8-2.8,4.1-3.2.2,8.4,4.4,14.7,10.5,19.8-.8,1.4-1.7,2.8-2.5,4.2-.8,1.4-1.7,2.8-2.4,4.3-24.3,56-48.3,112.1-71.9,168.4-6.2,14.9-11.2,30.3-19.9,44.1-1.6,2.6-2.5,2.8-5.1,1.1-8.1-5.2-17.1-2.9-22.4,5.2-3.1,4.8-5,10.2-5.1,15.9-.3,25.3,1,50.5,10.3,74.6,0,0-.2.2-.5.2-7.8.4-13.1,4.4-14.5,11-1,4.8,1.6,8.1,9.5,11.3,2.6,1,2,2.2,1.6,4.1-2.7,11.9,3.5,23.2,14.7,26.8,11.3,3.7,23.1-1.6,27.6-12.9,1.4-3.4,2.5-3.1,5.2-1.8,5.9,2.9,10.6,1.6,14-3.2,4.3-6.2,4.4-12.8.1-17.3-1.7-1.9-4.3-2.3-6.6-3.6,4.5-2.4,8.8-4.3,12.6-6.8,16.5-10.8,31.8-23.1,46.4-36.4,5.1-4.7,9.8-9.9,13-16.1,5.9-11.4.2-21-12.6-21.7-5.6-.3-11.1.6-17,2.2,1.8-6.6,4.8-12,7.2-17.7,29.5-69.2,58.3-138.7,86.9-208.3,1.2-3,2.4-4.8,6.2-4.8,5.4,0,10.2-1.8,13.9-6.4,1.6-2,.7-4.2,1.9-6.2,4.4-7.2,8.3-14.7,12.1-22.2,4-7.9,8.3-15.9,9.6-24.8.9-5.9,1.1-12.1-3.5-16.9-2.3-2.4-2-4.3-.9-7,25.3-60.4,50.6-120.8,75.8-181.3,9.8-23.4,19.4-47,29.1-70.4.6-1.5.5-4.1,3.1-3.8,5.9.7,11.7,1.4,16.7,5.2,5.1,3.9,7.4,10.2,12.7,13.7,4,2.7,6.6,6.3,8.8,10.4,18.3,34.1,21.4,70,12.9,107.2-5.6,24.7-17.8,46.5-30.9,67.8-13.3,21.7-26.6,43.4-37.6,66.4-20.4,42.9-32.4,87.9-34.4,135.5-.9,1.4-.4,2.9-.4,4.3-3.5,1-7,2-10.4,3.1-2,.7-3.5,1.9-3.6,4.2-.5,10.5.8,21,1.1,31.5.3,10,2.7,19.2,7.5,27.9,2.7,5,4.3,5.4,8.1,1.5,1.4-1.4,2.9-1.4,4.5-1.2,1.6.2,1.3,1.6,1.5,2.7,3.3,18.4,9.8,35.6,18,52.2,25.5,51.6,90.8,69,139.4,40.6,30.9-18.1,49.8-46.1,63.9-78,1.5-3.4,2.8-4.1,6.1-3.1,2.7.8,5.5,1.1,8.3,1.6,1.3.2,2.7.3,3.3-1.3.6-1.5-.3-2.7-1.5-3.3-2-1.1-4.2-1.8-6.3-2.7.7-.7,1.4-1.5,2.1-2.2,4.1,3.5,5.2.3,5.7-2.9,1.5-9.8,2.8-19.6,4.2-29.3.5-3.2-.4-7.1,4.4-8.1.9-.2,1.4-1.3,1.5-2.4.2-2.4-5.2-10.1-7.7-10.2-3-.1-2.2-1.2-1.9-3.3,2.3-14.8,7.3-29.1,7.8-44.2-.6.2-.6.3,0,.2,0,0,0-.3.1-.4,2.2-12,3.1-23.9,0-35.9-1.4-18.5-3.9-36.7-11.1-54-4.1-9.8-8.5-19.4-16.8-26.5-11.7-9.9-24.6-8.6-34.2,3.3-8.4,10.4-10.2,23.1-11.6,35.8-1.9,17-.7,34,.7,51,1.4,15.8,3,31.6,3.7,47.5.1,3.2-1.1,7.5,3.8,9.1.6.2.9,2.1.9,3.1,0,1.7-1.7,1.2-2.7,1.2-1.1,0-2.3,0-3.5-.1-11.1-.7-14.4,2.2-16,13.2-.5,3.3.7,7.6-4,9.1-.7.2-.7,1.1,0,1.6,2.7,2,1,4.2.3,6.2-2.2,6.5-3.2,13.1-3.3,20,0,6.7.8,7.4,7.1,5.8,2-.5,4.2,0,5.6,1.2,1.7,1.5-.4,2.9-1,4.2-2.9,6.4-6.9,12-11.6,17.2-9.6,10.5-21.1,16.8-35.7,16.6-6.2-1.2-12.4-2.5-18.6-3.7-6.9-2.5-12.8-6.6-18.2-11.6-9.7-9-15.3-20.5-20.3-32.4-.5-1.4-1.1-2.8-1.6-4.2ZM244.8,979.3c0-2.9-1.4-4.8-4.3-5-2.9-.2-4.7,1.5-4.8,4.4-.1,2.6,1.4,4.4,4.1,4.7,3,.3,4.6-1.3,5.1-4.1Z"/>
        <path class="cls-2" d="M758.6,886.8c14.6.1,26.1-6.2,35.7-16.6,4.7-5.1,8.7-10.8,11.6-17.2.6-1.4,2.7-2.8,1-4.2-1.4-1.2-3.6-1.7-5.6-1.2-6.3,1.6-7.2.9-7.1-5.8,0-6.8,1.1-13.5,3.3-20,.7-2,2.4-4.2-.3-6.2-.7-.5-.6-1.4,0-1.6,4.7-1.6,3.6-5.9,4-9.1,1.6-11,4.9-13.9,16-13.2,1.2,0,2.3.2,3.5.1,1,0,2.6.5,2.7-1.2,0-1.1-.3-3-.9-3.1-4.9-1.6-3.7-5.9-3.8-9.1-.7-15.9-2.3-31.7-3.7-47.5-1.5-17-2.7-34-.7-51,1.4-12.7,3.2-25.3,11.6-35.8,9.6-11.9,22.5-13.2,34.2-3.3,8.3,7.1,12.7,16.6,16.8,26.5,7.2,17.3,9.7,35.5,11.1,54,.5,12,1.2,24.1,0,36.1-.5,15.1-5.5,29.4-7.8,44.2-.3,2.1-1.1,3.2,1.9,3.3,2.4,0,7.9,7.8,7.7,10.2,0,1.1-.6,2.2-1.5,2.4-4.8.9-3.9,4.9-4.4,8.1-1.4,9.8-2.7,19.6-4.2,29.3-.5,3.1-1.6,6.3-5.7,2.9-1.2-2.9-2.9-5.7-2.2-9.2.4-1.8-1.2-1.9-2.5-2.4-6.5-2.3-13-4.7-19.5-7.1-1.4-.5-2.4-.8-3.5.5-1.7,2.2-4,3.9-5.4,6.4-1.4,2.4-1.8,3.8,1.7,4.8,9.8,2.9,19.5,6.2,29.2,9.3,2.1.9,4.3,1.7,6.3,2.7,1.2.6,2,1.8,1.5,3.3-.6,1.6-2,1.5-3.3,1.3-2.8-.5-5.6-.7-8.3-1.6-3.3-1-4.6-.2-6.1,3.1-14.1,31.9-33,59.9-63.9,78-48.5,28.4-113.9,11.1-139.4-40.6-8.2-16.7-14.7-33.9-18-52.2-.2-1.1,0-2.5-1.5-2.7-1.6-.2-3.2-.3-4.5,1.2-3.8,4-5.4,3.5-8.1-1.5-4.8-8.7-7.2-17.9-7.5-27.9-.3-10.5-1.6-20.9-1.1-31.5.1-2.3,1.6-3.6,3.6-4.2,3.4-1.1,6.9-2.1,10.4-3.1,2.2.3,4.2-.4,6.2-1.1,3.7.9,7.2-.6,10.8-.6,11.9,0,23.3-3.6,34.9-5.1,2.1-.3,3.5-1.9,3.9-4,.4-2.2-1.4-2.3-2.8-2.5-1-.2-1.4-.9-1.4-1.8,0-3.5-.4-7.1.3-10.5,2.7-13.2,6.3-26.1,10.4-39,1.9-4.8,4.7-9.2,5.6-14.4,3.1-5.7,6.1-11.5,9.3-17.2,7.3-13,14.6-26,22.7-38.5.8-1.2,2.7-2,1.9-4h0c5.6-5,9.3-11.4,13-17.9h0c2.3-.8,3.1-2.9,4-4.9h0c1.2-.6,1.8-1.6,2-2.9h0c.7,0,.8-.5.8-1.1,12.4-17.1,23.7-35,31.5-54.7,14.6-36.9,22.7-74.8,15.2-114.6-5.2-27.7-18.3-51-41.3-68.2-18.8-14.1-40.9-21.3-62-30.5-2.5-1.1-5.4-.4-6.6,2.8-1.1,2.8-2.2,5.5-3.3,8.2-1.9,5.1-1.3,5.8,3.8,6.9,8.8,1.9,16.9,4.9,23.1,12.1,14.9,17.3,24.6,37.1,29.7,59.3,4.7,20.2,5,40.5,1.6,60.9-4.2,25.7-14.6,49.1-28,71.3-16.8,27.8-34.3,55.2-47.6,84.9-15,33.4-22.7,68.6-27.5,104.6-.8,5.6.5,11.7-2.5,17-2.6,0-4.8,1.8-7.5,1.1,2-47.6,14-92.6,34.4-135.5,10.9-23,24.2-44.7,37.6-66.4,13.1-21.3,25.3-43.1,30.9-67.8,8.5-37.3,5.4-73.2-12.9-107.2-2.2-4.1-4.8-7.8-8.8-10.4-5.3-3.5-7.6-9.9-12.7-13.7-5-3.8-10.8-4.5-16.7-5.2-2.6-.3-2.5,2.2-3.1,3.8-9.7,23.5-19.3,47-29.1,70.4-25.2,60.5-50.5,120.9-75.8,181.3-1.1,2.7-1.4,4.6.9,7,4.6,4.7,4.3,10.9,3.5,16.9-1.3,9-5.5,16.9-9.6,24.8-3.8,7.5-7.7,15-12.1,22.2-1.3,2.1-.3,4.2-1.9,6.2-3.7,4.6-8.5,6.4-13.9,6.4-3.8,0-4.9,1.8-6.2,4.8-28.6,69.6-57.4,139.1-86.9,208.3-2.4,5.7-5.4,11.1-7.2,17.7,5.9-1.5,11.3-2.5,17-2.2,12.8.7,18.5,10.3,12.6,21.7-3.2,6.2-7.9,11.4-13,16.1-14.5,13.3-29.9,25.6-46.4,36.4-3.9,2.5-8.1,4.4-12.6,6.8,2.3,1.3,4.9,1.7,6.6,3.6,4.2,4.5,4.2,11-.1,17.3-3.4,4.8-8.1,6.1-14,3.2-2.7-1.3-3.8-1.6-5.2,1.8-4.6,11.3-16.4,16.6-27.6,12.9-11.2-3.7-17.4-15-14.7-26.8.4-1.8,1-3.1-1.6-4.1-8-3.2-10.5-6.5-9.5-11.3,1.4-6.6,6.6-10.6,14.5-11,.3,0,.5-.2.5-.2-9.3-24.1-10.6-49.2-10.3-74.6,0-5.6,1.9-11.1,5.1-15.9,5.3-8.1,14.3-10.3,22.4-5.2,2.6,1.7,3.4,1.5,5.1-1.1,8.7-13.8,13.6-29.3,19.9-44.1,23.6-56.3,47.6-112.4,71.9-168.4.7-1.5,1.6-2.9,2.4-4.3,4.3.2,2.6,3,1.9,4.9-3.5,8.9-7,17.8-10.7,26.6-22.6,53.8-45.2,107.6-68,161.3-4,9.5-7.2,19.4-13,28.2-.9,1.3-2.5,3-1.3,4.9,3.7,5.8,5.6,12.3,7.7,19.5,1.5-3,2.5-5.2,3.7-7.4,3.3-6.2,7.3-11.8,12.9-16.2,8.8-6.9,18.4-3.9,21.9,6.7,1.8,5.7,2.2,11.6,1.4,17.6-.7,5.9-2.4,11.5-4.1,18.2,3.6-2.7,6.1-5.1,9.1-6.7,4.2-2.3,6.6-5.6,8.5-9.8,8.2-17.2,16.4-34.5,23.6-52.2,6-14.6,12.1-29.2,18.2-43.8.2-.6.5-1.1.7-1.7v-.2c1.8-3.1,3.4-6.2,4-9.8h0c1.7-2,2.6-4.4,3-7h0c.9-.4.9-1.2,1-2h0c1.2-1.5,1.9-3.1,2-5h0c.9-.4.9-1.2,1-2h0c.3-.7.6-1.3.9-1.9,0,0,.2-.3.2-.3.2-.5.5-1,.7-1.5,7-14.6,12.9-29.6,19.2-44.4,7.7-18,15.6-36,23.5-53.9,1.3-3,.9-3.8-2.6-4.6-21.7-4.9-43.1-10.9-62.7-21.8-6.1-5.2-10.3-11.5-10.5-19.8-2.3.4-3,2.1-4.1,3.2-17.8,17.7-49.2,23.8-72.4,14.1-16.5-6.9-25.2-20.2-30.2-36.5-5.5-18-5.5-36.5-3.6-55,2.3-22.1,8.1-43.4,15.7-64.3.6-1.6,1.3-3,.6-4.7-.5-1.1-.4-2.4.5-3.2,6.6-5.8,7.4-14.9,12.4-21.6.9-1.2.7-2.3-.3-3.5-8.2-9.9-10.5-21.8-11.2-34.2-.1-2.3-.3-3.9-2.9-4.9-11.4-4.2-19.1-12.6-24.8-23.1-9.1-16.8-13.8-34.9-16.1-53.7-2.3-19.1-3.4-38.3-1.1-57.4,1.6-12.9,4-25.8,6.3-38.6.5-2.7-.4-5.7,1.7-8,2.2-2.3,2.3-6,5.7-8.8,0,4.1.5,7.4,0,10.5-4.8,23.1-7.8,46.4-8.1,70.1-.3,17.1.8,33.9,4.8,50.5,2.1,8.4,4.3,16.8,8.5,24.4h0c0,.8.2,1.6,1,2.2.2.5.3,1,.5,1.5.2.2.5.5.7.7,4.2,9.9,11.4,16.9,21,21.6,2.3,1.1,3.5,1.3,3.7-1.9.3-3.9,1-7.8,1.9-11.7,3.8-15.3,8.5-30,25.2-36.4,6.9-.9,13.7,0,20,2.4,7.9,3,15.9,1.2,23.8,1.7,13.1.9,20.1-7.5,26.8-16.1,9.3-12,17.7-24.7,26.6-37.1,12-16.8,26.1-31.4,45.2-39.9,26.3-11.7,52-9.9,76.6,5.4,3.2,2,5.1,5,6.9,8.1.3,2.2-.9,2.2-2.4,1.5-2.3-1.2-4.7-2.4-6.9-3.8-16.1-10.2-33.8-12.9-52.2-10-24.5,3.8-43,17.7-57.5,37.1-10.1,13.5-19.5,27.4-29.4,41.1-7.3,10.1-15.9,18.6-28.6,21.5-2.3.5-1.6,2.1-1.6,3.5,0,4.5.4,8.9-.9,13.3-3.7,12.6-7.5,25.2-10.4,38-.4,1.7-1.3,3.2,1.4,3.6,5.5.8,11,1.4,16.7.6,14.1-2.1,25.1-9.8,35.1-19.1,17-15.7,31-33.8,43.7-53,13.6-20.5,28.8-39,54-45.7,4.4-.7,8.8-1.4,13.3-2.1,4.2.4,8.5-.4,12.7,1.1,2.2.8,3.5-.4,4.6-2.5,1.4-2.5,1.1-5.4,2.6-7.8,3.4-5.3,5.6-11.1,7.7-16.9.5-.8,1.4-1.6,1.5-2.5.5-3,4-5.2,3.4-7.9-.7-3.1-4.9-2.4-7.4-3.6-8.3-4-13.4-10.5-16.3-19-.8-2.3-1.5-3.8-4.4-2.5-1.2.5-3,.2-4.4-.1-38.1-10.5-48.3-42-33-71.7,10.5-20.4,29.8-32,50.9-30.3,8.3.7,16,2.8,21,10.3.9,1.4,1.9,1.8,3.7,1.3,16.9-4.1,29.4,3.4,34,20.3.8,2.8,1.7,5.6,1.6,8.6-1.5.3-1.9-1-2.5-1.9-2.3-3.7-4.4-7.3-6.7-11-8.7-13.9-21.2-15.5-33-4.2-2.3,2.2-4.3,4.6-6.1,7.1-6.1,8.2-9.9,17.5-12.8,27.2-1.8,5.9-3,11.8-3.9,17.9-.9,5.5.3,10.9.2,16.4-.1,12.8,7.3,22.4,17.9,26,4.7,1.6,9.6,2.3,14.5,3.1,4.4.7,6.4-.5,5.8-5.3-.3-2.3,0-4.6.3-6.9.2-2.2-.5-2.9-2.7-2.6-10.1,1.3-15.5-4.7-19.3-12.9-5.1-11.1-6.6-22.8-5.6-34.9.9-10.1,3-20,9.9-28,6.9-8.1,16.9-8.4,24.1-.6,6.9,7.5,9.1,16.6,8.3,26.6,0,.8,0,1.8-.9,2.1-1.3.3-1.6-.7-2-1.7-2.1-5-4-10.1-6.5-15-2.4-4.7-5.1-10-11.3-9.8-6.2.1-8.9,5.4-11,10.2-6.4,14.6-6.5,29.5-1.2,44.4,1.4,4,3.8,7.4,7,10,5.1,4.1,12.4,1.8,14.2-4.5,4.9-16.7,12.8-31.8,24.6-44.7,3.8-2.4,4.9-5.1,4.2-10.1-1.1-8.2,2.1-16.3,4.2-24.2,2.7-10.4,6.6-20.4,10.8-30.2,5.7-13.3,13.3-25.6,20.7-37.9,5-8.3,11.9-14.7,18.4-21.6,6.3-6.6,13.8-11.8,23.3-14.6-7.1-7.2-4.2-14.4-.5-21.5,4.1-7.8,10.6-10.4,19.2-8.3-1.6-8.7.4-11.3,8.8-11,5.5.2,11.3,1.1,13.8,6.9,2.6,6,1.8,11.7-3.9,15.8-1.4,1-.6,2.4-.7,3.6-.6,7.9-1.2,16.5-8.2,20.9-5.7,3.6-4.7,6.5-3.4,11.5,3.7,14.3,1.3,28.6-2,42.7-6.8,28.7-18.3,55.4-36.2,79.1-.2.2,0,.6-.1,1.4,4.4-.5,8.8-.4,13.1,1,10.3,3.3,16.6,10.6,19.6,20.7.9,2.9,2.2,3.8,4.9,4.3,17.4,3.4,27.2,15.3,31.8,31.2,4.4,15.1-1,28-12.9,38-19.3,16.2-44.8,16.5-64.6.8-2-1.6-3.8-1.6-5.9-.9-8,2.4-16,2.4-23.9,0-.2.3-.5.7-.4.8,1.1,3-3.7,5.7-1.2,8,1.8,1.6,5.5.7,8.1,1.6,25.1,8,48.6,19.2,68,37.6,22.4,21.3,33.6,48.4,36,78.5,4.2,52.4-10.1,100.6-38,144.6-13.5,21.3-28.7,41.7-42.6,62.8-14.3,21.7-26.7,44.5-34.7,69.4-3.8,11.7-4.7,24-7.7,35.8-.2.9,0,1.5.6,2.2,7.5,8,8.3,18.3,9.7,28.4.9,6.7.9,13.8,5.9,19.4,2.1,2.4.5,4.7-2.3,5.7-1.8.7-3.9.8-5.4,2.2-2.7,1-5.4,2-8.2,2.9-15.5,4.2-29.5,12.2-46,16.2,4.6,2.8,4.7,2.8,6,7.4,4.1,14.6,9.1,28.9,15.8,42.6,26.4,53.7,96.1,67.5,142.5,29.3,18.8-15.5,32.2-35.3,43.3-56.7,1.9-3.7,2.7-8.8,9-8-1-1.5-2.2-1.7-3.3-2-11.8-4.1-24.1-6.3-36.2-9.6-4.7-1.3-6.9-.5-8.8,3.7-2.2,5-5.4,9.5-8.6,13.9-17,23.5-43.9,29.3-67.5,19.6-22-9.1-34.1-27.3-42.2-48.6-.4-1.1-.4-2.3.2-3.4,2.2,1.7,4.6-.4,6.8.4,5,11.9,10.7,23.4,20.3,32.4,5.4,5,11.3,9.1,18.2,11.6,5.8,3.1,12.1,4.1,18.6,3.7ZM795.3,327.1c.6,0,1-.4,1.1-1.1h0c2-1.1,3.2-2.9,4-5h0c1.1-.5,1.1-1.5,1-2.5,2.2-4.2,4.2-8.5,3.6-13.3-1.6-12.1-7.9-21.5-17.6-28.8-1.4-1.1-2.7-1.5-4.5-.9-1.3.5-2.8,2.1-4.1.7-1.6-1.7.2-2.3,1.4-3.2.8-.6-.2-1.4-.9-1.8-1.4-.8-2.2-2.5-4.4-2.3.3,7.2-.3,14.2-2.7,20.9-.6,1.5-.5,2.4,1,3.2,6.4,3.2,6.4,9.2,5.9,15-.3,4-2.5,7.2-7.4,6.9-5.3-.3-7.6-2.5-8.2-7.8,1.8-.5,2.9.3,4.3,1.5,2.1,1.9,5.1,2,5.7-1.3.8-4.6,1.1-9.5-2.4-13.5-2.5,4.6-5,9-7.5,13.4-3.9,4.5-7.8,9-11.8,13.7,11.6,4.7,26.6.3,35.3-5.9,1.2-.8,2.1-1.9,2.4-3.6,1.7-10.6-2.3-17.9-12.2-21.9-1.2-.5-2.2-.9-2.1-2.3,0-1.4,1.2-1.7,2.4-2.1,3.8-1.2,6.7.4,9.5,2.6,7.3,5.6,8.2,13.3,8.2,21.7,0,4.7-1.6,8.1-5.1,10.6-12.1,8.6-25.4,11.9-39.6,7-5.7-2-8.6.4-12.5,3,13.9,12.3,38.6,11.4,51.8,1.7.4-.3.8-.5,1.1-.8h.2c.4-.4.7-.7,1.1-1h0c.4-.3.7-.6,1.1-1h0c.6,0,1-.3,1.1-1h0c.6,0,1-.3,1.1-1h0ZM876.3,805.9c.5.4,1,.6,1.5,0,0-.1-.3-.6-.5-.9,0-.8-.6-1-1.3-1.1,1-1.1,1.6-2.7-.1-3-2.7-.5-2.1-2-1.9-3.6.3-2.9.8-5.9,1.2-8.8,2.7-17.4,4.3-35,5.3-52.6,1.1-19.9-1.3-39.8-7.7-59-3.6-10.8-7.4-21.6-15.9-29.7-8.9-8.6-19-7.3-25.9,2.9-2.2,3.2-3.7,6.6-4.9,10.2-4.3,13.7-5.5,27.7-4.6,42-.5,8.6,1.1,17.1,1.1,25.7,1.6,18.9,3.2,37.8,4.8,56.7.9,3.2-1.4,8.7,5.4,7.8,11.4,1,22.2,4.5,32.7,8.9,3.1,1.3,5.8,4.2,9.6,3.6.4.4.8.7,1.2,1ZM729.8,153.3c.9,0,2,.1,2.6-.9h-.1c4.6-.7,9.3-1.5,13.5-3.8,6.3-.8,12.6-2.2,18.5-4.6,2.5-1,6.3,1.2,7.5-1.9,1-2.6.5-5.8.6-8.8,0-1.3-.1-2.6-.2-3.9.3-3.7.4-7.9-1.7-10.4-1.5-1.9-4.9,1.5-7.6,1.7-.2,0-.3,0-.5,0-11.8.8-22.7,5.5-34.1,7.8-1.6.3-2.6,1.2-3.3,3,.9-.1,1.7,0,2.5-.3,11-3,21.9-5.9,32.8-9,2.6-.7,5.2-1,7.8-.4,1.2.3,2.7.9,2.7,2.5,0,1.5-1.5,1.5-2.6,1.8-2.7.7-5.3,1.5-8,2.2-8.3,2.1-16.4,4.7-24.8,6.1-12.4,2.1-21.6,8-26.3,20-.9,1.6-2.7,2.8-2.1,5.1h-.3s.3,0,.3,0c2.5,0,4.8-.5,6.9-2,4.4-1.1,9-1.5,13.2-3.2.8-.3,1.7-.6,2.5-.9h.1ZM400.2,519.7h.1c-8.9,2-17.1,7-26.5,7.3-1,0-1.9.7-2.2,1.7-2.1,6.3-4.8,12.5-6.4,20.6,10.3-10.5,21.6-17.2,33.1-23.6,2.8-.8,3.7-3.4,4.7-5.6.8-2-.7-1.6-1.8-.9-.3.2-.7.4-1,.5ZM350.6,1014c-.3-.3-.6-.5-1-.8-4.6-1.2-8.5.3-10.4,4.1-.6,1.3-1.3,3.8,0,3.9,3.1.3,5.2,3.8,8.6,2.6,5.3-1.7,6.1-4.6,2.7-9.9h0ZM394.2,1028.9h0c-1.1.3-2.4.3-3.2,1-2.1,1.9-2.4,4.8-1.6,7.1.7,1.9,1.9-.7,3-.5,2.2.2,2,3.5,4.8,3.5,4.2,0,5.9-2.2,6.6-5.7.8-3.8-1.4-5.6-7.2-6.4-1-.2-2,0-2.7.9ZM399.2,530.3c-.9.7-1.8,1.5-2.7,2.2-2.6.7-4.7,2.3-6.8,4-6.7,5.4-12.7,12-20.2,15.8-6.1,3-7.9,7.1-9.1,12.6-.8,3.5-1.7,7-2.9,11.6,11.5-13.4,23.5-24.7,37-34.3,3.7-3.1,4.5-7.3,4.7-11.8h.3s-.1,0-.1,0ZM388.1,577c-.6.7-1.1,1.3-1.7,2-6.6,5.8-12.3,12.4-17.9,19.1-5,6.1-6.1,15.3-14.8,18.4-.3.1-.4,1.2-.4,1.8,0,10.2.9,20.3,4.5,30.3,7.5-18.3,14-37.1,27.8-51.9,1.3-6.6,2.9-13.1,2.5-19.9.2,0,.4,0,.7,0,0,0-.1,0-.2,0-.1,0-.3,0-.4,0ZM390.3,552.4h0c-.2,0-.4,0-.5,0-13.1,8.8-20.9,23.1-33.8,32.1-.2.2-.3.6-.3.9-.9,7.6-2.6,15.1-2,23.5,4.9-7,9.4-13.3,13.8-19.6,4.6-6.6,11.4-11,16.8-16.8,1.4-1.4,2.7-2.9,4-4.4,5.5-5.6,4.7-13.1,5.7-20h.3s-.1,0-.1,0c-.9,1-1.9,2-2.8,3-.4.4-.7.8-1.1,1.2ZM670.1,799.5c7-3.2,11.3-9.5,18.1-14.6-4.1-.4-6.8,0-8.5,2.1-3.4,4-6.4,8.4-9.5,12.6-.2.2-.4.4-.6.6.2,0,.3.1.5.2,0-.3,0-.5,0-.8ZM458.8,633.8c10.4-1.1,14.6-4.7,16.2-13.6-4.5,5.9-11.3,8.6-16.2,13.7-.3.1-.6.3-.9.4.3-.2.5-.3.8-.5ZM681.8,826.8c-1.8-1.1-3.6-2.2-5.4-3.4-5.1-3.2-11-3.2-15.3.8-4.5,4.2-8.5,9-12.3,15,6.6-1.8,11.6-5.4,17.5-6.4,5.5-1,10.4-3.7,15.5-6ZM402.7,512.8c5.5,0,4.3-4.9,7.2-8.7-3.6,1.6-5.7,2.6-7.9,3.5-6.1.9-12.1.6-17.9-1.9-1.1-1-2.1-1.8-2.9.2-.9,2.3-1.8,4.5-2.7,6.8-1.3,2.4-2.8,4.7-3.1,8.1,9.7-1.9,18.7-4.4,27.3-8ZM682.9,225.5c2.2,1.3,3.8-.5,5.4-1.3,5.8-3.1,11.6-6.2,18.1-7.5,13.2-2.7,26-7,39.1-10.3,6.6-1.7,10.3-5.3,11.3-12.5-15.4,6.4-30.7,11.6-46.3,16.4-7.2,2.2-13.6,6.9-21.1,8.3-4.7.9-6.6,2.7-6.6,7.1h.2c0,.1,0,0,0,0ZM415.7,686.1c3.2-.3,6.5-.5,9.5-1.8,2-.8-.2-.8-.4-1.2-8.4-8-14.1-17.7-18.7-28.3-.8-1.8-1.5-3.8-1.2-5.7.8-4.2-1.3-6-5.1-6.9-2.4,11.1-4.1,22.2-.3,33.1,1.3,3.7-1.6,9.2,3.3,10.9,3.9,1.3,8.5.5,12.7-.2ZM696.8,179c11.6-2,23.1-4.4,34.6-7.2,10.1-2.5,19.6-6.8,29.9-8.8,7.9-1.5,7.9-1.6,9.1-9.4.4-2.6,0-3.7-2.9-3-6.4,1.5-13.2,2.1-19.2,4.5-12.2,4.8-24.8,8-37.4,11-7.9,1.9-12.2,5.6-13.9,13,0,.1-.2.2-.2.4,0,0,0,.1.1.2,0-.2,0-.4,0-.6ZM715,251.7c1,20.7-5,39.7-14.4,58.3,15.2,2.9,27.4-1.5,36.7-12.7,5.2-6.2,8.2-13.9,9.8-22,1.4-7-4.1-12.3-11-10.7-2.1.5-4,1.4-6,2.2-4.7,1.8-8.5,5.6-13.9,6.5-1.1-3.1.8-5.1,2.8-6.8,4.9-4.2,10.6-8,16.9-8.9,11.8-1.6,18.7-1.3,18.9,14.9.1,11.4-3.8,21-10,29.9-2.4,3.5-5.2,7.2-9.5,8.4-4.8,1.3-9.2,3.5-13.9,5.1-5.3,1.8-11,3.9-16.5,2.1-7.6-2.5-11.7,1-15.2,6.7-.7,1.1-2.1,1.6-2.1,3,5.9,1.1,11.9.3,17.9.8,7.1.7,15.3,3.1,21-4.4.1-.2,1,0,1.4.2,2.5,1.5,4.4-.2,6.4-1.1,4.5-2.1,7.9-5.8,11.8-8.9,13.9-11,21.5-25.5,21.2-43.2-.4-19.6-14.3-28.8-32.8-22.9-4.4,1.4-8.7,3.1-13,4.7-.8.3-1.7.8-2-.2-.2-.6.5-1.4.8-2.2,14.5-9.5,20.5-25.2,28.5-39.6-16.3,5.8-33,9-49.9,15,7.7,3.1,11.7,8.3,13.8,15.1,1.1,3.5,1.7,7,2.5,10.6ZM358,1005.4c2.1,3.2,5,5.5,8.2,7.3,6.5,4,13.4,5.7,21,4.3,7.7-.3,14.2-3.6,20.3-7.8,1.1-1.9,3.4-1.7,5-2.8,16-11.8,32.1-23.4,46.3-37.4,3.2-3.2,6-6.6,7.8-10.8,1.9-4.3.9-6.2-3.7-7.7-6.6-2.2-12.9-1.3-19.1,1.2-10.4,4.1-19,10.6-26,19.3-2.3,2.9-6.2,3.6-8.9,6.1-2-3.5-.3-6.8.6-10.1,1.9-7.1,5.1-13.8,6-21.2.9-7.2,1.9-14.5-.7-21.6-2-5.5-5.9-6.6-11-3.6-3.4,2-5.8,4.9-7.9,8.1-5.8,9.3-10.1,19.3-12.1,30.2-.5,2.9-.9,6.6-5.1,5.9-3.5-.6-3.5-3.9-3.3-6.8.5-10.1-1.3-19.7-5.2-29-1.4-3.2-3.2-6.2-5.8-8.5-5.8-5.2-12-4-15.3,3-2,4.1-2.7,8.5-2.8,13-.3,15.9,1.8,31.7,3.7,47.4.9,7.8,2.6,15.3,7.8,21.6ZM471.7,643c-4.4,7.3-7.4,15.1-8.6,23.5-1,6.7.9,12.4,7,16.2,2.9,1.9,5.8,3.7,9.1,4.9,10.3,3.7,20.5,7.5,30.7,11.1,10,3.5,20,6.9,30.7,6.9,4,0,9.6,1.4,11.8-2.9,6.7-13,12.7-26.4,18.8-39.7,1.7-3.6,2.7-7.5,3.3-11.4.8-4.8-1.3-8.9-5.4-10.7-5.2-2.3-10-5.3-15.4-7.2-15-5.2-29.6-11.3-44.2-17.6-7.4-3.2-15-6.2-22.7-9.4-1.2,9.1-6.2,16.1-9.3,23.9-2.5,3.8-4.5,7.9-5.9,12.3ZM607.7,355.9c-3.1.4-5.5.9-8,1-20.7,1.6-38.3,9.5-52.4,24.9-10,10.9-17.5,23.7-25.8,35.8-11.4,16.6-24,32.2-40.2,44.2-15.6,11.6-32.4,20.1-52.8,14.6-1.5-.4-2.1,0-2.4,1.4-2.6,10.7-9.1,19.7-12,30.5-5.1,19-10.5,37.8-14.4,57.1-3.4,17-6.6,34.1-4.4,51.6,2.2,17.2,12.7,26.5,28,24.3,8.2-1.2,16.1-3.4,23.7-6.9,9.5-4.4,17.8-10.7,26.5-16.3,4.5-2.9,6.9-7,10-10.7.8-.9.8-1.8.3-3.1-1.6-4.1.2-6.3,4.5-5.7,3.2.5,6.6,1.2,9.6,2.5,4.1,1.8,5.5.5,7.1-3.3,24.4-58,48.9-115.9,73.4-173.7,9.6-22.6,19.4-45.1,29.3-68ZM623.2,330.2c-1.4,3.1-2.6,5.8-3.7,8.6-18.5,44.7-36.9,89.5-55.6,134.2-17.8,42.4-35.7,84.8-54,127-2,4.6-.4,5.4,3.1,6.8,17.1,6.6,34.4,12.6,50.9,20.6,3.3,1.6,4.5,1.1,5.7-2.1,4.6-11.3,9.3-22.6,14.1-33.8,33.1-77.1,65.8-154.3,99.5-231.1,1.4-3.2,3.4-6.3,3.7-10-11.7,1.3-22.2,5.7-33,9.1-9.2,2.8-10,10.9-12.5,18-.3.7.4,1.9.8,2.7,3.6,7.9,3.9,16.8,7.7,24.8,2.5,5.3-.3,7.3-6.3,5.9-3.5-.8-5.4-2.8-7.1-5.6-1.2-2.1-1.6-4.7-3.7-6.6-2.7,6.9-5.1,13.7-7.9,20.3-1.8,4.3-3.7,8.3.9,12.2,1.5,1.3,2.1,3.6,2.7,5.7,1,3.5,2.1,6.9,3.5,10.3,1.2,2.9,4.3,5.6-.9,7.9-4.5,2-6.3,0-7.4-4.1-.2-.9-1-2.6-1.6-2.2-4.9,2.8-5.1-2.1-7.1-4.8-2.6,6.4-4.6,12.4-7.4,18.1-2.8,5.6-2.8,10.2,1.5,15.2,3.6,4.2,4.9,9.7,4.4,15.3-.1,1.4-.6,2.6-2.1,3-1.2.3-2.2,0-3-1.1-2.6-3.9-7-6.4-8.4-12.9-3.1,7.9-5.7,14.2-8.2,20.6-.6,1.5,0,2.9.8,4.2,3.6,5.4,5.1,11.6,6.5,17.9.2,1.1.9,2-.3,3-4.3,3.6-9.5,2.6-12.4-2.3-.6-1.1-.7-2.6-2.4-3-1.6,3.9-3.3,7.9-4.8,11.9-.7,1.9-1.2,4,.3,5.6,4.9,5.1,5.2,12,7,18.2.5,1.9.6,4-1.3,5.4-2.1,1.7-4.2.6-6-.4-2.3-1.3-3.8-3.5-4.6-6.2-.7-2.4-.7-4.9-1.2-7.3-4.1,10.8-10,20.9-10.8,32.7-.5,7.3-3.6,14-9.3,19.1-2,1.8-4.2,3.9-7,2.3-2.9-1.7-3.3-4.7-2.6-7.8,2.1-10.5,8.3-19.2,14.3-27.3,5.2-7,6.9-15,10.5-22.5-5,5.7-11.9,8.3-18,11.9-3.2,1.9-6.5,1.8-9.1-.7-2.8-2.6-.6-5.6.6-8.2,1.6-3.5,4.6-5.6,8.3-6.5,3.5-.9,7.2-1.2,10.6-2.2,5-1.5,10.5-3.5,13.1-7.8,3.7-6.2,5.7-13.5,8.8-21.5-2.8,2-4.6,3.2-6.3,4.5-3.9,3.1-8.6,4.8-13.1,6.9-2.2,1-4.9.7-6.7-1.7-1.7-2.3,0-3.8,1.2-5.7,4.5-7.5,11.3-10.4,19.6-11.6,3.5-.5,8.3-2.1,9.8-4.7,3.9-7,6.4-14.8,9.6-22.8-4,.4-6.3,2.1-8.8,3.3-3.4,1.7-7,3-10.7,3.6-3.8.6-8.7,1.2-10-2.9-1.1-3.6,2.3-6.7,5.9-8.7,6.9-3.7,14.3-5.8,22-6.9,2.9-.4,6.2-1.4,7.1-3.5,3.9-8.1,6.9-16.5,10.8-26.1-2.1,1.2-3,1.6-3.7,2.2-3.9,3.1-8.4,5.3-13.1,6.7-2.8.9-6.1.6-7.5-1.7-1.4-2.2.9-4.6,2.7-6.3,3.9-3.7,8.5-6.3,13.8-7.4,5.6-1.2,10.7-5.1,13.2-8.5,5-7.1,7.3-16.1,10.7-24.4-6.8,6-15.2,5.6-23,6.9-1.1.2-2-.2-2.5-1.2-.5-1-.4-1.9.4-2.7.7-.7,1.8-1.1,2.2-1.9,4.6-10.4,14.7-13.8,24-16.4,6.5-1.8,7.8-5.8,9.3-10.3,1.6-4.5,5.8-8.5,3.1-14.2-4.6-9.8-10.3-18.6-19.8-25.4ZM709.1,259.3c-.2-6.7-.7-13.3-3.8-19.4-3.8-7.5-10.1-9.7-17.8-6.3-6.7,3-11.7,8.1-16,13.8-13.1,17.4-19.8,37.2-20.7,58.9-.3,7.3.9,14.5,4.6,21.1,3.3,5.9,7.6,7.7,14.1,5.7,6-1.9,10.8-5.7,14.9-10.3,16.2-18.1,22.8-39.9,24.7-63.4ZM399.2,409.4c-7.2-.7-11.6,2.5-15.2,7.1-3.1,4-5.1,8.5-6.4,13.3-2.6,9.9-4,19.7-4.2,30.1-.2,11.1,1.1,21.3,6.5,30.8,3.9,6.9,10,11,18.4,10.1,6.4-.7,10.9-4.5,14.5-9.4,3-4,5.1-8.6,6.3-13.4,4.4-16.9,9.1-33.8,14.2-50.5,1.3-4.3,1.9-8.9-1.2-13.3-4.9,6-8.1,12.2-9.2,19.4-.9,5.7-1.4,11.5-1.9,17.2-.8,9.4-1.9,18.8-7,27.1-4.6,7.4-12.8,11-21.4,9-7.6-1.8-10.4-8.1-12.1-14.9-2.3-8.9-.9-17.7,1.5-26.4,3.6-12.8,9.4-24.6,17.2-36.2ZM767,167.9c-2.6.4-4.1.4-5.5.8-19.2,6.4-38.3,13.2-58.4,16.8-3.7.7-9,1.3-10.8,5.2-3.2,6.8-5.3,14.1-6.5,21.4,1.5.9,2.3.2,3.2-.1,13.3-4.3,25.6-11,39.5-13.8,10.1-2.1,19.4-7.2,29.5-9.8,1.5-.4,2.2-.9,2.7-2.3,1.9-5.8,4-11.5,6.3-18.1ZM560.4,245.1c.2,1.6.3,3.6.6,5.5.2,1.3.5,2.6.9,3.8,5.2,16.1,17.9,23.3,32.8,27.9,1.1.4,3.7,1.3,3.9-1.4.1-2.1,1-4.6-2.2-5.9-4.3-1.7-8.3-4-12.1-6.8-8.6-6.4-14.8-14.4-15.5-25.4-1-14.5,4.3-26.4,16.6-34.3,11.5-7.3,23.4-8.6,35,.3,1.6,1.2,3.2.7,2.8-1.3-.8-3.7.6-4.2,3.6-3.2,1.2.4,2.1-.1,2.4-1,.6-1.5-.9-1.3-1.7-1.6-2.3-.8-4.8-1.4-7-2.3-5-2.1-10.1-2.8-15.5-2.9-5.2-.1-10,2-14.6,3.6-7,2.5-13,7.1-17.6,13.1-2.5,3.3-6,6.1-4.8,11.1.2.7-.2,2.3-.9,1.9-3.2-1.8-2.8,1.2-3.3,2.5-2.2,5.1-2.9,10.5-3.4,16.3ZM412.6,466.8c4.3-18.7.8-38.1,13-54.3-5.9.3-11-.2-15.9-1.7-2.8-.9-4.4,0-6.1,2.5-6,9-11,18.4-14.5,28.6-1.2,3.5-2.9,7-2.8,11,14.5-10.6,24-5.8,26.3,14ZM611.9,222.8c1.9-.5,2.1-2,2.8-3,5.5-8.3,5.5-8.1-4.3-10.3-18.3-4.2-32.4,9.4-35.3,23.2-3.1,14.5,8.1,31,23.7,34.7,0-4,.7-7.8,1.8-11.6.4-1.3,1.1-2.9-1.5-3.2-8.6-1-12.2-7.6-14.5-14.5-3.6-10.8,3.7-20.3,14.8-20.3,2.5,0,5,0,7.4,0,3.4-.1,5.7.9,5.2,4.9ZM383.4,1040c0-9.4-7.2-16.7-16.5-16.8-8.5,0-16.6,8.2-16.5,17,.1,9.2,7.7,16.6,16.8,16.4,9-.2,16.2-7.6,16.1-16.6ZM389.6,629.1c-7.2,13.1-10.9,27.3-13.1,41.9-.5,3-1.3,7.1,2.6,9.2,4.6,2.5,9.5,4.4,14.9,5.1.5-2.5.6-4.8,0-7-2.8-11.1-3.6-22.3-.5-33.3,1.7-6.3.2-11.1-3.8-15.9ZM369.5,672.4c.3-.8.6-1.2.7-1.6,2.9-16.7,6.2-33.2,16.4-47.3.8-1.1.9-2.1.7-3.3-1-5.3-1.2-10.6-1.2-16.7-5.1,4.8-6.5,10.8-9.7,15.7-6.4,10.1-7.9,22.3-13.6,32.8-1.2,2.2-2,5.9-1.4,8.1,1.3,4.6,4.1,8.8,8.1,12.3ZM412.8,646.7c3.8,10.5,9.3,19.4,16.4,27.3,1.9,2.1,4,3.9,3.6,7.7,9.2-4.5,16.9-9.8,23.2-17.5-14.4-6.4-30.1-8.5-43.2-17.5ZM387.4,469.9c.2,2.9.8,7.1,4.3,9.9,2.5,2,5.7,3.7,8.4.9,5.1-5.4,7.8-11.8,6.1-19.4-.7-3-1.4-6.4-5.2-7.1-4.2-.7-8.2,0-10.7,4.1-1.9,3.2-2.9,6.6-2.9,11.6ZM781.5,85.5c.2-4.8-2.9-7.6-10.3-9.1-7-1.4-10.3.5-13,7.8-1.8,4.8-.7,6.8,6,10.4.7.4,1.5.8,2.2,1.1,10.4,4.3,14.5,1.5,15.1-10.2ZM825.3,802.3c2.4,3.5,4.9,7.3,7.4,11.1.5.7,1,1.4,2,.8,7.8-4.2,12.6.8,17.5,5.6.8.7,1.8,1.8,2.9.8,3.9-3.6,9.1-5,13.5-8.5-14.3-5.4-28.2-10.4-43.3-9.8ZM612,223.8c-5.6,0-10.5,0-15.5,0-1.7,0-3.2,0-4.4,1.6-5.5,7.1-1.2,19.2,7.6,21.1,1,.2,2.5,1.6,3.2-.7,2.2-7.6,5.9-14.6,9.1-22ZM687.9,333.8c-.8-1-1.6-2-2.4-3-1.3-1.5-2,.2-2.8.7-2.1,1.3-4,2.9-6.1,4.1-12.6,7-25.5,2-30.1-11.7-.9-2.8-1.4-5.8-2-8.6-.2-.8,0-1.9-1-1.9-.9,0-2.6.7-2.6.9.6,3.7-3.1,7.3-.4,10.9,4.5,5.9,8.3,12.2,11.8,18.8.8,1.6,1.8,2,3.6,1.5,9.3-2.6,18.7-5.1,28.1-7.5,2.4-.6,2.9-2.4,4-4.2ZM803.2,838.8c3.6-1,6.8-1.8,9.9-2.8,4.1-1.2,8.1-2.5,12.2-3.9,3.9-1.4,1.5-4.9,2.1-7.3.6-2.4-2.1-2-3.5-2.1-4.2-.3-8-1.8-11.9-2.9-1.6-.4-3.7-1.5-4.5,1.2-1.6,5.8-4.4,11.3-4.2,17.8ZM648.8,816.6c-6.4-2.8-12.5-4.6-18.6-6.4-2.1-.6-3.1-.2-3.3,2-.6,5.6.1,11.2.9,16.8.2,1.6,1,2,2.4,1.1,6.1-4.4,12.2-8.8,18.7-13.5ZM735.4,120.3c9.4-2.6,18.9-4.2,28.5-5.5,1.8-.2,4.9.9,5.2-1.2.3-2.6-2.2-4.6-4.4-6.1-1.8-1.2-3.9-1.9-6.1-1.6-9.8,1.4-16.8,7.4-23.2,14.4ZM690.6,790.2c-5.7,5.1-10,10.5-15.6,14.6-1.3,1-1,2.5.9,2.7,6.2.6,12,2.6,18.1,5.1-.2-7.7-1.9-14.6-3.5-22.4ZM457.7,662.5c.7-2.3,1.1-4.8,2.2-7,1.9-3.9.9-5.2-3.4-5.9-6.5-1-13.5-.9-19.1-5.4-.4-.3-1.3-.2-1.8,0-3,.9-6,1.8-9.4,2.8,7.3,4.2,14.9,5.7,22.4,7.4,4.5,1.1,7.9,2.9,9.1,8ZM640.5,791.7c4.5,3.5,8.5,5.9,12.8,7.3,3.3,1,8,2.1,10.1-.7,2.5-3.3,5.2-6.7,8.1-11-10.4,2.9-20.4,2.3-31,4.4ZM655.3,821.8c-1.2-.5-2-.8-3-.1-5.8,4-11.6,8-17.4,12-1.3.9-2.8,2-3.7,3.3-1.3,1.9-.8,4.1,0,6.2.2.6.9,1.4,1.4.9,2.6-2.8,7.4-2.5,9.2-5.1,4.1-6,9-11.3,13.5-17.2ZM812.7,842.3c7,2.8,12.8,4.4,18.8,5.5,1.7.3,2.8.2,3.6-1.5.9-1.9,2.2-3.7,3.3-5.4.4-.7,1.3-1.5.2-2-2.7-1.1-5.1-3.7-8.2-2.4-5.3,2.3-10.7,3.9-17.8,5.8ZM827.8,817.7c-2.7-6.1-6.5-10.6-10.7-14.7-1.6-1.6-3.5-1.6-5.5-1.3-2.5.4-1.4,2.6-1.7,4-.3,1.6-.4,3.3-.6,4.9,0,1.1-.3,2.4,1.3,2.8,5.5,1.4,11,2.8,17.1,4.4ZM440.6,642.6c6,.8,11.1.9,15.8,2.2,5.9,1.7,8.7-.5,10.1-5.8.1-.4,0-.9,0-1.4-4.2.6-8.7,3.7-12.2-1.4-.1-.2-1.2.3-1.7.5-3.7,1.8-7.3,3.6-12,5.9ZM872.7,836.6c-.3-.7,1.4-3.2-1.7-3.5-5.2-.5-10.4-1.2-15.4-3.2-3.3-1.4-2.6,2.6-3.7,4-1.5,2.1,1.2,1.8,2,2,4.9,1.3,9.9,2.3,14.6,4.5,3.4,1.6,5,1,4.2-3.8ZM695.1,813.6c-1.7,3.9-3.7,3.6-5.9,2.9-4-1.3-8.1-2.5-12.2-3.8-1.2-.4-2.3-1.1-3.2.7-.9,1.9.3,2.3,1.5,2.9,3.5,1.8,7.1,3.5,10.5,5.3,3,1.7,6.2,4,9.4,1.1,2.5-2.3-.4-5.2-.1-9.1ZM629.7,802.5c4-.5,7.4,1.3,10.8.5,3-.8,4.2.4,4,3.1-.1,2,1,2.9,2.4,3.1,2.2.2,1.9-2.3,2.8-3.5,1.2-1.6-.6-1.8-1.5-2.3-3.6-2.1-7.2-4-10.7-6.2-2.1-1.4-3.6-1.1-4.9.9-1,1.5-2,3-2.9,4.4ZM781.2,62.6c-1.1.7-3.5-1-3.6,1.7-.1,3.3,5.7,8.4,9.5,8.6,2.8.1,3-2.2,3.2-4,.3-3.7-3.4-6.2-9.1-6.2ZM859.6,826c4.7.8,8.1,1.5,11.4,2,1.1.2,2.3.6,2.8-1,1-3.4,2-6.8,3.3-11.3-6,3.5-11.1,6.5-17.5,10.3ZM734.3,121.3c.1-.1.2-.2.4-.3-.1-.1-.2-.3-.4-.3-.1,0-.2.2-.4.3.1.1.2.2.4.3Z"/>
        <path class="cls-5" d="M467.9,690.1c19.6,10.9,41,16.9,62.7,21.8,3.5.8,3.9,1.6,2.6,4.6-7.9,17.9-15.8,35.9-23.5,53.9-6.3,14.8-12.3,29.9-19.2,44.4-.2.5-.5,1-.7,1.5,0,0-.2.3-.2.3-.3.6-.6,1.2-.9,1.9,0,0,0,0,0,0-.8.4-.9,1.2-1,2,0,0,0,0,0,0-2,1.1-2,3-2,4.9,0,0,0,0,0,0-1,.3-.9,1.2-1,2,0,0,0,0,0,0-2.4,1.7-3.1,4.2-3,6.9,0,0,0,0,0,0-2.9,2.6-3.7,6.1-3.9,9.8,0,0-.1.2-.1.2-.2.6-.5,1.1-.7,1.7-6.1,14.6-12.2,29.2-18.2,43.8-7.2,17.7-15.4,35-23.6,52.2-2,4.2-4.4,7.5-8.5,9.8-3,1.6-5.5,4-9.1,6.7,1.7-6.7,3.3-12.3,4.1-18.2.7-6,.4-11.9-1.4-17.6-3.4-10.7-13-13.6-21.9-6.7-5.6,4.3-9.6,10-12.9,16.2-1.1,2.2-2.2,4.4-3.7,7.4-2-7.3-4-13.8-7.7-19.5-1.2-1.9.4-3.6,1.3-4.9,5.8-8.7,9-18.7,13-28.2,22.8-53.7,45.4-107.5,68-161.3,3.7-8.8,7.3-17.7,10.7-26.6.7-1.9,2.4-4.7-1.9-4.9.8-1.4,1.7-2.8,2.5-4.2Z"/>
        <path class="cls-4" d="M579.5,354.7c-25.2,6.7-40.5,25.2-54,45.7-12.7,19.2-26.8,37.4-43.7,53-10,9.2-21,16.9-35.1,19.1-5.7.9-11.2.2-16.7-.6-2.7-.4-1.8-1.9-1.4-3.6,2.9-12.8,6.7-25.4,10.4-38,1.3-4.4,1-8.8.9-13.3,0-1.4-.7-3,1.6-3.5,12.7-2.9,21.3-11.4,28.6-21.5,9.9-13.6,19.3-27.6,29.4-41.1,14.5-19.5,33-33.3,57.5-37.1,18.4-2.9,36.1-.2,52.2,10,2.2,1.4,4.6,2.6,6.9,3.8,1.5.8,2.6.7,2.4-1.5.6.2,1.3.3,1.9.5-2.1,5.8-4.3,11.6-7.7,16.9-1.5,2.4-1.2,5.3-2.6,7.8-1.1,2.1-2.5,3.3-4.6,2.5-4.2-1.5-8.5-.7-12.7-1.1-4.8-1.6-9.2-.7-13.3,2.1ZM493.5,410.4c.8-.2.9-.8,1-1.4.7-1.8,1.6-3.6,2-5.5,1-4.8-.9-8.9-4.3-9.9-3.3-1-8.8,2.3-10.6,5.5-2.2,3.9-2.9,7.3,1.2,10.4,5.1,6.2,8.2,6.4,10.8.9h0ZM581.8,325.1h0c-.4-3.8-3.2-4.1-6-3.9-3.5.3-5.7,2.3-5.8,6-.7,1.3-1.4,2.5-2,3.9-2.4,5.8,1.2,10.3,7.5,10,4.8-.3,6.8-3,7.4-7.2,2.3-3.3,2.9-6.3-1.2-8.7ZM537.7,338.6c-1.3,1.5-2.9,2.8-3.7,4.5-1.1,2.3-2.1,5.7,1.4,6.5,4,.9,8.5.2,11.1-3.4,2.3-3.2,2.6-7-.6-10.3-1.1-2.2-3-3-5.2-2.2-2.1.8-3.5,2.3-3,4.9ZM452.7,423.4c-4.3,1.5-5.7,5.5-6.6,9.2-.8,3.2.5,6.3,4.7,6.5,3.3,2.3,6.8,3.7,10.2.3,3-3,3.3-10.3.8-14.3-2.4-3.9-5.7-3.1-9-1.6ZM511.3,368.9c-6.8,1-8.9,6.1-4.9,11.6.4.7.8,1.4,1.2,2.1,2.7,4.9,5.8,5.2,9.4,1,2.3-2.7,2.5-5.9,2.6-9.2,0-7-1.8-8.2-8.2-5.5Z"/>
        <path class="cls-2" d="M330.7,266.9c-1,.1-2,.2-3,.3-9.4,1-9.8.2-8.8-9.5,1.5-14.6,1.6-29.3,0-43.9-.6-5.7.1-6.7,5.7-8.1,6.8-1.7,13.8-.4,20.7-1.2,16,.4,31.9,1.1,47.9,2.6,3.8.4,5.1-1.6,4.4-5.3-.7-3.4-.8-6.9-1.6-10.2-1.2-5.5,0-11.6-2.6-16.4-5.6-10.2-12.9-19-23.4-24.9-12.3-7-25.7-8.9-39.4-9.8-5.6-.4-11.3,0-17,0,.1,1.3,1.1,1.8,1.8,2.3,13.8,9.8,22.7,22.8,27.3,39.3,1.4,5,.6,10.1,2.4,14.9-1.6.7-3.2,2-3.9-1.2-.7-3-2.1-5.9-2.9-8.9-7.5-28.8-32.6-47.9-62-47.3-3.4,0-6.5.5-9.2,2.8-2.7,2.3-5.7,2.1-8.2,0-11.6-9.5-24.9-16.3-37.5-24.1-5.7-3.6-5.5-7.3.2-10.6,8.7-5,15.4-12.4,22.6-19.3,5.6-5.3,10.9-11,16.4-16.5,2.7-2.8,5.7-4.5,9.7-2.2.8.4,1.9.3,2.9.2,16.6-2.2,32.6-.3,48.2,5.8,9.7,3.8,19.3,7.7,28.7,12.3,26,12.6,40.9,33.5,46,61.8,3.3,18.3,4.5,36.7,4.9,55.2,0,2.8.6,3.9,3.6,4.3,11.9,1.7,12.3,1.9,11.1,14.2-1.2,12.4-1.6,25.1-6.2,37-.4.9,0,1.5.4,2.2,2.2,3.8,1.3,5.9-3.1,6.8-1.3.3-2.6.2-3.9.2-5-.2-9.9-.4-14.9-.7-6.5-.4-13.1-.9-19.6-1.2-3.1-.1-6.1,1.8-9.2.8-9.5-3-19.1-1.7-28.7-1.4ZM391.2,159.1c-4.3-24.2-13.3-46-36.2-58.3-25.3-13.6-51.2-25.9-81.3-22.9-3,.3-5.1.8-7.2,3-8.6,9.2-17.6,18-27.3,26-2,1.6-4.3,2.9-5.9,5.5,7.9,4,15.3,8.4,22.3,13.5,5.1,3.7,9.8,7.8,16.6,4.5.4-.2,1,0,1.5,0,19.1.6,38.3-.8,57.4,1.3,23,2.5,44.6,7.9,60.1,27.6ZM372.9,235.9c9.5,4.2,14.7,12.1,18.9,20.4,1.4,2.7,2.4,3.6,5,3.8,7.8.8,7.8.8,9.1-6.8,1.8-10.4,3.2-20.8,3.9-31.4.1-1.7.6-4.4-1.6-4.6-2.9-.4-6.3-2.8-8.8-.2-7.5,7.8-16.4,13.5-26.6,18.8ZM327.1,217.2c.9,13.9,1.1,26.8-.2,39.6,0,.9-.3,2.6.9,2.3,3.3-.7,7.3,1.1,9.8-2,3.5-4.5,7.7-8.1,12-11.8,2.6-2.2,2.9-13.2.3-14.8-7.2-4.5-14.7-8.6-22.7-13.3ZM335.8,212.9c5.7,3.6,10.8,6.2,15.2,9.7,3.3,2.5,6.2,3.9,10.3,2.6,2.5-.8,5,.5,6.7,2.3,1.8,1.8,3.1,1.5,5.1.4,6.3-3.4,11.3-8.3,18.1-12.7-18.9-1.7-36.7-2.2-55.5-2.2ZM386.5,258.5c-4.6-5-9.3-10.2-14-15.3-.8-.9-1.7-1.8-2.8-.4-2.7,3.6-6.6,3-10.4,3-1.3,0-2.9-.9-3.7.3-2.7,4.3-7.2,7-10.8,12.4h41.8Z"/>
        <path class="cls-4" d="M330.7,266.9c9.6-.2,19.2-1.5,28.7,1.4,3.1,1,6.1-.9,9.2-.8,6.5.2,13.1.8,19.6,1.2.6,2.4,1.3,4.9.8,7.4-3.5-3.2-6.3-2.2-7.6,3.1-3,12.8-6.1,25.6-7.3,38.7-1.7,18.4-6.4,36.6-2.7,55.2,1.3,6.6,2.5,13.3,6,19.2,2.1,3.4,4.8,6.3,9.6,8.4-1.6-3.8-2.8-6.5-3.9-9.1,4.2,2.4,8.5,4.6,9.6,9.9-16.7,6.4-21.4,21.1-25.2,36.4-1,3.8-1.6,7.7-1.9,11.7-.3,3.2-1.4,3-3.7,1.9-9.6-4.7-16.8-11.7-21-21.6-.2-.2-.5-.5-.7-.7-.2-.5-.3-1-.5-1.5,0-.9.2-1.9-1-2.3h0c-3.1-7.9-3.8-16.8-8.5-24.3-4-16.6-5.1-33.5-4.8-50.5.4-23.7,3.4-47,8.1-70.1.6-3.1,0-6.4,0-10.5-3.5,2.9-3.6,6.5-5.7,8.8-.5-4.3,2.3-7.7,2.9-11.7ZM359,283.5c-7.6.9-14.1,13.2-10.8,20.2,1.1,2.3,2.9,3,5.2,2.8,2.4-.2,3.8-.8,1.8-3.5-.5-.6.9-.6,1.4-.7,2.8-.3,4.2-2.3,5.8-4.2,4.4-2.6,3.4-6.7,2.6-10.4-.5-2.8-2.7-4.8-6.1-4.2ZM349.3,324c-3.6-3.2-7.3-2-10.2.7-3.6,3.4-4.6,7.8-2.8,12.6,1.1,6.4,7,11,14.4,11.2q-1.1-2.6.9-4.5c6.4-5.9,5.2-16.3-2.4-20ZM355.7,386.6c-.1-3.4-.2-7-4.3-8-4.4-1-6.1,2.6-7.4,5.8-1.4,3.4-.1,7-.1,10.6,0,1.6,1.6,2.3,3.2,2.5,5.4.8,8.7-3.3,8.6-10.9ZM359.1,423.4c4.2,0,7.3-3.1,7.1-6.9-.1-3.1-1.5-5.3-5.2-5.1-4.7.2-8.6,3.3-8.4,7.2.2,4.7,3.9,4.5,6.5,4.8ZM368.3,381.6c-.4-2.4-1.7-4-4.2-4-2.7,0-4.4,1.5-4.4,4.2,0,2.4,1.6,4,4.1,4,2.7,0,4.1-1.6,4.5-4.3Z"/>
        <path class="cls-6" d="M672.2,236.5c-11.8,12.9-19.7,28-24.6,44.7-1.8,6.2-9.1,8.5-14.2,4.5-3.3-2.6-5.6-6.1-7-10-5.3-14.9-5.2-29.8,1.2-44.4,2.1-4.8,4.8-10.1,11-10.2,6.2-.1,8.9,5.1,11.3,9.8,2.4,4.9,4.4,10,6.5,15,.4.9.7,2,2,1.7,1-.2.9-1.3.9-2.1.8-10-1.4-19.1-8.3-26.6-7.2-7.8-17.2-7.5-24.1.6-6.9,8.1-9,17.9-9.9,28-1.1,12,.4,23.8,5.6,34.9,3.8,8.2,9.2,14.2,19.3,12.9,2.3-.3,3,.4,2.7,2.6-.2,2.3-.6,4.7-.3,6.9.6,4.8-1.4,6-5.8,5.3-4.9-.8-9.8-1.6-14.5-3.1-10.6-3.5-18-13.2-17.9-26,0-5.5-1.1-10.9-.2-16.4,1-6,2.1-12,3.9-17.9,3-9.7,6.7-19,12.8-27.2,1.9-2.5,3.9-5,6.1-7.1,11.9-11.3,24.3-9.7,33,4.2,2.3,3.6,4.5,7.3,6.7,11,.6.9,1,2.2,2.5,1.9.4,2.3.8,4.6,1.2,7Z"/>
        <path class="cls-4" d="M345.4,196.9c-1.9-4.8-1-9.9-2.4-14.9-4.6-16.4-13.4-29.5-27.3-39.3-.8-.5-1.7-1-1.8-2.3,5.7,0,11.4-.3,17,0,13.7.9,27.1,2.8,39.4,9.8,10.4,5.9,17.8,14.7,23.4,24.9,2.7,4.9,1.3,11,2.6,16.4.8,3.3.9,6.8,1.6,10.2.7,3.7-.6,5.7-4.4,5.3-15.9-1.5-31.9-2.2-47.9-2.6,0-2.6,0-5.1,0-7.7ZM344.8,167.2c-.7,3.4.1,6.2,3.3,8.1,2.4,1.4,4.8,1.2,7-.3,4.7-3.2,3.7-8.1,3.5-12.6-.1-3.8-2-6.6-5.5-8.1-3.2-1.4-5.8-.3-7.9,2.2-4.3,4.7-4.3,6.2-.3,10.8ZM368.9,191.1c4.3-2.3,4.7-4.6,1.7-8.5-3.1-3.8-6.1-4.5-9.1-2.1-2.8,2.3-4.5,9.5-2.7,11.7.5.6,1.7,1.3,2,1.2,2.4-1.9,5.9,0,8.2-2.3Z"/>
        <path class="cls-2" d="M383.1,391.5c1.1,2.7,2.3,5.3,3.9,9.1-4.8-2.1-7.5-4.9-9.6-8.4-3.6-5.9-4.7-12.5-6-19.2-3.7-18.6,1-36.8,2.7-55.2,1.2-13.1,4.3-25.9,7.3-38.7,1.3-5.3,4.1-6.3,7.6-3.1.7,8.2-2.7,15.8-4.1,23.7-4.4,24.2-8.7,48.3-7.5,73.1.3,6.6,1.8,13,5.7,18.6Z"/>
        <path class="cls-1" d="M871.9,859.9c-9.7-3.1-19.4-6.4-29.2-9.3-3.5-1-3.1-2.4-1.7-4.8,1.4-2.5,3.7-4.2,5.4-6.4,1-1.3,2.1-1,3.5-.5,6.5,2.5,12.9,4.8,19.5,7.1,1.3.5,2.8.6,2.5,2.4-.8,3.5.9,6.3,2.2,9.2-.7.7-1.4,1.5-2.1,2.2Z"/>
        <path class="cls-2" d="M244.8,979.3c-.5,2.8-2.2,4.4-5.1,4.1-2.7-.3-4.2-2.1-4.1-4.7.1-2.9,1.9-4.6,4.8-4.4,2.9.2,4.3,2.1,4.3,5Z"/>
        <path class="cls-4" d="M887.9,757.3c1.2-12,.5-24.1,0-36.1,3.2,12,2.3,24,0,35.9,0,.1,0,.4-.1.4-.6,0-.6,0,0-.2Z"/>
        <path class="cls-5" d="M632.2,780.1c2.7.7,4.9-1.1,7.5-1.1-.4,1.5-2.7,2.2-1.7,4.3-2,.7-4,1.4-6.2,1.1,0-1.4-.5-2.9.4-4.3Z"/>
        <path class="cls-5" d="M701.4,839.1c-2.2-.8-4.6,1.3-6.8-.4,0,0,0,0,0,0-.2-.4-.4-.8-.6-1.2-.3-.4-.6-.8-.9-1.2,2.2-.4,4.4-.8,6.6-1.3.5,1.4,1.1,2.8,1.6,4.2Z"/>
        <path class="cls-4" d="M758.6,886.8c-6.5.4-12.8-.7-18.6-3.7,6.2,1.2,12.4,2.5,18.6,3.7Z"/>
        <path class="cls-1" d="M699.8,834.9c-2.2.4-4.4.8-6.6,1.3-1.2-.2-2-.9-2.8-1.8,2.7-1,5.5-2,8.2-2.9.4,1.1.8,2.3,1.2,3.4Z"/>
        <path class="cls-3" d="M607.7,355.9c-9.9,22.9-19.8,45.4-29.3,68-24.6,57.9-49.1,115.8-73.4,173.7-1.6,3.9-3,5.1-7.1,3.3-3-1.3-6.3-2-9.6-2.5-4.3-.6-6.1,1.7-4.5,5.7.5,1.3.4,2.1-.3,3.1-3.1,3.8-5.4,7.8-10,10.7-8.8,5.6-17,11.9-26.5,16.3-7.6,3.5-15.5,5.8-23.7,6.9-15.3,2.2-25.8-7.1-28-24.3-2.2-17.5.9-34.6,4.4-51.6,3.9-19.2,9.3-38.1,14.4-57.1,2.9-10.8,9.5-19.8,12-30.5.3-1.4.9-1.8,2.4-1.4,20.5,5.5,37.3-3,52.8-14.6,16.2-12,28.8-27.6,40.2-44.2,8.3-12.1,15.8-24.9,25.8-35.8,14.1-15.4,31.7-23.3,52.4-24.9,2.4-.2,4.9-.6,8-1Z"/>
        <path class="cls-4" d="M638.1,783.3c-1.1-2.1,1.3-2.8,1.7-4.3,3-5.3,1.7-11.3,2.5-17,4.8-36,12.5-71.2,27.5-104.6,13.4-29.7,30.9-57.1,47.6-84.9,13.4-22.2,23.7-45.6,28-71.3,3.4-20.4,3.1-40.7-1.6-60.9-5.1-22.2-14.8-42-29.7-59.3-6.2-7.2-14.3-10.3-23.1-12.1-5.2-1.1-5.8-1.8-3.8-6.9,1.1-2.8,2.2-5.5,3.3-8.2,1.2-3.2,4.1-4,6.6-2.8,21.1,9.2,43.2,16.4,62,30.5,23,17.3,36.1,40.5,41.3,68.2,7.5,39.8-.6,77.7-15.2,114.6-7.8,19.7-19.1,37.6-31.5,54.7-.3.4-.5.8-.8,1.1,0,0,0,0,0,0-1,.8-2,1.5-2,3h0c-1.9,1.1-3.5,2.6-4,4.9,0,0,0,0,0,0-7,4.1-9.3,11.5-13,18h0c-1.2,1-2,2.2-1.9,3.9-8.1,12.5-15.4,25.5-22.7,38.5-3.2,5.7-6.2,11.5-9.3,17.2-4,4-5.4,8.9-5.6,14.4-4.1,12.8-7.7,25.8-10.4,39-.7,3.4-.3,7-.3,10.5,0,.9.4,1.6,1.4,1.8,1.5.3,3.3.4,2.8,2.5-.4,2.1-1.8,3.7-3.9,4-11.7,1.5-23.1,5.1-34.9,5.1-3.6,0-7.1,1.6-10.8.6ZM740.7,378.9c-6.7-.5-8.6,1-7.9,6.3.4,3.2,3.2,5,4.2,8,.6,1.7,3.2,1.4,4.7,0,1.2-1.1,2-2.5,3-3.8,3.6-5.5,2.1-9.3-4.1-10.5ZM780.5,509.2c0-5.5-3.7-9.5-8.5-9.5-5.7,0-11.2,6.1-11.3,12.3,0,3.3,6.9,10.4,10.4,10.5,4.3.2,9.4-7,9.4-13.4ZM714.6,632.3c2.2-.5,4.9-.8,7.3-1.7,4.9-1.9,6.9-9.9,3.2-12.7-4.2-3.2-10.8-3.5-15.3-.5-3.4,2.3-6.5,5.4-5.4,9.7,1.2,4.5,5.8,4.7,10.1,5.2ZM678.9,721.7c0-4.3-3-7.6-7.3-7.7-5.8,0-10.1,5.3-10.2,12.8,0,4.7,3.1,8.3,7.3,8.2,5,0,10.1-6.8,10.2-13.3ZM780.4,455.4c0-5.7-4.1-10-9.8-10.2-4.9-.2-6.9,2.4-7,9.1-.1,7.8,3.2,12.8,8.5,12.8,4.5,0,8.3-5.2,8.4-11.7ZM761.8,564.4c0-5.5-3.4-9-8.9-9-5.3,0-8.8,6-8,15.1.4,4.8,5.4,3.9,8.6,4.5,3.1.7,8.2-6.3,8.3-10.7ZM701.1,663.4c0-5.4-3.4-8.7-7.7-7.6-4.5,1.2-8.5,8.9-6.8,13.2,1.2,3.2,3.4,5.2,6.9,5.4,3.5.2,5.3-1.7,6.6-4.8.8-2.1,1-4.1,1-6.3ZM766.8,408.4c.3-2.6-2.7-4.6-6.1-4.3-4.8.5-4.1,5.5-4.9,8.8-.9,3.5,2.1,4.5,5,4.4,4.2-.2,5.8-3.1,6.1-8.9Z"/>
        <path class="cls-5" d="M623.2,330.2c9.5,6.8,15.2,15.6,19.8,25.4,2.7,5.8-1.5,9.7-3.1,14.2-1.5,4.5-2.8,8.5-9.3,10.3-9.2,2.6-19.4,6-24,16.4-.4.8-1.5,1.3-2.2,1.9-.8.8-.9,1.7-.4,2.7.5,1,1.4,1.4,2.5,1.2,7.8-1.4,16.2-.9,23-6.9-3.4,8.2-5.6,17.3-10.7,24.4-2.5,3.5-7.6,7.3-13.2,8.5-5.2,1.1-9.9,3.7-13.8,7.4-1.8,1.7-4.1,4.2-2.7,6.3,1.4,2.2,4.7,2.5,7.5,1.7,4.8-1.5,9.2-3.6,13.1-6.7.7-.6,1.6-1,3.7-2.2-3.9,9.5-6.9,18-10.8,26.1-1,2.1-4.3,3.1-7.1,3.5-7.7,1.1-15.1,3.2-22,6.9-3.6,1.9-7,5.1-5.9,8.7,1.3,4,6.2,3.5,10,2.9,3.7-.6,7.3-1.9,10.7-3.6,2.5-1.2,4.8-2.9,8.8-3.3-3.3,8-5.7,15.8-9.6,22.8-1.5,2.6-6.3,4.2-9.8,4.7-8.3,1.2-15.1,4.2-19.6,11.6-1.1,1.9-2.8,3.4-1.2,5.7,1.7,2.4,4.4,2.7,6.7,1.7,4.5-2.1,9.2-3.7,13.1-6.9,1.7-1.3,3.4-2.5,6.3-4.5-3.2,8-5.1,15.3-8.8,21.5-2.6,4.3-8.1,6.3-13.1,7.8-3.4,1-7.1,1.4-10.6,2.2-3.7.9-6.7,2.9-8.3,6.5-1.2,2.6-3.3,5.6-.6,8.2,2.6,2.5,5.9,2.5,9.1.7,6.2-3.6,13.1-6.2,18-11.9-3.6,7.5-5.3,15.5-10.5,22.5-6.1,8.1-12.3,16.8-14.3,27.3-.6,3.1-.2,6.1,2.6,7.8,2.8,1.7,5-.5,7-2.3,5.7-5.1,8.8-11.8,9.3-19.1.9-11.9,6.7-21.9,10.8-32.7.5,2.5.5,4.9,1.2,7.3.8,2.7,2.3,4.8,4.6,6.2,1.8,1,3.9,2.1,6,.4,1.9-1.5,1.8-3.6,1.3-5.4-1.8-6.3-2.2-13.1-7-18.2-1.6-1.6-1.1-3.8-.3-5.6,1.5-4,3.2-7.9,4.8-11.9,1.7.4,1.8,2,2.4,3,3,4.9,8.1,5.9,12.4,2.3,1.2-1,.6-1.9.3-3-1.4-6.3-2.8-12.5-6.5-17.9-.9-1.3-1.4-2.7-.8-4.2,2.5-6.4,5-12.8,8.2-20.6,1.3,6.5,5.8,9,8.4,12.9.8,1.1,1.8,1.4,3,1.1,1.5-.4,2-1.6,2.1-3,.5-5.7-.8-11.1-4.4-15.3-4.3-5-4.3-9.5-1.5-15.2,2.8-5.7,4.9-11.7,7.4-18.1,2,2.7,2.2,7.6,7.1,4.8.6-.4,1.4,1.3,1.6,2.2,1,4,2.8,6.1,7.4,4.1,5.2-2.3,2.1-5,.9-7.9-1.4-3.3-2.5-6.8-3.5-10.3-.6-2.1-1.2-4.4-2.7-5.7-4.6-3.9-2.7-7.8-.9-12.2,2.8-6.6,5.2-13.4,7.9-20.3,2.2,1.9,2.5,4.5,3.7,6.6,1.6,2.8,3.6,4.8,7.1,5.6,6,1.3,8.8-.6,6.3-5.9-3.8-8-4.1-16.9-7.7-24.8-.4-.9-1.1-2-.8-2.7,2.6-7.1,3.4-15.2,12.5-18,10.8-3.3,21.3-7.7,33-9.1-.3,3.7-2.3,6.8-3.7,10-33.7,76.8-66.4,154.1-99.5,231.1-4.8,11.2-9.5,22.5-14.1,33.8-1.3,3.2-2.5,3.7-5.7,2.1-16.5-8-33.8-14-50.9-20.6-3.5-1.4-5.1-2.2-3.1-6.8,18.2-42.2,36.2-84.6,54-127,18.7-44.7,37.1-89.4,55.6-134.2,1.1-2.7,2.3-5.4,3.7-8.6Z"/>
        <path class="cls-4" d="M690.4,834.4c.7.9,1.6,1.6,2.8,1.8.3.4.6.8.9,1.2,0,.4-.2.8-.2,1.2h.8c0,0,0,0,0,0-.6,1.1-.6,2.3-.2,3.4,8.1,21.4,20.2,39.5,42.2,48.6,23.6,9.8,50.5,3.9,67.5-19.6,3.2-4.4,6.4-8.9,8.6-13.9,1.9-4.2,4.2-5,8.8-3.7,12,3.3,24.4,5.5,36.2,9.6,1.1.4,2.3.5,3.3,2-6.3-.8-7.1,4.2-9,8-11.1,21.4-24.4,41.2-43.3,56.7-46.4,38.2-116.1,24.4-142.5-29.3-6.7-13.7-11.7-27.9-15.8-42.6-1.3-4.6-1.4-4.6-6-7.4,16.5-4,30.5-12,46-16.2ZM767.4,925.1c.5,6.3,5.5,1.3,8,3,1.2.8,2.1-1.3,2.1-3,0-2.8,0-5.4-3.7-5.6-1.7-2-3.8-1.9-5.6-.4-2.1,1.6-2.3,3.8-.8,6ZM683.1,860.1c-.7-3.2-.1-7.3-5.4-7.8-4.9-.5-6.8.8-8.3,6.1-.2.9-.4,2-1,2.7-2.5,3.7-.2,5.9,2.5,7.7,2.7,1.8,5.7,1.3,8.4-.4,3-1.9,3.5-5,3.7-8.4ZM718.2,915.1c0-4.6-3-7.1-8.6-7.3-4,0-7.7,3.5-7.6,7.5,0,3.6,5.4,9.1,8.8,9.2,4.3,0,7.3-3.8,7.4-9.3ZM796.8,906.9c-1.3,0-2.6-.3-3.9,0-2.9.7-4.9,4.1-3.2,5.3,2.6,1.8,4.1,5.3,7.8,5.5,3.6.2,6.7-2.2,6.5-5.8-.2-4.6-3.2-5.6-7.3-5.1ZM698.1,889.7c.2-2,.2-4.8-2.5-5.4-2.6-.6-5.8-2.1-8,0-2.4,2.4-.2,4.7,1.3,6.9.5.7.3,1.9.6,2.8.6,1.6,1.6,2.8,3.6,2.8,1.8,0,3.1-.5,4.1-2.1.9-1.5.8-3.1.9-5.1ZM822.5,885.3c.2-2.7-.3-5-3.6-5.2-3.6-.2-7.5,3-7.5,6.3,0,3.1,1.4,5.8,4.9,6.2,3.3.4,6-2.9,6.2-7.4ZM744.4,920.7c-2.3.2-4.4-.6-5.4,1.5-.7,1.7-1,4,.7,5,3.1,1.8,6.6,3.2,10.3,2.1,2.1-.7,2.9-2.6,2.7-4.8-.1-1.5-1-2.4-2.5-2.7-2.1-.4-4.2-.8-5.8-1.1Z"/>
        <path class="cls-4" d="M821.4,702.3c-.8-14.3.3-28.3,4.6-42,1.2-3.6,2.7-7,4.9-10.2,7-10.2,17.1-11.4,25.9-2.9,8.5,8.2,12.3,18.9,15.9,29.7,6.4,19.2,8.8,39,7.7,59-1,17.6-2.6,35.2-5.3,52.6-.5,2.9-.9,5.9-1.2,8.8-.2,1.5-.7,3.1,1.9,3.6,1.7.3,1.1,1.9.1,3-.3.3-.6.7-.9,1-3.8.6-6.5-2.3-9.6-3.6-10.6-4.4-21.3-7.9-32.7-8.9-1.8-2.6-3.6-5.2-5.4-7.8-1.6-18.9-3.2-37.8-4.8-56.6.6-8.6,2.3-17.2-1.1-25.7ZM842.2,685.4c-.2,1.5-.2,2.9.5,4.3,1.8,3.7,4.7,4.5,8.1,3,3.6-1.5,2.6-4.2,1.1-6.8-.4-3.6-2.4-5.6-6-5.5-2.9.1-4.2,2-3.7,5ZM854.7,709.1c-3.5-2.6-6.1-2.1-7.6,2.2-1.4,1.8-2.8,3.7-4.1,5.5-1.6,2.2-.9,4.1,1,5.6,2.8,2.2,8.2,1.1,10.6-2.1,3.9-5.1,3.9-8,0-11.3ZM862.1,780c-1.8-4.8-5.7-7.6-9.9-7.3-4.2.3-4.2,3.4-4.5,6.4-2.4,2.7-2.8,5.3.2,7.8.7.6,1.4,1.2,2.1,1.7,2.4,3.5,5.8,4,9.1,2.1,4.4-2.4,4.5-6.5,3-10.8ZM855.9,744.3c0-3.2-1.1-5.1-3.4-6.1-1.8-.8-4-1.2-5.6.2-1.9,1.6-1.7,3.8-.7,5.8.7,1.4.8,2.8.8,4.3,0,1.9.7,3.2,2.7,3.5,2,.3,3.6-.3,4.4-2.3.8-2,1.4-4,1.9-5.5ZM845,671.7c-1.8.7-2.5,2.2-2.7,3.8-.1,1.3,1,2,2.3,2.1,2.1.1,2.5-1.2,2.3-2.9-.1-1.3-.5-2.6-2-3Z"/>
        <path class="cls-1" d="M477.6,630.7c3-7.8,8-14.8,9.3-23.9,7.7,3.2,15.3,6.1,22.7,9.4,14.6,6.3,29.2,12.4,44.2,17.6,5.4,1.9,10.3,4.9,15.4,7.2,4.1,1.8,6.2,5.9,5.4,10.7-.6,3.9-1.7,7.8-3.3,11.4-6.2,13.3-12.1,26.7-18.8,39.7-2.2,4.3-7.7,2.9-11.8,2.9-10.7,0-20.7-3.4-30.7-6.9-10.3-3.6-20.5-7.4-30.7-11.1-3.3-1.2-6.2-3-9.1-4.9-6.1-3.8-8-9.5-7-16.2,1.2-8.4,4.2-16.3,8.6-23.5,6.7-5,7.6-6.9,5.9-12.3ZM512.5,691.6c12.9,0,21.1-8.2,20.6-18.9-.2-3,.6-4.8,3-6.5,4.1-2.8,8.1-5.7,11.9-8.8,5.4-4.4,5-7.6-.6-11.7-12-8.7-26.8-6.9-40.1-11-2.8-.9-4.4,1.4-5.2,4.1-1.4,4.8-.8,9.5,1.1,14,1.4,3.3,1.1,5.6-1.8,8.5-5.5,5.5-6.6,12.4-3.2,19.6,3.2,7,8.8,10.4,14.2,10.6Z"/>
        <path class="cls-1" d="M387.3,1017c-7.6,1.4-14.6-.3-21-4.3-2.1-3.2-2.7-8-8.2-7.3-5.2-6.2-6.9-13.8-7.8-21.6-1.9-15.7-4-31.5-3.7-47.4,0-4.5.8-8.9,2.8-13,3.3-7,9.6-8.2,15.3-3,2.6,2.4,4.4,5.3,5.8,8.5,4,9.2,5.7,18.9,5.2,29-.1,2.9-.1,6.2,3.3,6.8,4.2.7,4.6-3,5.1-5.9,2-10.9,6.3-20.8,12.1-30.2,2-3.2,4.5-6.1,7.9-8.1,5-3,9-1.9,11,3.6,2.6,7.1,1.6,14.3.7,21.6-.9,7.4-4.2,14.1-6,21.2-.9,3.3-2.6,6.6-.6,10.1,2.6-2.5,6.5-3.2,8.9-6.1,7-8.7,15.6-15.2,26-19.3,6.3-2.5,12.6-3.4,19.1-1.2,4.6,1.5,5.6,3.4,3.7,7.7-1.8,4.1-4.7,7.6-7.8,10.8-14.2,14-30.3,25.6-46.3,37.4-1.6,1.2-3.9.9-5,2.8-7.1,1.7-14.4,3-20.3,7.8ZM445,969.3c-3.5-.3-5.7,1.5-7.8,3.2-7,5.6-14.6,10.2-21.8,15.6-8,6-16.8,5.3-26.3,4.9,6-14.6,10.3-29.3,14.7-44,.7-2.4,1.5-4.7,1.4-7.3,0-1.3-.5-2.3-1.6-2.9-1.4-.7-2.6-.1-3.6.9-1.7,1.7-2.3,4-2.9,6.2-4.5,14.5-9,29-16.4,42.4-1.1,2-2.1,3.2-4.9,3.1-2.9-.1-3.7-1.7-4.3-3.8-1.1-3.8-2.3-7.6-3.1-11.4-2.4-11.5-4.8-23-8-34.2-.7-2.3-2-4.8-4.6-4.3-2.4.5-2.6,3.3-2.1,5.4,3.9,15.5,5.5,31.6,11.3,46.6,6.1,15.9,16.9,20.6,32.7,14.5,1.8-.7,3.7-1.5,5.4-2.4,13.6-7,25.7-16.2,37-26.5,1.9-1.7,3.3-4,5-6Z"/>
        <path class="cls-6" d="M709.1,259.3c-2,23.6-8.6,45.4-24.7,63.4-4.1,4.6-8.9,8.4-14.9,10.3-6.4,2-10.8.2-14.1-5.7-3.6-6.6-4.9-13.8-4.6-21.1.9-21.7,7.6-41.5,20.7-58.9,4.3-5.7,9.3-10.8,16-13.8,7.7-3.4,14-1.2,17.8,6.3,3.1,6.1,3.6,12.6,3.8,19.4Z"/>
        <path class="cls-6" d="M720.1,250.6c-.3.7-1,1.6-.8,2.2.3,1,1.2.5,2,.2,4.3-1.6,8.6-3.2,13-4.7,18.6-5.9,32.4,3.3,32.8,22.9.4,17.7-7.3,32.2-21.2,43.2-3.8,3-7.2,6.7-11.8,8.9-2.1,1-3.9,2.6-6.4,1.1-.4-.2-1.2-.4-1.4-.2-5.7,7.5-13.9,5.1-21,4.4-6-.6-12,.3-17.9-.8,0-1.4,1.5-2,2.1-3,3.5-5.7,7.6-9.2,15.2-6.7,5.4,1.8,11.1-.3,16.5-2.1,4.7-1.6,9.1-3.8,13.9-5.1,4.3-1.2,7.1-4.8,9.5-8.4,6.2-9,10.1-18.6,10-29.9-.2-16.2-7.1-16.5-18.9-14.9-6.3.8-12,4.6-16.9,8.9-1.9,1.7-3.8,3.7-2.8,6.8,5.3-1,9.2-4.7,13.9-6.5,2-.8,4-1.7,6-2.2,6.8-1.6,12.4,3.6,11,10.7-1.6,8-4.6,15.8-9.8,22-9.3,11.2-21.5,15.6-36.7,12.7,9.4-18.6,15.4-37.6,14.4-58.3,1.7-.3,3.3-1.5,5.1-1.1Z"/>
        <path class="cls-6" d="M789.9,331.7c-13.3,9.7-37.9,10.6-51.8-1.7,3.9-2.6,6.8-4.9,12.5-3,14.2,4.9,27.6,1.5,39.6-7,3.5-2.5,5.2-5.9,5.1-10.6,0-8.4-1-16.1-8.2-21.7-2.9-2.2-5.8-3.8-9.5-2.6-1.2.4-2.3.6-2.4,2.1,0,1.4.9,1.8,2.1,2.3,9.9,4,13.9,11.2,12.2,21.9-.3,1.7-1.2,2.7-2.4,3.6-8.7,6.2-23.7,10.7-35.3,5.9,4-4.6,7.9-9.1,11.8-13.7h0c.5,5.3,2.9,7.4,8.2,7.7,4.9.3,7.1-3,7.4-6.9.5-5.8.5-11.8-5.9-15-1.5-.7-1.6-1.7-1-3.2,2.5-6.7,3-13.7,2.7-20.9,2.2-.2,3,1.5,4.4,2.3.7.4,1.7,1.2.9,1.8-1.2.9-3,1.6-1.4,3.2,1.3,1.3,2.8-.3,4.1-.7,1.8-.6,3.1-.2,4.5.9,9.7,7.3,15.9,16.6,17.6,28.8.6,4.8-1.4,9.1-3.6,13.3-.9.6-1,1.6-1,2.6,0,0,0,0,0,0-2,1.2-3.8,2.5-4,5.1,0,0,0,0,0,0-.8-.1-1.2.2-1.1,1.1,0,0,0,0,0,0-.9-.2-1.2.2-1.1,1.1,0,0,0,0,0,0-.9-.2-1.1.3-1.1,1h0c-.7-.1-1,.3-1.1.9,0,0,0,0,0,0-.4.3-.7.6-1.1.9,0,0-.2.1-.2.1-.4.3-.8.5-1.1.8Z"/>
        <path class="cls-1" d="M399.2,409.4c-7.8,11.6-13.6,23.3-17.2,36.2-2.4,8.7-3.8,17.5-1.5,26.4,1.7,6.8,4.5,13.1,12.1,14.9,8.6,2.1,16.8-1.6,21.4-9,5.2-8.3,6.2-17.7,7-27.1.5-5.8,1-11.5,1.9-17.2,1.1-7.3,4.3-13.4,9.2-19.4,3.1,4.4,2.5,9,1.2,13.3-5,16.7-9.8,33.6-14.2,50.5-1.2,4.8-3.4,9.4-6.3,13.4-3.6,4.9-8.1,8.7-14.5,9.4-8.5.9-14.6-3.1-18.4-10.1-5.3-9.5-6.7-19.7-6.5-30.8.2-10.4,1.5-20.3,4.2-30.1,1.3-4.8,3.3-9.4,6.4-13.3,3.6-4.6,8-7.8,15.2-7.1Z"/>
        <path class="cls-1" d="M767,167.9c-2.3,6.6-4.3,12.3-6.3,18.1-.5,1.4-1.2,1.9-2.7,2.3-10.1,2.6-19.4,7.8-29.5,9.8-13.9,2.9-26.3,9.5-39.5,13.8-.9.3-1.7,1.1-3.2.1,1.2-7.3,3.3-14.6,6.5-21.4,1.8-3.9,7.1-4.5,10.8-5.2,20.1-3.5,39.1-10.4,58.4-16.8,1.4-.5,2.9-.5,5.5-.8Z"/>
        <path class="cls-6" d="M560.4,245.1c.4-5.8,1.1-11.2,3.4-16.3.6-1.3.1-4.3,3.3-2.5.7.4,1.1-1.2.9-1.9-1.2-4.9,2.3-7.8,4.8-11.1,4.7-6,10.6-10.7,17.6-13.1,4.6-1.6,9.3-3.8,14.6-3.6,5.3.1,10.5.8,15.5,2.9,2.3.9,4.7,1.5,7,2.3.8.3,2.3.1,1.7,1.6-.3.9-1.3,1.4-2.4,1-3-1-4.4-.5-3.6,3.2.4,2-1.1,2.6-2.8,1.3-11.6-8.9-23.6-7.6-35-.3-12.3,7.9-17.6,19.8-16.6,34.3.7,11,6.9,19,15.5,25.4,3.7,2.8,7.8,5.1,12.1,6.8,3.1,1.2,2.3,3.8,2.2,5.9-.2,2.7-2.7,1.7-3.9,1.4-14.9-4.6-27.7-11.8-32.8-27.9-.4-1.2-.7-2.6-.9-3.8-.3-2-.5-3.9-.6-5.5ZM617.5,200.9c-.6-.6-1-1.9-2.4-1.5-1,.2-1.5,1.1-1.4,2.2,0,1.1.7,1.9,1.7,1.8,1.3,0,2-.9,2.1-2.5Z"/>
        <path class="cls-1" d="M732.3,152.4s.1,0,.1,0c-.9.1-1.9,0-2.6.9,0,0-.1,0-.1,0-.8.3-1.7.6-2.5.9-4.2,1.8-8.8,2.1-13.2,3.2-1.6-1-3.2-2-4.8-3,4.7-12,13.8-17.9,26.3-20,8.4-1.4,16.5-4,24.8-6.1,4,.5,8.2-1,12,1.1,0,1.3.2,2.6.2,3.9-.1,2.9.4,6.2-.6,8.8-1.3,3.1-5,.9-7.5,1.9-5.9,2.4-12.2,3.8-18.5,4.6-4.9-.2-9.3,1.7-13.5,3.9Z"/>
        <path class="cls-1" d="M412.6,466.8c-2.3-19.8-11.8-24.6-26.3-14,0-4,1.6-7.5,2.8-11,3.5-10.2,8.5-19.6,14.5-28.6,1.6-2.5,3.3-3.4,6.1-2.5,4.9,1.6,10,2,15.9,1.7-12.2,16.2-8.7,35.7-13,54.3Z"/>
        <path class="cls-1" d="M720.1,250.6c-1.9-.5-3.4.7-5.1,1.1-.8-3.5-1.4-7.1-2.5-10.6-2.1-6.8-6.1-12-13.8-15.1,16.8-5.9,33.6-9.1,49.9-15-8.1,14.4-14,30.1-28.5,39.6Z"/>
        <path class="cls-6" d="M611.9,222.8c.5-4.1-1.8-5.1-5.2-4.9-2.5,0-5,0-7.4,0-11.1,0-18.4,9.5-14.8,20.3,2.3,6.9,5.9,13.5,14.5,14.5,2.6.3,1.9,1.9,1.5,3.2-1.1,3.8-1.7,7.6-1.8,11.6-15.6-3.7-26.8-20.2-23.7-34.7,3-13.9,17-27.4,35.3-23.2,9.8,2.2,9.9,1.9,4.3,10.3-.7,1-.9,2.5-2.8,3Z"/>
        <path class="cls-3" d="M696.9,179c1.7-7.4,6-11.2,13.9-13,12.6-3,25.2-6.1,37.4-11,6-2.4,12.8-3,19.2-4.5,2.8-.7,3.4.4,2.9,3-1.3,7.8-1.2,7.8-9.1,9.4-10.2,2-19.8,6.3-29.9,8.8-11.4,2.9-23,5.2-34.6,7.2h.1Z"/>
        <path class="cls-6" d="M385.6,596.8c-13.8,14.8-20.3,33.5-27.8,51.9-3.6-10.1-4.5-20.1-4.5-30.3,0-.6,0-1.7.4-1.8,8.7-3.1,9.8-12.3,14.8-18.4,5.6-6.8,11.3-13.4,17.9-19.1-.6,5.9-1,11.9-.8,17.8Z"/>
        <path class="cls-3" d="M383.4,1040c0,9-7.1,16.4-16.1,16.6-9.2.2-16.7-7.2-16.8-16.4,0-8.7,8-17,16.5-17,9.2,0,16.4,7.4,16.5,16.8ZM368.7,1031.8c-4.4,0-8.9,4.2-9,7.3-.1,2.2,4.8,6.8,7.3,6.8,4.2,0,7.7-3.8,7.2-8.3-.4-3.8-2.9-5.8-5.5-5.8Z"/>
        <path class="cls-6" d="M389.6,629.1c4,4.8,5.5,9.6,3.8,15.9-3,11-2.3,22.2.5,33.3.6,2.2.5,4.6,0,7-5.4-.7-10.3-2.6-14.9-5.1-3.8-2.1-3-6.2-2.6-9.2,2.3-14.6,5.9-28.7,13.1-41.9Z"/>
        <path class="cls-6" d="M369.5,672.4c-4-3.5-6.9-7.7-8.1-12.3-.6-2.2.2-5.9,1.4-8.1,5.6-10.5,7.1-22.7,13.6-32.8,3.1-4.9,4.6-10.9,9.7-15.7,0,6.1.2,11.4,1.2,16.7.2,1.1,0,2.2-.7,3.3-10.2,14.1-13.5,30.6-16.4,47.3,0,.4-.3.8-.7,1.6Z"/>
        <path class="cls-6" d="M412.8,646.7c13.1,9,28.8,11.1,43.2,17.5-6.3,7.7-13.9,13-23.2,17.5.4-3.8-1.7-5.6-3.6-7.7-7.1-7.9-12.6-16.8-16.4-27.3Z"/>
        <path class="cls-6" d="M415.7,686.1c-4.3.7-8.8,1.5-12.7.2-4.9-1.7-2-7.2-3.3-10.9-3.8-10.9-2.1-22,.3-33.1,3.7.9,5.9,2.7,5.1,6.9-.4,2,.4,3.9,1.2,5.7,4.5,10.5,10.3,20.3,18.6,28.3-3,1-6.1,2-9.1,3Z"/>
        <path class="cls-6" d="M388.3,568.3c-1.3,1.5-2.6,2.9-4,4.4-5.4,5.8-12.2,10.3-16.8,16.8-4.5,6.3-8.9,12.6-13.8,19.6-.6-8.4,1.1-15.9,2-23.5,0-.3,0-.8.3-.9,12.9-9,20.8-23.3,33.8-32.1.1,0,.3,0,.5,0-.7,5.3-1.4,10.6-2,15.9Z"/>
        <path class="cls-3" d="M682.9,225.6c0-4.5,1.9-6.3,6.6-7.1,7.4-1.4,13.9-6.1,21.1-8.3,15.5-4.8,30.9-10,46.3-16.4-1,7.2-4.7,10.8-11.3,12.5-13,3.3-25.8,7.6-39.1,10.3-6.6,1.3-12.3,4.4-18.1,7.5-1.6.8-3.2,2.6-5.4,1.3h0Z"/>
        <path class="cls-6" d="M387.4,469.9c0-5,1-8.4,2.9-11.6,2.5-4.2,6.5-4.8,10.7-4.1,3.8.6,4.5,4,5.2,7.1,1.8,7.6-.9,14.1-6.1,19.4-2.6,2.8-5.9,1-8.4-.9-3.5-2.8-4.1-6.9-4.3-9.9Z"/>
        <path class="cls-6" d="M781.5,85.5c-.6,11.7-4.7,14.5-15.1,10.2-.8-.3-1.5-.7-2.2-1.1-6.7-3.6-7.8-5.6-6-10.4,2.8-7.3,6.1-9.2,13-7.8,7.4,1.5,10.5,4.3,10.3,9.1Z"/>
        <path class="cls-6" d="M394.4,542.2c-13.5,9.6-25.5,20.9-37,34.3,1.1-4.6,2.1-8.1,2.9-11.6,1.2-5.5,3.1-9.6,9.1-12.6,7.5-3.7,13.6-10.4,20.2-15.8,2.1-1.7,4.2-3.3,6.8-4-.7,3.2-1.4,6.4-2,9.7Z"/>
        <path class="cls-1" d="M825.3,802.3c15.1-.6,29,4.3,43.3,9.8-4.3,3.5-9.6,4.9-13.5,8.5-1.2,1.1-2.2,0-2.9-.8-4.9-4.8-9.7-9.9-17.5-5.6-1,.5-1.5,0-2-.8-2.5-3.8-5-7.6-7.4-11.1Z"/>
        <path class="cls-6" d="M612,223.8c-3.3,7.4-7,14.4-9.1,22-.7,2.3-2.2.9-3.2.7-8.8-1.9-13-14-7.6-21.1,1.2-1.6,2.7-1.6,4.4-1.6,4.9,0,9.9,0,15.5,0Z"/>
        <path class="cls-6" d="M687.9,333.8c-1.1,1.8-1.6,3.6-4,4.2-9.4,2.3-18.7,4.9-28.1,7.5-1.8.5-2.8,0-3.6-1.5-3.4-6.6-7.3-12.9-11.8-18.8-2.7-3.6.9-7.2.4-10.9,0-.2,1.7-.9,2.6-.9,1,0,.8,1.2,1,1.9.6,2.9,1.1,5.8,2,8.6,4.6,13.7,17.5,18.7,30.1,11.7,2.1-1.2,4-2.8,6.1-4.1.8-.5,1.5-2.2,2.8-.7.8,1,1.6,2,2.4,3Z"/>
        <path class="cls-6" d="M398.4,525.8c-11.5,6.4-22.7,13.2-33.1,23.6,1.6-8.1,4.2-14.3,6.4-20.6.4-1,1.2-1.7,2.2-1.7,9.4-.3,17.6-5.3,26.5-7.3.5,2.4-2,3.8-2,6Z"/>
        <path class="cls-1" d="M803.2,838.8c-.1-6.5,2.6-12,4.2-17.8.8-2.7,2.8-1.6,4.5-1.2,3.9,1.1,7.8,2.6,11.9,2.9,1.4.1,4.1-.3,3.5,2.1-.6,2.4,1.8,5.9-2.1,7.3-4,1.4-8.1,2.7-12.2,3.9-3.1,1-6.3,1.8-9.9,2.8Z"/>
        <path class="cls-1" d="M648.8,816.6c-6.5,4.7-12.6,9.1-18.7,13.5-1.3,1-2.1.5-2.4-1.1-.8-5.6-1.5-11.1-.9-16.8.2-2.2,1.2-2.6,3.3-2,6.1,1.8,12.2,3.6,18.6,6.4Z"/>
        <path class="cls-1" d="M735.4,120.3c6.4-7.1,13.4-13,23.2-14.4,2.2-.3,4.3.3,6.1,1.6,2.2,1.5,4.7,3.6,4.4,6.1-.3,2.1-3.4,1-5.2,1.2-9.5,1.3-19,2.9-28.5,5.5Z"/>
        <path class="cls-6" d="M384.1,505.7c5.8,2.6,11.8,2.9,17.9,1.9.2,1.7.5,3.4.7,5.1-8.6,3.6-17.6,6.2-27.3,8,.3-3.4,1.8-5.7,3.1-8.1,2.3-2,4-4.5,5.6-7Z"/>
        <path class="cls-1" d="M690.6,790.2c1.5,7.8,3.2,14.7,3.5,22.4-6.1-2.6-11.9-4.5-18.1-5.1-2-.2-2.3-1.7-.9-2.7,5.6-4.1,9.9-9.6,15.6-14.6Z"/>
        <path class="cls-1" d="M666.2,832.8c-5.9,1-11,4.6-17.5,6.4,3.8-6,7.8-10.8,12.3-15,4.3-4,10.2-4,15.3-.8,1.8,1.1,3.6,2.3,5.4,3.4-5.5,1.1-11.5,1.1-15.5,6Z"/>
        <path class="cls-6" d="M457.7,662.5c-1.2-5.1-4.5-7-9.1-8-7.5-1.8-15.1-3.2-22.4-7.4,3.4-1,6.4-2,9.4-2.8.6-.2,1.5-.3,1.8,0,5.6,4.6,12.6,4.4,19.1,5.4,4.3.7,5.3,1.9,3.4,5.9-1.1,2.2-1.5,4.6-2.2,7Z"/>
        <path class="cls-1" d="M640.5,791.7c10.7-2.1,20.7-1.5,31-4.4-2.9,4.3-5.5,7.7-8.1,11-2.2,2.8-6.8,1.7-10.1.7-4.4-1.4-8.4-3.8-12.8-7.3Z"/>
        <path class="cls-1" d="M655.3,821.8c-4.5,5.9-9.4,11.2-13.5,17.2-1.8,2.6-6.7,2.3-9.2,5.1-.5.5-1.2-.3-1.4-.9-.8-2-1.3-4.2,0-6.2.9-1.3,2.3-2.4,3.7-3.3,5.8-4,11.6-8,17.4-12,1-.7,1.8-.4,3,.1Z"/>
        <path class="cls-1" d="M812.7,842.3c7.1-1.9,12.5-3.5,17.8-5.8,3.1-1.4,5.5,1.3,8.2,2.4,1.1.4.2,1.3-.2,2-1.2,1.8-2.4,3.5-3.3,5.4-.8,1.7-1.9,1.8-3.6,1.5-6-1.1-11.8-2.7-18.8-5.5Z"/>
        <path class="cls-1" d="M827.8,817.7c-6.1-1.6-11.6-3-17.1-4.4-1.6-.4-1.4-1.6-1.3-2.8.1-1.6.3-3.3.6-4.9.3-1.4-.8-3.6,1.7-4,2-.3,3.9-.3,5.5,1.3,4.1,4.2,7.9,8.6,10.7,14.7Z"/>
        <path class="cls-3" d="M772.3,129.3c-3.9-2.1-8-.6-12-1.1,2.7-.7,5.3-1.5,8-2.2,1.1-.3,2.6-.3,2.6-1.8,0-1.6-1.4-2.2-2.7-2.5-2.6-.6-5.2-.3-7.8.4-10.9,3-21.9,6-32.8,9-.8.2-1.6.2-2.5.3.6-1.8,1.6-2.7,3.3-3,11.5-2.2,22.3-7,34.1-7.8.2,0,.3,0,.5,0,2.7-.2,6.1-3.6,7.6-1.7,2.1,2.6,2,6.8,1.7,10.4Z"/>
        <path class="cls-6" d="M440.6,642.6c4.7-2.3,8.3-4.1,12-5.9.6-.3,1.6-.7,1.7-.5,3.5,5.1,7.9,2,12.2,1.4,0,.6,0,1,0,1.4-1.4,5.4-4.2,7.5-10.1,5.8-4.7-1.3-9.7-1.4-15.8-2.2Z"/>
        <path class="cls-1" d="M872.7,836.6c.9,4.8-.7,5.4-4.2,3.8-4.6-2.2-9.7-3.2-14.6-4.5-.8-.2-3.5,0-2-2,1-1.4.3-5.4,3.7-4,5,2.1,10.1,2.7,15.4,3.2,3.1.3,1.4,2.7,1.7,3.5Z"/>
        <path class="cls-1" d="M695.1,813.6c-.3,4,2.6,6.8.1,9.1-3.2,2.9-6.3.6-9.4-1.1-3.5-1.9-7-3.6-10.5-5.3-1.2-.6-2.4-1-1.5-2.9.9-1.8,2-1.1,3.2-.7,4.1,1.3,8.1,2.5,12.2,3.8,2.2.7,4.2,1,5.9-2.9Z"/>
        <path class="cls-6" d="M396.9,1028c5.7.7,7.9,2.6,7.2,6.4-.7,3.5-2.5,5.7-6.6,5.7-2.8,0-2.5-3.3-4.8-3.5-1.1-2.9,1.1-5.1,1.7-7.7h0c1,0,2,0,2.7-.8Z"/>
        <path class="cls-6" d="M347.9,1023.8c-3.4,1.2-5.5-2.2-8.6-2.6-1.3-.1-.7-2.6,0-3.9,1.9-3.8,5.9-5.3,10.4-4.1.3.3.6.5,1,.8h0c.3,3.5.2,7-2.7,9.8Z"/>
        <path class="cls-1" d="M629.7,802.5c1-1.5,2-2.9,2.9-4.4,1.3-2,2.8-2.3,4.9-.9,3.5,2.2,7.1,4.1,10.7,6.2.9.5,2.7.7,1.5,2.3-.9,1.2-.6,3.7-2.8,3.5-1.4-.1-2.5-1.1-2.4-3.1.2-2.7-1-3.8-4-3.1-3.3.8-6.8-1-10.8-.5Z"/>
        <path class="cls-3" d="M781.2,62.6c5.7,0,9.4,2.5,9.1,6.2-.2,1.8-.3,4.1-3.2,4-3.8-.2-9.7-5.3-9.5-8.6.1-2.7,2.6-.9,3.6-1.7Z"/>
        <path class="cls-1" d="M859.6,826c6.4-3.7,11.5-6.7,17.5-10.3-1.3,4.5-2.4,7.9-3.3,11.3-.5,1.7-1.7,1.2-2.8,1-3.4-.6-6.7-1.2-11.4-2Z"/>
        <path class="cls-6" d="M763.6,307.2c2.5-4.4,4.9-8.8,7.5-13.4,3.5,4,3.2,8.9,2.4,13.5-.6,3.3-3.5,3.1-5.7,1.3-1.4-1.2-2.5-1.9-4.3-1.5,0,0,0,0,0,0Z"/>
        <path class="cls-6" d="M458.9,633.9c4.8-5.1,11.7-7.8,16.2-13.7-1.6,9-5.8,12.5-16.2,13.6h0Z"/>
        <path class="cls-1" d="M670.2,799.5c3.2-4.2,6.2-8.5,9.5-12.6,1.7-2.1,4.4-2.5,8.5-2.1-6.9,5-11.1,11.4-18.1,14.6h0Z"/>
        <path class="cls-3" d="M388.3,568.3c.7-5.3,1.4-10.6,2-15.9,0,0,0,0,0,0,.9,0,1-.6,1.1-1.2.9-1,1.9-2,2.8-3h-.1c-1,7-.2,14.4-5.7,20.1Z"/>
        <path class="cls-3" d="M821.4,702.3c3.4,8.4,1.8,17.1,1.1,25.7,0-8.6-1.6-17.1-1.1-25.7Z"/>
        <path class="cls-3" d="M733.8,645.8c3.6-6.5,6-13.9,13-18-3.7,6.5-7.4,12.9-13,18Z"/>
        <path class="cls-3" d="M387.3,1017c5.9-4.8,13.2-6.1,20.3-7.8-6.1,4.3-12.6,7.6-20.3,7.8Z"/>
        <path class="cls-3" d="M330.2,400.9c4.7,7.5,5.4,16.4,8.5,24.4-4.3-7.6-6.5-16-8.5-24.4Z"/>
        <path class="cls-3" d="M385.6,596.8c-.2-6,.2-11.9.8-17.8.6-.7,1.1-1.3,1.7-2h0c.5,6.7-1.1,13.3-2.4,19.8Z"/>
        <path class="cls-3" d="M402.7,512.8c-.2-1.7-.5-3.4-.7-5.1,2.2-1,4.3-1.9,7.9-3.5-2.9,3.8-1.7,8.8-7.2,8.7Z"/>
        <path class="cls-6" d="M477.6,630.7c1.6,5.4.7,7.3-5.9,12.3,1.4-4.4,3.5-8.4,5.9-12.3Z"/>
        <path class="cls-3" d="M694.3,719.8c.2-5.5,1.7-10.4,5.6-14.4-.9,5.2-3.7,9.6-5.6,14.4Z"/>
        <path class="cls-3" d="M394.4,542.2c.7-3.2,1.4-6.4,2-9.7.9-.7,1.8-1.5,2.7-2.2h-.1c-.1,4.6-1,8.8-4.7,11.9Z"/>
        <path class="cls-4" d="M666.2,832.8c4-4.9,10-4.9,15.5-6-5.1,2.3-10,5-15.5,6Z"/>
        <path class="cls-3" d="M394.3,1028.9c-.6,2.6-2.8,4.8-1.7,7.7-1.1-.2-2.4,2.4-3,.5-.8-2.4-.5-5.2,1.6-7.1.7-.7,2.1-.7,3.2-1.1Z"/>
        <path class="cls-3" d="M358,1005.4c5.5-.7,6.1,4.1,8.2,7.3-3.3-1.8-6.1-4.1-8.2-7.3Z"/>
        <path class="cls-3" d="M827.3,784.6c1.8,2.6,3.6,5.2,5.4,7.8-6.8.8-4.5-4.6-5.4-7.8Z"/>
        <path class="cls-3" d="M347.9,1023.8c2.9-2.8,3-6.3,2.7-9.9,3.4,5.3,2.6,8.2-2.7,9.9Z"/>
        <path class="cls-3" d="M732.3,152.4c4.2-2.2,8.6-4.1,13.5-3.9-4.2,2.4-8.9,3.1-13.5,3.9Z"/>
        <path class="cls-3" d="M709.2,154.4c1.6,1,3.2,2,4.8,3-2.1,1.5-4.4,2.1-6.9,2h0c-.6-2.1,1.2-3.4,2.1-5Z"/>
        <path class="cls-3" d="M384.1,505.7c-1.7,2.5-3.3,5-5.6,7,.9-2.3,1.8-4.5,2.7-6.8.8-2,1.9-1.3,2.9-.2Z"/>
        <path class="cls-1" d="M579.5,354.7c4.1-2.7,8.5-3.7,13.3-2.1-4.4.7-8.8,1.4-13.3,2.1Z"/>
        <path class="cls-3" d="M415.7,686.1c3-1,6.1-2,9.1-3,.2.4,2.4.4.4,1.2-3,1.2-6.3,1.5-9.5,1.8Z"/>
        <path class="cls-3" d="M398.4,525.8c0-2.2,2.5-3.6,2-6,0,0-.1,0-.1,0,.6.4.8,0,1-.5,1.1-.6,2.6-1,1.8.9-.9,2.2-1.8,4.8-4.7,5.6Z"/>
        <path class="cls-1" d="M477.7,844.1c.2-3.7,1-7.2,3.9-9.8-.6,3.5-2.2,6.7-3.9,9.8Z"/>
        <path class="cls-1" d="M481.7,834.3c-.1-2.8.5-5.2,3-6.9-.4,2.6-1.3,4.9-3,6.9Z"/>
        <path class="cls-1" d="M746.7,627.9c.5-2.3,2-3.8,4-5-.9,2-1.6,4.1-4,5Z"/>
        <path class="cls-3" d="M796.3,326.1c.3-2.5,2-3.9,4-5.1-.8,2.1-2,3.9-4,5.1Z"/>
        <path class="cls-1" d="M485.6,825.4c0-1.9,0-3.8,2-4.9,0,1.9-.8,3.5-2,4.9Z"/>
        <path class="cls-3" d="M731.9,649.7c0-1.7.7-2.9,1.9-4,.8,2-1.1,2.8-1.9,4Z"/>
        <path class="cls-1" d="M750.7,622.9c0-1.5,1-2.2,2-3-.2,1.3-.8,2.4-2,3Z"/>
        <path class="cls-3" d="M727.2,154.2c.8-.3,1.7-.6,2.5-.9-.8.3-1.7.6-2.5.9Z"/>
        <path class="cls-3" d="M800.3,321.1c0-1,0-2,1-2.6.1,1.1,0,2-1,2.6Z"/>
        <path class="cls-3" d="M396.9,1028c-.7.8-1.7.8-2.7.9.7-1,1.6-1,2.7-.9Z"/>
        <path class="cls-3" d="M340.2,429.1c.2.2.5.5.7.7-.2-.2-.5-.5-.7-.7Z"/>
        <path class="cls-1" d="M487.6,820.4c0-.8.1-1.6,1-2,0,.8,0,1.6-1,2Z"/>
        <path class="cls-1" d="M488.6,818.4c.3-.6.6-1.2.9-1.9-.3.6-.6,1.2-.9,1.9Z"/>
        <path class="cls-1" d="M489.7,816.3c.2-.5.5-1,.7-1.5-.2.5-.5,1-.7,1.5Z"/>
        <path class="cls-1" d="M476.9,846c.2-.6.5-1.1.7-1.7-.2.6-.5,1.1-.7,1.7Z"/>
        <path class="cls-1" d="M670.1,799.5c0,.3,0,.5,0,.8-.2,0-.3-.1-.5-.2.2-.2.4-.4.6-.6,0,0,0,0,0,0Z"/>
        <path class="cls-3" d="M789.9,331.7c.4-.3.8-.5,1.1-.8-.4.3-.8.5-1.1.8Z"/>
        <path class="cls-3" d="M729.8,153.3c.7-.9,1.7-.8,2.6-.9-.6,1-1.6.8-2.6.9Z"/>
        <path class="cls-1" d="M484.6,827.4c0-.8,0-1.6,1-2,0,.8,0,1.6-1,2Z"/>
        <path class="cls-6" d="M458.8,633.8c-.3.2-.5.3-.8.5.3-.1.6-.3.9-.4,0,0,0,0,0,0Z"/>
        <path class="cls-1" d="M752.7,619.9c.3-.4.5-.8.8-1.1,0,.6,0,1.1-.8,1.1Z"/>
        <path class="cls-3" d="M338.6,425.3c1.2.4,1,1.4,1,2.3-.8-.6-1-1.4-1-2.3Z"/>
        <path class="cls-6" d="M391.3,551.2c0,.6-.2,1.2-1.1,1.2.4-.4.7-.8,1.1-1.2Z"/>
        <path class="cls-3" d="M394.2,548.2h.1c0,0-.3,0-.3,0,0,0,.1,0,.1,0Z"/>
        <path class="cls-3" d="M399.2,530.3h.1c0,0-.3,0-.3,0,0,0,.1,0,.1,0Z"/>
        <path class="cls-6" d="M401.2,519.2c-.2.5-.3.9-1,.5.3-.2.7-.4,1-.5Z"/>
        <path class="cls-3" d="M388.1,577c.1,0,.3,0,.4,0,0,0,.1,0,.2,0-.2,0-.4,0-.7,0,0,0,0,0,0,0Z"/>
        <path class="cls-3" d="M707.1,159.4h-.3c0,0,.3,0,.3,0s0,0,0,0Z"/>
        <path class="cls-3" d="M696.8,179c0,.2,0,.4,0,.6,0,0-.1-.1-.1-.2,0-.1.1-.3.2-.4,0,0-.1,0-.1,0Z"/>
        <path class="cls-1" d="M734.3,121.3c-.1-.1-.2-.2-.4-.3.1-.1.2-.3.4-.3.1,0,.2.2.4.3-.1.1-.2.2-.4.3Z"/>
        <path class="cls-3" d="M791.3,330.8c.4-.3.7-.6,1.1-.9-.4.3-.7.6-1.1.9Z"/>
        <path class="cls-3" d="M350.6,1014c-.3-.3-.6-.5-1-.8.3.3.6.5,1,.8Z"/>
        <path class="cls-3" d="M792.3,330c0-.6.4-1.1,1.1-1l-1.1,1Z"/>
        <path class="cls-3" d="M793.3,329.1c0-.8.2-1.2,1.1-1,0,.7-.4,1-1.1,1Z"/>
        <path class="cls-3" d="M876,803.9c.7.1,1.3.3,1.3,1.1-.3.3-.6.6-1,.9-.4-.4-.8-.7-1.2-1,.3-.3.6-.7.9-1Z"/>
        <path class="cls-3" d="M794.3,328.1c-.2-.9.2-1.2,1.1-1.1,0,.6-.4,1-1.1,1.1Z"/>
        <path class="cls-3" d="M795.3,327.1c-.2-.9.2-1.2,1.1-1.1,0,.7-.4,1-1.1,1.1Z"/>
        <path class="cls-3" d="M877.3,805c.2.3.6.8.5.9-.4.6-1,.4-1.5,0,.3-.3.6-.6,1-.9Z"/>
        <polygon class="cls-3" points="682.9 225.5 683 225.7 682.9 225.6 682.9 225.5"/>
        <path class="cls-2" d="M482.7,409.5c-4.1-3-3.4-6.5-1.2-10.4,1.8-3.2,7.3-6.5,10.6-5.5,3.4,1,5.3,5,4.3,9.9-.4,1.9-1.3,3.7-2,5.5-.3.5-.6.9-1,1.4h0c-3.9,3.2-7.2-.1-10.8-1ZM487.8,404.9c2.2-1.7,2.7-4.4,3.5-6.8.2-.7-.7-1.7-1.6-1.3-2.6,1-4.4,3-4.8,5.7-.1,1.1,1.4,2,2.8,2.4Z"/>
        <path class="cls-2" d="M511.3,368.9c6.5-2.7,8.3-1.4,8.2,5.5,0,3.3-.2,6.5-2.6,9.2-3.6,4.2-6.7,3.9-9.4-1-.4-.7-.8-1.4-1.2-2.1-.5-4.8,2.4-8.1,4.9-11.6Z"/>
        <path class="cls-2" d="M452.7,423.4c3.4-1.5,6.6-2.2,9,1.6,2.5,4,2.2,11.3-.8,14.3-3.4,3.4-6.8,2-10.2-.3-3.4-5.7-1.5-10.8,1.9-15.7ZM452.8,430.8c.3,1.2-.5,3.7,1.6,3.3,3.1-.6,2.6-4,3.3-6.4.3-1.1.2-2.6-1.5-2.2-2.8.5-3.4,2.7-3.3,5.3Z"/>
        <path class="cls-2" d="M583,333.8c-.7,4.3-2.7,6.9-7.4,7.2-6.3.4-9.8-4.1-7.5-10,.5-1.3,1.3-2.6,2-3.9,3.5-3.4,7.4-4.1,11.8-2.1,0,0,0,0,0,0,.9,2.8,1.2,5.8,1.2,8.7ZM573.7,335.4c2.4,0,4.8-3.2,5-5.8.1-2-.8-2.8-2.6-2.5-2.8.4-4.6,2.1-5,4.7-.3,1.7,1.1,3.3,2.7,3.7Z"/>
        <path class="cls-2" d="M545.9,335.9c3.2,3.3,2.9,7.1.6,10.3-2.6,3.6-7.1,4.3-11.1,3.4-3.5-.8-2.5-4.1-1.4-6.5.8-1.7,2.4-3,3.7-4.5,2.4-1.9,5.1-2.9,8.3-2.7Z"/>
        <path class="cls-6" d="M452.7,423.4c-3.4,4.9-5.3,10-1.9,15.7-4.2-.3-5.5-3.3-4.7-6.5.9-3.7,2.3-7.6,6.6-9.2Z"/>
        <path class="cls-6" d="M581.9,325.1c-4.4-2-8.4-1.3-11.8,2.1.1-3.8,2.3-5.7,5.8-6,2.8-.2,5.7.1,6,4Z"/>
        <path class="cls-6" d="M511.3,368.9c-2.6,3.5-5.5,6.8-4.9,11.6-4-5.5-1.8-10.6,4.9-11.6Z"/>
        <path class="cls-6" d="M482.7,409.5c3.6.8,6.9,4.2,10.8.9-2.6,5.6-5.7,5.3-10.8-.9Z"/>
        <path class="cls-6" d="M545.9,335.9c-3.1-.2-5.8.8-8.3,2.7-.5-2.5.9-4.1,3-4.9,2.2-.8,4.1,0,5.2,2.2Z"/>
        <path class="cls-6" d="M583,333.8c0-3-.3-5.9-1.2-8.7,4.1,2.4,3.5,5.5,1.2,8.7Z"/>
        <path class="cls-6" d="M493.5,410.4c.3-.5.6-.9,1-1.4,0,.6-.2,1.2-1,1.4Z"/>
        <path class="cls-1" d="M391.2,159.1c-15.4-19.7-37-25.1-60.1-27.6-19.1-2.1-38.3-.6-57.4-1.3-.5,0-1.1-.1-1.5,0-6.9,3.3-11.6-.8-16.6-4.5-7-5-14.3-9.5-22.3-13.5,1.6-2.5,4-3.8,5.9-5.5,9.7-8,18.7-16.8,27.3-26,2.1-2.2,4.1-2.7,7.2-3,30.1-3,56,9.3,81.3,22.9,22.9,12.3,31.9,34,36.2,58.3ZM291,106.5c0-6.9-5-11.7-12.5-11.8-7.8,0-14.4,6.4-14.4,14,0,7.3,7,13.6,15.3,13.8,6.4.1,11.5-6.9,11.6-16Z"/>
        <path class="cls-1" d="M372.9,235.9c10.2-5.3,19-11,26.6-18.8,2.5-2.6,5.9-.1,8.8.2,2.2.3,1.7,2.9,1.6,4.6-.7,10.5-2.1,21-3.9,31.4-1.3,7.7-1.3,7.7-9.1,6.8-2.5-.3-3.6-1.1-5-3.8-4.2-8.3-9.4-16.2-18.9-20.4Z"/>
        <path class="cls-1" d="M327.1,217.2c8.1,4.7,15.5,8.8,22.7,13.3,2.6,1.6,2.3,12.6-.3,14.8-4.2,3.7-8.5,7.3-12,11.8-2.4,3.2-6.5,1.3-9.8,2-1.3.3-1-1.4-.9-2.3,1.3-12.8,1.1-25.6.2-39.6Z"/>
        <path class="cls-1" d="M335.8,212.9c18.8,0,36.6.5,55.5,2.2-6.8,4.4-11.8,9.4-18.1,12.7-2,1.1-3.3,1.4-5.1-.4-1.8-1.8-4.2-3.1-6.7-2.3-4.1,1.3-7,0-10.3-2.6-4.5-3.5-9.6-6.1-15.2-9.7Z"/>
        <path class="cls-1" d="M386.5,258.5h-41.8c3.6-5.4,8.1-8.1,10.8-12.4.8-1.3,2.5-.4,3.7-.3,3.8,0,7.7.6,10.4-3,1.1-1.4,2-.5,2.8.4,4.7,5.2,9.5,10.4,14,15.3Z"/>
        <path class="cls-2" d="M349.3,324c7.6,3.8,8.8,14.1,2.4,20q-2,1.8-.9,4.5c-7.4-.2-13.3-4.8-14.4-11.2.6-8.7,4.5-12.7,12.9-13.3ZM350.6,333c.1-2.4.3-4.8-3.2-4.9-3.3-.1-7.4,3.9-7.2,7.9,0,1.4-1.2,4.2,2.4,4.2,5.1,0,7.8-2.4,8-7.2Z"/>
        <path class="cls-2" d="M362.5,298.1c-1.6,1.9-3.1,3.9-5.8,4.2-.5,0-1.8,0-1.4.7,2,2.7.6,3.3-1.8,3.5-2.3.2-4.1-.5-5.2-2.8-3.3-7,3.2-19.3,10.8-20.2,5.4,3.9,5.1,9.1,3.5,14.7ZM357.3,287.9c-2.9,1-3.8,3-4,5.3,0,1,1.3,1.3,1.8,1,2.2-1.3,2.4-3.5,2.2-6.4Z"/>
        <path class="cls-2" d="M355.7,386.6c0,7.6-3.2,11.7-8.6,10.9-1.6-.2-3.2-.9-3.2-2.5,0-3.5-1.3-7.2.1-10.6,1.4-3.2,3-6.8,7.4-5.8,4,.9,4.1,4.6,4.3,8ZM349.4,382.8c-2.5,2.5-3.3,5.1-2,8.8,2.7-2.8,5-5,2-8.8Z"/>
        <path class="cls-2" d="M359.1,423.4c-2.7-.3-6.4,0-6.5-4.8-.1-3.9,3.7-7,8.4-7.2,3.7-.2,5.1,2.1,5.2,5.1.2,3.8-2.9,6.8-7.1,6.9Z"/>
        <path class="cls-2" d="M368.3,381.6c-.4,2.6-1.8,4.3-4.5,4.3-2.5,0-4.1-1.6-4.1-4,0-2.7,1.6-4.2,4.4-4.2,2.5,0,3.8,1.6,4.2,4Z"/>
        <path class="cls-6" d="M349.3,324c-8.4.7-12.3,4.7-12.9,13.3-1.8-4.8-.9-9.3,2.8-12.6,2.9-2.7,6.5-3.9,10.2-.7Z"/>
        <path class="cls-6" d="M362.5,298.1c1.6-5.5,1.9-10.8-3.5-14.7,3.4-.5,5.6,1.4,6.1,4.2.7,3.7,1.7,7.8-2.6,10.4Z"/>
        <path class="cls-2" d="M368.9,191.1c-2.3,2.2-5.7.5-8.2,2.3-.2.2-1.5-.6-2-1.2-1.8-2.2,0-9.5,2.7-11.7,3-2.4,6-1.8,9.1,2.1-.1,2.9.4,6-1.7,8.5Z"/>
        <path class="cls-2" d="M344.8,167.2c-4-4.5-3.9-6,.3-10.8,1.6,0,3.3-.2,4.9,0,3.5.3,5.6,2.6,6.5,5.8.6,2.3,1,5-1.4,6.8-2.8,2.1-5.6,1.1-8.2-.5-.7-.4-1.4-.8-2.1-1.2ZM348.3,162.9c1.2-.2,3.1.6,2.9-1.5,0-1.4-1.3-2.1-2.8-2.1-1.4,0-2.9,0-3.1,1.6-.3,2.4,2.1,1.3,3,2Z"/>
        <path class="cls-6" d="M344.8,167.2c.7.4,1.4.8,2.1,1.2,2.6,1.6,5.4,2.6,8.2.5,2.4-1.8,2-4.4,1.4-6.8-.8-3.2-3-5.4-6.5-5.8-1.6-.2-3.3,0-4.9,0,2.1-2.5,4.7-3.6,7.9-2.2,3.5,1.5,5.4,4.3,5.5,8.1.1,4.5,1.2,9.4-3.5,12.6-2.2,1.5-4.6,1.7-7,.3-3.1-1.8-3.9-4.7-3.3-8.1Z"/>
        <path class="cls-6" d="M368.9,191.1c2-2.5,1.6-5.6,1.7-8.5,3.1,3.9,2.6,6.2-1.7,8.5Z"/>
        <path class="cls-2" d="M694.6,838.6h-.8c0-.4.2-.8.2-1.2.2.4.4.8.6,1.2Z"/>
        <path class="cls-2" d="M780.5,509.2c0,6.3-5.1,13.5-9.4,13.4-3.5-.1-10.5-7.2-10.4-10.5.1-6.2,5.7-12.3,11.3-12.3,4.8,0,8.5,4,8.5,9.5ZM775.6,507.4c0-2.6-1.4-4.3-3.8-4.1-3.8.3-6,3.2-6,6.6,0,2.3,2,4.7,4.6,5.4,2.2.6,5.4-4.5,5.2-7.9Z"/>
        <path class="cls-2" d="M714.6,632.3c-4.3-.5-8.9-.7-10.1-5.2-1.1-4.3,1.9-7.4,5.4-9.7,4.5-3,11.1-2.7,15.3.5,3.6,2.8,1.7,10.8-3.2,12.7-2.4.9-5.1,1.2-7.3,1.7ZM712.5,628.6c.8-2.4.4-6.1,4.5-5.4,1.9.3,4.1,1,4.3-1.4.1-2-2.7-2.3-4.2-2.4-3.6-.3-6.6,1.3-7.9,4.7-1,2.5.8,3.9,3.4,4.6Z"/>
        <path class="cls-2" d="M678.9,721.7c0,6.5-5.2,13.3-10.2,13.3-4.2,0-7.4-3.5-7.3-8.2.1-7.5,4.4-12.9,10.2-12.8,4.2,0,7.3,3.3,7.3,7.7ZM670.2,727.5c2.2-1.4,2.6-3.6,3.6-5.5.7-1.4,1-2.9-.7-3.8-1.6-.8-3.2-.4-4.4,1-1,1.2-2.5,3.1-.8,4.1,1.9,1,.8,3,2.3,4.2Z"/>
        <path class="cls-2" d="M780.4,455.4c0,6.5-3.8,11.7-8.4,11.7-5.3,0-8.6-5-8.5-12.8.1-6.7,2.1-9.2,7-9.1,5.7.2,9.9,4.5,9.8,10.2ZM768.6,454.4c-.6,2.9.3,5.5,3.2,5.6,3.5,0,3.2-3.5,3.6-5.9.5-3-1.9-4.4-4.1-4.6-3.8-.3-2.1,3.2-2.8,5Z"/>
        <path class="cls-2" d="M761.8,564.4c0,4.4-5.2,11.3-8.3,10.7-3.2-.7-8.2.2-8.6-4.5-.8-9.1,2.7-15.1,8-15.1,5.4,0,8.9,3.5,8.9,9ZM749.7,563.2c0,2.1,0,4,2.7,4,3,0,4.7-1.8,5.1-4.4.4-2.6-1.9-3.5-4.2-3.6-3.1-.2-3.3,2-3.5,4Z"/>
        <path class="cls-2" d="M701.1,663.4c0,2.1-.2,4.2-1,6.3-1.2,3.1-3,5-6.6,4.8-3.6-.2-5.7-2.3-6.9-5.4-1.6-4.4,2.4-12.1,6.8-13.2,4.3-1.1,7.6,2.2,7.7,7.6ZM690.1,667.2c1.7.6,2.2-3,3.5-1.1,1.6,2.3,1.8.5,2.4-.4.9-1.8,1.7-3.7.7-5.6-.5-1-1.7-1.6-2.9-1.2-2.1.7-2.9,2.6-3.4,4.5-.4,1.2-.2,2.6-.2,3.8Z"/>
        <path class="cls-2" d="M744.7,389.4c-1,1.3-1.9,2.7-3,3.8-1.5,1.4-4.2,1.7-4.7,0-1-2.9-3.8-4.8-4.2-8-.7-5.4,1.2-6.9,7.9-6.3,3.9,2.5,4.7,6.2,4.1,10.5Z"/>
        <path class="cls-2" d="M766.8,408.4c-.2,5.8-1.8,8.6-6.1,8.9-2.8.2-5.8-.9-5-4.4.8-3.2.2-8.3,4.9-8.8,3.4-.4,6.4,1.7,6.1,4.3Z"/>
        <path class="cls-6" d="M744.7,389.4c.6-4.3-.1-8-4.1-10.5,6.2,1.2,7.6,5,4.1,10.5Z"/>
        <path class="cls-2" d="M683.1,860.1c-.2,3.4-.7,6.5-3.7,8.4-2.7,1.7-5.7,2.2-8.4.4-2.7-1.8-5-4.1-2.5-7.7.5-.8.7-1.8,1-2.7,1.4-5.3,3.4-6.6,8.3-6.1,5.2.5,4.6,4.7,5.4,7.8ZM674.6,862c2.1-.2,2.4-1.8,2.8-3.5.2-1,.5-2-1-2.2-2.2-.3-2.9,1.1-3,2.9,0,1.1-.4,2.4,1.3,2.7Z"/>
        <path class="cls-2" d="M718.2,915.1c0,5.6-3.1,9.4-7.4,9.3-3.4,0-8.8-5.6-8.8-9.2,0-3.9,3.7-7.6,7.6-7.5,5.6.1,8.6,2.7,8.6,7.3ZM709.9,918.4c2.1-.4,3-1.7,3.3-3.7.3-2.3-1.5-2.6-3-2.9-1.6-.3-3.1.1-3.1,2.1,0,2.1.8,3.8,2.9,4.6Z"/>
        <path class="cls-2" d="M796.8,906.9c4-.5,7.1.5,7.3,5.1.2,3.5-2.9,6-6.5,5.8-3.7-.2-5.3-3.7-7.8-5.5-1.7-1.2.3-4.6,3.2-5.3,1.2-.3,2.6,0,3.9,0Z"/>
        <path class="cls-2" d="M698.1,889.7c0,2,0,3.6-.9,5.1-1,1.6-2.3,2.1-4.1,2.1-2,0-3-1.2-3.6-2.8-.3-.9-.1-2.1-.6-2.8-1.5-2.2-3.8-4.5-1.3-6.9,2.2-2.2,5.4-.6,8,0,2.8.6,2.7,3.3,2.5,5.4Z"/>
        <path class="cls-2" d="M822.4,885.3c-.2,4.5-2.9,7.8-6.2,7.4-3.5-.4-4.9-3.1-4.9-6.2,0-3.4,4-6.5,7.5-6.3,3.4.2,3.8,2.5,3.6,5.2Z"/>
        <path class="cls-2" d="M744.4,920.7c1.6.3,3.7.7,5.8,1.1,1.4.3,2.3,1.1,2.5,2.7.2,2.2-.6,4.1-2.7,4.8-3.7,1.2-7.2-.3-10.3-2.1-1.7-1-1.4-3.3-.7-5,.9-2.2,3.1-1.3,5.4-1.5Z"/>
        <path class="cls-2" d="M773.8,919.5c3.8.2,3.7,2.8,3.7,5.6,0,1.7-1,3.8-2.1,3-2.5-1.7-7.5,3.4-8-3,1.1-3,2.5-5.7,6.4-5.6Z"/>
        <path class="cls-6" d="M773.8,919.5c-3.9-.1-5.3,2.6-6.4,5.6-1.5-2.2-1.3-4.4.8-6,1.8-1.4,3.9-1.6,5.6.4Z"/>
        <path class="cls-2" d="M850,788.7c-.7-.6-1.4-1.2-2.1-1.7,2.2-2.7-1.4-5.2-.2-7.8.3-3,.3-6.1,4.5-6.4,4.2-.3,8,2.5,9.9,7.3-.4,9.4-2.3,10.8-11.1,8.7-.3,0-.7,0-1,0ZM858,781.4c.1-2.9-1.6-4.5-4.3-4.7-3.1-.3-1.9,2.5-2.1,3.9-.5,2.6,1,4.6,3.5,5,2.8.4,2.8-2.1,3-4.2Z"/>
        <path class="cls-2" d="M854.7,709.1c3.9,3.3,3.9,6.2,0,11.3-2.4,3.1-7.8,4.2-10.6,2.1-2-1.5-2.6-3.4-1-5.6,1.3-1.9,2.7-3.7,4.1-5.5,4.2,1-.7,4.1,1.6,5.7,1.7-.2,2.7-1.8,3.8-3.2.5-.5,1.7-.8,1-1.6-.5-.6-1.3,0-1.5.9-1.1,0-2.5.5-1.8-1.6.8-2.3,2.6-2.6,4.6-2.5Z"/>
        <path class="cls-2" d="M855.9,744.3c-.5,1.5-1.1,3.5-1.9,5.5-.8,2-2.4,2.6-4.4,2.3-2-.3-2.7-1.7-2.7-3.5,0-1.5,0-2.9-.8-4.3-1.1-2-1.2-4.2.7-5.8,1.7-1.4,3.8-1,5.6-.2,2.3,1,3.4,2.9,3.4,6.1Z"/>
        <path class="cls-2" d="M851.9,686c1.5,2.6,2.5,5.2-1.1,6.8-3.5,1.5-6.3.6-8.1-3-.7-1.4-.6-2.8-.5-4.3,1.9-1.8,4.1-2.3,5.8-.1,1.3,1.8,2.6.6,3.9.6Z"/>
        <path class="cls-6" d="M851.9,686c-1.3,0-2.6,1.2-3.9-.6-1.7-2.2-3.9-1.7-5.8.1-.5-3,.8-4.9,3.7-5,3.5-.1,5.6,1.9,6,5.5Z"/>
        <path class="cls-6" d="M850,788.7c.3,0,.7,0,1,0,8.8,2.1,10.7.7,11.1-8.7,1.5,4.3,1.4,8.3-3,10.8-3.4,1.9-6.7,1.4-9.1-2.1Z"/>
        <path class="cls-6" d="M854.7,709.1c-2.1-.1-3.9.2-4.6,2.5-.7,2,.7,1.6,1.8,1.6.2.3.4.5.6.7-1,1.4-2,3-3.8,3.2-2.2-1.7,2.6-4.7-1.6-5.7,1.5-4.3,4.1-4.8,7.6-2.2Z"/>
        <path class="cls-2" d="M845,671.7c1.5.5,1.9,1.7,2,3,.1,1.7-.3,3-2.3,2.9-1.3,0-2.4-.8-2.3-2.1.1-1.6.9-3.1,2.7-3.8Z"/>
        <path class="cls-6" d="M847.7,779.2c-1.1,2.6,2.4,5.1.2,7.8-3-2.5-2.6-5.1-.2-7.8Z"/>
        <path class="cls-2" d="M512.5,691.6c-5.4-.2-11-3.6-14.2-10.6-3.3-7.2-2.2-14.2,3.2-19.6,2.9-2.9,3.2-5.2,1.8-8.5-1.9-4.5-2.5-9.2-1.1-14,.8-2.7,2.3-5,5.2-4.1,13.3,4,28.1,2.3,40.1,11,5.6,4.1,6,7.3.6,11.7-3.8,3.1-7.9,6-11.9,8.8-2.4,1.6-3.2,3.4-3,6.5.6,10.7-7.7,19-20.6,18.9ZM509.7,655.6c7.4-.9,14.2,0,19.3,6.2.7.8,1.5,1.7,2.3.4,3-4.8,8.9-6.1,12.8-10-2.8-2.2-5.4-4-8.8-4.6-8.2-1.5-16.4-3.3-24.7-4.9-1-.6-2.7-2-3-.2-.5,4.5,0,9,2.1,13.2ZM515,662.4c-6.3,0-11.4,4.9-11.4,11.1,0,5.9,4.9,10.9,11,11.1,6.4.1,11.5-4.6,11.6-10.8.2-6.2-4.8-11.2-11.2-11.3Z"/>
        <path class="cls-2" d="M445,969.3c-1.6,2-3.1,4.3-5,6-11.3,10.2-23.4,19.4-37,26.5-1.8.9-3.6,1.7-5.4,2.4-15.8,6.2-26.6,1.4-32.7-14.5-5.8-15-7.4-31.1-11.3-46.6-.5-2.1-.3-4.9,2.1-5.4,2.6-.5,4,2,4.6,4.3,3.3,11.3,5.7,22.7,8,34.2.8,3.9,2,7.7,3.1,11.4.6,2.1,1.3,3.7,4.3,3.8,2.8.1,3.8-1.1,4.9-3.1,7.4-13.4,11.9-27.9,16.4-42.4.7-2.2,1.2-4.5,2.9-6.2,1-1,2.2-1.6,3.6-.9,1.2.6,1.6,1.6,1.6,2.9,0,2.5-.7,4.9-1.4,7.3-4.3,14.7-8.6,29.4-14.7,44,9.5.4,18.3,1.1,26.3-4.9,7.1-5.3,14.8-10,21.8-15.6,2.1-1.7,4.2-3.5,7.8-3.2Z"/>
        <path class="cls-2" d="M617.5,200.9c0,1.6-.8,2.4-2.1,2.5-1.1,0-1.7-.7-1.7-1.8,0-1.1.5-2,1.4-2.2,1.4-.3,1.8.9,2.4,1.5Z"/>
        <path class="cls-2" d="M368.7,1031.8c2.6,0,5.1,2,5.5,5.8.5,4.5-3,8.3-7.2,8.3-2.5,0-7.4-4.6-7.3-6.8.2-3,4.6-7.2,9-7.3Z"/>
        <path class="cls-6" d="M487.8,404.9c-1.4-.4-3-1.3-2.8-2.4.3-2.7,2.2-4.7,4.8-5.7.9-.4,1.8.6,1.6,1.3-.8,2.4-1.3,5-3.5,6.8Z"/>
        <path class="cls-6" d="M452.8,430.8c0-2.6.5-4.8,3.3-5.3,1.8-.3,1.8,1.2,1.5,2.2-.6,2.4-.1,5.8-3.3,6.4-2.1.4-1.3-2.1-1.6-3.3Z"/>
        <path class="cls-6" d="M573.7,335.4c-1.6-.4-3-1.9-2.7-3.7.4-2.6,2.2-4.4,5-4.7,1.9-.2,2.8.6,2.6,2.5-.2,2.6-2.6,5.9-5,5.8Z"/>
        <path class="cls-2" d="M291,106.5c-.1,9.1-5.2,16.1-11.6,16-8.2-.2-15.3-6.6-15.3-13.8,0-7.6,6.6-14,14.4-14,7.5,0,12.6,4.9,12.5,11.8ZM278.2,100.7c-4,0-8.6,4-8.8,7.7-.1,3.1,4.9,7.3,9,7.5,4.4.2,6.5-2.5,6.6-8.9.1-4.2-2.1-6.2-6.8-6.3Z"/>
        <path class="cls-6" d="M350.6,333c-.2,4.8-2.9,7.1-8,7.2-3.6,0-2.3-2.8-2.4-4.2-.2-4,3.8-8,7.2-7.9,3.4.1,3.3,2.5,3.2,4.9Z"/>
        <path class="cls-6" d="M357.3,287.9c.2,2.8,0,5-2.2,6.4-.5.3-1.9,0-1.8-1,.2-2.3,1.1-4.3,4-5.3Z"/>
        <path class="cls-6" d="M349.4,382.8c3,3.7.7,6-2,8.8-1.3-3.7-.5-6.3,2-8.8Z"/>
        <path class="cls-6" d="M348.3,162.9c-1-.7-3.3.3-3-2,.2-1.6,1.7-1.7,3.1-1.6,1.5,0,2.7.7,2.8,2.1.1,2.1-1.7,1.3-2.9,1.5Z"/>
        <path class="cls-6" d="M775.6,507.4c.1,3.4-3.1,8.4-5.2,7.9-2.6-.7-4.6-3.1-4.6-5.4,0-3.4,2.2-6.3,6-6.6,2.4-.2,3.8,1.5,3.8,4.1Z"/>
        <path class="cls-6" d="M712.5,628.6c-2.5-.7-4.3-2-3.4-4.6,1.3-3.4,4.3-5,7.9-4.7,1.6.1,4.4.3,4.2,2.4-.1,2.4-2.4,1.7-4.3,1.4-4.1-.7-3.7,3.1-4.5,5.4Z"/>
        <path class="cls-6" d="M670.2,727.5c-1.5-1.2-.4-3.1-2.3-4.2-1.8-1-.2-2.9.8-4.1,1.2-1.4,2.7-1.8,4.4-1,1.7.9,1.4,2.4.7,3.8-.9,1.8-1.4,4-3.6,5.5Z"/>
        <path class="cls-6" d="M768.6,454.4c.6-1.8-1-5.3,2.8-5,2.1.2,4.6,1.6,4.1,4.6-.4,2.4,0,6-3.6,5.9-2.9,0-3.9-2.6-3.2-5.6Z"/>
        <path class="cls-6" d="M749.7,563.2c.2-2,.5-4.1,3.5-4,2.4.1,4.6,1,4.2,3.6-.3,2.5-2.1,4.4-5.1,4.4-2.6,0-2.7-1.9-2.7-4Z"/>
        <path class="cls-6" d="M690.1,667.2c0-1.2-.1-2.6.2-3.8.6-1.9,1.3-3.8,3.4-4.5,1.2-.4,2.4.2,2.9,1.2,1,1.9.3,3.8-.7,5.6-.5,1-.8,2.7-2.4.4-1.3-1.9-1.8,1.7-3.5,1.1Z"/>
        <path class="cls-6" d="M674.6,862c-1.7-.3-1.4-1.6-1.3-2.7.1-1.9.8-3.2,3-2.9,1.5.2,1.2,1.2,1,2.2-.3,1.7-.7,3.3-2.8,3.5Z"/>
        <path class="cls-6" d="M709.9,918.4c-2.2-.8-3-2.5-2.9-4.6,0-1.9,1.6-2.4,3.1-2.1,1.6.3,3.3.6,3,2.9-.2,2-1.2,3.3-3.3,3.7Z"/>
        <path class="cls-6" d="M858,781.4c-.2,2.1-.2,4.6-3,4.2-2.5-.3-4-2.4-3.5-5,.3-1.4-.9-4.2,2.1-3.9,2.7.2,4.5,1.8,4.3,4.7Z"/>
        <path class="cls-6" d="M851.9,713.2c.2-.8,1-1.5,1.5-.9.7.8-.5,1.1-1,1.6-.2-.2-.4-.4-.6-.7Z"/>
        <path class="cls-6" d="M510.6,642.6c8.2,1.7,16.4,3.4,24.7,4.9,3.4.6,6,2.4,8.8,4.6-3.9,4-9.7,5.3-12.8,10-.8,1.3-1.6.4-2.3-.4-5.1-6.2-12-7.1-19.3-6.2.5-4.3-1.6-8.8.9-13Z"/>
        <path class="cls-6" d="M515,662.4c6.3,0,11.3,5.1,11.2,11.3-.2,6.2-5.3,11-11.6,10.8-6.1-.1-11-5.1-11-11.1,0-6.2,5.1-11.1,11.4-11.1ZM518.5,674.1c-.4-1.6-1.1-3.2-3.1-2.9-2,.3-4.8.1-4.7,3.1,0,1.6.5,4.1,2.9,3.8,2.1-.3,4.7-.9,5-4Z"/>
        <path class="cls-1" d="M510.6,642.6c-2.5,4.2-.4,8.7-.9,13-2.1-4.2-2.6-8.7-2.1-13.2.2-1.8,2-.5,3,.2Z"/>
        <path class="cls-1" d="M278.2,100.7c4.8,0,7,2.1,6.8,6.3-.2,6.3-2.2,9.1-6.6,8.9-4.1-.2-9.1-4.4-9-7.5.2-3.7,4.7-7.7,8.8-7.7Z"/>
        <path class="cls-2" d="M518.5,674.1c-.3,3.2-2.8,3.8-5,4-2.3.3-2.8-2.3-2.9-3.8,0-3,2.8-2.8,4.7-3.1,2-.3,2.7,1.3,3.1,2.9Z"/>
      </g>
    </g>
  </g>
</svg>