<?xml version="1.0" encoding="UTF-8"?>
<svg xmlns="http://www.w3.org/2000/svg" version="1.1" viewBox="0 0 1080 1080">
  <defs>
    <style>
      .cls-1 {
        fill: #fbf8e8;
      }

      .cls-2 {
        fill: #83c7e9;
      }

      .cls-3 {
        fill: #f2e177;
      }

      .cls-4 {
        fill: #fff;
      }

      .cls-5 {
        fill: #45455a;
      }

      .cls-6 {
        fill: #7479b2;
      }
    </style>
  </defs>
  <!-- Generator: Adobe Illustrator 28.6.0, SVG Export Plug-In . SVG Version: 1.2.0 Build 709)  -->
  <g>
    <g id="Layer_1">
      <g>
        <path class="cls-4" d="M774.3,840.2c.9,1.2,1.7,2.6,3.5,2,1.7-.5,2.1-1.9,2.3-3.4.2-2,.6-3.9.5-5.9-.1-4-.2-8.3-4.8-10-2.8-1-3.1-2.8-2.8-5.4.6-5,0-9.8-2.7-14.3-2.2-3.8-4.1-7.9-6.2-11.8,3.3,0,6.6,0,8.9-2.9,2.6-.5,4.9-1.3,5-4.5.1-5.5-.3-11-1.9-16.3-.8-2.7-2.5-4.9-5.3-5.5-4.1-.9-5.4-3.2-4.9-7.2.2-2,.2-4-.2-6-1.2-6.3.3-13.2-4.3-18.7-.7-.8-1.2-1.5-.4-3,4.2-7.8,3.4-10.1-3.8-15.8-1.3-1-5.2-.7-3.7-3.7,1-2.1-.3-4.2,1.3-6.1,8.8-9.9-3.1-31.3-16.2-29.7-1.9.2-4.1,0-5.9-.7-10.3-3.7-21.1-4-31.9-4.4-5-.2-9,2.5-13.7,2.9-1.9.2.2,1.9-.2,2.8-.8.3-1.5.6-2.3.9.2-4,.2-8,.5-12,.5-9.1,0-18.4,1.8-27.3,3.6-18.3,14.8-31.2,31.7-39.1,16.6-7.8,33.8-14.3,49.7-23.7,14.6-8.7,26.7-19.7,34.5-34.9,10.9-21.3,11.6-44.4,10.8-67.7,0-2.8.1-6-3.5-7-3.6-1-5.7,1.3-7.8,3.9-9.1,11.3-18.4,22.4-30.7,30.3-1.8,1.2-3.6,2.8-6.2,2.2.3-2.3,1.9-3.6,3.1-5.2,9.5-12.6,15.2-26.6,16.7-42.5,1.1-12.1-.8-23.8-3.3-35.5-.3-1.4-1-2.5-2.5-2.8-1.9-.4-3.2.7-4,2.3-1.5,3-3.1,5.9-5.6,8.2-6.4,5.9-12.7,11.8-19.1,17.5-5.9,5.2-11.5,10.6-15.9,17.2-3.5,5.2-5.2,11-7.2,17.7-5.1-11.1-9.8-21.3-17.8-29.6-1.3-1.4-2-3.2-4.2-2.3-2.2.9-1.9,2.9-1.7,4.7.5,4.1,1,8.2,1.6,12.4,3.8,27.8,1.4,54.7-10,80.6-6.8,15.5-13.1,31.2-12.7,48.7-1-2.9-1.6-5.7-2.2-8.6-3.8-17-10.8-33.1-16-49.6-7.6-23.8-14.4-47.8-15.2-73-1.2-36.7,7.3-71.6,21.5-105.1,9.4-22,23.4-41.3,37.5-60.5,7.9-10.7,15.2-21.9,19.8-34.5,14.6-39.7,13.5-79.4-1.1-118.9-18.6-50.2-60.6-69.9-101.9-70.4-28.1-.3-52.3,12.4-74.6,28.8-2.9,2.1-3.5,5.5-4.6,8.6-1.3,3.5,1.1,2,2.4,2.2.2,0,.4,0,.6-.2,1-.8,2.1-.7,3.3-.7,0,.6,0,1.3,0,1.9-.5.9-1,1.9-1.5,2.8-.6-.5-1.1-.9-1.7-1.4-.3,0-.5.1-.8.2-30.1,9.1-50.5,29.1-63.4,57.4-2-2.4-2.9-5.6-6.3-4.9-3.1.6-3.7,3.5-4.5,6.1-2.8,9.2-5.7,18.3-6.1,28.1-.1,3.5,0,7.2-2.1,11-3-7.8-7.2-14.6-9.1-22.4-.5-2.2-1.5-4.2-3.8-4.9-2.7-.8-3.7,1.6-5.3,3-2.1,1.9-2.7,4.5-3.5,7-6.3,22.5-3.9,44.3,5,66-1.3-.2-2.4-.3-3.5-.4-5.3-.9-6.5,0-7.1,5.4-.4,3.7.6,7.3,1.3,10.8,2.7,13.5,8.5,25.7,14.7,37.9-.2.3-.5.6-.7.9-10.4-4.4-16-.6-15.7,10.8,0,2.3.3,4.7.8,6.9,5,20.1,16.2,35.8,33.7,47-5.2,5.9-6.4,12.6-5,20.2,5.9,31.2,14.9,61.5,24.3,91.7,10.5,33.5,24,66.2,30.8,100.9,2.5,12.5,4.4,25,5.2,37.9-9.1-13.8-22.1-23.3-34.5-33.5-12.8-10.5-24.5-22.3-32.7-36.7-12.2-21.4-19.4-44.3-17.5-69.5.5-6.2-3.9-9-9.8-7.3-4.7,1.3-7.8,4-10,8.3-7.4,14.6-9.4,30-7,46.1,1,6.9,0,7.8-6.9,5.6-1.4-.4-2.8-1.1-3.9-2-12.8-10.4-20.5-23.6-21.9-40.3-1.1-12.8-2.1-25.4,2.4-37.9,1-2.8-1.3-5.7-3.9-4.7-4.4,1.8-5.5-1.4-7.4-3.5-8.1-8.9-16.4-11.6-25.1-8.4-2.2-1.5-3.6-3.5-4-6.3-.4-2.7-1.4-5.4-2.2-8.1-.8-4.8,2.3-8.5,3.5-12.8,1.3-4.7.3-6.6-4.5-7.1-3.3-.4-6.6-.6-9.9-1-4.4-.6-8.3-2.5-11.8-5-2.4-1.7-1.1-4.6-1.2-7-.2-2.7-1.9-3.2-4.2-2.8-1.4.2-2,2.2-3.9,1.7-2.2-8.6-.1-16.8,2.5-24.9,4.4-13.8,11.6-26.4,17.4-39.7,9.4-21.4,11.4-43.4,6.5-66.3-1.4-6.6-6.7-12-5.6-19.3.2-1.3-1.1-1.2-2.2-.8-3.9,1.5-7.9,3.4-9.8,7.3-6.5,13.6-14.7,26.4-19.6,40.8-6.1,18.1-12.5,36.1-18.7,54.2-6.9,20.4-10.4,41.2-6.9,62.8,5.1,31.4,18.2,59.6,34.8,86.4,12.5,20.1,27.8,38.2,43.4,55.9,2.7,3.1,3.2,4.3-1.4,5.7-6.3,1.9-11.5,6-16.1,10.6-16.9,17.1-10.7,42.7,12.1,50.3,7.7,2.6,15.6,2.9,23.6,2,3.3-.4,6.2-1,6-5-.2-3.9-3.5-3.9-6.3-4-4.8-.2-5.2-.7-2.8-5.2,4.2-8,11.9-11.7,19.7-14.3,29.7-9.6,56.5-4.5,79.1,17.9,20.5,20.3,40.2,41.2,59.9,62.2,1.9,2,2.5,4,2.4,6.7-.4,6.1-.8,12.3-1.1,18.4-.8,19.9-4.9,39.2-10,58.4-2.2,6.6-4.2,13.3-6.8,19.8-2.3,5.8-3.7,12-7.5,17.1.1-6.6.6-13.3-.4-19.9-3.4-24.6-12.4-47.4-22.4-69.9-6.3-14.1-14.7-26.8-25.9-37.5-8.1-7.8-17-14.4-28.2-17.2-9.7-2.4-21,.9-16.2,16-.3.2-.7.5-1,.7-9.5-2.9-18.9-6.2-28.8-7.8-11.4-1.8-22.8-2.9-34.2-.3-4.2.9-8.6,2.6-9.7,7.5-1.1,4.8,2.1,7.7,5.4,10.4.5.4.9.8,1.5,1.3-2.2,1.7-4.5,2.1-6.7,1.5-4.8-1.3-9.6-.6-14.4-.7-7.7-.1-11.9,4.9-10.3,12.5.4,1.8-.2,2-1.4,2.2-6.2.9-11.7,3.6-17.4,5.9-24.8,10-40,28.9-48.8,53.4-3.3,9.2-1.1,14.1,6.6,19.9.1,2.6,2.3,4.2,3.1,6.5-6,10.1-9.7,21-9.5,32.9.1,5.6,3.4,7.1,8.4,4.6,6.4-3.3,12.9-6.6,19.3-9.8.8-.3,1.7-.6,2.5-1,0,1.6.6,3.5.1,4.9-3,8.7-3.4,17.2.9,25.5,6.5,12.6,18.7,17.7,30.8,23.1.4.2,1,.1,1.5.1,9.4-.2,18.8-1.1,28.2-.1,1.7.2,4.3.1,4.4-1.4.5-5.1,3.9-3.5,6.6-3.2,33.8,3.9,59.3-19.2,57.9-52.9-1-23.8-18.1-46.8-49.5-35.4-4.8,1.8-9.8,3.4-14.8,4.5-7.7,1.8-11.5-1.2-11.7-9.1-.2-8,2.6-15,6.8-21.5,8.9-13.9,21.6-23.4,36.6-29.7,25.6-10.9,49.3-7.6,70.8,10.4,12.7,10.6,21.5,23.9,28.5,38.6,8.2,17.3,12.7,35.5,14.3,54.5.3,3.6-.2,6.2-4,8.4-10.7,6.3-13.7,24.4-6,34.5,1.4,1.9,1.6,2.9.3,5-7.2,12.3-18.4,20.8-28.7,30.1-2.5,2.3-5.7,3.2-8.9,4.2-14.1,4.2-25.5,12-32.5,25.3-.9,1.8-2.1,3.5-3.9,4.4-12.8,6.7-25.6,13.3-38.4,19.8-6.4,3.3-13.3,5.7-19.5,9.4-8.2,5-14.6,12.4-21.6,19-14.9,14.1-23.4,32.5-33.4,49.9-1.5,2.5-.5,4.3,2.6,4.1,11.3-.6,22.6.2,33.9-1.7,21.7-3.7,42.5-10.4,63.2-17.5,7.9-2.7,15.3-6.5,21-12.9.9-.3,1.8-.6,2.8-.9,2.6,3.6,5.2.9,7.3-.4,10.9-6.7,22.2-12.8,33.5-18.6,23.4-12.1,43.2-28.6,60.2-48.5,1.8-2.1,3.7-3.5,6.3-4.5,20.7-8.1,38.6-19.9,50.8-39.1.5-.8,1.3-1.5,2.1-2.1,18.1-12.7,33.2-28.6,48.3-44.6,8-8.5,14.8-18,20.9-28.1.9,1.7,1.2,3.8,2.3,4.2,5.7,2.3,5.2,7.9,7,12.2.6,1.4,1,2.8,1.7,4.2,3.4,6.9,7.1,7.3,12.3,1.6,2-2.2,4-4,5.8.3.7,1.7,2.4,2.1,4.2,1.9,5.1-.7,10.2-1.5,14-5.5,2.3.8,4.5,2,7.1,2.1,1.4,9.4,3,10.7,12.4,9.1,1.3-.2,1.8.3,2.4,1,2.9,3.2,6.8,2.9,10.6,2.9,2,0,3.2-.8,2.5-3,.7-1,1.6-1.6,2.9-1.9-.3.9-.4,2-.9,2.8-.8,1.2-.7,2.2.5,2.9,1.1.6,2.6.6,3.1-.5,2.6-6,5.3-1.5,7.5,0,4.4,3.2,7.8,2.4,9.1-2.9,1-3.8,3-4.8,6.5-3.6,4.3,1.5,7.9,4.1,11.5,6.7,2,1.4,3.8,2.4,5.1-.7.6-.4,1.2-.7,1.8-1.1.4,0,.8,0,1.2,0Z"/>
        <path class="cls-5" d="M552.3,108c-1.1,0-2.3-.1-3.3.7,0,0-.3-.1-.3-.1l-.2.3c-1.3-.2-3.7,1.4-2.4-2.2,1.1-3.1,1.7-6.5,4.6-8.6,22.2-16.4,46.5-29.1,74.6-28.8,41.3.4,83.3,20.2,101.9,70.4,14.6,39.5,15.8,79.2,1.1,118.9-4.6,12.6-11.9,23.7-19.8,34.5-14.1,19.2-28.1,38.5-37.5,60.5-14.3,33.5-22.8,68.4-21.5,105.1.8,25.1,7.7,49.1,15.2,73,5.3,16.6,12.2,32.6,16,49.6.6,2.9,1.3,5.7,2.2,8.6-.4-17.5,5.9-33.2,12.7-48.7,11.3-25.9,13.8-52.9,10-80.6-.6-4.1-1.1-8.2-1.6-12.4-.2-1.8-.5-3.8,1.7-4.7,2.3-.9,3,1,4.2,2.3,7.9,8.3,12.7,18.5,17.8,29.6,2-6.7,3.7-12.6,7.2-17.7,4.4-6.6,10-12,15.9-17.2,6.5-5.8,12.8-11.7,19.1-17.5,2.5-2.3,4.1-5.2,5.6-8.2.8-1.6,2.1-2.7,4-2.3,1.4.3,2.2,1.4,2.5,2.8,2.5,11.7,4.4,23.4,3.3,35.5-1.4,15.9-7.2,29.9-16.7,42.5-1.2,1.5-2.8,2.9-3.1,5.2,2.6.6,4.4-1,6.2-2.2,12.4-8,21.6-19.1,30.7-30.3,2.1-2.6,4.2-4.9,7.8-3.9,3.6,1,3.4,4.2,3.5,7,.8,23.3,0,46.3-10.8,67.7-7.8,15.2-19.9,26.2-34.5,34.9-15.9,9.4-33.1,15.9-49.7,23.7-16.9,8-28.1,20.8-31.7,39.1-1.8,8.9-1.3,18.2-1.8,27.3-.2,4-.3,8-.5,12-.1.5-.4.9-.4,1.4-.7,22.2-4.8,43.7-11.6,64.9-1.3,4.2-.8,9.8,1,13.9,1.6,3.6,1.4,6.2.2,9.3-5.6,14.7-15,26.9-25.8,38.1-1.8,1-3,2.4-3.7,4.5,1.8,0,3.1,1,4.5,1.7,4.1,1,6.3,3.8,7.3,7.8.8,3.4,1.9,6.7,3.1,9.9.9,2.6,2,3.3,4.3.6,4.5-5.1,7.3-4.9,12.7-.3,2.5,2.1,5.4,1.5,6.5-1.4,1.5-3.7,4-6.5,6-9.6,1.9-3,4.2-3.1,7.2-1.3,6.1,3.6,6,9.8,6.9,15.6.3,1.9-.3,4.4,2.3,4.9,2.5.5,3.8-1.5,5-3.3.4-.7.7-1.5,1-2.3.6-1.3,1.3-2.4,2.9-2,1.6.4,2,1.7,1.8,3.1-.9,6.3,2.1,8.5,8,7.9.5,0,1.1.6,1.7.9.7,2.3-.5,3-2.5,3-3.8,0-7.7.3-10.6-2.9-.7-.7-1.2-1.2-2.4-1-9.4,1.5-11,.2-12.4-9.1-.5-1.9-1-3.8-1.4-5.7-.4-1.8-.8-4.4-2.9-3.6-1.7.6-4.1,2.4-3.2,5.3.2.6.3,1.3.5,1.9-3.8,4-8.8,4.8-14,5.5-1.8.2-3.5-.2-4.2-1.9-1.8-4.2-3.8-2.5-5.8-.3-5.2,5.8-8.9,5.3-12.3-1.6-.7-1.3-1.1-2.8-1.7-4.2-1.8-4.3-1.3-10-7-12.2-1-.4-1.4-2.5-2.3-4.2-6.1,10.1-12.8,19.6-20.9,28.1-15.1,16-30.2,32-48.3,44.6-.8.6-1.6,1.3-2.1,2.1-12.2,19.2-30.1,31-50.8,39.1-2.6,1-4.5,2.4-6.3,4.5-17,19.9-36.8,36.4-60.2,48.5-11.4,5.9-22.6,12-33.5,18.6-2.1,1.3-4.7,4-7.3.4,3.4-5.8,9.7-7.9,15.1-11,19.2-11.2,39.4-20.6,56.8-34.8,8.7-7.1,17.4-14.3,25.2-23.1-12.4,1.4-23.9.9-35.5-1.9-14.2-3.4-28.4-6.5-43.2-5.6-5.2.3-9.2,2.2-12.8,5.5-1,.9-1.8,2-3,2.5-8.4,3.5-15.9,8.7-24.5,11.9-5.4,2-10.5,5-16.7,8,5.7.7,10.4.7,14.8,2.2,25.8,8.5,29.1,30,21.1,47.1-5.7,6.4-13.1,10.2-21,12.9-20.7,7.1-41.6,13.7-63.2,17.5-11.2,1.9-22.6,1.1-33.9,1.7-3.1.2-4-1.6-2.6-4.1,10-17.4,18.5-35.8,33.4-49.9,7-6.6,13.3-14,21.6-19,6.1-3.7,13-6.2,19.5-9.4,12.9-6.5,25.6-13.2,38.4-19.8,1.8-.9,2.9-2.6,3.9-4.4,7-13.3,18.4-21.1,32.5-25.3,3.2-1,6.4-1.9,8.9-4.2,10.4-9.2,21.5-17.8,28.7-30.1,1.2-2.1,1.1-3.1-.3-5-7.7-10.1-4.7-28.2,6-34.5,3.8-2.2,4.3-4.7,4-8.4-1.6-19-6-37.3-14.3-54.5-7-14.7-15.9-28-28.5-38.6-21.5-18-45.1-21.3-70.8-10.4-15,6.4-27.7,15.9-36.6,29.7-4.2,6.5-7,13.6-6.8,21.5.2,7.8,4,10.9,11.7,9.1,5-1.2,9.9-2.8,14.8-4.5,31.4-11.4,48.5,11.6,49.5,35.4,1.4,33.7-24.1,56.8-57.9,52.9-2.7-.3-6.1-1.9-6.6,3.2-.2,1.5-2.7,1.6-4.4,1.4-9.4-.9-18.8-.1-28.2.1-.5,0-1.1,0-1.5-.1-12-5.4-24.2-10.5-30.8-23.1-4.3-8.3-3.9-16.8-.9-25.5.5-1.5,0-3.3-.1-4.9,1.2-4.1,2.1-8.3,3.5-12.4,4.6-12.7,12.2-23.5,21.6-33.1,16.3-16.8,34.8-31.2,51.9-47.7-6.7,2-13,4.4-18.9,7.8-16.5,9.4-31.8,20.5-47.2,31.5-11.6,8.4-23.9,16.1-29.3,31-3.6,9.9-8.4,19.2-7.9,30.9,3.4-2.2,5.8-4.1,8.6-5.5,3.9-1.9,6.7-5.6,11.2-6.2,3.5-.4,5.7.5,4,4.6-6.5,3.3-12.9,6.5-19.3,9.8-4.9,2.6-8.3,1-8.4-4.6-.2-11.9,3.5-22.7,9.4-32.9q2.6-5.1-3.1-6.5c-7.7-5.8-9.9-10.7-6.6-19.9,8.7-24.5,24-43.5,48.8-53.4,5.7-2.3,11.2-5,17.4-5.9,1.2-.2,1.8-.4,1.4-2.2-1.6-7.6,2.7-12.6,10.3-12.5,4.8,0,9.6-.6,14.4.7,2.2.6,4.5.1,6.7-1.5-.6-.5-1-.9-1.5-1.3-3.3-2.7-6.6-5.6-5.4-10.4,1.1-4.9,5.5-6.6,9.7-7.5,11.4-2.5,22.8-1.5,34.2.3,9.9,1.6,19.3,4.9,28.8,7.8.4.2.8.3,1.1.5,0-.4,0-.8-.1-1.2-4.8-15.1,6.4-18.4,16.2-16,11.2,2.8,20,9.5,28.2,17.2,11.2,10.7,19.7,23.4,25.9,37.5,10,22.5,19,45.3,22.4,69.9.9,6.6.5,13.3.4,19.9-1.1,1.6-1.1,3.2-.4,5.5,6.5-12.7,12.5-25.1,15.4-38.8.3-1.2,1.8-2.8-.7-3.6,5-19.2,9.2-38.4,10-58.4.2-6.1.7-12.3,1.1-18.4.2-2.7-.5-4.7-2.4-6.7-19.7-21-39.5-41.9-59.9-62.2-22.6-22.3-49.3-27.5-79.1-17.9-7.9,2.5-15.5,6.3-19.7,14.3-2.4,4.5-2,5,2.8,5.2,2.8.1,6.1.1,6.3,4,.2,4-2.8,4.6-6,5-8,.9-15.9.6-23.6-2-22.8-7.6-29-33.2-12.1-50.3,4.6-4.7,9.8-8.7,16.1-10.6,4.6-1.4,4.1-2.7,1.4-5.7-15.6-17.7-30.9-35.8-43.4-55.9-16.6-26.7-29.7-54.9-34.8-86.4-3.5-21.6,0-42.4,6.9-62.8,6.1-18.1,12.6-36.1,18.7-54.2,4.9-14.4,13.1-27.2,19.6-40.8,1.9-3.9,5.8-5.7,9.8-7.3,1.1-.4,2.4-.5,2.2.8-1.1,7.3,4.1,12.7,5.6,19.3,4.9,22.9,2.9,44.9-6.5,66.3-5.8,13.2-13.1,25.8-17.4,39.7-2.6,8.1-4.7,16.3-2.5,24.9,1.9.5,2.5-1.5,3.9-1.7,2.3-.3,4,0,4.2,2.8.2,2.4-1.2,5.3,1.2,7,3.5,2.5,7.5,4.4,11.8,5,3.3.4,6.6.7,9.9,1,4.7.5,5.8,2.4,4.5,7.1-1.2,4.3-4.3,8-3.5,12.8-.4,4.5-.1,8.9,1.7,13.2.5,1.2,1,3.2-.9,3.9-1.9.7-2-1.3-2.6-2.3-4.2-8.1-6.5-16.3-2-25,1.8-3.5-.7-3.6-3-3.4-8.1.9-14.9-2.4-21.7-6-1.5-.8-2.8-2.1-4.9-1.9,0,7.9,1.3,15.5,2.9,22.9,8.5,39.6,25.8,74.9,51,106.5,2.9,3.7,5.5,7.6,7.4,11.8.9,2,1.4,4.7,3.9,3.8,2.4-.9.7-3.4.2-5.1-4.7-13.7-10-27.1-15.7-40.4-6-13.9-12.5-27.6-14.9-42.7-1.2-7.6-1.3-15,4.8-20.9,8.7-3.3,17-.5,25.1,8.4,2,2.1,3,5.3,7.4,3.5,2.6-1,4.9,1.9,3.9,4.7-4.6,12.4-3.6,25.1-2.4,37.9,1.5,16.7,9.1,29.9,21.9,40.3,1.1.9,2.5,1.6,3.9,2,6.9,2.2,8,1.3,6.9-5.6-2.4-16.1-.4-31.5,7-46.1,2.2-4.3,5.3-7,10-8.3,5.9-1.7,10.3,1.1,9.8,7.3-1.9,25.1,5.3,48,17.5,69.5,8.2,14.4,19.9,26.2,32.7,36.7,12.4,10.2,25.4,19.7,34.5,33.5-.8-12.9-2.8-25.4-5.2-37.9-6.8-34.7-20.3-67.3-30.8-100.9-9.5-30.2-18.5-60.5-24.3-91.7-1.4-7.6-.2-14.3,5-20.2-17.4-11.2-28.6-26.9-33.7-47-.6-2.2-.8-4.6-.8-6.9-.3-11.4,5.3-15.2,15.7-10.8.4,0,.8.1,1.2.2-.2-.4-.3-.7-.5-1.1-6.1-12.2-12-24.4-14.7-37.9-.7-3.6-1.7-7.1-1.3-10.8.6-5.3,1.8-6.2,7.1-5.4,1.1.2,2.2.3,3.5.4-8.9-21.7-11.3-43.5-5-66,.7-2.6,1.4-5.1,3.5-7,1.5-1.4,2.6-3.8,5.3-3,2.3.7,3.2,2.7,3.8,4.9,1.9,7.8,6.1,14.6,9.1,22.4,2.1-3.8,2-7.5,2.1-11,.4-9.8,3.3-18.9,6.1-28.1.8-2.5,1.4-5.4,4.5-6.1,3.4-.7,4.3,2.5,6.3,4.9,13-28.4,33.3-48.4,63.4-57.4,0,0,.4,0,.4,0l.4-.2c.6.5,1.1.9,1.7,1.4,4.1,3.6,6.1,8.1,5.7,13.7-.3,4.4-1.9,8.4-3.8,12.3-3.4,7.1-8.6,13-13,19.4-1.4,2-2.2,3.4.8,4.9,3.6,1.8,3.2,4.7.7,7.4-1.2,1.3-3,2.2-3.1,4.3-3.7,6.7-1.1,14.4-3.4,21.8-4.9-8.8-3.5-21.5,2.9-29.4-5.3-1.8-5.9-3.1-3.4-8.3,1.2-2.4,2.6-4.6,4-6.9,3.6-6,8.4-11.2,11.4-17.5,1.9-4,3.8-8.3,1.8-12.9-1.4-3.1-3.2-6.3-7.5-4-10.6,5.6-21.1,11.3-29.7,19.8-.3,0-.5.2-.5.5h-.3c0,0,0,.3,0,.3-.2.2-.4.4-.7.7h-.3c0,0,0,.3,0,.3-.2.2-.5.5-.7.7l-.2.2c-.9.9-1.8,1.9-2.7,2.8-.3,0-.4.2-.4.5-.4.5-.7,1-1.1,1.5h0c-1.5.9-2.6,2.2-3.1,4h0c-1.6.8-2.5,2.3-3,4h0c-1.3.6-1.8,1.7-2.1,3h.2c-.3.1-.6.3-.8.5-1.8,2.9-3.6,5.8-5.3,8.8-1.7,3.2-3.7,6.3-4.7,9.7-.5,1.6.6,3.7-1.8,4.4-2.6.8-4-1.1-5.2-2.9-.7-1-1.2-2.3-2.2-4.3-2.6,9.2-5.1,17.6-5.8,26.4-.4,4.8-1.8,9.4-2.5,14.2-.3,2.1-2,3.5-3.9,1.4-3.7-4.1-7.6-8.1-9.7-13.4-1.6-4.2-3.5-8.2-5.4-12.6-.7.8-1.2,1.2-1.4,1.6-.3.6-.6,1.2-.8,1.8-6.2,20.6-5.5,41,2.9,60.9,1.4,3.4,4,6.6,1.6,10.2-2.6,3.7-6.4.6-9.8.9,0,1-.2,2-.1,2.9,0,1.3.3,2.6.5,3.9,2.5,15.2,8.9,28.8,16.8,41.8,1.3,2.1,2.7,4.2,3.5,6.6.4,1.3,1.2,3-.9,4.3-1.9,1.2-3.1.8-4.8-.2-3.7-2.2-6.9-5.2-11.1-6.5-3.5-1.3-4.5,1-4.8,3.6-.3,2.5-.4,5.2.5,7.7.3,1.5.4,3,.8,4.4,5.5,17.9,15.8,32,32.6,41,2,1.1,4.9,2,4.9,5.1,0,2.7-2.5,3.4-4.5,4-5,1.5-4.1,5.1-3,8.4,1,3,3.2,5.4,5.4,7.7,5.4,5.5,11.3,10.3,17.6,14.7,5.3,3.6,10.1,8,16.3,10.2,2.3.8,1.8,4.7,1,5.3-5.8,4.6-2.1,8.6.6,12.3,5.4,7.2,13,11.8,20.5,16.5,8.1,5.2,16.7,9.5,23.9,16.1,1.4,1.3,2.8,2.6,1.7,4.7-.9,1.7-2.7,2-4.4,1.5-2.5-.8-3.9,0-5.2,2.3-1.3,2.4-1,4.1.7,6.2,4.6,5.8,11.3,8.1,17.8,10.6,23.8,9.1,46.6,19.8,65,37.9.4.1,1,.5,1.2.3.6-.6,0-1.1-.4-1.4-15.6-20.1-30.6-40.7-47.8-59.5-24.3-26.5-45.7-54.9-63.1-86.4-20.1-36.4-36.3-74.1-41.5-115.6-4-31.5-1.9-62.7,10.1-92.8,9.6-23.9,25.4-42.7,46.5-57.2,2.4-1.6,6.2-4.4,7.9-2.1,2,2.7-2.3,4.7-4.5,6.5-23.5,19.6-40.7,43.2-47.9,73.4-5.2,21.8-6,43.8-4.8,66,1.3,23.6,8.1,46.1,16,68.2,13.8,39.1,34.2,74.9,60.7,106.6,28.8,34.3,57.5,68.6,84.7,104.2,6.8,8.9,13.3,18,19.4,27.6-3.6-11.4-6.1-23.1-12.3-33.5-12.5-21.1-28.1-40.8-31.9-66.3-6,4.6-9.4,4-12.9-2-1.9-3.2-3.1-6.6-3.9-10.2-1.5-6.7-3.1-13.4-4.6-20.1-1.8,2.8-2.5,5.6-3.4,8.3-.6,1.6-1.8,3.3-3.6,2.9-1.6-.4-1.5-2.4-1.3-3.9.7-6-1.4-11.5-2.4-17.4-7.6,4.7-10.7,3-11.5-5.6,0-.5,0-1,0-1.5-1.4-8.5-4.1-16.5-10.2-23.6-1.3,4.8-2.3,8.8-3.6,12.7-.5,1.5-1.3,3.5-3.1,3.5-2,0-.5-2.7-1.7-3.7-.6,1,.3,2.8-1.1,3.1-1.7.3-1.4-1.6-1.7-2.5-3.2-9.1-3.5-18.5-3.2-28,.5-.3.6-.8.1-1.1-.1,0-.5.3-.8.5-.9.7-1.7,1.5-2.7,2.2-1.6,1.1-3.3,2.4-5.5,1.7-2.5-.9-2.9-3.4-2.7-5.4.6-9.6-3.5-17.4-8.6-24.9-3.2-4.7-6-9.6-7.1-15.3-.4-1.9-1-2.7-3.2-2.8-5.1-.3-7.4-2.8-7.8-7.8-.2-2.5,0-4.9.6-7.4,2.4-10.9,7.8-20.8,10.7-31.6,1.2-4.5,2.4-9,.6-13.7-1.6-4.1-3.2-4.5-6-1.3-.8.9-2.5,1.2-2.5,2.8,0-.1.2-.4.1-.4-.9-.7-1.9-1.3-2.6-2.1-1.1-1.2-.4-2.5.2-3.7,1.1-2,2.4-3.9,1.7-6.5-3.9,1.6-6.5,6.2-10.9,4.7,0-11.9,9.4-18.4,15.6-27.4-1.7-.2-2.5-.3-3.3-.4-2.4-.2-5.3.4-6.6-2.4-1.3-3-.3-5.9,1.5-8.5.9-1.2,1.9-2.3,2.8-3.5,4.3-6,10.6-10.1,15-16,3.1-4.1,2.9-4.8-2-5.6-2.5-.4-4.9-1.4-4.8-4.2.1-3.8,3.5-.9,5.1-1.9,2,.3,3.9.7,5.9,1,4.8.6,6.1,2.8,4,7.1-1.5,3-2.8,6-5.1,8.5-4.7,5.1-9.4,10.3-14,15.5-1,1.2-3.2,2.3-2.4,4,.8,1.6,3,.8,4.6,1,5.1.5,6.3,2.5,3.6,6.8-2.1,3.3-3.7,7.1-7.2,9.4-2.5,1.9-3.9,4.6-6.8,8,3.8-1.9,5.4-4,6.9-6.1,5-.3,5.6.5,5.3,6.1,0,2-2.4,4.2.9,6.1,6.1,3.6,7.2,9.5,6.6,16-.7,8.6-4.2,16.3-7.4,24.1-2.3,5.8-4.8,11.7-5.5,18-.7,6.1.6,7.8,6.4,7.6,3.3-.1,4.5,1.5,5,4.2,1,5.1,3.2,9.8,6.1,14,5.6,8.3,10,17.1,10,27.5,2.2-.4,2.9-2,4-3.1,1.7-1.6,3.7-2.5,5.9-1.5,2.4,1.2,2.1,3.6,1.7,5.7-.4,2.3-1.1,4.5-.7,6.9-.3,4.9-.7,9.7.7,14.5.1,2,.2,4,.3,6,2.2-5,4.1-9.9,2.9-15.3-.4-2.1-.6-4.6,2.2-5.4,2.3-.6,3,1.3,3.7,3.1.3.7.8,1.4,1.4,1.9,7.1,6.4,10.2,14.8,12.8,23.7,1,3.4.1,7.2,2.9,11.8,1.5-2.1,2.5-3.6,3.6-5,1-1.3,2-3,4-2.1,1.8.8,1.1,2.5,1.1,4,0,2.6-.3,5.3,1.3,8,.7-.9,1.2-1.5,1.7-2.1,2.8-4,4.9-3.9,7.1.4.6,1.1.9,2.5,1.2,3.7,1.4,6,2.7,11.9,4.1,17.9.3,4.2,1.8,8.1,3.4,11.9.7,1.6.9,4.1,3.7,3.9,2.1-1.7,1.1-4.4,1.9-6.5.5-1.5,1.1-3.2,3.2-3.4,2.2-.2,2.9,1.4,3.4,3,.6,1.7,1.1,3.5,1.4,5.3,2.5,14.4,7.5,27.9,15.1,40.4,1.7,2.8,2.9,6.1,5.7,8.5.5-2.1-.4-3.6-.8-5.2-7.5-26.4-12.4-53.2-9.8-80.7,4.3-47,19.8-90,48.2-128.1,8.2-11.1,17.3-21.6,23.7-33.9,23.3-45.4,21.2-91,1.9-137.1-19.2-46-85-73.1-136.4-42.3-.5.3-1,.5-1.5.8h-.1c-.6.2-1.2.2-1.1,1v-.2c-7.8,3-14.5,7.9-20.9,13.2h0c-1.3.7-2.6,1.4-4,2.1ZM315.4,992.9c-.3.2-.6.4-.9.6-5.7,7-10.1,14.7-14.5,22.6-.9,1.6-1.8,3.3-1,4.7.8,1.5,2.7.5,4.2.5,29.8-1.1,57.8-10.2,85.8-19.5,5.1-1.7,9.8-4,13.7-8.3,8.2-9.2,9.1-19.9,1.5-29.7-9-11.5-21.1-14-34.5-11.1-17.3,3.7-30.3,14.5-42.3,26.8-.6.4-1.1.7-1.1,1.6h0c-.7-.1-1.1.2-1,1h0c-3,1.7-4.9,4.4-7,7h0c-.7.4-1.6.8-1.1,2h0c-1-.4-1.2.2-1.1,1h0c-.9-.3-1,.3-1.2.9h.2ZM739,462.5h0c-1.2.6-1.6,1.8-1.9,3.1h0c-1.1,1.5-2,3.1-2.1,5h0c-.9.9-1,2.2-1,3.5-2.9,6.5-.7,13.6-2.2,20.6-4.9-4.3-7.5-9.3-9.1-15.1-1.5-5.3-3.9-10.3-6.6-15-.7-1.3-1.5-2.9-3.1-2.5-1.5.5-1,2.2-.9,3.5,0,.8.3,1.6.3,2.5,1.4,17.8,1.4,35.5-3.4,53-3.6,13.4-9.8,25.8-14.8,38.6-3.9,9.9-6.8,20-4.8,31.5,14.8-33.4,29.4-66.2,31.7-103,3.9,19.4-.4,37.8-5,56.4,18.5-33.8,33.9-69.2,51.8-103.4-6.2,26.8-20.9,50.2-31.1,75.4-10.2,25.4-27.1,47.3-40,71.4,1.6.7,2.2,0,2.7-.6,10.2-12.7,23.6-21.4,37.1-29.9,12.7-8,25.4-15.8,37.6-24.6,13.3-9.6,22.8-21.7,25.7-38.3.3-1.6,0-4,2.7-5.3.9,9.4-2,17.4-6,25-6,11.5-15.6,19.8-26.2,26.8-15.1,10-30.6,19.5-45.6,29.5-11.3,7.5-21.5,16.2-28.4,28.2-.3.5-.7,1,0,1.5,0,0,.6-.5.9-.7,8.7-7.1,18.6-12.1,29-16.2,16.2-6.4,32.2-13.4,47-22.8,14.5-9.3,24.2-22.1,29.7-38.3,5.1-15.1,5.3-30.7,4.9-46.4,0-.9.3-2.1-1.1-2.4-1.4-.3-2.1.7-2.9,1.6-5.7,6.3-11.8,12.3-18.6,17.3-9,6.4-17.5,14.1-29.4,14.7-1.5,0-3.5,1.8-4.5,0-.7-1.3.5-3.2,1.6-4.5,1-1.1,2.1-2.2,3.1-3.2,18.4-19.3,27.3-41.8,22.8-68.7-.2-1.4.1-3.4-1.5-3.9-1.5-.5-2.8.7-3.8,1.8-6.6,6.9-14.2,12.6-21.3,18.9h.1c-.3,0-.5.3-.5.5-4.2,3.4-8.5,6.7-11.1,11.6h0c-1.2.6-1.9,1.6-2.1,3ZM634.9,811.9c-4.7,2.5-9.3,5.2-14.1,7.3-14.4,6.5-28.8,12.9-42.6,20.5-16.2,8.9-33.1,16-51.2,20-13.5,3.1-27,5.7-40.7,1.1-2.6-.9-3.3.9-4.2,2.3-4.7,6.9-9.8,13.4-16.7,18.3-4,2.8-7.7,5.9-12.2,9.4,5.3.6,9.7-.4,14.1-.6,21.6-.8,43.2-1.1,64.8-2.3,16.1-.9,31.4-5.1,44.6-14.9,16.1-11.9,29.8-26.5,43.5-41,5.7-6,11.5-12,15.4-19.5.6-.4,1.7-1.1,1.2-1.6-.9-1-1.3.4-2,.8ZM658.9,749c-1.3-2.8-.8-5.2.8-7.9,1.8-2.9,3.9-5.7,5.6-8.7,5.6-10.3,7.6-21.7,9.5-32.8,2.6-15.2,4-30.6,4.4-46,.4-14.8-1.2-29.5-1.7-44.3-.3-8.8-2.8-16.2-7.3-23.2-2.9-4.5-5.5-9.4-8.9-13.5-13.7-16.5-28-32.6-45.6-45.2-14.9-10.7-32-16.7-48.7-23.7-6.3-2.7-12.4-5.8-17.1-10.9-5.1-5.5-5.8-12.6-.9-16.9,3.3-3,1.5-3.6-1-5-10.6-5.9-20.9-12.3-30-20.5-6.2-5.7-11.4-11.8-9.4-21.1.3-1.6-.5-2.1-1.5-2.7-12.8-8.4-25.3-17.2-35.9-30,6.1,26.2,13.6,50.7,21.3,75.2,6.1,19.3,11.9,38.7,19.5,57.4,11.4,28,18.3,57,22.3,86.8,2.1,15.5,1.1,31.2,4.3,46.5.1.7.2,1.1-.2,1.8-2.3,4.2-2.4,8.3.2,12.5.8,1.2,1.6,3.4.3,4.1-4.8,2.7-3.6,7.2-3.7,11.2-.4,15.3-2.4,30.5-4.6,45.5-3.1,20.4-10.3,39.7-20,58-3.5,6.5-7.4,12.9-11.3,19.8,5.1-.7,9.7-1.3,14.2-1.9,18.6-2.5,37-5.8,54.9-11.5,22.9-7.4,43.7-19.2,64.3-31.5,9.7-5.8,19.3-11.8,26.9-20.4.4-.3,1.4-.5.9-1.2-.4-.5-1.1-.1-1.6.4ZM668.5,749.9c-1.5,5.3-6.6,5.9-9.9,8.7-8.8,7.4-17.6,14.6-27.2,21-40.4,27-85.8,38.9-133.5,42.3-13.7,1-18,9.1-19.4,18.9-.8,5.4,2,9.2,7.3,10.9,1,.3,1.8,1,2,2,.6,2,2.1,2.1,3.8,2.6,3.9,1.2,8,1.1,11.9.6,23.1-2.7,45.1-9.2,65.6-20.1,13.2-7,26.4-13.9,40.2-19.8,17.4-7.4,32.8-17.6,44.3-32.9,7.7-10.2,15.5-20.4,14.8-34.3ZM323.9,767.1c-4.9,13.5-5.3,26.4-4.1,39.3.9,9.6,3.5,18.9,9.1,27,3,4.3,6.4,8.1,11.8,9.3,7,1.5,13.8,2.6,21.1,1.7,29.2-3.6,44.5-31.2,33.8-58.2-5-12.6-14.6-17.9-28-16.1-6.6.9-12.8,3.5-19.1,5.4-9.9,2.9-18.4,2.2-24.8-8.4ZM449,712c-1-1.8-1.3-2.6-1.8-3.2-6.4-8.9-13.7-17.1-21.7-24.7-1.4-1.4-2.9-2.8-4.2-4.3-.9-1-1.6-2.4-.7-3.6,1-1.2,2.3,0,3.1.4,1.7.9,3.3,2.2,4.7,3.6,16.1,15.2,28.6,33.2,40,51.9,8.6,14.1,16,28.6,20.2,44.7,3.4,13.1,1.6,26.6,3,40.2,4.6-3,8.1-8.1,7.9-12.4-.2-5.9.4-11.8.1-17.7-.6-12.5-2.6-24.7-6.6-36.6-8.5-25.4-17-50.8-34.1-72-8.5-10.5-18.4-19.8-31.8-23.9-3.4-1.1-7.5-2.6-10.2.9-2.5,3.3.4,6.6,2,9.6,1.6,2.9,3.8,5.5,2.8,9.9-4.5-3.4-9.7-3.7-14.5-5.4-17.7-6.2-35.9-8.1-54.4-6.9-2.3.2-4.5,1-6.7,1.6-2.7.8-3.1,2.2-.8,4.1,1.9,1.6,4.7,2.4,5.4,5,.9,3.2,3.3,3.7,5.8,3.9,9.6.8,19,3,28.3,5.1,19.5,4.5,38.2,11.1,54.3,23.6,2.7,2.1,5,4.7,9.7,6.1ZM317.2,686.1c1.5.1,2.9,0,4.1.4,1.5.5,3.6.9,3,3.2-.6,1.9-2.2,1.4-3.7,1-1.7-.5-3.2-.3-4.7,1.6-1.6,2-4,3.5-6.4,4.6-7.3,3.3-14.3,6.9-21.1,11.1-15.9,9.7-27.9,22.9-35.8,39.7-1.7,3.6-3.2,7.3-2.9,11.4.3,4.5,3.5,7.5,6.9,9.1,2.6,1.3,3.7-2.9,5.4-4.6,1.1-1,2-2.2,3.1-3.2,11.5-10.9,24-20.5,36.9-29.6,16.7-11.8,33.8-23,54.4-26.8,4.1-.7,8.4-.7,12.2-2.1,11.9-4.7,24-7.9,37-7.9-3.4-1.4-6.8-2.7-10.3-3.5-17.2-3.8-33.9-9.6-52-8.5-6.4.4-13-1.6-19.7-1-3.5.3-5.8,1-6.3,5.2ZM530.2,662.6c.5-3.3.1-8.2-4.1-12.5-6-6-11.4-12.6-17.3-18.7-25.4-25.9-51.4-50.5-87.8-60.8-18.6-5.3-36.7-11-56.4-7-11.2,2.3-20.4,7-26.4,16.8-4.3,7-4.3,14.3.5,21.1,4,5.7,9.8,8.8,16.5,10.5,2.1.6,2.9,0,3.2-2.3,1.2-7.9,5.8-13.6,12-18.3,9.2-6.9,20-9.7,31.2-10.6,19.1-1.6,37.2,1.5,53.1,12.8,7.8,5.6,14.9,12,22.2,18.3,11,9.5,20.6,20.3,30.9,30.5,7.4,7.3,15.5,13.9,22.4,20.1ZM338.2,850.5c-3.3-1.8-4.3-5.5-6.7-7.6-8.7-7.4-12.9-17.1-15.6-27.7-5.1-20.8-4.2-41,6.1-60.3,2.7-5,3.9-10.7,6.2-17.2-15.4,13.3-29.9,26.1-39.2,43.3-5.8,10.8-10.9,22.1-10.5,34.9.3,9.2,2.7,17,10.1,23.2,4.3,3.6,9.4,4.8,14,7.2,11.2,5.8,23,6.7,35.5,4.2ZM332.7,267.8c-.9,16.3-5.8,30.4-11.8,44.1-7.1,16.3-14.6,32.4-21,49-10.4,26.9-13.5,54.2-4.3,81.9,13.8,41.5,37,77.5,66.1,109.9,2.2,2.4,4.8,1.6,6.2.4,1.6-1.3.7-3.8-.9-5.5-3.1-3.2-6.3-6.4-9.3-9.8-24.5-28.3-39.4-61.4-48.9-97.2-2.9-10.9-4.7-22.1-5.4-33.4-.2-3.9,1.8-7.5.9-11.4-1.9-8.1-1.2-16.1,1-24.1,3.6-13.6,10.5-25.8,16.6-38.4,10-20.5,15.8-41.6,10.9-65.7ZM415.5,915.4c10.4-4,21.1-5.2,31.9-4.1,9.4.9,18.6,3.2,27.8,5.2,9.9,2.1,19.7,4.5,30,3.1,17.1-2.3,31.7-10.3,45.6-20,5.3-3.7,10.2-8.1,14.7-14.1-3.9,1.5-6.8,2.6-9.8,3.6-25.1,8.3-51.1,7.2-77,7.2-12.3,0-24.6-.3-36.6,2.9-10.3,2.7-19.9,7.2-26.6,16.1ZM529.4,644.9c-.2-4.4.4-7.6-2.1-10.5-12-14-24.5-27.6-38.2-40.1-2.4-2.2-4.5-5.2-7.4-6.6-7.2-3.5-12.8-8.8-17.9-14.8-13.4-15.5-20.9-33.7-25.6-53.4-2.2-9.5-3.2-19.1-3.1-29-3.7.3-4.5,2.8-5.4,5-5.7,14-7.8,28.4-5.3,43.5,1.8,10.9,5.9,20.8,14.3,28,5.6,4.8,12.1,8.6,18.4,12.5,10.5,6.5,20.5,13.6,29.8,21.8,14.9,13.2,28.8,27.5,42.5,43.6ZM282.8,395.7c1.6-7,2.7-12.7,4.2-18.2,5.8-21.5,16.3-41,25.7-60.9,6.1-12.9,12.7-25.6,15.1-39.9,1-6.2,2.3-12.5.9-19.3-16.1,19.3-45.5,107.8-45.9,138.3ZM371.9,519.7c.6-4.6-1.6-9.3-.2-13.8,2.2-6.6,1.7-13.5,2.1-20.2.3-4.6-1.6-9.6.3-13.8,3.5-7.9-.4-12.3-6-16.4-.5-.4-1-.9-1.5-1.3-3.6-2.6-7.4-6.7-11.9-4-4.5,2.7-3.5,8.2-2.7,12.8,3.5,19.9,12.5,37.9,19.9,56.7ZM432.1,565.8c-4.5-5.8-10.1-10.6-12.3-17.9-.5-1.8-2.3-.8-3.5-.9-4.9-.4-10,.2-14.3-3.2-6.6-5.1-12.6-10.7-16.9-18-2.8-4.7-5.2-9.5-7.5-15.9-.5,5.6.9,9.3,1.8,13.1,1.9,8.3.7,16.8,2.1,25.1.4,2.2.4,4.9,3.5,5.2,16.3,1.7,31.7,6.5,47.1,12.4ZM637,536.8c.7,2.1,1.5,2.9,3.1,3.6-.1-1.9-1.1-2.7-3.1-3.6ZM448.7,712.4c.5,1.2.8,2.3,2.5,1.8-.5-.9-.9-2-2.5-1.8ZM765,498.9c0-.1-.2-.3-.3-.3-.1,0-.2.2-.3.3.2.1.3.2.5.3,0,0,.1-.2.2-.3Z"/>
        <path class="cls-2" d="M579.8,91.1c51.4-30.7,117.2-3.7,136.4,42.3,19.2,46.2,21.3,91.8-1.9,137.1-6.3,12.3-15.4,22.9-23.7,33.9-28.3,38.1-43.8,81.1-48.2,128.1-2.5,27.5,2.3,54.3,9.8,80.7.4,1.6,1.3,3.1.8,5.2-2.8-2.4-4-5.6-5.7-8.5-7.6-12.5-12.6-26-15.1-40.4-.3-1.8-.8-3.6-1.4-5.3-.5-1.6-1.3-3.2-3.4-3-2.1.2-2.6,1.9-3.2,3.4-.8,2.1.3,4.8-1.9,6.5-2.5-5.2-3.7-10.9-7-15.7-1.3-6-2.7-11.9-4.1-17.9-.3-1.3-.6-2.6-1.2-3.7-2.3-4.3-4.3-4.4-7.1-.4-.5.6-1,1.2-1.7,2.1-1.6-2.8-1.3-5.4-1.3-8,0-1.5.6-3.2-1.1-4-2-.9-3,.8-4,2.1-1.1,1.4-2.1,3-3.6,5-2.8-4.6-1.9-8.4-2.9-11.8-2.6-8.9-5.7-17.3-12.8-23.7-.6-.5-1.1-1.2-1.4-1.9-.7-1.8-1.4-3.8-3.7-3.1-2.7.8-2.6,3.3-2.2,5.4,1.2,5.4-.7,10.3-2.9,15.3-.1-2-.2-4-.3-6,1.1-4.9,1.7-9.8-.7-14.5-.4-2.4.2-4.6.7-6.9.4-2.1.7-4.5-1.7-5.7-2.2-1.1-4.1-.1-5.9,1.5-1.2,1.1-1.9,2.7-4,3.1,0-10.5-4.4-19.2-10-27.5-2.9-4.3-5.1-8.9-6.1-14-.5-2.7-1.7-4.3-5-4.2-5.8.2-7.1-1.5-6.4-7.6.7-6.3,3.2-12.2,5.5-18,3.1-7.8,6.6-15.6,7.4-24.1.5-6.5-.5-12.4-6.6-16-3.2-1.9-1-4.1-.9-6.1.3-5.6-.3-6.4-5.3-6.1,0-.6,0-1.2,0-1.8,3.6-2.2,5.2-6,7.2-9.4,2.7-4.3,1.5-6.3-3.6-6.8-1.6-.2-3.8.7-4.6-1-.8-1.7,1.3-2.8,2.4-4,4.6-5.2,9.3-10.4,14-15.5,2.3-2.5,3.7-5.5,5.1-8.5,2.1-4.3.7-6.5-4-7.1-2-.3-3.9-.6-5.9-1,.5-1.9,1.6-4,1.2-5.8-1.3-7.8-.7-15.5.4-23.3,0-2.1,1.9-3,3.1-4.3,2.5-2.7,2.8-5.6-.7-7.4-3-1.5-2.2-2.9-.8-4.9,4.5-6.4,9.6-12.3,13-19.4,1.9-3.9,3.5-7.8,3.8-12.3.4-5.6-1.6-10-5.7-13.7.5-.9,1-1.9,1.5-2.8,2.1-.6,3.5-1.9,4-4,0,0,0,0,0,0,7.4-3.7,15.3-6.7,21-13.2,0,0,0,.2,0,.2.4-.3.7-.6,1.1-1,0,0,.1,0,.1,0,.5-.3,1-.5,1.5-.8Z"/>
        <path class="cls-2" d="M648.1,801.4c10.8-11.2,20.2-23.4,25.8-38.1,1.2-3.1,1.4-5.7-.2-9.3-1.8-4.1-2.3-9.7-1-13.9,6.8-21.1,10.9-42.7,11.6-64.9,0-.5.3-.9.4-1.4.8-.3,1.5-.6,2.3-.9,1.7,1.6,3.7,1.9,6,1.5,12.5-2,24.6-.1,36.6,3.2.5.2,1.1.5,1.6.7h-.1c5,2.4,10.8,2.1,16,4.1h0c0,.8.3,1.5,1.2,2h-.1c.4.5.7,1,1.1,1.5,1.1,0,1.3.9,1.6,1.6,2.8,6.6,1.7,12.9-2,18.8-2.6,4.1-2.4,5.6,1.8,7.8,1,.5,2.1,1,3.1,1.6,6,3.8,6,5.6.2,9.7-2.4,1.7-3.4,4-.1,5.1,6.9,2.4,7.8,8,8.4,13.9.4,4,.3,8,0,12-.4,5.1,1.4,8.4,6.3,9.8,2.4.7,3.4,2.2,4,4.5.7,2.8.6,5.6.9,8.4.3,3.2-1.1,4.1-4.1,3.8-2.6-.3-5.3-.6-8-.4-2.9.2-4.7,1.9-3.8,5.1,1,3.7,2.4,1.3,3.9.3.5-.4,1.6,0,2.4,0,3.1.3,6.3.5,9.4.8-2.3,3-5.6,2.9-8.9,2.9-1.2,0-3.3-1.4-2.5,1.8.6,2.7,1.1,5.5,2.5,8,3.2,5.7,4.7,11.6,3,18.1-1.4,5.4,1,8.2,6.1,9.3,0,3.8,1.8,7.7-.2,11.5-.6.4-1.2.7-1.8,1.1-.2-1.5-.4-2.6-2.2-3.4-3.2-1.4-6-3.5-9.1-5.2-9.1-5.2-12.4-4.2-17.2,4.9-2.1-1.3-4.1-2.7-6.4-3.8-3.2-1.5-6.2-1.4-7.8,2.5-1.2.2-2.2.8-2.9,1.9-.6-.3-1.2-.9-1.7-.9-5.9.6-8.9-1.7-8-7.9.2-1.4-.2-2.7-1.8-3.1-1.6-.4-2.4.8-2.9,2-.3.8-.5,1.6-1,2.3-1.2,1.8-2.6,3.8-5,3.3-2.6-.5-2-3-2.3-4.9-.9-5.8-.8-12-6.9-15.6-3-1.8-5.3-1.6-7.2,1.3-2,3.2-4.6,6-6,9.6-1.2,2.9-4.1,3.5-6.5,1.4-5.4-4.6-8.3-4.9-12.7.3-2.3,2.7-3.3,2-4.3-.6-1.2-3.3-2.3-6.6-3.1-9.9-1-4.1-3.2-6.8-7.3-7.8-.3-2.1-.6-4.1-.8-6.2ZM687.6,713.1c-.8,5.3-.5,9.1,1,12.8,4.4,11.3,10.2,22,16.3,32.4,10.5,18.2,22.8,35.1,38.5,49.3,3,2.7,6,5.5,10.7,6.5-1-3.1-3-4.7-4.8-6.3-26-23.5-42.3-53.4-56-85-1.3-3-3.3-5.8-5.6-9.8Z"/>
        <path class="cls-6" d="M411.4,994.1c8-17.1,4.6-38.6-21.1-47.1-4.4-1.4-9.1-1.5-14.8-2.2,6.2-3,11.3-6,16.7-8,8.6-3.2,16.1-8.4,24.5-11.9,1.1-.5,2-1.7,3-2.5,3.7-3.3,7.6-5.2,12.8-5.5,14.8-.9,29,2.2,43.2,5.6,11.6,2.8,23.2,3.3,35.5,1.9-7.8,8.8-16.5,15.9-25.2,23.1-17.4,14.2-37.7,23.6-56.8,34.8-5.4,3.1-11.6,5.2-15.1,11-.9.3-1.8.6-2.8.9Z"/>
        <path class="cls-3" d="M349.7,443.8c-6.2,5.9-6,13.4-4.8,20.9,2.4,15.1,9,28.8,14.9,42.7,5.7,13.3,11,26.7,15.7,40.4.6,1.7,2.2,4.2-.2,5.1-2.6,1-3-1.8-3.9-3.8-1.9-4.2-4.5-8.1-7.4-11.8-25.2-31.6-42.5-66.9-51-106.5-1.6-7.5-2.9-15-2.9-22.9,2.1-.2,3.5,1.1,4.9,1.9,6.8,3.6,13.6,6.9,21.7,6,2.3-.3,4.8,0,3,3.4-4.5,8.8-2.2,17,2,25,.6,1.1.7,3,2.6,2.3,1.9-.7,1.4-2.6.9-3.9-1.9-4.3-2.1-8.7-1.7-13.2.7,2.7,1.7,5.3,2.2,8.1.4,2.8,1.8,4.7,4,6.3Z"/>
        <path class="cls-6" d="M273.5,804.5c1.6-4.1-.5-5-4-4.6-4.5.6-7.3,4.3-11.2,6.2-2.8,1.3-5.2,3.3-8.6,5.5-.4-11.7,4.4-21,7.9-30.9,5.4-14.9,17.7-22.6,29.3-31,15.3-11,30.7-22.1,47.2-31.5,5.9-3.4,12.2-5.8,18.9-7.8-17,16.6-35.6,30.9-51.9,47.7-9.3,9.6-17,20.4-21.6,33.1-1.5,4-2.4,8.2-3.5,12.4-.8.3-1.7.6-2.5,1Z"/>
        <path class="cls-5" d="M729.7,677.5c-12-3.3-24.2-5.2-36.6-3.2-2.3.4-4.2,0-6-1.5.4-1-1.7-2.7.2-2.8,4.7-.4,8.7-3.1,13.7-2.9,10.8.4,21.5.7,31.9,4.4,1.8.7,4,.9,5.9.7,13.1-1.7,24.9,19.8,16.2,29.7-1.6,1.9-.3,4-1.3,6.1-1.5,3.1,2.3,2.7,3.7,3.7,7.3,5.7,8,7.9,3.8,15.8-.8,1.4-.3,2.1.4,3,4.6,5.5,3,12.4,4.3,18.7.4,1.9.4,4,.2,6-.5,3.9.8,6.3,4.9,7.2,2.8.6,4.5,2.8,5.3,5.5,1.6,5.3,2,10.8,1.9,16.3,0,3.2-2.4,4.1-5,4.5-3.1-.3-6.3-.5-9.4-.8-.8,0-1.9-.5-2.4,0-1.5,1.1-2.9,3.4-3.9-.3-.8-3.1.9-4.9,3.8-5.1,2.6-.2,5.3,0,8,.4,3,.4,4.4-.5,4.1-3.8-.3-2.8-.1-5.6-.9-8.4-.6-2.3-1.6-3.8-4-4.5-4.9-1.4-6.8-4.8-6.3-9.8.3-4,.4-8,0-12-.6-5.8-1.4-11.5-8.4-13.9-3.3-1.1-2.3-3.5.1-5.1,5.8-4,5.8-5.9-.2-9.7-1-.6-2.1-1-3.1-1.6-4.2-2.2-4.4-3.7-1.8-7.8,3.8-5.8,4.8-12.1,2-18.8-.3-.7-.6-1.6-1.6-1.6.1-.9,0-1.5-1.1-1.6,0,0,.1,0,.1,0,.2-1-.4-1.5-1.2-2,0,0,0,0,0,0-1.2-2.3-3.2-3.2-5.6-3.4-3.5-.2-6.9-.5-10.4-.8,0,0,.1.1.1.1-.3-.8-.9-.7-1.6-.7Z"/>
        <path class="cls-5" d="M773.2,828.6c-5.1-1.1-7.5-3.9-6.1-9.3,1.7-6.5.1-12.4-3-18.1-1.4-2.5-1.8-5.3-2.5-8-.7-3.2,1.3-1.8,2.5-1.8,2,3.9,3.9,8,6.2,11.8,2.6,4.5,3.3,9.3,2.7,14.3-.3,2.5,0,4.3,2.8,5.4,4.6,1.7,4.7,6,4.8,10,0,2-.4,3.9-.5,5.9-.1,1.6-.6,2.9-2.3,3.4-1.9.5-2.7-.8-3.5-2-.1-3.9,2.9-8-1.1-11.6Z"/>
        <path class="cls-5" d="M728.7,836.3c1.6-3.9,4.6-4,7.8-2.5,2.2,1,4.3,2.5,6.4,3.8,4.7-9.1,8-10.1,17.2-4.9,3,1.7,5.9,3.8,9.1,5.2,1.8.8,2,2,2.2,3.4-1.3,3.1-3.2,2-5.1.7-3.6-2.6-7.2-5.2-11.5-6.7-3.5-1.2-5.6-.2-6.5,3.6-1.3,5.2-4.7,6.1-9.1,2.9-2.3-1.6-4.9-6.1-7.5,0-.5,1.1-2,1.1-3.1.5-1.2-.7-1.3-1.7-.5-2.9.5-.8.6-1.9.9-2.8Z"/>
        <path class="cls-6" d="M518.5,755.6c2.5.8.9,2.4.7,3.6-2.9,13.7-8.9,26.1-15.4,38.8-.7-2.3-.6-3.9.4-5.5,3.8-5.1,5.3-11.3,7.5-17.1,2.5-6.5,4.5-13.2,6.8-19.8Z"/>
        <path class="cls-2" d="M690.8,826c-.2-.6-.3-1.3-.5-1.9-.9-2.9,1.5-4.7,3.2-5.3,2.1-.8,2.5,1.8,2.9,3.6.4,1.9.9,3.8,1.4,5.7-2.5,0-4.7-1.3-7.1-2.1Z"/>
        <path class="cls-6" d="M252.1,770.4q5.7,1.4,3.1,6.5c-.7-2.3-2.9-3.9-3.1-6.5Z"/>
        <path class="cls-1" d="M773.2,828.6c3.9,3.5,1,7.7,1.1,11.6-.4,0-.8,0-1.2,0,2-3.8,0-7.7.2-11.5Z"/>
        <path class="cls-1" d="M556.3,105.8c-.5,2.1-1.9,3.4-4,4,0-.6,0-1.3,0-1.9,1.3-.7,2.6-1.4,4-2.1Z"/>
        <path class="cls-1" d="M549.1,111.3l-.4.2s-.4,0-.4,0c.3,0,.5-.1.8-.2Z"/>
        <path class="cls-1" d="M548.4,108.9l.2-.3s.3.1.3.1c-.2.2-.4.2-.6.2Z"/>
        <path class="cls-6" d="M659.7,749.8c-7.6,8.6-17.2,14.6-26.9,20.4-20.6,12.2-41.4,24.1-64.3,31.5-17.9,5.8-36.3,9-54.9,11.5-4.6.6-9.1,1.2-14.2,1.9,3.9-6.9,7.8-13.2,11.3-19.8,9.7-18.3,17-37.6,20-58,2.2-15,4.2-30.2,4.6-45.5.1-4-1.1-8.5,3.7-11.2,1.3-.7.5-2.9-.3-4.1-2.6-4.2-2.5-8.3-.2-12.5.4-.7.4-1.1.2-1.8-3.2-15.3-2.3-31-4.3-46.5-4-29.9-10.9-58.9-22.3-86.8-7.6-18.7-13.4-38.1-19.5-57.4-7.7-24.4-15.2-49-21.3-75.2,10.6,12.9,23.1,21.6,35.9,30,1,.7,1.8,1.1,1.5,2.7-2,9.3,3.2,15.5,9.4,21.1,9,8.2,19.3,14.6,30,20.5,2.5,1.4,4.2,2,1,5-4.8,4.3-4.2,11.4.9,16.9,4.7,5.1,10.8,8.2,17.1,10.9,16.6,7.1,33.8,13,48.7,23.7,17.6,12.6,31.9,28.7,45.6,45.2,3.4,4.1,6,9,8.9,13.5,4.5,7,7,14.4,7.3,23.2.5,14.8,2.1,29.5,1.7,44.3-.4,15.4-1.8,30.9-4.4,46-1.9,11.1-3.8,22.6-9.5,32.8-1.7,3.1-3.8,5.8-5.6,8.7-1.6,2.6-2.1,5.1-.8,7.9.3.3.5.6.8.8Z"/>
        <path class="cls-3" d="M538.2,174.7c-1.1,7.7-1.7,15.5-.4,23.3.3,1.8-.8,3.8-1.2,5.8-1.6,1-4.9-1.9-5.1,1.9-.1,2.7,2.2,3.8,4.8,4.2,4.8.8,5.1,1.5,2,5.6-4.4,5.8-10.7,10-15,16-.9,1.2-2,2.3-2.8,3.5-1.8,2.6-2.7,5.5-1.5,8.5,1.2,2.9,4.1,2.2,6.6,2.4.8,0,1.6.2,3.3.4-6.2,9-15.7,15.5-15.6,27.4,4.4,1.6,7-3.1,10.9-4.7.8,2.6-.6,4.5-1.7,6.5-.6,1.2-1.3,2.5-.2,3.7.7.8,1.8,1.4,2.6,2.1,0,0,0,.3-.1.4,0-1.6,1.7-1.9,2.5-2.8,2.8-3.2,4.4-2.8,6,1.3,1.8,4.7.6,9.2-.6,13.7-2.9,10.7-8.3,20.6-10.7,31.6-.5,2.5-.8,4.9-.6,7.4.4,5,2.7,7.5,7.8,7.8,2.2.1,2.8.9,3.2,2.8,1,5.7,3.9,10.6,7.1,15.3,5.1,7.5,9.2,15.3,8.6,24.9-.1,2,.2,4.5,2.7,5.4,2.1.8,3.8-.6,5.5-1.7,1-.6,1.8-1.4,2.7-2.2.2.2.4.5.7.7-.2,9.5,0,19,3.2,28,.3.9,0,2.8,1.7,2.5,1.5-.3.5-2,1.1-3.1,1.2,1-.3,3.7,1.7,3.7,1.8,0,2.6-2,3.1-3.5,1.3-3.9,2.2-7.9,3.6-12.7,6.1,7.2,8.8,15.1,10.2,23.6,0,.5,0,1,0,1.5.7,8.7,3.9,10.4,11.5,5.6,1,5.9,3.1,11.4,2.4,17.4-.2,1.5-.3,3.5,1.3,3.9,1.7.4,3-1.3,3.6-2.9,1-2.7,1.7-5.5,3.4-8.3,1.5,6.7,3.1,13.4,4.6,20.1.8,3.6,2,7,3.9,10.2,3.5,6,6.9,6.6,12.9,2,3.8,25.5,19.4,45.2,31.9,66.3,6.2,10.4,8.6,22.1,12.3,33.5-6.1-9.6-12.6-18.7-19.4-27.6-27.2-35.6-55.9-69.9-84.7-104.2-26.5-31.6-46.8-67.5-60.7-106.6-7.8-22.1-14.7-44.6-16-68.2-1.2-22.1-.4-44.2,4.8-66,7.3-30.3,24.4-53.9,47.9-73.4,2.2-1.8,6.4-3.8,4.5-6.5-1.7-2.3-5.5.5-7.9,2.1-21.1,14.5-36.9,33.2-46.5,57.2-12.1,30-14.1,61.2-10.1,92.8,5.2,41.5,21.4,79.2,41.5,115.6,17.5,31.5,38.9,59.9,63.1,86.4,17.2,18.8,32.2,39.4,47.8,59.5-.2.4-.5.8-.7,1.1-18.4-18.2-41.2-28.8-65-37.9-6.5-2.5-13.1-4.8-17.8-10.6-1.7-2.1-2-3.8-.7-6.2,1.2-2.3,2.6-3.1,5.2-2.3,1.6.5,3.4.2,4.4-1.5,1.1-2.1-.3-3.4-1.7-4.7-7.1-6.6-15.8-11-23.9-16.1-7.5-4.7-15.1-9.4-20.5-16.5-2.8-3.7-6.5-7.7-.6-12.3.8-.7,1.4-4.5-1-5.3-6.3-2.2-11.1-6.6-16.3-10.2-6.3-4.3-12.2-9.2-17.6-14.7-2.2-2.3-4.4-4.7-5.4-7.7-1.1-3.3-2-6.9,3-8.4,2-.6,4.4-1.3,4.5-4,0-3.1-2.8-4-4.9-5.1-16.8-9-27.1-23.1-32.6-41-.4-1.4-.5-2.9-.8-4.4.3-4.2-1.2-9.1,4.3-11.3,4.2,1.3,7.5,4.3,11.1,6.5,1.8,1.1,2.9,1.4,4.8.2,2.1-1.3,1.3-3.1.9-4.3-.8-2.3-2.2-4.4-3.5-6.6-8-13-14.3-26.6-16.8-41.8-.2-1.3-.4-2.6-.5-3.9,0-1,0-2,.1-2.9,3.4-.2,7.2,2.9,9.8-.9,2.4-3.5-.1-6.8-1.6-10.2-8.4-19.9-9.1-40.2-2.9-60.9.2-.6.4-1.3.8-1.8.2-.4.6-.7,1.4-1.6,1.9,4.4,3.8,8.4,5.4,12.6,2.1,5.3,5.9,9.4,9.7,13.4,1.9,2.1,3.6.6,3.9-1.4.7-4.7,2.1-9.3,2.5-14.2.8-8.7,3.2-17.1,5.8-26.4,1.1,2.1,1.5,3.3,2.2,4.3,1.2,1.8,2.7,3.6,5.2,2.9,2.4-.7,1.3-2.9,1.8-4.4,1-3.4,3-6.5,4.7-9.7,1.6-3,3.5-5.9,5.3-8.8.3-.2.6-.4.8-.6,0,0-.2,0-.2,0,1.5-.4,2.2-1.5,2.1-3,0,0,0,0,0,0,2.2-.5,3-2,3-4.1,0,0,0,0,0,0,2.4-.3,3.3-1.8,3.1-4,0,0,0,0,0,0,.9-.1,1-.8,1.1-1.5,0-.3.1-.4.4-.5,1.5-.3,2.2-1.5,2.7-2.8l.2-.2c.2-.2.5-.5.7-.7v-.3c0,0,.3,0,.3,0,.2-.3.4-.5.7-.7v-.3c0,0,.3,0,.3,0,.1-.2.3-.4.5-.5,8.6-8.5,19.1-14.2,29.7-19.8,4.3-2.3,6.1.9,7.5,4,2.1,4.5.1,8.8-1.8,12.9-3,6.3-7.8,11.5-11.4,17.5-1.4,2.3-2.8,4.5-4,6.9-2.5,5.1-1.9,6.5,3.4,8.3-6.4,8-7.7,20.6-2.9,29.4,2.4-7.3-.2-15.1,3.4-21.8Z"/>
        <path class="cls-3" d="M752.5,447.4c7.1-6.3,14.7-12,21.3-18.9,1-1,2.4-2.3,3.8-1.8,1.6.6,1.3,2.5,1.5,3.9,4.4,26.9-4.5,49.4-22.8,68.7-1,1.1-2.1,2.1-3.1,3.2-1.1,1.3-2.3,3.1-1.6,4.5,1,1.8,2.9,0,4.5,0,11.9-.6,20.4-8.3,29.4-14.7,6.9-4.9,12.9-11,18.6-17.3.8-.9,1.5-1.9,2.9-1.6,1.4.3,1,1.5,1.1,2.4.4,15.7.2,31.3-4.9,46.4-5.5,16.2-15.2,29-29.7,38.3-14.8,9.5-30.8,16.4-47,22.8-10.4,4.1-20.3,9.1-29,16.2-.3-.3-.6-.5-.8-.8,6.9-12,17.2-20.7,28.5-28.2,15.1-10,30.5-19.6,45.6-29.5,10.6-7,20.2-15.3,26.2-26.8,4-7.6,6.9-15.6,6-25-2.7,1.4-2.4,3.7-2.7,5.3-2.9,16.6-12.4,28.7-25.7,38.3-12.2,8.7-24.9,16.6-37.6,24.6-13.5,8.5-26.9,17.2-37.1,29.9-.5.6-1.1,1.2-2.7.6,12.8-24.1,29.7-46,40-71.4,10.1-25.2,24.8-48.6,31.1-75.4-18,34.1-33.3,69.5-51.8,103.4,4.6-18.6,8.9-37,5-56.4-2.3,36.8-16.9,69.6-31.7,103-2-11.5,1-21.6,4.8-31.5,5-12.8,11.2-25.2,14.8-38.6,4.7-17.5,4.8-35.2,3.4-53,0-.8-.3-1.6-.3-2.5,0-1.3-.7-3.1.9-3.5,1.6-.5,2.4,1.2,3.1,2.5,2.7,4.8,5.1,9.8,6.6,15,1.6,5.8,4.2,10.8,9.1,15.1,1.5-7-.7-14.1,2.2-20.6,1.2-1,.7-2.4,1-3.6,0,0,0,.1,0,.1,1.5-1.4,1.9-3.2,2.1-5.1,0,0,0,0,0,0,1.3-.7,1.9-1.7,1.9-3.1,0,0,0,0,0,0,1.4-.6,2.1-1.5,2.1-3.1,0,0,0,0,0,0,5.3-2.3,7.9-7.3,11.1-11.6,0-.3.2-.5.5-.5,0,0-.1,0-.1,0Z"/>
        <path class="cls-6" d="M668.5,749.9c.6,13.9-7.2,24.1-14.8,34.3-11.5,15.3-27,25.5-44.3,32.9-13.8,5.9-27,12.7-40.2,19.8-20.6,11-42.5,17.4-65.6,20.1-3.9.5-7.9.6-11.9-.6-1.6-.5-3.2-.7-3.8-2.6-.3-1-1-1.7-2-2-5.2-1.6-8.1-5.5-7.3-10.9,1.5-9.8,5.7-17.9,19.4-18.9,47.7-3.4,93.1-15.3,133.5-42.3,9.6-6.4,18.4-13.6,27.2-21,3.3-2.8,8.4-3.4,9.9-8.7Z"/>
        <path class="cls-6" d="M323.9,767.1c6.4,10.6,14.9,11.3,24.8,8.4,6.3-1.9,12.4-4.5,19.1-5.4,13.3-1.8,23,3.4,28,16.1,10.7,27.1-4.6,54.7-33.8,58.2-7.3.9-14.2-.2-21.1-1.7-5.4-1.2-8.9-5-11.8-9.3-5.6-8.1-8.2-17.5-9.1-27-1.2-12.9-.8-25.8,4.1-39.3Z"/>
        <path class="cls-6" d="M449,712c-4.7-1.4-7.1-4-9.7-6.1-16.1-12.5-34.7-19.1-54.3-23.6-9.4-2.2-18.7-4.4-28.3-5.1-2.5-.2-5-.7-5.8-3.9-.7-2.6-3.5-3.4-5.4-5-2.3-2-1.9-3.3.8-4.1,2.2-.7,4.4-1.5,6.7-1.6,18.6-1.3,36.8.7,54.4,6.9,4.8,1.7,10,2,14.5,5.4,1-4.4-1.2-7-2.8-9.9-1.6-3-4.5-6.2-2-9.6,2.6-3.5,6.7-1.9,10.2-.9,13.5,4.1,23.3,13.4,31.8,23.9,17.2,21.2,25.6,46.6,34.1,72,4,11.9,6,24.1,6.6,36.6.3,5.9-.3,11.8-.1,17.7.1,4.4-3.3,9.4-7.9,12.4-1.4-13.7.5-27.1-3-40.2-4.2-16.1-11.7-30.6-20.2-44.7-11.4-18.8-23.9-36.8-40-51.9-1.4-1.4-3-2.6-4.7-3.6-.8-.5-2.2-1.6-3.1-.4-1,1.2-.2,2.6.7,3.6,1.3,1.5,2.7,2.9,4.2,4.3,8,7.6,15.3,15.8,21.7,24.7.5.6.8,1.4,1.8,3.2Z"/>
        <path class="cls-6" d="M635.7,812.7c-3.9,7.4-9.7,13.5-15.4,19.5-13.8,14.4-27.4,29-43.5,41-13.2,9.8-28.5,14-44.6,14.9-21.6,1.2-43.2,1.5-64.8,2.3-4.4.2-8.8,1.2-14.1.6,4.4-3.4,8.2-6.6,12.2-9.4,6.9-4.9,12-11.4,16.7-18.3.9-1.4,1.6-3.1,4.2-2.3,13.7,4.6,27.2,1.9,40.7-1.1,18.1-4.1,35-11.2,51.2-20,13.8-7.6,28.3-14,42.6-20.5,4.8-2.2,9.4-4.9,14.1-7.3.3.3.5.5.8.8Z"/>
        <path class="cls-6" d="M317.2,686.1c.5-4.2,2.8-4.9,6.3-5.2,6.7-.5,13.3,1.4,19.7,1,18.1-1.1,34.9,4.7,52,8.5,3.5.8,6.9,2,10.3,3.5-13,0-25.1,3.2-37,7.9-3.8,1.5-8.1,1.4-12.2,2.1-20.7,3.8-37.7,15.1-54.4,26.8-12.9,9.1-25.4,18.7-36.9,29.6-1.1,1-2.1,2.2-3.1,3.2-1.8,1.7-2.8,5.8-5.4,4.6-3.4-1.6-6.6-4.6-6.9-9.1-.3-4.1,1.2-7.9,2.9-11.4,7.9-16.8,19.9-30,35.8-39.7,6.8-4.1,13.8-7.8,21.1-11.1,2.4-1.1,4.8-2.6,6.4-4.6,1.5-1.9,2.9-2,4.7-1.6,1.6.4,3.2.9,3.7-1,.7-2.3-1.5-2.7-3-3.2-1.2-.4-2.6-.3-4.1-.4Z"/>
        <path class="cls-2" d="M327.4,979.5c12-12.3,25-23.1,42.3-26.8,13.4-2.9,25.5-.4,34.5,11.1,7.6,9.8,6.7,20.5-1.5,29.7-3.9,4.4-8.6,6.6-13.7,8.3-28,9.3-56,18.4-85.8,19.5-1.5,0-3.4,1-4.2-.5-.8-1.5.1-3.1,1-4.7,4.4-7.8,8.7-15.6,14.5-22.5.3-.2.6-.4.9-.7,0,0-.2,0-.2,0,.4-.3.8-.7,1.2-1,0,0,0,0,0,0,.4-.4.7-.7,1.1-1.1,0,0,0,0,0,0,.9-.4,1.2-1.1,1.1-2,0,0,0,0,0,0,4.1-.6,6.5-2.9,7-7,0,0,0,0,0,0,.7,0,1-.4,1-1,0,0,0,0,0,0,.4-.5.7-1,1.1-1.6ZM337.5,990.3c0-1.1,0-1.5.1-1.7.4-.7.9-1.4,1.5-2,8.1-8.6,17.4-15.4,28.7-19.1,4.5-1.5,9.2-1.9,13.8-1.2,6.6,1,8,4.7,4.1,10.1-2.6,3.6-6,6.3-9.6,8.6-15,9.5-30.9,16.7-48.5,20.1-2.8.6-5.8.9-8.7,3,4.1,2.7,8.3,2.3,12.2,1.5,18.5-3.8,35.3-11.4,50.8-22.2,4.3-3,8-6.6,10.2-11.4,2.7-5.8.4-11.4-5.6-13.9-2.2-.9-4.4-1.3-6.8-1.3-14.3,0-25.8,6.7-36.2,15.7-4,3.5-8,7.1-10.1,12.2-.6,1.6-2.5,3.2-.9,5,1.6,1.9,3.7,1.1,5.5.3,8.3-3.5,15.9-8.3,22.6-14.3.8-.7,2-1.4,1-3.5-8.7,3.2-15.3,10.3-24.3,13.9Z"/>
        <path class="cls-3" d="M530.2,662.6c-6.9-6.2-15-12.8-22.4-20.1-10.3-10.2-20-21-30.9-30.5-7.3-6.3-14.4-12.7-22.2-18.3-15.9-11.3-34-14.5-53.1-12.8-11.2,1-22,3.7-31.2,10.6-6.2,4.6-10.8,10.4-12,18.3-.3,2.2-1.1,2.8-3.2,2.3-6.6-1.8-12.5-4.8-16.5-10.5-4.8-6.8-4.9-14.2-.5-21.1,6.1-9.7,15.3-14.5,26.4-16.8,19.7-4.1,37.8,1.6,56.4,7,36.4,10.4,62.5,35,87.8,60.8,5.9,6.1,11.4,12.6,17.3,18.7,4.2,4.3,4.6,9.1,4.1,12.5Z"/>
        <path class="cls-6" d="M338.2,850.5c-12.5,2.5-24.2,1.7-35.5-4.2-4.7-2.4-9.7-3.7-14-7.2-7.5-6.2-9.9-14.1-10.1-23.2-.4-12.9,4.6-24.1,10.5-34.9,9.3-17.3,23.8-30,39.2-43.3-2.3,6.5-3.5,12.2-6.2,17.2-10.3,19.4-11.2,39.5-6.1,60.3,2.6,10.7,6.9,20.3,15.6,27.7,2.4,2.1,3.4,5.8,6.7,7.6Z"/>
        <path class="cls-3" d="M332.7,267.8c4.9,24.1-.9,45.2-10.9,65.7-6.1,12.5-13,24.7-16.6,38.4-2.1,8-2.9,16-1,24.1.9,3.9-1.1,7.5-.9,11.4.7,11.3,2.5,22.5,5.4,33.4,9.5,35.8,24.4,68.9,48.9,97.2,2.9,3.4,6.1,6.6,9.3,9.8,1.6,1.7,2.5,4.2.9,5.5-1.4,1.2-4.1,2-6.2-.4-29.1-32.4-52.3-68.4-66.1-109.9-9.2-27.8-6.1-55,4.3-81.9,6.4-16.6,13.9-32.7,21-49,6-13.7,11-27.8,11.8-44.1Z"/>
        <path class="cls-6" d="M415.5,915.4c6.8-9,16.3-13.4,26.6-16.1,12-3.2,24.2-2.9,36.6-2.9,25.8,0,51.9,1.1,77-7.2,3-1,5.9-2.2,9.8-3.6-4.5,6.1-9.3,10.4-14.7,14.1-13.8,9.7-28.4,17.7-45.6,20-10.3,1.4-20.1-1-30-3.1-9.2-2-18.4-4.3-27.8-5.2-10.8-1.1-21.5,0-31.9,4.1Z"/>
        <path class="cls-3" d="M529.4,644.9c-13.7-16.1-27.6-30.4-42.5-43.6-9.2-8.2-19.3-15.3-29.8-21.8-6.3-3.9-12.8-7.7-18.4-12.5-8.4-7.3-12.5-17.1-14.3-28-2.5-15-.3-29.4,5.3-43.5.9-2.3,1.8-4.7,5.4-5-.1,9.8.8,19.5,3.1,29,4.6,19.6,12.2,37.9,25.6,53.4,5.1,5.9,10.7,11.2,17.9,14.8,2.9,1.4,4.9,4.4,7.4,6.6,13.6,12.5,26.2,26,38.2,40.1,2.5,2.9,1.9,6.1,2.1,10.5Z"/>
        <path class="cls-3" d="M282.8,395.7c.4-30.5,29.9-119,45.9-138.3,1.4,6.8.1,13.1-.9,19.3-2.4,14.3-9,27-15.1,39.9-9.4,19.9-20,39.4-25.7,60.9-1.5,5.6-2.6,11.2-4.2,18.2Z"/>
        <path class="cls-3" d="M371.9,519.7c-7.4-18.7-16.4-36.7-19.9-56.7-.8-4.6-1.8-10.1,2.7-12.8,4.5-2.7,8.3,1.4,11.9,4,.5.4,1,.9,1.5,1.3,5.6,4.1,9.6,8.5,6,16.4-1.9,4.2,0,9.2-.3,13.8-.4,6.7,0,13.6-2.1,20.2-1.5,4.5.8,9.1.2,13.8Z"/>
        <path class="cls-3" d="M432.1,565.8c-15.4-5.9-30.8-10.7-47.1-12.4-3.1-.3-3.1-3-3.5-5.2-1.4-8.3-.3-16.9-2.1-25.1-.9-3.8-2.3-7.5-1.8-13.1,2.3,6.5,4.7,11.3,7.5,15.9,4.4,7.3,10.4,12.9,16.9,18,4.3,3.4,9.4,2.8,14.3,3.2,1.2,0,3-.9,3.5.9,2.2,7.3,7.8,12.1,12.3,17.9Z"/>
        <path class="cls-1" d="M577.2,92.7c-5.7,6.5-13.6,9.5-21,13.2,6.4-5.3,13.1-10.2,21-13.2Z"/>
        <path class="cls-3" d="M615.3,455.6c3.3,4.8,4.6,10.5,7,15.7-2.7.2-3-2.3-3.7-3.9-1.6-3.8-3-7.7-3.4-11.9Z"/>
        <path class="cls-1" d="M752.1,447.9c-3.2,4.3-5.8,9.3-11.1,11.6,2.6-4.9,6.9-8.2,11.1-11.6Z"/>
        <path class="cls-3" d="M564.3,390.4c2.4,4.7,1.8,9.6.7,14.5-1.4-4.8-.9-9.6-.7-14.5Z"/>
        <path class="cls-1" d="M448.4,316c-5.5,2.3-4,7.1-4.3,11.3-1-2.5-.9-5.2-.5-7.7.3-2.6,1.3-4.9,4.8-3.6Z"/>
        <path class="cls-1" d="M325.4,982c-.6,4.1-2.9,6.5-7,7,2.1-2.6,4-5.3,7-7Z"/>
        <path class="cls-1" d="M525.8,256.9c0,.6,0,1.2,0,1.8-1.5,2.1-3,4.3-6.9,6.1,2.9-3.4,4.3-6.1,6.8-8Z"/>
        <path class="cls-1" d="M648.1,801.4c.3,2.1.6,4.1.8,6.2-1.5-.7-2.8-1.7-4.5-1.7.7-2.1,1.9-3.5,3.7-4.5Z"/>
        <path class="cls-1" d="M507.3,144.8c.2,2.3-.7,3.7-3.1,4,.4-1.8,1.5-3.1,3.1-4Z"/>
        <path class="cls-1" d="M504.3,148.8c0,2.1-.8,3.6-3,4.1.5-1.7,1.4-3.2,3-4.1Z"/>
        <path class="cls-1" d="M737.1,465.5c-.1,1.9-.6,3.7-2.1,5.1.1-1.9,1-3.5,2.1-5.1Z"/>
        <path class="cls-3" d="M637,536.8c2,.8,2.9,1.7,3.1,3.6-1.6-.6-2.4-1.5-3.1-3.6Z"/>
        <path class="cls-1" d="M511.3,140.1c-.5,1.3-1.1,2.5-2.7,2.8.9-.9,1.8-1.9,2.7-2.8Z"/>
        <path class="cls-6" d="M448.7,712.4c1.6-.2,2,.9,2.5,1.8-1.7.6-2-.6-2.5-1.8Z"/>
        <path class="cls-1" d="M735.1,470.5c-.3,1.2.2,2.6-1,3.6,0-1.3,0-2.6,1-3.6Z"/>
        <path class="cls-1" d="M501.3,152.8c0,1.5-.6,2.6-2.1,3,.4-1.3.9-2.4,2.1-3Z"/>
        <path class="cls-1" d="M739.1,462.5c0,1.4-.7,2.5-1.9,3.1.3-1.2.7-2.4,1.9-3.1Z"/>
        <path class="cls-1" d="M741.1,459.5c0,1.5-.7,2.5-2.1,3.1.2-1.4.8-2.4,2.1-3.1Z"/>
        <path class="cls-6" d="M634.9,811.9c.6-.4,1.1-1.8,2-.8.5.5-.6,1.2-1.2,1.6-.3-.3-.5-.5-.8-.8Z"/>
        <path class="cls-6" d="M658.9,749c.5-.5,1.2-.9,1.6-.4.5.7-.5.8-.8,1.2-.2-.3-.5-.6-.8-.8Z"/>
        <path class="cls-1" d="M579.8,91.1c-.5.3-1,.5-1.5.8.5-.3,1-.5,1.5-.8Z"/>
        <path class="cls-1" d="M318.4,988.9c0,.9-.2,1.7-1.1,2-.5-1.2.4-1.6,1.1-2Z"/>
        <path class="cls-1" d="M508.3,143.4c0,.7-.2,1.3-1.1,1.5.4-.5.7-1,1.1-1.5Z"/>
        <path class="cls-3" d="M558.8,385.2c.3-.2.7-.5.8-.5.5.4.4.8-.1,1.1-.2-.2-.5-.4-.7-.7Z"/>
        <path class="cls-1" d="M512.3,139.2c-.2.2-.5.5-.7.7.2-.2.5-.5.7-.7Z"/>
        <path class="cls-1" d="M513.3,138.2c-.3.2-.5.4-.7.7.2-.2.4-.4.7-.7Z"/>
        <path class="cls-4" d="M411.2,663.9c0,.4,0,.8.1,1.2-.4-.2-.8-.3-1.1-.5.3-.2.7-.5,1-.7Z"/>
        <path class="cls-1" d="M514.1,137.3c-.2.1-.4.3-.5.5,0-.3.2-.5.5-.5Z"/>
        <path class="cls-1" d="M499.3,155.7c-.3.2-.6.4-.8.6.3-.2.6-.4.8-.6Z"/>
        <path class="cls-3" d="M697.4,599.7c-.3.3-.8.8-.9.7-.7-.5-.3-1,0-1.5.3.3.6.5.8.8Z"/>
        <path class="cls-1" d="M752.5,447.4s.1,0,.1,0c0,0-.1,0-.1,0Z"/>
        <path class="cls-3" d="M636.4,535.2c.5.4,1.1.8.4,1.4-.1.1-.8-.2-1.2-.3.2-.4.5-.7.7-1.1Z"/>
        <path class="cls-4" d="M765,498.9c0,0-.1.2-.2.3-.2-.1-.3-.2-.5-.3.1,0,.2-.3.3-.3.1,0,.2.2.3.3Z"/>
        <path class="cls-1" d="M578.2,91.9c-.4.3-.7.6-1.1,1,0-.8.5-.9,1.1-1Z"/>
        <path class="cls-1" d="M327.4,979.5c-.4.5-.7,1-1.1,1.6,0-.8.5-1.2,1.1-1.6Z"/>
        <path class="cls-1" d="M326.4,980.9c0,.7-.3,1.1-1,1,0-.7.3-1.1,1-1Z"/>
        <path class="cls-4" d="M454.5,311.5c.2.4.3.7.5,1.1-.4,0-.8-.1-1.2-.2.2-.3.5-.6.7-.9Z"/>
        <path class="cls-1" d="M317.4,990.9c-.4.4-.7.7-1.1,1.1-.1-.8,0-1.4,1.1-1.1Z"/>
        <path class="cls-1" d="M316.4,991.9c-.4.3-.8.7-1.2,1,.2-.6.4-1.2,1.2-1Z"/>
        <path class="cls-1" d="M315.4,992.9c-.3.2-.6.4-.9.7.3-.2.6-.4.9-.7Z"/>
        <path class="cls-5" d="M687.6,713.1c2.3,4,4.3,6.8,5.6,9.8,13.8,31.6,30,61.5,56,85,1.7,1.6,3.8,3.2,4.8,6.3-4.7-1-7.7-3.8-10.7-6.5-15.7-14.2-27.9-31.1-38.5-49.3-6.1-10.5-11.9-21.1-16.3-32.4-1.5-3.8-1.8-7.5-1-12.8Z"/>
        <path class="cls-1" d="M731.1,678.1c3.5.3,6.9.6,10.4.8,2.5.2,4.5,1.1,5.6,3.4-5.2-1.9-11-1.7-16-4.2Z"/>
        <path class="cls-1" d="M747.1,682.3c.7.5,1.4,1,1.2,2-.9-.4-1.1-1.2-1.2-2Z"/>
        <path class="cls-1" d="M729.7,677.5c.6,0,1.3,0,1.6.7-.5-.2-1.1-.5-1.6-.7Z"/>
        <path class="cls-1" d="M748.1,684.2c1,0,1.2.7,1.1,1.6-.4-.5-.7-1.1-1.1-1.6Z"/>
        <path class="cls-5" d="M337.5,990.3c9-3.7,15.6-10.7,24.3-13.9.9,2.1-.3,2.8-1,3.5-6.8,6-14.3,10.7-22.6,14.3-1.8.8-3.9,1.6-5.5-.3-1.5-1.8.3-3.5.9-5,2.1-5.1,6.1-8.7,10.1-12.2,10.4-9,21.9-15.7,36.2-15.7,2.4,0,4.7.4,6.8,1.3,6,2.4,8.2,8,5.6,13.9-2.2,4.8-6,8.4-10.2,11.4-15.4,10.8-32.3,18.4-50.8,22.2-3.9.8-8.1,1.2-12.2-1.5,2.9-2.1,5.9-2.5,8.7-3,17.5-3.4,33.5-10.6,48.5-20.1,3.7-2.3,7.1-5,9.6-8.6,3.9-5.4,2.5-9.1-4.1-10.1-4.6-.7-9.3-.3-13.8,1.2-11.4,3.7-20.7,10.5-28.7,19.1-.6.6-1,1.3-1.5,2-.1.2,0,.6-.1,1.7Z"/>
      </g>
    </g>
  </g>
</svg>