<?xml version="1.0" encoding="UTF-8"?>
<svg xmlns="http://www.w3.org/2000/svg" version="1.1" viewBox="0 0 1080 1080">
  <defs>
    <style>
      .cls-1 {
        fill: #a6cca9;
        stroke: #262424;
        stroke-miterlimit: 10;
      }

      .cls-2 {
        fill: #080b0e;
      }

      .cls-3 {
        fill: #fff;
      }

      .cls-4 {
        fill: #757bb4;
      }

      .cls-5 {
        fill: #ebde86;
      }

      .cls-6 {
        fill: #dcbfd8;
      }
    </style>
  </defs>
  <!-- Generator: Adobe Illustrator 28.6.0, SVG Export Plug-In . SVG Version: 1.2.0 Build 709)  -->
  <g>
    <g id="Layer_1">
      <g>
        <path class="cls-5" d="M204.3,461.8c9.3-1.4,14.4-.1,14.3,12.1-1.5,142.4-2.3,284.9-3.4,427.3,0,4.5,2.4,11.4-3.4,12.6-11,2.3-20.1-3-27.5-11.3,4.7-43.4,4.4-86.9,4.5-130.4,3.3-86.2,6.8-172.5,9.8-258.7.4-12-1.8-24-2.8-36,4.9-4.1,8.3-8.9,8.4-15.6Z"/>
        <path class="cls-1" d="M457.1,218c.2,16.1-7.2,29.4-15.3,42.5-3.5,5.6-7.9,13.5-2.5,17.5,6.2,4.6,13-1.8,17.9-6.9,8.6-8.9,15.5-19.6,18-31.1,3.8-17.4,13.8-20.5,29.9-23.4,74-13.3,148.3-21.9,223.5-23.2,14-.2,29.2-1,39.5-13.6,5.4-.1,10.7-.3,16.1-.4,1.9,33.4-4.5,62.7-39.7,77.7,15.8,11.6,28.8,9.2,41.9-7.7,16-20.7,19.5-45.5,22.1-70.5,6.1-.2,12.1-.4,18.2-.6,6.6,0,12.5,1.6,18.4,4.8,36.5,20.1,64.5,84.1,57.1,125.6-4.7,26.6-17.4,40.4-44.3,45.9-69.7,14.3-140.1,23.5-210.5,32.3-70.6,8.7-141.5,14.7-212.8,16.8-52.9,1.5-104.6-7.3-157-10.5-14.2-.9-13.4-12.4-14.8-21-7.6-47.8,17.3-90.4,64-110.7,24.7-10.7,51.1-14.1,77.1-19.8,7.6-1.7,25.8,1.4,18.4-18,11.7-1.9,23.3-3.8,35-5.7Z"/>
        <path class="cls-5" d="M780.1,893.6c8.7-52.1,10.9-104.4,12.4-156.7.3-10.9,4.8-14.9,14.4-18.8,17.6-7.1,36.2-13.4,48.7-32.4-19.2.8-33,11.6-48.6,16.9-11.1,3.8-13.7,1.8-14.3-9.7-1.8-38.8-4.3-77.6-7.6-116.3-.8-9.9,2.1-11.6,10.9-13.6,22.5-5.3,47.1-1.9,70.4-16.8-23.1-10.1-43.9-1.4-64.2,1.2-12.1,1.5-17.9,2.8-20.2-13.1-3.9-27.8-2.5-56.6-12.2-83.5-2.3-6.4.9-9,5.8-10.8,23.6-8.9,44.7-22.5,65.9-35.8,13.2-8.3,22.1-4.8,23.9,11.4,12.7,112.4,32.2,224.2,33.9,337.6,1.1,73.4-46.4,127.6-119.2,140.6Z"/>
        <path class="cls-5" d="M307.7,615.8c-9.9-56-2.8-112.1-10.9-170.2,95.3,29.6,190.7,17.1,284.8,22.2,11.6.6,16.1.8,16.7,14.9.9,23.2,6,46.3,9.5,69.5,2,13,.3,20.4-16.4,21.8-35.4,3.1-70.6,8.8-105.7,14.3-14.5,2.3-20.1-.7-19.1-16.8,1.4-21.8,0-43.7,0-65.6,0-10.5-.6-20.7-12.4-36.2-1.4,30.9-2.9,55.2-3.6,79.5-1.2,43.5-1.1,42.8-43.7,49.6-33.2,5.3-66.9,7.7-99,17Z"/>
        <path class="cls-5" d="M382.4,915.7c-38.4-23.7-53.4-62.1-60.6-103.2-10.6-60.5-16.7-121.8-13.8-182.5,41.1.2,81.5-8.5,122.1-13.8,15.5-2,19.5.8,18.9,16.3-1.2,33.2-1,66.4-.4,99.6.2,12.5-3.5,16.9-16.5,16.4-24.3-.9-48.6.2-72.9.3-11.9,0-23.5.8-34.9,8.5,10,10.1,21.8,10.9,33.7,11,22.7.2,45.4,1,68-.2,16.2-.9,22.8,2.9,22.1,20.9-1.5,38.8-.4,77.7-.6,116.6,0,29.9-.2,29.9-30,22.4-5.1-19.1-14.5-22.4-35.1-12.4Z"/>
        <path class="cls-5" d="M273.5,446.3c5.2,8.7,3.1,18.5,3.6,27.8,4.9,93,8,186.1,14.9,279,3.2,43.2,8.2,87,28,127.3,7.8,15.9,17.4,30.5,31.3,46-39.7,5.9-75.4,1.8-111-3.6-12.9-1.9-10.5-11.9-10.5-20.8-.4-129.7-.8-259.5-1.3-389.2,0-8.9,1.1-18-.3-26.7-3.6-21.9,4.1-33.5,30.6-33.5v461c2.6,0,5.1,0,7.7,0v-467.3c2.3,0,4.7,0,7,0Z"/>
        <path class="cls-5" d="M627.5,851.8c.7,84.1.7,84.4-70.2,87.3-22.6.9-45.3-.8-68,.1-15.2.6-21.5-3.7-21.2-20.1.8-43.7.2-87.5-.5-131.2-.2-11.2,2.1-16.3,14.7-15,42.9,4.2,85.8,2.6,128-6.2,12.5-2.6,13,3.1,13.4,12.3,1.2,29.1,3,58.2,3.8,72.9Z"/>
        <path class="cls-5" d="M467.2,679.3c0-4.9,0-9.7,0-14.6q0-54.3,52.8-61.1c24.9-3.2,49.7-6.6,74.5-10.3,11.6-1.7,18.3.3,18,14.4-.9,38.2,4,76,9.8,113.6,2.5,16.1-2.2,22-19.2,24.5-37.8,5.6-75.4,9.8-113.6,6.7-15.8-1.3-25.3-5.5-22.8-24.6,2.1-15.9.4-32.4.4-48.6h.1Z"/>
        <path class="cls-5" d="M772.7,731.1c4,54.8-3,107.6-8.8,160.5-.7,6.3-2.3,10.7-8.8,12.7-30.8,9.4-60.6,22.1-93.3,24.8-9.7.8-15.6-.4-14.3-12.2,5.2-46.9-2.6-93.6-2-140.4.2-13.4,4.8-17.5,17-20.1,36.2-7.5,72.1-16.4,110.2-25.3Z"/>
        <path class="cls-5" d="M604.5,468.1c45.2-10.1,90.2-18.3,136.2-21.3,14.3-1,20.9,1.6,21.9,16.2,1.7,24.9,3.9,49.9,6.1,74.8.8,9.6-1.8,14.8-12.6,16-38.5,4.1-76.9,8.7-115.3,14-12,1.7-12.4-4.2-14-13.2-5.3-29.2-8.4-59.1-22.3-86.4Z"/>
        <path class="cls-5" d="M772.5,643.2c.4,22.5,11.3,50.3-2,66.1-13,15.4-41.9,11.9-63.8,16.4-16.6,3.4-33.5,5.9-49.8,10.3-10,2.7-13.4,0-13.9-9.6-2-40.4-10.3-80.3-11.2-120.9-.3-13.5,4-18.4,16.4-20.2,35.2-5.1,70.3-10.6,105.3-16.5,13.7-2.3,19.5,2.1,19.2,16.1-.4,19.4-.1,38.9-.1,58.4ZM661.2,597.3c-2.2,1.4-5.6,2.5-7.2,4.8-5,7,.9,11.8,4.1,17.2,14.8,25.1,45.6,47.2,14.4,81-4,4.3-2,12.5,4.9,16.7,6.2,3.8,11.3.8,15.3-3.1,4-3.8,7.2-8.7,9.8-13.7,4.7-8.9,8.2-18.8,19.9-6.4,3.2,3.4,9,4.5,13.4.8,5.4-4.6,4.5-11.2.6-15.2-17.4-17.9-4.4-33.1,2.2-49.9,3.8-9.6,20.2-22.1,2.9-30.5-14.3-7-21.1,9.6-25.2,20-8.5,21.8-15.8,15.4-26.7,2-7.4-9.2-15.2-19.1-28.4-23.7Z"/>
        <path class="cls-1" d="M248.5,311.4c-10.1,40.7-12.1,80.1,17.7,113.7-3,6.4-8.2,6.2-12.7,7.8-46.4,17-58.5,24.3-58-46,.3-38,27.9-56.1,49.7-79.2,1.1,1.2,2.2,2.4,3.3,3.6Z"/>
        <path class="cls-1" d="M697.9,400.7c-1,15.8-7.5,22.1-22.3,24.7-55,9.9-110.2,14.9-166.1,11.3-6.2-.4-16,3.9-16.1-8.2-.1-10.5,8.9-7.3,14.2-7.9,21.6-2.4,43.7-2.4,65-6.4,17.1-3.2,6.5,23.4,21.9,17.8,8.3-3-6.6-20.1,12.8-20.9,29.6-1.1,59.1-6.6,90.5-10.5Z"/>
        <path class="cls-1" d="M815,382.7c.4,13.6-7.3,17.5-15.6,21.4-22.9,10.8-47,16.8-72.2,17.4-5.8.2-15.9,5.4-16.5-6.8-.4-8.1,1.1-16.2,11.9-17.8,30.7-4.6,61.4-9.4,92.3-14.2Z"/>
        <path class="cls-1" d="M287,410.1c31.4,3.7,62,12.5,93.8,12.7,4.4,0,7.6,1.6,7.8,6.8.2,5.1-2.4,7.4-7.2,7.2-33.4-1.9-66.6-4.5-94.4-26.7Z"/>
        <path class="cls-3" d="M188.8,772.1c0,43.5.2,87-4.5,130.4-8.7-6.6-10.2-15.9-9.7-25.9,1.7-35.2,7.7-69.9,14.2-104.5Z"/>
        <path class="cls-1" d="M439.3,421.9c11.8,5.8,34.3-9.5,35.3,9.4.7,12.3-23,6-35.1,5.7-12.3-.2-34.5,10.9-35.4-8.9-.5-11.3,22.9-1.3,35.2-6.2Z"/>
        <path class="cls-6" d="M245.2,307.8c1.8-.5,3.6-1,5.4-1.5-.7,1.7-1.4,3.4-2.1,5.2-1.1-1.2-2.2-2.4-3.3-3.6Z"/>
        <polygon class="cls-4" points="280.1 404.8 280.6 406 279.2 405.7 280.1 404.8"/>
        <path class="cls-2" d="M661.2,597.3c13.3,4.6,21,14.6,28.4,23.7,10.9,13.4,18.2,19.8,26.7-2,4.1-10.5,10.9-27,25.2-20,17.3,8.4.8,20.9-2.9,30.5-6.6,16.7-19.7,32-2.2,49.9,3.9,4,4.9,10.6-.6,15.2-4.4,3.7-10.2,2.6-13.4-.8-11.8-12.4-15.2-2.5-19.9,6.4-2.6,4.9-5.8,9.9-9.8,13.7-4,3.8-9.1,6.8-15.3,3.1-7-4.2-8.9-12.3-4.9-16.7,31.2-33.8.4-55.9-14.4-81-3.2-5.4-9.1-10.3-4.1-17.2,1.7-2.3,5-3.4,7.2-4.8Z"/>
        <path class="cls-2" d="M437.5,959.9c-53.5-24.1-109.9-4.6-164.5-11.2-24.1-2.9-48-6.9-71.2-14.3-33.6-10.7-50.6-33.1-44.8-67.7,21.2-128.2,19.9-257.9,27.5-387,.3-4.3-4.2-12.9,5.9-12,2.1.2,3.7,6.3,5.5,9.7,1,12,3.2,24.1,2.8,36-3,86.2-6.4,172.5-9.8,258.7-6.5,34.6-12.5,69.3-14.2,104.5-.5,10,1,19.3,9.7,25.9,7.3,8.2,16.5,13.6,27.5,11.3,5.8-1.2,3.3-8.1,3.4-12.6,1.1-142.4,1.9-284.9,3.4-427.3.1-12.2-5-13.5-14.3-12.1-16.9-8.2-24.9-21.7-26-40.4-.5-8.2,1.1-18-8.9-23.7-6.1-3.5-4.3-9.2-1.9-14.9,5.6-13.3,11.5-26.4,13.5-41.1.9-6.3,5-11.2,15-14.4,17.8-5.7,27-26.5,44.1-36.5,25.3-14.8,49.5-31.4,74.7-46.3,8.6-5.1,14.5-6.4,12.2-20.6-4.4-26.5,2-53.2,14.6-77.4,15.6-29.7,47.8-48,75.2-44,31.9,4.7,56.3,27.7,64.9,61.1,8.4,32.7,8.4,32.8,42.9,26,39-7.6,78.2-13.3,117.9-14.6,10.6-.3,13.9-.5,12.9-14.1-2.7-37.4,23.4-76,53.2-84.3,40.7-11.2,80.7,13.4,93.7,59.2,3.9,13.8,4.2,28.7,6.1,43.1-2.6,25-6.1,49.8-22.1,70.5-13.1,16.9-26.1,19.4-41.9,7.7,35.2-15,41.6-44.3,39.7-77.7,2.3-17.4-1.7-33.8-8.9-49.4-9.1-19.7-23.7-34-46.5-33-22,1-37.8,14.2-45.8,34.6-5.2,13.3-7.6,27.7-11.8,43.9,13.2,0,25.3-.4,37.3,0,19.9.8,40.4-6.6,59.6,4.1-10.3,12.7-25.5,13.4-39.5,13.6-75.2,1.3-149.5,9.9-223.5,23.2-16.1,2.9-26,6-29.9,23.4-2.5,11.5-9.5,22.2-18,31.1-4.9,5.1-11.7,11.5-17.9,6.9-5.4-4-1-11.9,2.5-17.5,8.1-13.1,15.5-26.4,15.3-42.5,8.6-21,4.3-41.5-4.3-60.8-7.9-17.8-21.8-30.3-42.7-30.9-20.5-.6-35.5,9.9-45.7,26.8-12.5,20.7-14.9,43.9-15.2,67.6-.1,11.4,4,10.2,12.9,8.9,19.8-3.1,40-4.1,60-5.9,7.4,19.4-10.8,16.4-18.4,18-26,5.7-52.4,9.1-77.1,19.8-46.6,20.3-71.6,63-64,110.7,1.4,8.6.6,20.1,14.8,21,52.3,3.3,104,12.1,157,10.5,71.3-2.1,142.2-8.1,212.8-16.8,70.4-8.7,140.8-17.9,210.5-32.3,26.9-5.5,39.6-19.3,44.3-45.9,7.3-41.5-20.7-105.6-57.1-125.6-5.9-3.3-11.8-4.9-18.4-4.8-2.6-6.1-15.8-.8-13-10.2,1.2-3.9,10.7-7.6,16.4-7.6,18.8,0,34.2,9.2,46.8,22.4,67.1,70.8,60.5,157.5,1.5,203.4-5.1,4-5.2,6.6-4.1,13.5,12.5,77.3,24.3,154.7,35.3,232.3,5.9,41.7,11.8,83.4,10.6,125.8-1.4,49.9-21.7,89.2-58.4,123.3-26.2,24.4-58.8,31.9-89.3,45-32.6,14-65.7,27.7-101.5,31.9-32.2,3.8-64.4,7.5-96.6,11.3-46.1,3.6-91.8.8-136.9-9.6ZM245.2,307.8c-21.8,23.1-49.4,41.2-49.7,79.2-.6,70.3,11.5,62.9,58,46,4.5-1.6,9.8-1.5,12.7-7.8-29.8-33.6-27.8-73-17.7-113.7.7-1.7,1.4-3.4,2.1-5.2-1.8.5-3.6,1-5.4,1.5ZM382.4,915.7c10.4,7.9,22.2,11.8,35.1,12.4,29.8,7.5,29.9,7.5,30-22.4.1-38.9-.9-77.8.6-116.6.7-18-5.9-21.8-22.1-20.9-22.6,1.2-45.3.3-68,.2-11.9,0-23.7-.9-33.7-11,11.4-7.7,23-8.4,34.9-8.5,24.3-.1,48.6-1.2,72.9-.3,13,.5,16.7-3.9,16.5-16.4-.6-33.2-.8-66.4.4-99.6.6-15.6-3.4-18.3-18.9-16.3-40.6,5.2-81,14-122.1,13.8-2.9,60.8,3.2,122,13.8,182.5,7.2,41.1,22.3,79.5,60.6,103.2ZM780.1,893.6c72.9-12.9,120.4-67.2,119.2-140.6-1.7-113.4-21.2-225.2-33.9-337.6-1.8-16.2-10.7-19.7-23.9-11.4-21.2,13.4-42.3,26.9-65.9,35.8-4.9,1.8-8.2,4.4-5.8,10.8,9.7,26.9,8.2,55.7,12.2,83.5,2.2,15.9,8.1,14.7,20.2,13.1,20.3-2.6,41.1-11.3,64.2-1.2-23.3,14.9-47.8,11.5-70.4,16.8-8.8,2.1-11.7,3.8-10.9,13.6,3.3,38.7,5.7,77.5,7.6,116.3.5,11.5,3.1,13.5,14.3,9.7,15.6-5.3,29.4-16.1,48.6-16.9-12.5,19-31.1,25.4-48.7,32.4-9.6,3.9-14.1,7.8-14.4,18.8-1.5,52.3-3.7,104.6-12.4,156.7ZM307.7,615.8c32.2-9.3,65.8-11.7,99-17,42.6-6.8,42.5-6.1,43.7-49.6.7-24.3,2.2-48.6,3.6-79.5,11.8,15.5,12.4,25.8,12.4,36.2,0,21.9,1.4,43.8,0,65.6-1,16.1,4.6,19.1,19.1,16.8,35.1-5.6,70.3-11.2,105.7-14.3,16.7-1.5,18.4-8.8,16.4-21.8-3.5-23.1-8.6-46.2-9.5-69.5-.5-14.1-5.1-14.3-16.7-14.9-94.1-5.1-189.5,7.5-284.8-22.2,8.2,58.1,1,114.1,10.9,170.2ZM273.5,446.3c-2.3,0-4.7,0-7,0v467.3c-2.6,0-5.1,0-7.7,0v-461c-26.5,0-34.2,11.6-30.6,33.5,1.4,8.7.3,17.8.3,26.7.4,129.7.9,259.5,1.3,389.2,0,8.8-2.3,18.8,10.5,20.8,35.7,5.3,71.4,9.5,111,3.6-13.9-15.5-23.5-30.1-31.3-46-19.8-40.2-24.8-84-28-127.3-6.9-92.9-10-186-14.9-279-.5-9.3,1.6-19.1-3.6-27.8ZM627.5,851.8c-.8-14.7-2.5-43.8-3.8-72.9-.4-9.2-.9-14.9-13.4-12.3-42.3,8.8-85.1,10.4-128,6.2-12.5-1.2-14.9,3.9-14.7,15,.7,43.7,1.3,87.5.5,131.2-.3,16.5,5.9,20.8,21.2,20.1,22.6-.9,45.3.8,68-.1,70.9-2.9,70.9-3.2,70.2-87.3ZM467.2,679.3h-.1c0,16.2,1.6,32.6-.4,48.6-2.5,19.1,7,23.4,22.8,24.6,38.2,3.1,75.8-1.1,113.6-6.7,17-2.5,21.7-8.4,19.2-24.5-5.8-37.6-10.7-75.4-9.8-113.6.3-14.1-6.3-16.2-18-14.4-24.8,3.7-49.6,7.1-74.5,10.3q-52.9,6.9-52.8,61.1c0,4.9,0,9.7,0,14.6ZM772.7,731.1c-38.1,8.8-74,17.7-110.2,25.3-12.2,2.5-16.8,6.6-17,20.1-.6,46.9,7.2,93.6,2,140.4-1.3,11.8,4.5,13,14.3,12.2,32.6-2.7,62.5-15.4,93.3-24.8,6.5-2,8.1-6.4,8.8-12.7,5.8-52.9,12.8-105.7,8.8-160.5ZM604.5,468.1c13.9,27.3,16.9,57.2,22.3,86.4,1.7,9.1,2,14.9,14,13.2,38.3-5.3,76.8-9.8,115.3-14,10.8-1.2,13.5-6.4,12.6-16-2.2-24.9-4.3-49.8-6.1-74.8-1-14.5-7.6-17.1-21.9-16.2-46,3.1-91,11.2-136.2,21.3ZM772.5,643.2c0-19.5-.3-38.9.1-58.4.3-14-5.5-18.4-19.2-16.1-35,6-70.2,11.4-105.3,16.5-12.4,1.8-16.7,6.6-16.4,20.2,1,40.6,9.2,80.5,11.2,120.9.5,9.6,3.9,12.3,13.9,9.6,16.3-4.4,33.2-6.9,49.8-10.3,22-4.5,50.8-1,63.8-16.4,13.4-15.8,2.5-43.6,2-66.1ZM697.9,400.7c-31.5,3.9-60.9,9.4-90.5,10.5-19.5.8-4.5,17.8-12.8,20.9-15.3,5.6-4.7-21.1-21.9-17.8-21.3,4-43.3,4-65,6.4-5.3.6-14.4-2.6-14.2,7.9.2,12.1,9.9,7.8,16.1,8.2,55.8,3.6,111-1.3,166.1-11.3,14.7-2.7,21.3-9,22.3-24.7ZM815,382.7c-31,4.8-61.6,9.7-92.3,14.2-10.8,1.6-12.3,9.7-11.9,17.8.6,12.2,10.7,6.9,16.5,6.8,25.2-.7,49.3-6.6,72.2-17.4,8.3-3.9,16-7.8,15.6-21.4ZM287,410.1c27.8,22.2,61,24.8,94.4,26.7,4.7.3,7.3-2.1,7.2-7.2-.2-5.2-3.4-6.7-7.8-6.8-31.8-.2-62.3-9-93.8-12.7ZM439.3,421.9c-12.3,4.9-35.7-5.1-35.2,6.2.9,19.8,23.1,8.7,35.4,8.9,12.1.2,35.8,6.6,35.1-5.7-1.1-18.8-23.5-3.5-35.3-9.4ZM280.1,404.8l-.9.9,1.3.3-.5-1.1Z"/>
      </g>
    </g>
  </g>
</svg>