<svg viewBox="0 0 374 373" fill="#000000" xmlns="http://www.w3.org/2000/svg">
<path d="M167.041 24.4192H163.297V0.425049H166.584L179.785 18.0735V0.425049H183.511V24.4192H180.224L167.041 6.77075V24.4192Z" fill="black"/>
<path d="M211.08 9.90595L208.23 25.6104L204.701 24.9701L204.949 23.6037C203.135 24.543 201.414 24.8737 199.771 24.5755C198.474 24.3401 197.274 23.7651 196.174 22.8331C195.012 21.854 194.177 20.6484 193.683 19.2367C193.175 17.8046 193.051 16.3173 193.331 14.7779C193.789 12.2528 195.082 10.3437 197.214 9.03327C199.022 7.9321 200.877 7.55415 202.796 7.90254C204.422 8.19758 205.918 9.11212 207.303 10.632L207.551 9.26566L211.08 9.90595ZM202.423 11.1399C201.092 10.8982 199.894 11.1989 198.798 12.0184C197.805 12.7671 197.17 13.9025 196.894 15.4245C196.577 17.1714 196.871 18.6004 197.757 19.7259C198.483 20.6438 199.435 21.2095 200.628 21.4261C201.994 21.674 203.207 21.3938 204.264 20.5853C205.261 19.8193 205.902 18.6493 206.188 17.0754C206.498 15.3631 206.221 13.9372 205.333 12.8291C204.62 11.9316 203.651 11.3627 202.423 11.1399Z" fill="black"/>
<path d="M219.931 34.6974L228.491 11.8876L231.849 13.1476L231.361 14.4477C233.313 13.8475 235.066 13.8295 236.63 14.4162C237.864 14.8795 238.942 15.6595 239.857 16.7728C240.826 17.9437 241.432 19.2791 241.667 20.7563C241.911 22.2562 241.767 23.7416 241.217 25.2063C240.315 27.609 238.702 29.2566 236.37 30.1653C234.395 30.926 232.502 30.9666 230.676 30.281C229.129 29.7004 227.82 28.5336 226.728 26.7907L223.288 35.9574L219.931 34.6974ZM235.224 17.362C233.957 16.8864 232.73 16.9519 231.551 17.5421C230.418 18.1117 229.578 19.1483 229.016 20.646C228.398 22.2917 228.416 23.7442 229.087 25.0096C229.611 26.0138 230.452 26.7238 231.588 27.15C232.394 27.4526 233.232 27.5228 234.094 27.377C235.853 27.0421 237.092 25.8923 237.827 23.9339C238.45 22.2717 238.416 20.8131 237.745 19.5476C237.194 18.5147 236.359 17.7882 235.224 17.362Z" fill="black"/>
<path d="M271.334 29.4816L263.147 43.1833L260.069 41.3441L260.664 40.3481C259.115 40.7128 257.674 40.4863 256.331 39.6839C254.852 38.8004 253.849 37.5662 253.345 35.9755C252.712 34.0201 253.112 32.1503 254.672 29.5398L259.081 22.1608L262.159 24L257.894 31.1376C257.083 32.4956 256.663 33.5757 256.634 34.3776C256.594 35.4388 257.15 36.3241 258.327 37.0273C259.474 37.7125 260.885 37.8184 261.801 37.2801C262.517 36.8688 263.296 35.9419 264.162 34.4932L268.255 27.6424L271.334 29.4816Z" fill="black"/>
<path d="M297.381 35.8723L281.594 53.9416L278.894 51.5823L294.68 33.513L297.381 35.8723Z" fill="black"/>
<path d="M327.537 64.3683L324.843 66.5164L319.045 59.2463L313.85 63.3891L319.001 69.8483L316.28 72.0184L311.129 65.5591L305.701 69.8882L311.718 77.4332L308.996 79.6032L300.645 69.131L319.404 54.1709L327.537 64.3683Z" fill="black"/>
<path d="M347.414 92.1266L344.38 93.7593L341.548 88.4963L323.452 98.2338L321.678 94.9367L339.773 85.1993L336.933 79.9208L339.967 78.2882L347.414 92.1266Z" fill="black"/>
<path d="M333.573 113.576L356.393 106.162L357.55 109.723L347.954 112.841L351.245 122.972L360.841 119.854L361.998 123.415L339.179 130.829L338.022 127.268L347.935 124.047L344.644 113.916L334.73 117.137L333.573 113.576Z" fill="black"/>
<path d="M349.009 145.938C349.097 146.583 348.943 147.153 348.567 147.648C348.19 148.142 347.681 148.442 347.071 148.524C346.444 148.609 345.874 148.456 345.379 148.08C344.885 147.703 344.585 147.194 344.498 146.549C344.41 145.905 344.564 145.334 344.94 144.84C345.317 144.345 345.843 144.043 346.488 143.956C347.098 143.873 347.651 144.029 348.148 144.423C348.642 144.799 348.924 145.311 349.009 145.938Z" fill="black"/>
<path d="M348.959 186.823L349.648 171.475L352.704 171.612L361.921 180.683C363.708 182.435 365.356 183.354 366.884 183.422C367.867 183.466 368.672 183.168 369.317 182.529C369.906 181.939 370.227 181.056 370.279 179.897C370.342 178.51 370 177.492 369.256 176.825C368.732 176.344 367.855 175.9 366.641 175.493L367.743 172.112C369.325 172.552 370.563 173.188 371.493 174.04C373.131 175.556 373.884 177.596 373.77 180.142C373.662 182.548 372.841 184.376 371.288 185.644C370.027 186.695 368.475 187.171 366.631 187.088C364.366 186.987 362.331 186.068 360.562 184.317L352.877 176.758L352.418 186.978L348.959 186.823Z" fill="black"/>
<path d="M371.826 213.631C370.453 219.647 365.703 221.736 357.58 219.882C349.474 218.032 346.089 214.14 347.447 208.193C348.812 202.212 353.605 200.169 361.831 202.046C365.31 202.84 367.919 204.049 369.689 205.697C370.701 206.631 371.376 207.705 371.733 208.904C372.169 210.392 372.206 211.969 371.826 213.631ZM368.414 212.943C368.734 211.537 368.513 210.297 367.752 209.204C367.274 208.535 366.416 207.871 365.171 207.244C363.929 206.6 362.546 206.104 361.038 205.76C358.073 205.083 355.709 205.012 353.916 205.523C352.275 205.996 351.258 207.134 350.844 208.95C350.05 212.429 352.616 214.854 358.562 216.211C361.167 216.806 363.424 216.87 365.337 216.387C366.084 216.197 366.737 215.787 367.291 215.175C367.842 214.579 368.21 213.834 368.414 212.943Z" fill="black"/>
<path d="M338.397 243.649L344.436 229.522L347.248 230.724L352.69 242.455C353.747 244.723 354.968 246.162 356.374 246.763C357.279 247.15 358.138 247.154 358.966 246.782C359.725 246.437 360.336 245.723 360.792 244.656C361.338 243.379 361.376 242.306 360.913 241.42C360.592 240.786 359.926 240.062 358.933 239.255L361.153 236.476C362.479 237.444 363.415 238.475 363.986 239.598C364.987 241.594 364.976 243.768 363.974 246.112C363.027 248.326 361.616 249.749 359.717 250.391C358.167 250.932 356.546 250.832 354.849 250.107C352.764 249.216 351.181 247.641 350.141 245.38L345.602 235.602L341.582 245.01L338.397 243.649Z" fill="black"/>
<path d="M349.511 278.332L346.266 279.834L339.317 264.547L336.015 269.55L340.783 272.697L338.74 275.793L333.972 272.645L332.403 275.022L329.557 273.143L331.126 270.767L326.872 267.958L328.915 264.863L333.169 267.671L338.834 259.089L341.607 260.919L349.511 278.332Z" fill="black"/>
<path d="M319.481 287.651C319.031 288.121 318.49 288.357 317.868 288.371C317.247 288.385 316.695 288.174 316.25 287.749C315.793 287.311 315.557 286.77 315.543 286.148C315.529 285.527 315.741 284.975 316.19 284.505C316.64 284.035 317.181 283.799 317.803 283.785C318.424 283.771 318.988 283.995 319.458 284.444C319.903 284.869 320.126 285.399 320.128 286.033C320.142 286.654 319.918 287.194 319.481 287.651Z" fill="black"/>
<path d="M312.475 314.675L309.361 316.938L300.602 310.743L303.786 320.988L301.468 322.672L292.709 316.478L295.894 326.722L292.779 328.985L288.147 312.622L290.48 310.927L299.152 317.033L296.026 306.898L298.344 305.213L312.475 314.675Z" fill="black"/>
<path d="M267.166 334.411L278.031 329.179C277.499 328.479 276.901 327.967 276.246 327.619C275.021 326.98 273.716 326.984 272.306 327.663C270.802 328.388 269.775 329.74 269.572 331.263L269.508 331.859L266.164 332.045C266.467 328.543 268.044 326.106 270.911 324.726C273.128 323.658 275.315 323.58 277.495 324.501C279.487 325.356 280.975 326.786 281.959 328.829C283.096 331.188 283.21 333.533 282.288 335.831C281.545 337.691 280.266 339.048 278.477 339.91C276.434 340.893 274.357 340.957 272.263 340.092C271.193 339.652 270.205 338.938 269.3 337.91C268.62 337.145 268.051 336.288 267.593 335.337C267.517 335.179 267.372 334.878 267.166 334.411ZM279.236 331.681L271.571 335.373C272.243 336.161 272.934 336.745 273.668 337.094C274.768 337.637 275.909 337.615 277.065 337.058C279.029 336.112 279.844 334.12 279.236 331.681Z" fill="black"/>
<path d="M248.349 336.998L251.806 336.044L258.189 359.173L254.732 360.127L252.226 351.045C250.982 352.683 249.575 353.728 247.982 354.167C246.711 354.518 245.38 354.521 243.986 354.158C242.514 353.78 241.238 353.056 240.168 352.02C239.089 350.951 238.354 349.676 237.938 348.168C237.25 345.677 237.583 343.379 238.934 341.274C240.085 339.497 241.593 338.352 243.474 337.833C245.083 337.389 246.828 337.564 248.719 338.336L248.349 336.998ZM247.388 350.958C248.709 350.593 249.663 349.819 250.27 348.649C250.835 347.526 250.91 346.211 250.494 344.703C250.021 342.992 249.131 341.815 247.841 341.168C246.826 340.664 245.745 340.579 244.576 340.902C243.254 341.267 242.284 342.045 241.669 343.254C241.087 344.381 241.022 345.731 241.447 347.273C241.873 348.815 242.667 349.908 243.847 350.549C244.966 351.17 246.151 351.299 247.388 350.958Z" fill="black"/>
<path d="M223.556 349.41L220.706 350.884C220.126 349.93 219.592 349.29 219.121 348.962C218.648 348.616 218.071 348.474 217.406 348.534C216.653 348.601 216.096 348.881 215.769 349.369C215.471 349.784 215.351 350.219 215.394 350.691C215.422 351.006 215.535 351.279 215.732 351.508C215.948 351.753 216.664 352.06 217.859 352.393L219.544 352.877C221.918 353.563 223.201 354.878 223.377 356.838C223.505 358.256 223.085 359.477 222.117 360.482C221.132 361.506 219.895 362.076 218.407 362.21C216.114 362.416 214.241 361.42 212.808 359.219L215.481 357.549C216.454 358.75 217.124 359.131 218.174 359.036C219.312 358.934 220.059 358.214 219.973 357.251C219.944 356.936 219.832 356.663 219.654 356.45C219.458 356.238 218.761 355.948 217.547 355.598L216.026 355.17C213.272 354.377 212.018 353.184 211.835 351.153C211.696 349.612 212.157 348.265 213.237 347.126C214.236 346.066 215.54 345.454 217.151 345.309C220.039 345.049 222.082 346.365 223.556 349.41Z" fill="black"/>
<path d="M190.496 364.837L186.924 364.516L188.355 348.619L191.926 348.94L190.496 364.837ZM188.023 372.31C187.375 372.251 186.853 371.975 186.437 371.496C186.039 371.019 185.86 370.456 185.917 369.826C185.975 369.178 186.252 368.656 186.729 368.257C187.223 367.861 187.786 367.682 188.434 367.74C189.082 367.799 189.604 368.075 190.001 368.57C190.417 369.048 190.595 369.611 190.537 370.259C190.482 370.872 190.206 371.394 189.711 371.791C189.216 372.188 188.653 372.366 188.023 372.31Z" fill="black"/>
<path d="M154.748 361.526L152.308 360.852L153.169 357.734L155.609 358.408L157.657 350.986C158.017 349.681 157.862 349.055 157.133 348.854C156.777 348.756 156.207 348.708 155.422 348.71L156.315 345.473C157.139 345.464 157.866 345.537 158.51 345.714C159.713 346.046 160.567 346.72 161.071 347.734C161.587 348.77 161.605 350.161 161.114 351.94L159.065 359.362L160.709 359.815L159.849 362.933L158.205 362.48L157.265 365.886L153.43 366.304L154.748 361.526Z" fill="black"/>
<path d="M121.098 341.175L131.963 346.407C132.178 345.555 132.206 344.768 132.069 344.039C131.805 342.683 130.988 341.665 129.578 340.986C128.074 340.262 126.376 340.303 125.059 341.093L124.553 341.415L122.323 338.916C125.25 336.97 128.139 336.684 131.005 338.064C133.223 339.132 134.647 340.793 135.286 343.072C135.859 345.162 135.67 347.217 134.686 349.26C133.549 351.62 131.788 353.171 129.416 353.883C127.499 354.461 125.641 354.308 123.851 353.446C121.808 352.462 120.464 350.878 119.834 348.702C119.511 347.591 119.454 346.373 119.693 345.025C119.867 344.016 120.182 343.036 120.64 342.086C120.716 341.928 120.861 341.627 121.098 341.175ZM130.758 348.909L123.092 345.218C122.895 346.235 122.869 347.14 123.054 347.931C123.315 349.13 124.044 350.008 125.2 350.564C127.164 351.51 129.23 350.906 130.758 348.909Z" fill="black"/>
<path d="M104.282 330.936C103.756 330.553 103.449 330.048 103.352 329.434C103.255 328.821 103.39 328.245 103.752 327.748C104.124 327.236 104.629 326.929 105.243 326.832C105.857 326.735 106.432 326.87 106.958 327.252C107.484 327.635 107.791 328.14 107.888 328.754C107.985 329.368 107.839 329.957 107.457 330.483C107.096 330.981 106.601 331.273 105.973 331.36C105.359 331.457 104.794 331.308 104.282 330.936Z" fill="black"/>
<path d="M84.0905 312.399L86.678 315.105L69.3351 331.686L67.0635 329.31L70.6969 307.572L57.9407 319.769L55.3654 317.075L72.7082 300.494L74.9798 302.87L71.3343 324.595L84.0905 312.399Z" fill="black"/>
<path d="M43.1668 290.597L56.4874 281.804L58.4628 284.797L57.3039 285.562C59.2364 286.224 60.6651 287.239 61.5851 288.633C62.3113 289.733 62.7248 290.998 62.8109 292.437C62.9064 293.953 62.6122 295.39 61.9333 296.723C61.2494 298.08 60.2595 299.197 58.9538 300.059C56.812 301.472 54.5383 301.857 52.1182 301.222C50.073 300.676 48.5178 299.597 47.4429 297.968C46.5327 296.589 46.1602 294.876 46.3012 292.824L45.1423 293.589L43.1668 290.597ZM50.0407 296.001C50.7864 297.13 51.8316 297.788 53.181 298.014C54.4087 298.215 55.668 297.889 56.959 297.037C58.4407 296.059 59.2701 294.858 59.4716 293.44C59.6329 292.281 59.3843 291.202 58.7161 290.19C57.9511 289.031 56.9109 288.349 55.5955 288.143C54.3531 287.952 53.0645 288.297 51.7295 289.178C50.2771 290.137 49.438 291.322 49.2512 292.731C49.0949 293.866 49.3532 294.959 50.0407 296.001Z" fill="black"/>
<path d="M54.9692 267.067L32.5665 276.643L31.1572 273.345L32.4341 272.799C30.6509 271.803 29.4265 270.548 28.7702 269.013C28.252 267.801 28.0709 266.483 28.2431 265.052C28.42 263.542 28.9661 262.181 29.872 260.991C30.7872 259.778 31.9606 258.856 33.3992 258.241C35.7591 257.232 38.0649 257.26 40.3327 258.317C42.2476 259.219 43.585 260.559 44.3518 262.353C45.0013 263.872 45.0619 265.624 44.5568 267.618L53.5599 263.77L54.9692 267.067ZM31.871 267.993C32.4029 269.238 33.2977 270.079 34.539 270.523C35.7342 270.949 37.0638 270.84 38.5347 270.211C40.151 269.52 41.1883 268.503 41.6398 267.144C42.0032 266.071 41.935 264.973 41.4583 263.857C41.1198 263.065 40.5919 262.412 39.8907 261.889C38.433 260.849 36.7458 260.748 34.8224 261.57C33.1898 262.268 32.1594 263.301 31.708 264.66C31.3422 265.772 31.3943 266.878 31.871 267.993Z" fill="black"/>
<path d="M15.6769 233.518L31.2377 229.966L32.0356 233.462L30.9045 233.72C32.2384 234.588 33.0709 235.786 33.419 237.312C33.8023 238.991 33.6036 240.569 32.8016 242.032C31.8262 243.841 30.198 244.844 27.2332 245.521L18.853 247.434L18.0551 243.937L26.1611 242.087C27.7034 241.735 28.7744 241.293 29.3738 240.759C30.1686 240.055 30.424 239.041 30.1189 237.704C29.8217 236.402 28.9231 235.309 27.9014 235.019C27.1088 234.785 25.9004 234.863 24.2552 235.238L16.4748 237.014L15.6769 233.518Z" fill="black"/>
<path d="M2.2954 210.275L26.2654 209.198L26.4263 212.781L2.45629 213.857L2.2954 210.275Z" fill="black"/>
<path d="M2.05274 168.786L5.46687 169.248L4.21866 178.463L10.8031 179.355L11.9121 171.168L15.361 171.635L14.252 179.822L21.1325 180.754L22.428 171.191L25.8769 171.658L24.0789 184.932L0.301941 181.711L2.05274 168.786Z" fill="black"/>
<path d="M8.37996 135.236L11.6566 136.301L9.80979 141.985L29.3529 148.335L28.1959 151.896L8.65279 145.546L6.8005 151.246L3.52381 150.182L8.37996 135.236Z" fill="black"/>
<path d="M33.4485 130.417L12.3194 119.047L14.0936 115.75L22.9787 120.532L28.0265 111.151L19.1414 106.37L20.9156 103.073L42.0448 114.443L40.2705 117.74L31.0914 112.8L26.0435 122.181L35.2227 127.12L33.4485 130.417Z" fill="black"/>
<path d="M46.1719 96.8954C46.5774 96.3869 47.0959 96.1033 47.7134 96.0337C48.331 95.9642 48.8995 96.1253 49.3805 96.5088C49.8753 96.9034 50.1588 97.4218 50.2284 98.0394C50.298 98.657 50.1369 99.2255 49.7314 99.734C49.3259 100.242 48.8075 100.526 48.1899 100.596C47.5723 100.665 46.9901 100.493 46.4816 100.088C46.0006 99.704 45.7307 99.1966 45.6721 98.5653C45.6025 97.9477 45.7774 97.3901 46.1719 96.8954Z" fill="black"/>
<path d="M75.7582 68.6779L64.1885 78.786L62.1761 76.4827L62.3628 63.5516C62.3944 61.0497 61.9196 59.2237 60.9134 58.0721C60.2657 57.3307 59.4938 56.9548 58.586 56.931C57.7526 56.9121 56.8924 57.2902 56.0187 58.0535C54.9729 58.9672 54.4728 59.9176 54.5052 60.9164C54.5195 61.6275 54.8049 62.5686 55.3497 63.7265L52.1438 65.2669C51.3694 63.8194 50.9735 62.4847 50.9464 61.2246C50.91 58.9922 51.864 57.0384 53.7834 55.3614C55.597 53.7769 57.4859 53.107 59.475 53.3532C61.107 53.538 62.5235 54.3311 63.7379 55.7211C65.2298 57.4287 65.9723 59.5343 65.9291 62.023L65.7755 72.8011L73.4798 66.0701L75.7582 68.6779Z" fill="black"/>
<path d="M79.3322 33.6239C84.6288 30.4593 89.4214 32.4489 93.6949 39.6015C97.9593 46.739 97.4855 51.8751 92.2493 55.0036C86.9829 58.1501 82.1935 56.0972 77.8659 48.8541C76.0357 45.7908 75.1062 43.0699 75.0746 40.6521C75.05 39.2744 75.3598 38.045 75.9798 36.9579C76.754 35.6148 77.8685 34.4984 79.3322 33.6239ZM81.1928 36.5666C79.9554 37.3059 79.212 38.3235 78.9473 39.6283C78.795 40.436 78.9076 41.5154 79.3151 42.8486C79.7075 44.1909 80.3049 45.5335 81.0983 46.8614C82.658 49.472 84.2405 51.2294 85.8485 52.173C87.3241 53.0319 88.8496 52.9804 90.4491 52.0248C93.5124 50.1946 93.4918 46.6644 90.3633 41.4282C88.9929 39.1345 87.4797 37.4586 85.8085 36.4094C85.1551 36.0012 84.4078 35.8129 83.5818 35.8355C82.7708 35.8491 81.9775 36.0978 81.1928 36.5666Z" fill="black"/>
<path d="M124.13 37.0418L109.747 42.44L108.672 39.5765L113.39 27.5355C114.299 25.2043 114.496 23.3279 113.959 21.8961C113.613 20.9745 113.022 20.3513 112.181 20.01C111.407 19.6996 110.469 19.7512 109.383 20.1589C108.083 20.6468 107.28 21.361 106.96 22.3074C106.723 22.9782 106.66 23.9596 106.763 25.2351L103.22 25.5508C103.004 23.9235 103.102 22.5348 103.52 21.3455C104.27 19.2427 105.85 17.7486 108.236 16.853C110.491 16.0068 112.494 16.0433 114.27 16.9728C115.733 17.7192 116.781 18.9595 117.429 20.6875C118.226 22.8105 118.181 25.0428 117.266 27.3575L113.336 37.3944L122.914 33.7997L124.13 37.0418Z" fill="black"/>
<path d="M141.519 5.03987L144.847 6.34751L138.6 21.9341L144.498 20.8638L143.477 15.2428L147.127 14.5805L148.147 20.2016L150.949 19.6931L151.558 23.0485L148.756 23.5569L149.666 28.5727L146.017 29.2349L145.106 24.2192L134.989 26.0553L134.395 22.7865L141.519 5.03987Z" fill="black"/>
</svg>