<?xml version="1.0" encoding="UTF-8"?>
<svg xmlns="http://www.w3.org/2000/svg" version="1.1" viewBox="0 0 1080 1080">
  <defs>
    <style>
      .cls-1 {
        fill: #70c0e9;
      }

      .cls-2 {
        fill: #07151b;
      }

      .cls-3 {
        fill: #6fbde2;
      }

      .cls-4 {
        fill: #071319;
      }

      .cls-5 {
        fill: #458ba8;
      }
    </style>
  </defs>
  <!-- Generator: Adobe Illustrator 28.6.0, SVG Export Plug-In . SVG Version: 1.2.0 Build 709)  -->
  <g>
    <g id="Layer_1">
      <g>
        <path class="cls-2" d="M548.9,808.3c-1.7-5.1-3.3-10.2-5-15.3,0,0,.6-.6.6-.6,0,0,.7.5.7.5,4.3,3.2,8.7,1.4,13.2.4-1.3,5.8,2.9,14.3-9.4,14.9Z"/>
        <path class="cls-5" d="M548.5,795.6c-6.1-16.3,4.8-19.2,9.8-20.3,26.6-22,53.1-46.9,79.2-69.2,49-41.8,102-90,150.9-132,2.2-1.9,14.6.4,20.3.8-80.3,137.6-176,284.5-256,421.5-2.3-.6-2-.6-4.3-1.2v-199.6Z"/>
        <path class="cls-3" d="M268.5,476.8c27.9-46.6,68.8-97.2,98.9-142.7,57.5-86.9,113.7-174.5,168.4-262.7.9-1.5,2-2.9,4.2-6,85.7,137.2,190.2,277.3,280.5,411.5-8.1,2.5-29.3-5.9-34.3-7.3-59-16.3-116.4-36.5-173.9-56.4-21.7-7.5-44.9-11.7-65.6-21.7-5.7-2.7-12.3-.4-18.7,1.7-79.8,26.2-167.7,61.1-248.9,84.1-2.8.8-5.9.8-8.8,1.2-.6-.5-1.2-1-1.8-1.6Z"/>
        <path class="cls-5" d="M286.2,483.3c27.4-8.3,63.7-18.1,109.5-33.4,45.5-15.2,90.5-31.8,135.6-47.9,5.5-2,10-2.8,16.1-.6,79.9,29.1,159.6,58.7,243,80.1.8.2,1.4,1,2.9,2.2-33.7,24.7-67.9,48.7-100.6,74.1-52.9,41.1-101.9,85.5-145.9,133.7-6.5,7.1-8.2,5.4-13.8-.5-50.2-53.5-104.6-103.5-165.7-148.1-26.9-19.6-53.5-39.4-81-59.7Z"/>
        <path class="cls-1" d="M270.3,478.4c-.9,1.2-2,1.7-3.1.3-.2-.2.9-1.2,1.3-1.8.6.5,1.2,1,1.8,1.5Z"/>
        <path class="cls-3" d="M434.2,707.8c26.9,22.9,54,45.7,80.9,68.6.7.6,7.5,2.5,8.3,2.6,20.8,2.8,8.4,14.6,8.3,26.1-.4,60-.2,120.1-.3,180.2,0,3.9,0,7.8-3,12.5l-263.9-437.5c50.8,43.5,118.7,104.1,169.6,147.5Z"/>
        <path class="cls-1" d="M249.3,634.2c-.9-1.3-2.2-2.6-.2-3.8.2-.1,1.7,1.3,2.6,1.9-.8.6-1.6,1.3-2.4,1.9Z"/>
        <path class="cls-2" d="M544.9,781c.8-6.9,4.8-12.3,10.4-17.2,86.7-76.5,172.2-154,261.9-228,2.1-1.7,4.2-3.4,6.4-5,3.7-2.6,8-3.3,11.8-.7,4.6,3.1,3.5,6.9,1.2,11.1-38.4,69.6-77.2,139.1-117.9,207.7-52.8,88.9-103.9,178.5-155.8,267.8-5.5,9.5-11.4,23.2-22.7,23.2-11.2,0-17.2-13.7-22.7-23.2-52.4-90-104.3-180.2-157.1-270-38.7-65.9-77.7-131.6-112.2-199.3-2.7-5.4-12.4-11.3-3.1-17.1,9.1-5.7,14.5,2.7,20,7.3,88.4,72.7,172.6,149,257.8,224.4,4.4,3.9,10.2,7.5,10.8,12.8.8,6.6,6.3,4.8,10.2,6.1,1.6,4.9,3.2,9.7,4.8,14.6v200c1.4.2,2.9.5,4.3.7,80-137,160-274,240.4-411.6-5.7-.4-7.3,2.6-9.5,4.5-48.8,42-97.4,84.2-146.5,126-26.2,22.3-53.1,44-79.7,66-4.2.9-8.5,2.7-12.6-.4ZM288.5,583.2c-.8-.7-2.2-2-2.5-1.8-2,1.2-.7,2.4.2,3.7,80.8,137.6,161.5,275.2,242.3,412.8,3-4.7,3-8.6,3-12.5,0-60.1-.2-120.1.3-180.2,0-11.5,6.4-24.4-14.4-27.1-.8-.1-1.5-1-2.2-1.6-27-22.9-54.1-45.6-80.9-68.6-48.6-41.5-97.2-83.1-145.8-124.7Z"/>
        <path class="cls-4" d="M840,482.8c.2,9.8-8.1,14.9-17.6,10.9-7.1-3-11-1.1-15.8,2.5-83.2,62.7-163.9,127.4-233.7,201.7-6,6.4-10.9,13.5-16.9,19.9-9.3,10-23.3,10.6-31.6,0-25.2-32.2-58.4-58.3-87-87.8-28-29-58.9-55.6-93.5-78.8-24.2-16.2-45.5-35.3-68-53.2-5.6-4.4-10.7-9.1-19.3-3.7-3.8,2.4-8.8,1.4-12.4-1.8-3.8-3.3-5.4-7.4-3-11.9,3.2-5.9,6.5-11.7,10.1-17.4,79.7-126.8,160.9-252.8,243.9-378,7.5-11.3,15.5-22.3,24.1-32.9,13.4-16.6,28.1-16.6,41.6,0,24,29.5,42.4,61.9,63.3,92.9,72.3,107.5,140.4,217,209.5,326.1,2.6,4.1,4.7,8.5,6.3,11.4ZM279.6,472.5c3-.4,6-.4,8.8-1.2,81.2-23,159.8-51.9,239.6-78.2,6.4-2.1,13-4.5,18.7-1.7,20.7,10,43.9,14.2,65.6,21.7,57.5,19.9,114.8,40.1,173.9,56.4,5.1,1.4,9.9,4.2,18,1.7-90.3-134.1-178.5-268.7-264.2-405.9-2.2,3.1-3.3,4.6-4.2,6-54.7,88.3-110.9,175.8-168.4,262.7-30.1,45.5-61.7,90.3-89.6,136.8-.5.6-1.5,1.6-1.3,1.8,1.1,1.4,2.2.9,3.1-.3ZM296.3,489c26.4,19.7,52,39,77.8,58.1,58.7,43.4,111,92.1,159.2,144.2,5.3,5.7,7,7.4,13.2.5,42.3-46.9,89.4-90.2,140.2-130.2,31.4-24.7,64.3-48.1,96.6-72.1-1.5-1.1-2-1.9-2.8-2.1-80.1-20.8-156.6-49.7-233.4-78-5.8-2.1-10.1-1.4-15.5.6-43.3,15.7-86.5,31.8-130.2,46.7-34.2,11.6-69.2,21.5-105.1,32.5Z"/>
      </g>
    </g>
  </g>
</svg>