<?xml version="1.0" encoding="UTF-8"?>
<svg xmlns="http://www.w3.org/2000/svg" version="1.1" viewBox="0 0 1080 1080">
  <defs>
    <style>
      .cls-1 {
        fill: #c8e4f4;
      }

      .cls-2 {
        fill: #83c7e9;
      }

      .cls-3 {
        fill: #515a9e;
      }

      .cls-4 {
        fill: #fff;
      }

      .cls-5 {
        fill: #7177b1;
      }

      .cls-6, .cls-7 {
        fill: #222546;
      }

      .cls-7 {
        stroke: #222546;
        stroke-miterlimit: 10;
      }
    </style>
  </defs>
  <!-- Generator: Adobe Illustrator 28.6.0, SVG Export Plug-In . SVG Version: 1.2.0 Build 709)  -->
  <g>
    <g id="Layer_1">
      <g>
        <path class="cls-7" d="M929.7,378.2c-.7,16.9.4,33.9-1.4,50.9-3.3,33-10.5,65.2-21.3,96.5-30.7,89.5-72,173.6-132.8,246.8-40.7,49-86.7,92.9-137.7,131.1-47.5,35.6-102,56.4-159.2,70-59.4,14.1-118.8,27.8-178.1,42.1-29.7,7.2-60.3,9.1-90.8,9.4-38.2.3-76.3.8-114.4,2.7-18.4.9-36.9.8-54.9-3.9-7.6-1.9-16.1-4.2-17.2-13.6-1.1-9.6,6.8-13.6,13.9-17,16.5-7.9,34.5-11,52-15.7,37.8-10.2,74.2-24.1,107.6-44.5,50.5-30.9,102.6-58.7,154.7-86.8,44.1-23.8,83.8-54.1,121.7-86.8,46.9-40.4,73.1-93.4,89.7-151.9,9.2-32.3,13.4-65.3,16.4-98.7,6.4-71.9,21.4-141.7,53.5-207,8.5-17.3,19.2-33.3,33.5-46.4,3.4-3.2,3.2-6.9,2.6-10-2.5-13.5,4.8-22.4,13.3-30.9,2.6-2.6,5.6-4.8,8.7-6.9,4.1-2.8,5-6.2,4.1-11.2-5.2-30.4-7.4-61.1-3.3-91.7,5.9-43.4,40.9-63.4,84.5-49.3,16.9,5.5,31.6,14.5,44.6,27,5.4,5.2,14.4,6.9,20.9,11.8,1.1.8,2.2-.3,3.1-1.2,10.7-11.6,24.7-12.3,38.9-11.2,26.6,1.9,40.7,11.3,47.2,36.5,2.5,9.7,6.1,14.4,14.4,18.5,9.2,4.5,15.8,12.3,19.8,22,.7,1.7.6,4.5,4.2,3.9,11.8-2.1,22,3,32.1,7.8,12.9,6.1,25,13.5,35.7,23.2,35.6,32.3,28.1,80.2-15.7,100.3-12.3,5.6-25.1,8.2-38.6,6.2-4.3-.6-6.6-.2-8.2,5.1-2.9,9.7-5.2,19.9-12.4,27.8-3.4,3.7-2.1,8.9-3.3,13.4-3.8,13.6-8.8,26.3-24.9,29.6-.7-4.8,2.8-7.5,5.6-10.5,8.4-9,14-19.3,11.3-31.8-3.8-17.7-14.7-31-29-41.7-2.7-2.5-5.2-5.2-8.1-7.5-35-28.4-73.5-50.7-115.8-66.3-25.8-9.5-52.1-17.8-80.3-12.7-18,3.2-33,10.9-41.1,28.5-.9,2-2.3,4.4-.6,6.2,1.6,1.7,3.7-.5,5.3-1.1,30.3-12.6,61.5-13,93.3-7.7,39.2,6.5,73.5,23.6,104.1,48.6,22.8,18.7,41.9,40,48,70.2,2.8,9.1,2.8,18.7,4.5,28ZM474.4,769.5c-1,0-1.6.5-1.6,1.5h0c-2.3.6-4.2,1.6-4.7,4.2h.2c-1.3-.3-2.1,0-1.5,1.6v-.3c-1.7-.5-2.4.5-2.8,1.9h0c-7.1,4-13.2,9.4-19.2,14.8h0c-.8.5-1.5,1-2.3,1.5-1.2.8-2.5,1.5-3.7,2.3-33.2,25.5-67.9,48.7-105.3,67.7-40.7,20.7-81.1,42.1-119.7,66.5-39.6,25-82.5,42-127.6,53.6-16.6,4.3-33.5,7.4-49.3,14.5-4.5,2-10.1,4.5-9.8,10,.3,6.2,6.8,7,11.6,8.3,13.6,3.8,27.7,3.7,41.7,3.5,44.8-.9,89.5-3.3,134.3-3.6,23.6-.2,47.3-1.4,70.4-6.6,64.8-14.7,129.6-29.6,194.2-45.2,47.5-11.5,93.1-28.2,134.1-55.3,58-38.2,107.9-86,152.2-138.9,69.7-83.4,116.6-179.4,146.2-283.9,11.7-41.5,15.5-83.8,12.1-126.8-.2-2.4-.2-5-1.1-7.2-6.6-16.1-13.5-32.3-25.7-45.1-47-49.7-104.4-74.7-173.2-71.6-8,.4-16.7.4-23.8,4.4-26.3,14.9-46.5,35.9-59.9,63.2-32.3,65.6-47,135.6-53.5,207.8-3,33.3-7.6,66.4-16.8,98.6-17,59.2-43.9,112.5-90.9,154-.5.4-.6,1.2-.8,1.8-1.2,0-2,.4-2.3,1.6h0c-.9,0-1.5.5-1.6,1.4h0ZM899.9,263.1c-.7-3.4,1.8-5.4,3.3-7.8,4.8-7.5,4.8-7.4,2.1-13.8,0-.2.9-.6.9-.9-.2-3.3-3.3-3.9-5.4-4.8-3-1.3-2.2,2.3-3.1,3.6-1.6,2.4-2.6,5.2-4.2,7.6-5.6,8.7-5.7,8.7,3.2,14.5,1,.7,2.2,1,3.3,1.5,3.9,4.7,9.3,7.4,14,11.2,3.3-6.1,6.8-11.7,9.4-17.7,3-6.8-4.6-7.2-7.5-9.9-3-2.8-2.9,2.1-3.9,3.7-3.2,5-3.6,12.6-12,12.8ZM789.2,177.2c3.7,1,7.5,2.1,11.2,3,3.5.8,4.1-.1,3.8-4-1.4-18.1.5-35.7,11-51.3,5.7-8.5,15.7-12.3,25.5-10.1,2.2.5,4.4,1,7.6,1.7-6.1-8.2-12.3-14.6-20.4-18.9-9.2-6.7-19.3-7.9-27.3-2.6-7.2,4.8-11.4,11.9-14.5,19.9-7.3,18.7-8.4,38.6-11.4,58.1-.3,1.9.4,2.7,2.2,2.9,4.1.4,8.2.9,12.4,1.4ZM856.9,111.4c2.8,4,5.7,7.9,8.3,12,1.1,1.7,2.2,2.4,4.2,2,9.9-2.3,20-.8,30-1,6.7,1,13.6,1.3,20.1,3.1,5.7,1.6,5.8-1.1,5.5-5-.2-1.9-.6-3.8-1.2-5.7-8.1-24.5-48.7-38.2-70.3-23.9-7.7,5.1-7.9,6.7-1.7,13.2,1.7,1.8,3.4,3.5,5.1,5.2ZM709.6,184.9c4.2-2,8.2-4.3,12.6-5.8,3.5-1.2,4-3.1,3.1-6.1-6.4-21.6-8.4-43.5-5.6-65.9,1.9-15.6,7.6-29.3,21.9-37.9,14.7-7,29.4-4,44.1.6-8.7-5.9-18.3-8.6-28.1-10-24.5-3.5-48.3,5.8-57.3,32.3-3.4,10.1-4.9,20.4-5.5,30.9-1.3,22.6,2.5,45.1,1.4,67.7,0,1.7-1.2,3.8.9,5.4,4.2-3.8,8.4-7.5,12.6-11.2ZM969.2,291.9c3.2,2.4,7,1.8,10.6,2.3,26,3.8,46.9-5.9,62.6-25.8,18.4-23.5,11.1-52.4-13.6-73.1-14.9-12.5-33.3-18.4-50.5-26.5-3.9.3-10.8-2.1-11,1.4-.3,4.3,6.5,3.6,10.6,4.3,9.5,4.4,17.6,10.7,25.3,17.7,18.4,23.4,20,45.2,5.1,67.2-10.4,15.3-25.4,22.1-44,23,1.7,3.6,2.4,6.9,4.9,9.4ZM911.6,140.6c9.7,17.2,6.5,33.4-4.4,48.7-7.3,10.2-17,18.2-27.9,25.6,12.6,5.5,22.4,14.1,33.7,20.4,3.7,2.2,6.2,6.2,10.7,7.2,11.8,10.2,24.7,19.3,34.3,32,1.1,1.5,2.6,1.8,4.4,2,27.9,2.6,54.3-26.5,48.8-54-4.6-22.8-20.8-34.3-40.8-42.3-3.9-1.6-3.5,1.1-3.7,3.1-1.3,14.1-6.9,26.6-15.6,37.5-7.4,9.3-14.6,19.3-27.6,21.8,0-4.7,4-6.3,6.9-8.7,16.5-13.4,27.6-30.4,29.5-51.5,2.5-26.9-17.2-47.1-53.1-47.1.9,2.5,2.8,3.9,4.7,5.3ZM810,171.1c2,3.7-2.8,10,3.9,12.3,20.2,7,39.7,15.4,58.2,26.2,1.5.9,2.9,1.8,4.6.3,11.2-9.8,23.2-18.9,29.4-33.3,9.7-22.7-.2-40-24.8-42.1-12.9-1.1-25.3-1-37-9.4-10.2-7.3-21.1-2.3-26.8,9.1-5.8,11.4-6.9,23.9-7.5,36.8ZM769.5,174.5c2.5-33.3,2.2-66.2,30.9-90.2-10-1.3-18.3-7.1-27.8-9.5-24.5-6.3-40.3,3.2-45.8,27.8-.9,3.9-1,7.8-1.5,11.7-2.3,19.8,3.2,39.1,3.4,58.7,0,2.8,1.7,3.1,4,2.7,12.5-2.2,25.2-3.1,36.8-1.3ZM942.1,269.6c-2,6.2-5.1,11.3-9.3,15.8-1.5,1.6-2.5,2.9-.5,4.9,4.5,4.4,8.4,11.7,13.3,12.4,3.9.6,6.3-8.8,9.8-13.5,2-2.6,1.7-6-.7-6.9-6.3-2.2-7.2-9.5-12.6-12.7ZM879.4,224.8c-.3-.9-.4-2-.9-2.7-6-8.1-15.2-7.3-19.7,1.7-.5,1.1-.9,2.4-1.7,3.3-5.9,6.1-2.8,9.3,3.6,11.4,2.8.9,5.1,5.3,8.3,2.9,5.4-4,8.4-10,10.4-16.6ZM959.2,288.5c-3.3,6.3-5.2,13-10,18-1.2,1.2-.5,2.7.3,4,3.6,6.1,6.2,12.6,8.5,19.9,6.5-14.1,13.9-27.5,1.3-42ZM800.8,188.4c-5.9-1.3-11.1-2.4-16.2-3.5-4.4-1-7.1.7-8,5.1-1,4.8-3.8,10.5,2.1,13.6,4.7,2.5,10.3,3.3,16.4,5.2-3.5-8.7.5-14.1,5.7-20.3ZM773.9,183.9c-4.8-4.1-9.5-.5-13.9-1.7-8.9-2.4-9-2.2-10.2,7.3-.6,4.9,0,8.8,6.4,8.8,3.1,0,6.3,1,9.3,2,3.5,1.2,4.6-.1,4.3-3.4-.4-4.9,1.3-9.1,4.2-13.1ZM842,203.3c-17.9-7.6-18.2-12.1-23,9-1.6,7.1,3.6,7.3,7.5,9.2,5,2.4,4.7-2.2,6-4.6,2.5-4.8,4.8-9.6,9.6-13.6ZM859.3,211.7c-3.5-1.7-7.2-3.5-10.9-5.3-2-1-3.6-1.3-4.8,1.2-2.5,5.3-5.2,10.5-7.8,15.7-.5.9-.9,2,.2,2.5,3.4,1.8,6.8,4.1,10.5,4.9,3.1.6,3.3-3.5,4.6-5.6,2.8-4.3,5.3-8.7,8.1-13.4ZM814.2,216.2c-.9-7.6.8-13.4,4.6-18.5.7-.9,1.5-2,.7-3.3-1.1-1.8-12.8-3.9-14.4-2.5-4.5,4-5.9,9.2-5.8,15.2.1,5.6,4.8,4.5,7.7,6,1.9,1,4,1.7,7.1,3ZM884,225.3c-1.4,5.7-2.6,11.3-6.5,14.9-5.4,5-2.6,6.7,1.8,9.8,5.5,3.8,6.5-1.5,8.1-3.6,12.3-16.7,11.5-12.2-3.4-21.1ZM928.8,257.7c-2.7,6-5.5,11.7-9.3,16.7-1.3,1.7-1.7,2.9.1,4.9,5.4,6,7,6,11.7-.7,1.5-2.2,2.8-4.6,4.5-6.6,3.9-4.6,2.3-7.8-2-10.8-1.6-1.1-3.2-2.3-4.9-3.5ZM701.6,201.4c4.9-1.3,8.6-2.7,12.3-3.2,7.2-.9,14.7-.9,14-11.3,0-1,1.7-1.8.6-3.4-10.4,3.1-19.5,8.1-27,17.9ZM746.9,181c-12.8-.8-13.8,0-14,9.7-.1,4.3.9,6,5.6,6.1,4.6,0,7-.9,6.1-6-.6-3.5,1.2-6.5,2.3-9.7Z"/>
        <path class="cls-3" d="M920.6,292.1c14.3,10.7,25.1,24,29,41.7,2.7,12.5-2.9,22.8-11.3,31.8-2.8,3-6.3,5.6-5.6,10.5-1,.7-2,1.5-3,2.2-1.6-9.3-1.7-18.9-4.5-28,6.5-8.9,6.7-18.8,4.6-29.1-2.1-10-8.4-18.6-9.2-29Z"/>
        <path class="cls-2" d="M478.2,766.6c.3-.6.4-1.4.8-1.8,47-41.5,73.9-94.8,90.9-154,9.2-32.3,13.8-65.3,16.8-98.6,6.5-72.2,21.2-142.3,53.5-207.8,13.5-27.3,33.7-48.3,59.9-63.2,7-4,15.7-4,23.8-4.4,68.8-3.1,126.2,21.9,173.2,71.6,12.2,12.9,19.1,29,25.7,45.1.9,2.2.9,4.8,1.1,7.2,3.4,43-.3,85.3-12.1,126.8-29.5,104.5-76.4,200.4-146.2,283.9-44.2,52.9-94.2,100.7-152.2,138.9-41,27-86.6,43.8-134.1,55.3-64.6,15.6-129.4,30.5-194.2,45.2-23.1,5.2-46.8,6.4-70.4,6.6-44.8.3-89.5,2.7-134.3,3.6-14,.3-28.1.3-41.7-3.5-4.7-1.3-11.3-2.1-11.6-8.3-.2-5.5,5.3-7.9,9.8-10,15.7-7.1,32.7-10.2,49.3-14.5,45.2-11.6,88-28.6,127.6-53.6,38.7-24.4,79-45.8,119.7-66.5,37.4-19,72.1-42.2,105.3-67.7,1.1-.9,2.4-1.6,3.7-2.3.8-.5,1.5-1,2.3-1.6h0c8.8-1.8,15.5-6.3,19.2-14.8h0c1.6.4,2.7,0,2.7-1.9,0,0,0,.3,0,.3,1,0,1.5-.6,1.5-1.6,0,0-.2,0-.2,0,2.6-.3,3.9-2,4.7-4.3,0,0,0,0,0,0,.5-.5,1-1,1.6-1.5,0,0,0,0,0,0,.5-.5,1-1,1.6-1.5,0,0,0,0,0,0,.8-.5,1.5-1.1,2.3-1.6ZM759.3,302.9c-6.9.2-14.3,4.1-20,11.2-10.1,12.6-17.4,26.8-22.4,42.1-9.7,29.6-16,60-21.2,90.8-5.6,32.9-14,65.1-24.1,96.9-7,22.2-13.1,44.9-24.2,65.5-19.8,36.5-45,69.6-67.5,104.5-6.1,9.5-14.1,17.6-20.6,26.8-3.7,5.2-2.7,10.3,2,14.5,4.6,4.1,9.2,2.6,13.3-.8,18-14.7,33.3-31.9,47.7-50,24.5-30.8,45.1-64.3,65.8-97.6,17.5-28.2,34.5-56.7,44.9-88.5,8.7-26.6,16.2-53.5,25.2-80,6.2-18.4,11.3-37,15.6-55.9,2.2-9.8,1.7-20.2,6.6-29.2,3.1-5.8,4.9-12,5.4-18.2,1.4-16.5-6-31.6-26.5-31.9ZM508.7,797.7c-.7,0-2.3,0-3.6.5-11.7,5.1-21.6,12.9-28.9,23.3-4.4,6.2.5,14.6,8.6,14.4,12.8-.3,24.9-3.8,33.8-13.8,3.9-4.4,6.2-10,3-16.3-2.6-5.1-6.2-8.2-12.8-8.1Z"/>
        <path class="cls-4" d="M810,171.1c.6-12.9,1.8-25.4,7.5-36.8,5.7-11.4,16.7-16.3,26.8-9.1,11.7,8.4,24.1,8.3,37,9.4,24.6,2,34.5,19.4,24.8,42.1-6.2,14.4-18.2,23.5-29.4,33.3-1.7,1.5-3.1.6-4.6-.3-18.5-10.8-38-19.2-58.2-26.2-6.7-2.3-1.9-8.6-3.9-12.3Z"/>
        <path class="cls-5" d="M920.6,292.1c.8,10.4,7.1,19,9.2,29,2.2,10.3,1.9,20.1-4.6,29.1-6-30.2-25.1-51.5-48-70.2-30.6-25-64.9-42.1-104.1-48.6-31.7-5.3-63-5-93.3,7.7-1.6.7-3.6,2.9-5.3,1.1-1.7-1.8-.3-4.1.6-6.2,8.1-17.6,23.2-25.2,41.1-28.5,28.2-5.1,54.5,3.2,80.3,12.7,42.3,15.6,80.8,38,115.8,66.3,2.9,2.3,5.4,5,8.1,7.5Z"/>
        <path class="cls-4" d="M769.5,174.5c-11.7-1.8-24.3-.9-36.8,1.3-2.2.4-3.9,0-4-2.7-.2-19.6-5.7-39-3.4-58.7.5-3.9.6-7.8,1.5-11.7,5.5-24.6,21.3-34.2,45.8-27.8,9.5,2.5,17.8,8.2,27.8,9.5-28.8,23.9-28.4,56.9-30.9,90.2Z"/>
        <path class="cls-4" d="M923.6,242.5c12.9-2.5,20.2-12.5,27.6-21.8,8.6-10.9,14.3-23.3,15.6-37.5.2-2-.2-4.7,3.7-3.1,20,8,36.3,19.5,40.8,42.3,5.5,27.5-20.9,56.6-48.8,54-1.8-.2-3.3-.5-4.4-2-9.6-12.6-22.5-21.7-34.3-32,0,0,0,0,0,0Z"/>
        <path class="cls-5" d="M913,235.3c-11.3-6.3-21-14.9-33.7-20.4,10.9-7.4,20.6-15.3,27.9-25.6,11-15.3,14.1-31.4,4.4-48.7,5.9.7,10,4.9,14.5,8.1,12.2,8.8,21.7,29.1,13.6,40.6-3.8.4-2.1,2.5-1.3,4.3.1,2.4-.7,4.5-2,6.4-3-.3-7-1.7-4.1,4-1.2,6.3-5.1,10.9-9.6,14.8-5.1,4.5-8.4,9.9-9.7,16.5Z"/>
        <path class="cls-3" d="M1003.2,192.3c-7.7-7-15.9-13.2-25.3-17.7.1-1.9.3-3.8.4-5.7,17.2,8.1,35.6,14,50.5,26.5,24.7,20.6,32,49.6,13.6,73.1-15.6,19.9-36.5,29.7-62.6,25.8-3.6-.5-7.4,0-10.6-2.3.3-4,2.9-6,6.2-7.5,6.1-2.8,12.6-3.7,19.1-5.1,15.4-3.5,29.2-9,38.1-23.7,17.9-29.3-1.6-56.5-29.3-63.3Z"/>
        <path class="cls-3" d="M936.4,199.9c1.3-1.9,2.1-4,2-6.4,2.8,1.1,5.1,7.2,8,3.5,2.3-3-3.4-4.6-5.8-6.7-.4-.3-.6-.7-1-1.1,8.1-11.5-1.4-31.8-13.6-40.6-4.4-3.2-8.6-7.4-14.5-8.1-1.9-1.4-3.8-2.9-4.7-5.3,35.9,0,55.6,20.3,53.1,47.1-1.9,21.1-13,38.1-29.5,51.5-2.9,2.3-6.9,4-6.9,8.7,0,0,0,0,0,0-4.5-1-7-5-10.7-7.2,1.3-6.6,4.6-12,9.7-16.5,4.5-4,8.5-8.6,9.6-14.8,2.1.9,4.3,3,6.2.4,1.7-2.3-1.3-2.9-2.1-4.4Z"/>
        <path class="cls-3" d="M709.6,184.9c-4.2,3.7-8.3,7.4-12.6,11.2-2.1-1.6-1-3.7-.9-5.4,1.1-22.6-2.7-45.1-1.4-67.7.6-10.5,2-20.8,5.5-30.9,9-26.5,32.8-35.9,57.3-32.3,9.8,1.4,19.5,4.1,28.1,10-14.7-4.6-29.4-7.6-44.1-.6-8.7-1.7-14,4.6-19.4,9.3-13.8,12-15.8,28.5-15.6,45.6-2,0-4.7-2.1-5.6,1.1-.6,2.2,1.9,3.1,3.6,3.9.7.3,1.3.7,1.9,1.1-.7,2.7,1.1,4.1,2.9,5.5-2.3,1-6.3-1.5-6.9,1.8-.6,3.2,3.3,2.6,5.5,3.1-2,2.5-2,5.6-1.4,8.4,2.1,10.4,1.2,20.8,1.4,31.2,0,1.7,0,3.4,1.6,4.5Z"/>
        <path class="cls-5" d="M1003.2,192.3c27.7,6.8,47.2,34,29.3,63.3-8.9,14.6-22.7,20.1-38.1,23.7-6.4,1.5-13,2.3-19.1,5.1-3.3,1.5-5.9,3.6-6.2,7.5-2.5-2.5-3.2-5.8-4.9-9.4,18.6-.9,33.6-7.7,44-23,14.9-22,13.3-43.9-5.1-67.2Z"/>
        <path class="cls-3" d="M856.9,111.4c-1.7-1.7-3.5-3.5-5.1-5.2-6.2-6.5-5.9-8.1,1.7-13.2,21.5-14.4,62.1-.6,70.3,23.9.6,1.8,1,3.8,1.2,5.7.3,3.9.2,6.6-5.5,5-6.5-1.8-13.4-2.2-20.1-3.1,2.3-.7,5,.8,7-1.1,1.1-1-.1-2.3-.9-3.1-5.5-5.9-10.1-13.4-20.3-10.8-2.8.7-5.9-.9-8.6-.8-6.6.2-14-3.9-19.7,2.9Z"/>
        <path class="cls-5" d="M828,97.6c8.1,4.4,14.4,10.8,20.4,18.9-3.2-.7-5.4-1.2-7.6-1.7-9.9-2.3-19.8,1.6-25.5,10.1-10.5,15.6-12.4,33.2-11,51.3.3,3.9-.3,4.9-3.8,4-3.8-.9-7.5-2-11.2-3,2.7-10.4,4.2-20.8,1.7-31.6-1-4.1-.1-8.2,3.4-11.2,2.2,1.2,4,3.6,7,2.7.5-.1,1.1-1.3.9-1.7-1.4-2.9-4.1-3.8-7.1-4,.2-3.3.4-6.6,4.6-7.3,1.6,0,3.8,1.1,4.6-.8,1.2-2.7-1.9-3.3-3.3-4.8,1.9-14.5,4.9-18.1,17.5-20.5,3.1-.6,6.3-.3,9.4-.5Z"/>
        <path class="cls-5" d="M709.6,184.9c-1.7-1.1-1.6-2.8-1.6-4.5-.2-10.4.7-20.9-1.4-31.2-.6-2.8-.6-5.9,1.4-8.4,2.9-1,4.3-2.4,1.5-5-1.8-1.4-3.6-2.8-2.9-5.5,3.7-2,2.4-4.1,0-6.1-.2-17.1,1.8-33.6,15.6-45.6,5.4-4.7,10.6-11,19.4-9.3-14.2,8.6-19.9,22.3-21.9,37.9-2.8,22.3-.8,44.3,5.6,65.9.9,3,.3,4.9-3.1,6.1-4.3,1.5-8.4,3.9-12.6,5.8Z"/>
        <path class="cls-3" d="M794.2,134.4c-3.5,3-4.3,7.2-3.4,11.2,2.6,10.8,1,21.2-1.7,31.6-4.1-.5-8.2-.9-12.4-1.4-1.8-.2-2.5-1-2.2-2.9,3.1-19.5,4.1-39.4,11.4-58.1,3.1-8,7.3-15.1,14.5-19.9,8-5.4,18.2-4.1,27.4,2.6-3.1.1-6.4-.1-9.4.5-12.6,2.5-15.6,6.1-17.5,20.5-5.3.7-2.7,3.3-1.3,5.6-4.2.8-4.4,4-4.6,7.3-1.1.8-1.2,1.8-.9,3Z"/>
        <path class="cls-5" d="M856.9,111.4c5.7-6.8,13.1-2.7,19.7-2.9,2.7,0,5.8,1.5,8.6.8,10.2-2.5,14.8,4.9,20.3,10.8.8.9,2,2.1.9,3.1-1.9,1.8-4.7.3-7,1.1-10,.2-20.1-1.3-30,1-2,.5-3.1-.3-4.2-2-2.7-4.1-5.5-8-8.3-12Z"/>
        <path class="cls-3" d="M942.1,269.6c5.4,3.2,6.3,10.4,12.6,12.7,2.5.9,2.7,4.2.7,6.9-3.5,4.6-5.9,14-9.8,13.5-4.9-.7-8.9-8-13.3-12.4-2-2-1-3.3.5-4.9,4.2-4.4,7.2-9.6,9.3-15.8Z"/>
        <path class="cls-3" d="M879.4,224.8c-2,6.5-4.9,12.5-10.4,16.6-3.2,2.4-5.5-2-8.3-2.9-6.4-2.1-9.5-5.3-3.6-11.4.8-.8,1.1-2.2,1.7-3.3,4.4-9,13.7-9.8,19.7-1.7.5.7.6,1.8.9,2.7Z"/>
        <path class="cls-3" d="M959.2,288.5c12.6,14.5,5.3,27.9-1.3,42-2.2-7.3-4.9-13.8-8.5-19.9-.8-1.3-1.5-2.8-.3-4,4.8-5,6.7-11.7,10-18Z"/>
        <path class="cls-3" d="M800.8,188.4c-5.2,6.2-9.2,11.6-5.7,20.3-6.1-1.8-11.7-2.7-16.4-5.2-5.9-3.1-3.1-8.8-2.1-13.6.9-4.4,3.6-6.1,8-5.1,5.1,1.1,10.3,2.2,16.2,3.5Z"/>
        <path class="cls-3" d="M773.9,183.9c-2.8,3.9-4.6,8.1-4.2,13.1.3,3.2-.8,4.5-4.3,3.4-3-1-6.2-2-9.3-2-6.5,0-7-4-6.4-8.8,1.2-9.5,1.4-9.7,10.2-7.3,4.4,1.2,9.1-2.4,13.9,1.7Z"/>
        <path class="cls-3" d="M842,203.3c-4.7,4.1-7.1,8.8-9.6,13.6-1.2,2.4-1,7-6,4.6-3.9-1.9-9.1-2.1-7.5-9.2,4.8-21.1,5.1-16.6,23-9Z"/>
        <path class="cls-3" d="M859.3,211.7c-2.8,4.7-5.3,9.1-8.1,13.4-1.4,2.1-1.5,6.2-4.6,5.6-3.7-.7-7.1-3.1-10.5-4.9-1-.5-.7-1.6-.2-2.5,2.6-5.2,5.3-10.4,7.8-15.7,1.2-2.5,2.8-2.2,4.8-1.2,3.7,1.8,7.4,3.6,10.9,5.3Z"/>
        <path class="cls-3" d="M814.2,216.2c-3.2-1.3-5.2-2-7.1-3-2.9-1.5-7.5-.4-7.7-6-.1-6,1.2-11.2,5.8-15.2,1.6-1.4,13.3.7,14.4,2.5.8,1.3,0,2.4-.7,3.3-3.8,5.1-5.5,10.8-4.6,18.5Z"/>
        <path class="cls-3" d="M899.9,263.1c8.4-.2,8.8-7.8,12-12.8,1-1.6.9-6.5,3.9-3.7,2.9,2.7,10.5,3.1,7.5,9.9-2.6,6-6.1,11.6-9.4,17.7-4.7-3.8-10.1-6.5-14-11.2h0Z"/>
        <path class="cls-3" d="M899.9,263c-1.1-.5-2.3-.8-3.3-1.5-8.9-5.8-8.8-5.8-3.2-14.5,1.6-2.4,2.6-5.2,4.2-7.6.9-1.3.1-4.9,3.1-3.6,2,.9,5.2,1.5,5.4,4.8,0,.3-1,.8-.9.9,2.7,6.4,2.7,6.3-2.1,13.8-1.5,2.4-4,4.4-3.3,7.8,0,0,0,0,0,0Z"/>
        <path class="cls-3" d="M884,225.3c14.9,8.9,15.8,4.4,3.4,21.1-1.6,2.1-2.6,7.4-8.1,3.6-4.4-3.1-7.2-4.8-1.8-9.8,3.9-3.7,5.1-9.3,6.5-14.9Z"/>
        <path class="cls-3" d="M928.8,257.7c1.8,1.3,3.3,2.4,4.9,3.5,4.3,2.9,5.9,6.2,2,10.8-1.7,2-3,4.4-4.5,6.6-4.6,6.7-6.2,6.6-11.7.7-1.8-2-1.4-3.2-.1-4.9,3.9-5,6.7-10.6,9.3-16.7Z"/>
        <path class="cls-5" d="M701.6,201.4c7.5-9.8,16.6-14.8,27-17.9,1.1,1.6-.7,2.3-.6,3.4.7,10.4-6.8,10.5-14,11.3-3.8.5-7.5,1.9-12.3,3.2Z"/>
        <path class="cls-3" d="M746.9,181c-1.1,3.2-2.8,6.2-2.3,9.7.8,5.1-1.6,6-6.1,6-4.7,0-5.7-1.7-5.6-6.1.2-9.6,1.2-10.4,14-9.7Z"/>
        <path class="cls-1" d="M464,778.4c-3.7,8.5-10.4,13-19.2,14.8,6-5.4,12.1-10.8,19.2-14.8Z"/>
        <path class="cls-5" d="M978.3,168.9c-.1,1.9-.3,3.8-.4,5.7-4-.7-10.8,0-10.6-4.3.2-3.5,7.1-1.1,11-1.4Z"/>
        <path class="cls-1" d="M473,771c-.8,2.3-2.1,4-4.7,4.3.5-2.6,2.4-3.6,4.7-4.3Z"/>
        <path class="cls-1" d="M466.8,776.6c0,1.9-1.1,2.2-2.7,1.9.4-1.4,1-2.4,2.7-1.9Z"/>
        <path class="cls-1" d="M478.2,766.6c-.8.5-1.5,1.1-2.3,1.6.3-1.2,1.1-1.6,2.3-1.6Z"/>
        <path class="cls-1" d="M476,768.1c-.5.5-1,1-1.6,1.5,0-1,.7-1.4,1.6-1.5Z"/>
        <path class="cls-1" d="M474.4,769.5c-.5.5-1,1-1.6,1.5,0-1.1.6-1.5,1.6-1.5Z"/>
        <path class="cls-1" d="M468.4,775.3c0,1-.5,1.5-1.5,1.6-.6-1.6.2-1.9,1.5-1.6Z"/>
        <path class="cls-1" d="M444.9,793.2c-.8.5-1.5,1-2.3,1.6.8-.5,1.5-1,2.3-1.6Z"/>
        <path class="cls-1" d="M759.3,302.9c20.5.4,27.8,15.4,26.5,31.9-.5,6.3-2.3,12.5-5.4,18.2-4.9,9.1-4.4,19.5-6.6,29.2-4.3,18.9-9.3,37.5-15.6,55.9-9,26.5-16.5,53.4-25.2,80-10.4,31.8-27.4,60.3-44.9,88.5-20.7,33.4-41.3,66.8-65.8,97.6-14.4,18.1-29.7,35.3-47.7,50-4.1,3.3-8.8,4.8-13.3.8-4.7-4.2-5.6-9.3-2-14.5,6.5-9.2,14.4-17.3,20.6-26.8,22.5-34.8,47.7-67.9,67.5-104.5,11.2-20.6,17.2-43.3,24.2-65.5,10.1-31.8,18.5-64,24.1-96.9,5.2-30.7,11.5-61.1,21.2-90.8,5-15.2,12.2-29.5,22.4-42.1,5.7-7,13.1-11,20-11.2Z"/>
        <path class="cls-1" d="M508.7,797.7c6.7,0,10.2,3,12.8,8.1,3.2,6.3,1,11.9-3,16.3-8.9,10-21,13.5-33.8,13.8-8.1.2-13-8.3-8.6-14.4,7.4-10.4,17.2-18.1,28.9-23.3,1.3-.6,2.9-.4,3.6-.5Z"/>
        <path class="cls-6" d="M939.6,189.3c.3.4.6.7,1,1.1,2.3,2.1,8.1,3.7,5.8,6.7-2.9,3.7-5.1-2.3-8-3.5-.9-1.8-2.5-3.8,1.3-4.3Z"/>
        <path class="cls-6" d="M936.4,199.9c.8,1.4,3.9,2.1,2.1,4.4-2,2.6-4.2.5-6.2-.4-2.8-5.7,1.1-4.3,4.1-4Z"/>
        <path class="cls-6" d="M706.6,124.1c2.3,2.1,3.6,4.1,0,6.1-.6-.4-1.2-.8-1.9-1.1-1.8-.8-4.2-1.7-3.6-3.9.9-3.2,3.6-1.2,5.6-1.1Z"/>
        <path class="cls-6" d="M709.4,135.8c2.8,2.6,1.4,4-1.5,5-2.2-.5-6.1.1-5.5-3.1.6-3.3,4.6-.8,6.9-1.8Z"/>
        <path class="cls-6" d="M794.2,134.4c-.4-1.2-.3-2.2.9-3,3,.3,5.6,1.2,7.1,4,.2.3-.5,1.5-.9,1.7-3,.9-4.8-1.5-7-2.7Z"/>
        <path class="cls-6" d="M799.7,124.1c-1.3-2.3-3.9-4.8,1.3-5.6,1.3,1.5,4.4,2.1,3.3,4.8-.8,1.8-3,.8-4.6.8Z"/>
      </g>
    </g>
  </g>
</svg>