<?xml version="1.0" encoding="UTF-8"?>
<svg xmlns="http://www.w3.org/2000/svg" version="1.1" viewBox="0 0 1080 1080">
  <defs>
    <style>
      .cls-1 {
        fill: #1d2c32;
      }

      .cls-2 {
        fill: #747ab3;
      }

      .cls-3 {
        fill: #e6f1f6;
      }

      .cls-4 {
        fill: #65b1d7;
      }

      .cls-5 {
        fill: #84c7e9;
      }
    </style>
  </defs>
  <!-- Generator: Adobe Illustrator 28.6.0, SVG Export Plug-In . SVG Version: 1.2.0 Build 709)  -->
  <g>
    <g id="Layer_1">
      <g>
        <path class="cls-1" d="M412.7,346c1.3-2.7,2.5-5.3,3.7-7.9,8.9-18.3,21.5-33,41.1-40,23.8-8.6,46.1-3.8,66.5,10,16.1,10.8,28.6,25,37.7,42.3,1,2,1.6,4.9,4.7,4.8,2.7-.1,3.2-2.8,4.2-4.7,6.1-10.9,13.1-21.1,23.2-28.8,16.7-12.7,35.6-13.1,55.2-9.9,13,2.1,25.8,5.1,39.1,4.1,5.6-.4,10.9-1.9,15.7-5,7.1-4.6,10-11.2,10.7-19.6,1.3-16.7,1.2-33.3.6-50-.9-24.8-2-49.6-2.7-74.4-.4-16,1.2-31.8,6.5-47.1.1-.4.2-.7.3-1.1,10.4-29.3,36.4-36.5,60-16.2,19.5,16.9,30.7,39.1,39,63,8.8,25.4,12.3,51.8,14.3,78.4,2.8,37,1.8,74.1,4.3,111.1,2.9,43.6,5.6,87.3,8.2,130.9,2.8,45.7,4.5,91.4,5.4,137.2.9,44.3,3.7,88.5,6.2,132.7,1.9,33.7,3.2,67.4,1.5,101.1-1.6,30.1-11.1,57.2-30.9,80.3-20.8,24.4-44.9,45.1-75.8,55-20.8,6.7-42.2,13.5-63.7,16.5-52,7.2-103.7,15.7-156.9,12.8-56.9-3.1-112.8-9.9-166.6-29.5-21.9-8-43.9-16-62.3-31.1-4-3.3-7.7-6.9-10.9-11-1.1-1.4-2-3-4-3.6-2.4-.7-3.2-2.9-3.4-5.3-1.3-21.6-3.7-43.3-3.3-64.9.2-11.5-2.5-17.1-13.1-22.2-17.8-8.5-27.5-24.8-33.4-43.2-6.5-20.4-9.7-41.5-10.7-62.8-3.3-65-2.1-130,2.4-194.9,2.5-35.8,7.8-71.4,13.3-106.9,5.7-36.9,9-73.9,9.2-111.2.2-39.8,3.1-79.6,1.4-119.5-.8-20-1.7-40,.2-60,2-21.1,6-41.8,15.7-60.9,4.9-9.7,11.2-18.3,19.8-25.1,22.2-17.4,49.7-14.5,67.8,7.1,10.4,12.5,16.8,27.2,21.1,42.5,12.7,45.3,24.1,90.8,29.5,137.7,3.3,28.7,7.4,57.3,8,86.2,0,1-.3,2.2,1.2,3.2ZM444.4,602.1c3.1-1.1,6.3-2.1,9.4-3.3,37.8-13.7,76.3-23,116.9-16.8,3.8.6,3-1.2,2.3-3.3-1.8-5.8-3.9-11.6-5.4-17.5-8.7-35-12.9-70.6-15.7-106.5-1.9-24.8-1.9-49.6,6.4-73.1,4.3-12.3,4.1-21.5-5.1-30.6-6.8-6.7-9.7-16.6-17.7-22.3-9.3-9.6-20.5-16.3-33.1-20.6-27.3-9.1-53-.1-68.7,23.9-4.4,6.7-7.9,13.8-10.7,21.3-12,32.5-17.6,66.2-16.7,100.7,1.1,46.6,1.7,93.2,12.1,139.1.8,3.3,1.8,7.7-3.1,9.7-2.1-2.5-4.8-4.5-5.6-8.1-2.1-9.4-4.2-18.7-5.6-28.3-2.6-18.5-3.7-37.2-5-55.8-2-27.1-4.4-54.3-2.8-81.6,1.1-17.6,3.8-34.9,6.9-52.2,3.1-9,.4-18.1.2-27.1-.3-21.7-3-43.1-5.7-64.6-6-47.6-15.1-94.5-28.1-140.6-4.5-16-8.7-32.1-16.5-47-5.1-9.6-11-18.5-21-23.7-11.4-6.6-22.8-5.5-33.7.9-13.3,7.8-21,20-26.3,34-7.5,19.8-10.8,40.4-11.1,61.5-.6,40.4,1.5,80.7.4,121.1-1.5,57.3-2.6,114.4-12.5,171.1-7.1,40.5-12.4,81.3-14.4,122.4-2.2,45.7-2.7,91.5-2.1,137.3.4,27.3,4,54.2,10.7,80.8,5.9,23.4,20.2,38.4,42.6,46.7,22.6,8.3,45.9,9.4,69.6,7.1,34.5-3.4,65.6-16,94.6-34.5,35.5-22.6,71.9-43.6,110.7-60.2,11.4-4.9,22.2-11,32.3-18.4,20.6-15.2,35.7-34.5,42.1-59.6,5.5-21.4,3-41.5-11.5-59.1-.9-2.3-2.8-3.9-4.4-5.6-12.3-12.8-27.6-20.3-44.7-24.2-27.1-6.1-53.9-2.9-80.2,4.1-38.9,10.4-76.3,25.9-114.6,38.2-7.6,2.4-14.4,6.7-20,12.6-2.8,2.9-6.2,5-9.6,1.7-3.6-3.4-1.6-7.2,1.2-10.3,3.1-3.5,6.8-6.3,10.7-8.7,6.8-4.2,14.1-7.3,21.7-9.9,11.4-3.8,22.8-7.5,34.2-11.2,9.2-2.5,18-5.8,26.8-9.4ZM318.6,958.6c4.7,3.6,10.1,6.2,15.4,8.7,38,17.7,78.3,28.2,119.4,35.5,31.8,5.7,64.2,5.6,96.4,6.6,53.6,1.6,106.3-6.1,158.6-17.3,17.8-3.8,35-9.2,50.5-19.2,12.3-5.7,23.8-12.7,33.9-21.9,18-16.4,32.3-35.8,43.5-57.2,5.6-10.8,11.1-22,12.4-34.3,1.2-10.8,1.3-21.8,1.2-32.7-.6-52.6-5.2-105-8.1-157.6-.5-8.6.1-17.4-1.4-26-.4-14.4-.6-28.8-1.1-43.2-1.4-40.3-3.1-80.7-6.3-120.9-5.1-64.2-10-128.5-10.6-193-.3-33.6-2.3-67-10.2-99.8-5.2-21.7-13.1-42.4-26.4-60.6-5.1-8.3-11.4-15.4-19.8-20.6-11.6-7.2-22.7-5-30.5,6.1-5.7,8.1-8.3,17.3-9.9,26.9-3.9,23.8-1.4,47.7-.7,71.5.9,34.4,5,68.8-3,102.9-1.3,2.2-1.6,4.9-3.9,6.5-9.8,7.2-20.1,12.9-32.9,9.8-2.5-1-4.8-2.7-7.7-2.7-9.3.1-18.5-1.2-27.6-2.3-9.4-1.1-18.8-2.3-28.2-1-17.1,2.3-27.9,13.4-36.5,27.2-14.2,22.7-20.5,47.7-21.6,74.3-1.2,27.1,1.4,54,5,80.8,3.2,24.2,7.5,48.2,14.9,71.6,2.3,7.2,5.8,11.2,12.9,12.5.2,0,.4,0,.6,0,14.4,6.8,27.6,15.5,36.5,28.9,4.3,6.4,7.9,7.5,15.5,6,36.2-7.3,56.1-29.7,58.1-66.6,1.2-22.2-2.5-43.9-5.2-65.7-3.1-24.8-5.1-49.6.5-74.5,1.5-6.8,4.6-12.5,9.5-19.1.9,6.9-.5,12.3-.6,17.7-.3.8-.8,1.7-.9,2.5-4.8,23.8-2.4,47.5,1.7,71.1,3.7,21.5,7.7,43,7.3,65-.7,44.5-26.3,74.5-70.2,81.4-4.6.7-4.2,2.4-3.1,5.7,4.2,12.7,4.6,25.7,2.3,38.9-3.3,18.3-11.8,34.1-22.6,48.9-18.8,22.6-43.4,36.7-69.9,48.2-8.8,3.8-17.6,7.6-25.9,12.4-2.7,1.3-5.4,2.4-8,3.8-27.3,14.1-52.7,31.6-79.4,46.7-46.8,26.4-96.5,36.6-149.6,23.9-3.7-.9-4.4,0-4.2,3.5,1,18.8,2.3,37.6,4.1,56.4.7,7.8,2.1,15,8,20.6,5.5,5.3,11.3,10.1,18.1,13.6Z"/>
        <path class="cls-5" d="M759,972.9c-15.5,10-32.7,15.4-50.5,19.2-52.3,11.2-105,18.8-158.6,17.3-32.2-.9-64.6-.9-96.4-6.6-41.1-7.4-81.4-17.8-119.4-35.5-5.3-2.5-10.7-5-15.4-8.7,7.3-15.9,21.1-25.8,34.3-35.9,8-6.1,18.1-9.5,25.9-15.7,19.3-15.4,42.5-24.4,62.4-39,14.5-10.7,31.2-18.4,43.2-32.5,1.7-2,3.2-4.1,5.1-5.8,12.8-11.2,25.9-22,37.4-34.6,1.4-1.5,3.2-2.6,2.8-5.1,8.3-4.8,17.1-8.6,25.9-12.4,26.4-11.5,51.1-25.6,69.9-48.2,7.9,1.2,15.6,1.1,23.4-1.6,24.7-8.6,43.5-24.7,58.4-45.6,6.1-8.5,10.7-18,16.3-27,11.9-19.1,17.2-39.7,14.4-62.2-.7-5.8-1.5-11.8-1-17.6.8-8.8,2.1-17.5,2-26.4-.1-11.5,0-22.9-1-34.3-1.1-11.9-2.4-23.8-4.1-35.6-2.5-16.9-5.6-33.7-8.1-50.6-1.5-10.2-6.2-14.6-14.6-12.5.1-5.4,1.5-10.8.6-17.7-5,6.6-8,12.3-9.5,19.1-5.6,24.8-3.6,49.6-.5,74.5,2.7,21.8,6.4,43.6,5.2,65.7-2,36.9-21.9,59.3-58.1,66.6-7.6,1.5-11.2.4-15.5-6-8.9-13.4-22.1-22.1-36.5-28.9,4.2-3.9,5.6-9,4.1-14.2-4.5-15.4-6.8-31.2-9-47-2.5-18-4.1-36.1-5.1-54.3-.6-9.9.2-19.9.7-29.8.9-16.5,4-32.5,8.5-48.2,1.7-6.1,3-12.6,7.5-17.6.9.1,1.8.1,2.7.4,2.6.8,5.6,1.2,6.2-2.2.7-4.1-3.2-2.2-5-2.9-1-2.2.7-3.2,1.6-4.8,3.3-5.7,9.7-8.3,13.3-13.6,2.8-.2,5.8,0,7.1-3.4,9.1-6.9,19.8-10.3,30.6-13.4,8.6-2.5,17.8-3.4,25.2-9.3,12.9,3.1,23.1-2.6,32.9-9.8,2.2-1.6,2.5-4.4,3.9-6.5,13.1-5.4,18.5-16.8,22.5-29.1,8.6-26.1,7.5-53.7,12.4-80.4,2.7,0,5.8,3,7.9-.7,1.3-2.3-1-3.6-2.1-5.2-2.2-3.4-3.2,1.1-4.9.8,1.1-6.5,2.4-12.9,3.2-19.4.4-2.6,2.1-2.6,3.8-3,1.1.1,2.2.3,3.3.4,2.4.2,4.6-.2,5.1-3,.4-2.7-1.6-3.9-3.9-4.5-1.6-.4-3.3-.5-4.9-.7,2.6-16.3,10-30.2,21.3-42.1,13.2,18.3,21.1,38.9,26.4,60.6,7.9,32.8,9.9,66.2,10.2,99.8.6,64.5,5.5,128.7,10.6,193,3.2,40.2,4.9,80.6,6.3,120.9.5,14.4.7,28.8,1.1,43.2-.6,3.1,0,6.2-1,9.3-3,9.4-3.3,19.3-3.4,29-.5,29-.9,57.9-4.6,86.7-2.2,16.8-4.2,33.5-7.8,50.1-5.4,25.4-9.5,51.1-18.7,75.5-8.9,23.5-19.5,46-39,62.9-5,4.3-7.2,9.7-6.8,16.2Z"/>
        <path class="cls-5" d="M417.6,611.5c-11.4,3.7-22.8,7.4-34.2,11.2-7.5,2.5-14.9,5.7-21.7,9.9-4,2.4-7.6,5.3-10.7,8.7-2.8,3.1-4.8,6.9-1.2,10.3,3.4,3.3,6.9,1.1,9.6-1.7,5.6-5.9,12.4-10.2,20-12.6,38.4-12.3,75.7-27.8,114.6-38.2,26.2-7,53.1-10.2,80.2-4.1,17.2,3.9,32.4,11.4,44.7,24.2,1.7,1.7,3.5,3.3,4.4,5.6.7,6.6,1.7,13.1,2.1,19.7.5,8.8-1.3,17.3-3.2,26-4.6,20.9-11.1,40.5-27.9,55.2-10.3,9-20.7,17.9-32.2,25.2-9.6,6.1-19.2,12.8-30.2,16.1-10.9,3.3-21.2,7.6-31,13.1-17.4,9.7-34.7,19.7-53.6,26.3-19.7,6.9-39.9,11.4-60.8,13.4-17.6,1.7-34.6.5-51.2-5-6.3-2.1-13.2-4.4-16.5-11.3-4.5-9.1-9.2-18.1-13.2-27.4-12.8-29.6-15.5-61.2-17.9-92.8-1-13.2-1.5-26.5-2.1-39.8-1-24-3.3-47.8-4.5-71.7-.8-15.4-.2-31-.2-46.4,0-22.9-.2-45.9,1-68.8.5-9.2-.6-18.5-.7-27.7-.3-18.1-.3-36.2.5-54.3.8-17.1,1.6-34.3,1.6-51.5,0-31.4-.4-62.8,1.8-94.2,1.2-17.1,2-34.3,1.5-51.5-.3-9.4-.5-18.9,0-28.3.7-10.8.9-21.9,6.9-31.5,6.3-10.3,11.7-21.5,24-26.5,1.7-.7,3.1-1.9,3.9-3.8.5-1.2,1.1-2.5,2.7-2.5,7.9.2,8.2-5.2,8.1-10.9,10,5.2,15.9,14.1,21,23.7,7.8,14.8,12,31,16.5,47,13,46.1,22.1,93.1,28.1,140.6,2.7,21.5,5.4,42.9,5.7,64.6,0,9-.1,18.1-.2,27.1-3.1,17.3-5.9,34.7-6.9,52.2-1.6,27.3.8,54.4,2.8,81.6,1.4,18.6,2.4,37.3,5,55.8,1.4,9.5,3.5,18.9,5.6,28.3.8,3.5,3.5,5.6,5.6,8.1,1.6,2.7,2.7,5.5,2.2,8.8ZM613.3,641.6c.1,0,.2.1.3.2l-.4-.2c-.1,0-.3-.2-.4-.3.1,0,.3.2.4.3ZM602.2,630.5c-.1,0-.3-.2-.4-.2.1,0,.3.2.4.3,1.9,3.8,4.7,6.6,8.9,7.8.2.2.3.3.5.5-.1-.2-.3-.4-.4-.5-1.8-3.9-4.7-6.6-8.9-7.8ZM554.7,620.4c-18.8,0-34.6,3.4-49.7,9.8-2.4,1-4.6,1.9-7.4,1.8-3.7-.2-6.3,2-5.2,6,3.6,12.8,4.4,26.2,7.5,39.1,3.1,12.5,3.1,25.8,11,36.9.4.6,1.5,1.5.5,2.4-3.2,2.8,0,3.5,1.5,4.7,2.5,2,5.3,2.4,8.3,2.4,10.4,0,20.5-2.2,30.4-5.1,19.1-5.5,36.6-14.2,50.4-28.9,18.8-20.1,15.1-45-8.6-58.8-12.6-7.4-26.5-10-38.7-10.1ZM480.9,699.8c0-.5-.3-1.6-.5-2.6-1.4-9.7-5.2-18.8-8.6-27.9-.9-2.3-.5-7.2-3.9-6.1-3.6,1.1-1.2,5.3-.7,8.1,2.1,11.4,6.7,22.2,8.3,33.7.1.9,0,1.9,1.2,2.2,1.3.3,2.2-.4,2.7-1.4,1-1.6,1.4-3.4,1.3-5.9ZM295.1,194.7c8.2-3.1,10.1-3.5,16.2-3.1,3.1.2,6.2.7,9.3,1.2,2.2.3,4.3,0,4.6-2.5.3-2.2-1.4-3-3.3-3.7-8.5-3.1-20.6.4-26.8,8.1ZM294.1,205.6c3.8,4,8.6,4.6,13.2,5.2,1.5.2,3-.5,3.4-2.3.4-1.8-.9-3-2.3-3.3-4.6-.9-9.2-2.3-14.4.4ZM457.9,696.4c-1.3-.2-1.8.7-2,1.5-1,3.6.5,6.8,2.1,9.9.5.8,1.7.8,2.5.1,1.7-1.4,1.4-3.2.7-5-.9-2.3-.6-5.2-3.2-6.6Z"/>
        <path class="cls-4" d="M332.1,73.8c.1,5.7-.1,11.1-8.1,10.9-1.6,0-2.2,1.3-2.7,2.5-.8,1.9-2.2,3.1-3.9,3.8-12.3,5-17.7,16.2-24,26.5-5.9,9.7-6.1,20.8-6.9,31.5-.6,9.4-.4,18.9,0,28.3.6,17.2-.3,34.4-1.5,51.5-2.2,31.4-1.9,62.8-1.8,94.2,0,17.2-.8,34.4-1.6,51.5-.8,18.1-.8,36.3-.5,54.3.1,9.2,1.2,18.5.7,27.7-1.2,22.9-.9,45.9-1,68.8,0,15.5-.6,31,.2,46.4,1.3,23.9,3.5,47.8,4.5,71.7.5,13.2,1.1,26.5,2.1,39.8,2.4,31.6,5.1,63.2,17.9,92.8,4,9.3,8.8,18.3,13.2,27.4,3.4,6.8,10.2,9.1,16.5,11.3,16.6,5.6,33.7,6.7,51.2,5,20.9-2,41.1-6.5,60.8-13.4,18.9-6.6,36.2-16.6,53.6-26.3,9.8-5.5,20.1-9.8,31-13.1,11-3.3,20.6-10,30.2-16.1,11.5-7.3,21.9-16.2,32.2-25.2,16.8-14.7,23.4-34.3,27.9-55.2,1.9-8.6,3.7-17.1,3.2-26-.4-6.6-1.4-13.2-2.1-19.7,14.5,17.6,17,37.7,11.5,59.1-6.4,25.1-21.5,44.4-42.1,59.6-10,7.4-20.9,13.5-32.3,18.4-38.8,16.7-75.2,37.6-110.7,60.2-29,18.5-60.2,31.1-94.6,34.5-23.7,2.3-46.9,1.2-69.6-7.1-22.4-8.2-36.7-23.3-42.6-46.7-6.7-26.6-10.3-53.5-10.7-80.8-.6-45.8-.1-91.5,2.1-137.3,2-41.1,7.2-81.9,14.4-122.4,9.9-56.7,11-113.8,12.5-171.1,1.1-40.4-1-80.8-.4-121.1.3-21,3.6-41.7,11.1-61.5,5.3-14,13.1-26.3,26.3-34,10.9-6.4,22.3-7.6,33.7-.9Z"/>
        <path class="cls-5" d="M535.6,328.6c8,5.8,10.9,15.6,17.7,22.3,9.2,9,9.4,18.3,5.1,30.6-8.3,23.5-8.4,48.3-6.4,73.1,2.8,35.9,7,71.5,15.7,106.5,1.5,5.9,3.5,11.7,5.4,17.5.7,2.1,1.4,3.9-2.3,3.3-40.7-6.2-79.1,3.2-116.9,16.8-3.1,1.1-6.3,2.2-9.4,3.3-.4-23.8-.2-47.7-1-71.5-.7-20.5-.8-41,.7-61.5.9-12.9,2.6-25.6,4.4-38.3,2.8-19.5,9.1-37.9,15.9-56.3,4.2-11.4,8-23.6,18-31.3,9.6-7.4,19.5-15.8,33.5-10.8,1.4.5,3.3.1,4.9-.3,2.6-.7,5.1-.9,7.6-.1,3.4,1,5.7-.2,7.2-3.3Z"/>
        <path class="cls-4" d="M535.6,328.6c-1.5,3.1-3.8,4.3-7.2,3.3-2.5-.8-5.1-.6-7.6.1-1.6.4-3.5.8-4.9.3-14-5-23.9,3.4-33.5,10.8-10,7.7-13.8,19.9-18,31.3-6.8,18.3-13.1,36.8-15.9,56.3-1.8,12.7-3.5,25.4-4.4,38.3-1.4,20.5-1.3,41.1-.7,61.5.8,23.9.6,47.7,1,71.5-8.8,3.6-17.7,6.9-26.8,9.4.5-3.2-.6-6.1-2.2-8.8,4.9-2,3.9-6.4,3.1-9.7-10.4-45.8-10.9-92.5-12.1-139.1-.8-34.5,4.8-68.2,16.7-100.7,2.8-7.5,6.3-14.6,10.7-21.3,15.7-24,41.4-33.1,68.7-23.9,12.6,4.2,23.8,11,33.1,20.6ZM461.1,349c1.3,0,2.6.3,3.9.2,2.3,0,4-1.1,3.9-3.6-.1-2.3-1.2-3.7-3.9-3.2-1,.2-2.2-.3-3.3-.3-3.4.2-8.7-1-8.9,3.1-.2,4.4,5,3.5,8.4,3.7ZM451.5,362.5c4.1,2.1,7.3,4.4,11.2,1.7.5-.4,1.1-1.1,1.1-1.6,0-.5-1-1.3-1.5-1.2-3.3.2-6.8-1.6-10.7,1.1Z"/>
        <path class="cls-4" d="M711.1,415.9c8.4-2,13.1,2.4,14.6,12.5,2.5,16.9,5.6,33.7,8.1,50.6,1.8,11.8,3.1,23.7,4.1,35.6,1,11.4.9,22.9,1,34.3.1,8.9-1.2,17.6-2,26.4-.5,5.8.2,11.8,1,17.6,2.8,22.5-2.4,43.1-14.4,62.2-5.6,8.9-10.2,18.4-16.3,27-14.9,20.9-33.7,37-58.4,45.6-7.8,2.7-15.5,2.9-23.4,1.6,10.7-14.8,19.3-30.6,22.6-48.9,2.4-13.2,2-26.2-2.3-38.9-1.1-3.3-1.5-4.9,3.1-5.7,43.9-6.9,69.5-36.9,70.2-81.4.4-22-3.7-43.5-7.3-65-4-23.6-6.4-47.3-1.7-71.1.2-.9.6-1.7.9-2.5Z"/>
        <path class="cls-4" d="M529.8,790.1c.5,2.5-1.4,3.6-2.8,5.1-11.6,12.5-24.6,23.4-37.4,34.6-1.9,1.7-3.5,3.8-5.1,5.8-12,14.1-28.7,21.8-43.2,32.5-19.8,14.6-43,23.6-62.4,39-7.8,6.2-17.9,9.6-25.9,15.7-13.2,10.1-27.1,20-34.3,35.9-6.8-3.5-12.6-8.3-18.1-13.6-5.9-5.7-7.2-12.8-8-20.6-1.8-18.8-3.1-37.6-4.1-56.4-.2-3.5.5-4.4,4.2-3.5,53.1,12.7,102.8,2.6,149.6-23.9,26.7-15.1,52.1-32.6,79.4-46.7,2.6-1.4,5.3-2.5,8-3.8Z"/>
        <path class="cls-4" d="M603.5,378.1c-4.5,5-5.8,11.6-7.5,17.6-4.4,15.7-7.6,31.7-8.5,48.2-.5,10-1.3,19.9-.7,29.8,1,18.1,2.6,36.3,5.1,54.3,2.2,15.9,4.5,31.6,9,47,1.5,5.2,0,10.3-4.1,14.2-.2,0-.4,0-.6,0-7.1-1.3-10.6-5.4-12.9-12.5-7.4-23.4-11.7-47.4-14.9-71.6-3.6-26.8-6.1-53.7-5-80.8,1.2-26.5,7.5-51.6,21.6-74.3,8.6-13.8,19.4-24.9,36.5-27.2,9.4-1.3,18.8-.1,28.2,1,9.2,1.1,18.4,2.4,27.6,2.3,3,0,5.2,1.6,7.7,2.7-7.4,5.9-16.6,6.8-25.2,9.3-10.8,3.1-21.5,6.5-30.6,13.4-.4-2-1.4-3.7-3.6-3.2-7.2,1.6-14.7,0-21.9,1.4-1.9.4-4.8,1.1-4.6,3.2.3,2.3,3.3,2.4,5.4,2.7.5,0,1.1-.1,1.6-.2,5.3-.8,10.6-.8,15.9-.4-3.7,5.3-10,8-13.3,13.6-.9,1.5-2.7,2.6-1.6,4.8,0,0-.2,0-.2,0-.3-.1-.6-.2-.8-.3l.3.7c-.5,1.4-1.8.9-2.8,1.1-1,.1-2.6-.3-2.5,1.2,0,.7,1.4,1.4,2.1,2.1Z"/>
        <path class="cls-4" d="M765,175.5c-1.8.4-3.5.4-3.8,3-.9,6.5-2.1,12.9-3.2,19.4-1.9.4-4.8-.5-5.2,1.8-.4,2.3,2.7,2.3,4.2,3.4-5,26.7-3.8,54.3-12.4,80.4-4,12.2-9.5,23.7-22.5,29.1,8-34.1,3.9-68.6,3-102.9-.6-23.9-3.2-47.7.7-71.5,1.6-9.6,4.2-18.8,9.9-26.9,7.8-11.1,18.9-13.3,30.5-6.1,8.3,5.2,14.7,12.3,19.8,20.6-11.3,11.9-18.7,25.7-21.3,42.1-4.4.2-8.9,0-13.1,1.7-1.3.5-3.3,1.2-3.2,2.7.1,2,2.3,1.3,3.6,1.5,4.3.6,8.7,1.2,13,1.8Z"/>
        <path class="cls-4" d="M759,972.9c-.4-6.5,1.8-11.9,6.8-16.2,19.5-16.9,30.1-39.4,39-62.9,9.3-24.4,13.4-50.1,18.7-75.5,3.5-16.6,5.6-33.3,7.8-50.1,3.8-28.8,4.2-57.7,4.6-86.7.2-9.7.5-19.6,3.4-29,1-3.1.4-6.3,1-9.3,1.5,8.6.9,17.3,1.4,26,2.9,52.5,7.4,104.9,8.1,157.6.1,10.9,0,21.9-1.2,32.7-1.4,12.3-6.8,23.6-12.4,34.3-11.2,21.4-25.5,40.8-43.5,57.2-10.1,9.2-21.5,16.2-33.9,21.9Z"/>
        <path class="cls-3" d="M403.3,376.7c0-9,.1-18.1.2-27.1.2,9,2.9,18.1-.2,27.1Z"/>
        <path class="cls-1" d="M622.3,354.9c-5.3-.3-10.6-.3-15.9.4-.5,0-1.1.3-1.6.2-2.1-.3-5.2-.4-5.4-2.7-.2-2.1,2.7-2.8,4.6-3.2,7.2-1.4,14.6.2,21.9-1.4,2.2-.5,3.2,1.2,3.6,3.2-1.3,3.3-4.3,3.2-7.1,3.4Z"/>
        <path class="cls-1" d="M765,175.5c-4.3-.6-8.7-1.2-13-1.8-1.3-.2-3.5.5-3.6-1.5-.1-1.5,1.8-2.2,3.2-2.7,4.2-1.7,8.7-1.5,13.1-1.7,1.6.2,3.3.3,4.9.7,2.3.6,4.3,1.8,3.9,4.5-.4,2.7-2.7,3.2-5.1,3-1.1-.1-2.2-.2-3.3-.4Z"/>
        <path class="cls-1" d="M756.9,203c-1.5-1-4.7-1-4.2-3.4.4-2.2,3.4-1.3,5.2-1.8,1.7.3,2.7-4.2,4.9-.8,1,1.6,3.4,3,2.1,5.2-2.2,3.7-5.3.7-7.9.7Z"/>
        <path class="cls-1" d="M603.5,378.1c-.7-.7-2.1-1.4-2.1-2.1,0-1.5,1.5-1.1,2.5-1.2,1-.2,2.2.3,2.8-1.1.3,0,.5-.2.5-.4,0,0,.2,0,.2,0,1.9.7,5.7-1.2,5,2.9-.6,3.4-3.5,3-6.2,2.2-.9-.2-1.8-.3-2.7-.4Z"/>
        <path class="cls-1" d="M554.7,620.4c12.2.1,26.1,2.7,38.7,10.1,23.7,13.8,27.4,38.7,8.6,58.8-13.8,14.8-31.3,23.4-50.4,28.9-9.9,2.9-20,5.2-30.4,5.1-3,0-5.9-.4-8.3-2.4-1.6-1.2-4.6-1.9-1.5-4.7,1-.8-.1-1.8-.5-2.4-7.9-11-7.9-24.4-11-36.9-3.2-12.9-3.9-26.3-7.5-39.1-1.1-3.9,1.5-6.1,5.2-6,2.8.1,5-.8,7.4-1.8,15.2-6.4,31-9.8,49.7-9.8ZM602.4,669.1c2.2-4.7,2.2-9.5-.1-14.2-3.4-7.2-8.4-13-15.6-16.4-19.5-9.3-39.7-10-60.4-4.6-7.1,1-13.8,3.4-20.3,6.4-3,1.3-3.2,3.1-1.8,5.6,1.2,13.6,5,26.8,7.4,40.2,1.3,7,4.6,13.9,3.4,21.2-.8,4.7-1.2,7.7,5,5.4.3-.1.7,0,1.1,0,22.8-2.1,44.4-8,63-21.9,7.7-5.8,15.3-11.8,18.2-21.7Z"/>
        <path class="cls-1" d="M480.9,699.8c0,2.5-.4,4.3-1.3,5.9-.6,1-1.4,1.7-2.7,1.4-1.1-.3-1.1-1.2-1.2-2.2-1.6-11.5-6.2-22.3-8.3-33.7-.5-2.9-2.9-7,.7-8.1,3.4-1,3,3.8,3.9,6.1,3.4,9.1,7.1,18.2,8.6,27.9.2,1.1.4,2.2.5,2.6Z"/>
        <path class="cls-1" d="M295.1,194.7c6.1-7.8,18.3-11.2,26.8-8.1,1.9.7,3.6,1.5,3.3,3.7-.4,2.5-2.4,2.9-4.6,2.5-3.1-.4-6.2-1-9.3-1.2-6.1-.5-8,0-16.2,3.1Z"/>
        <path class="cls-1" d="M294.1,205.6c5.1-2.7,9.8-1.2,14.4-.4,1.4.3,2.7,1.5,2.3,3.3-.4,1.7-1.9,2.4-3.4,2.3-4.7-.6-9.4-1.2-13.2-5.2Z"/>
        <path class="cls-1" d="M457.9,696.4c2.6,1.4,2.4,4.2,3.2,6.6.7,1.8,1.1,3.6-.7,5-.8.6-2,.7-2.5-.1-1.6-3.1-3.1-6.3-2.1-9.9.2-.8.7-1.7,2-1.5Z"/>
        <path class="cls-2" d="M611.1,638.4c-4.2-1.2-7-4-8.9-7.8h0c4.2,1.1,7.1,3.9,8.9,7.8h0Z"/>
        <path class="cls-2" d="M602.2,630.5c-.1,0-.3-.2-.4-.3.1,0,.3.2.4.2,0,0,0,0,0,0Z"/>
        <path class="cls-2" d="M611.1,638.3c.1.2.3.4.4.5-.2-.2-.3-.3-.5-.5,0,0,0,0,0,0Z"/>
        <path class="cls-2" d="M613.3,641.6c-.1,0-.3-.2-.4-.3.1,0,.3.2.4.3h0Z"/>
        <path class="cls-2" d="M613.3,641.7l.4.2c-.1,0-.2-.1-.3-.2h0Z"/>
        <path class="cls-1" d="M461.1,349c-3.4-.3-8.6.7-8.4-3.7.2-4.1,5.5-2.9,8.9-3.1,1.1,0,2.3.5,3.3.3,2.7-.6,3.8.8,3.9,3.2.2,2.6-1.5,3.6-3.9,3.6-1.3,0-2.6-.1-3.9-.2Z"/>
        <path class="cls-1" d="M451.5,362.5c4-2.8,7.4-1,10.7-1.1.5,0,1.4.7,1.5,1.2,0,.5-.5,1.3-1.1,1.6-3.9,2.7-7.1.4-11.2-1.7Z"/>
        <path class="cls-5" d="M607.1,373.2c0,.3-.2.4-.5.4-.1-.2-.2-.5-.3-.7.3.1.6.2.8.3Z"/>
        <path class="cls-2" d="M526.3,634c20.7-5.5,40.9-4.7,60.4,4.6,7.2,3.4,12.2,9.2,15.6,16.4,0,4.7,0,9.5.1,14.2-2.9,9.9-10.5,15.9-18.2,21.7-18.7,13.9-40.2,19.8-63,21.9-.4,0-.8,0-1.1,0-6.2,2.3-5.8-.7-5-5.4,1.2-7.3-2.1-14.1-3.4-21.2-2.4-13.4-6.2-26.6-7.4-40.2,2.1-1.7,3-4.8,5.9-5.4,5.8-1.2,10.6-4.7,16.1-6.6Z"/>
        <path class="cls-4" d="M526.3,634c-5.5,1.8-10.3,5.3-16.1,6.6-3,.6-3.9,3.7-5.9,5.4-1.4-2.5-1.2-4.3,1.8-5.6,6.5-2.9,13.1-5.4,20.3-6.4Z"/>
        <path class="cls-4" d="M602.4,669.1c0-4.7,0-9.5-.1-14.2,2.4,4.7,2.3,9.4.1,14.2Z"/>
      </g>
    </g>
  </g>
</svg>