<?xml version="1.0" encoding="UTF-8"?>
<svg xmlns="http://www.w3.org/2000/svg" version="1.1" viewBox="0 0 1080 1080">
  <defs>
    <style>
      .cls-1 {
        fill: #a6cca9;
      }

      .cls-2, .cls-3 {
        fill: #ebde86;
      }

      .cls-2, .cls-4 {
        stroke: #262424;
        stroke-miterlimit: 10;
      }

      .cls-5 {
        fill: #080b0e;
      }

      .cls-6 {
        fill: #fff;
      }

      .cls-7 {
        fill: #6fbde2;
      }

      .cls-4 {
        fill: none;
      }
    </style>
  </defs>
  <!-- Generator: Adobe Illustrator 28.6.0, SVG Export Plug-In . SVG Version: 1.2.0 Build 709)  -->
  <g>
    <g id="Layer_1">
      <g>
        <path class="cls-7" d="M925.4,665.8c11.1,14.3,18.1,30.9,25.1,47.3,18.9,44.9,43.1,86.7,71.6,126.2,3.8,5.3,11.8,10.5,7.1,18.1-4.2,6.9-11.8,8.7-20.5,8.3-61-2.9-122-5.2-183-7.8-107.2-4.6-214.3-9.5-321.5-13.8-127.5-5.2-255-9.8-382.6-14.8-10.1-.4-20.2-1.4-29.3-2.1-5-6.4-.3-9.8,2-13.3,22.5-34,41.6-70,57.9-107.2,6.8-15.7,15.4-21.9,33.3-21.6,57.9,1,115.9.2,173.8-.5,22.7-.3,45.4-2.8,66.7-11.1,10.9-4.2,15.2-3.2,17.7,8.6,2,9.5,3.7,21.3,17.3,21.9,13.3.6,12.6-12,16.3-19.6,5.1-10.4,11.6-14.5,23.6-13.8,125.2,6.6,250.5,5.1,375.7,5.5,15.6,0,34.3,8.1,46.6-9.9,0,0,1.2.5,1.2.5l1.1-.7ZM604.1,766.5c26.4,19.3,53,13.4,80.1,4,21.9-7.6,43.8-11.4,65.2,2.8,7.9,5.3,17.9,7.9,27.1,4.5,31.3-11.4,59.4-7.7,85.4,14.1,7.7,6.5,18.2,9.5,28.1,1.8,3.5-2.7,4.9-6.6,3.4-10.4-2.7-6.7-6.1-.6-8.7.4-9.8,3.7-17.2-1.5-23.3-7.2-23.4-22-50.2-26.7-80.4-18-10.9,3.1-21.6,2.1-31.6-4.2-18.6-11.7-38.4-10.9-58.8-5-28.3,8.2-56,19.9-86.6,17.1ZM198.1,776.6c21,4,42,8.5,63.1,11.9,14.5,2.3,27.7-.2,37.6-13.2,10.9-14.2,24.9-11.4,37.7-3.6,17.9,10.9,34.2,12.5,51.2-2.1,12-10.4,26.4-7,40.1-2.7,5.9,1.8,11.5,4.8,17.4,6.4,4.5,1.2,7.8-2.3,8.9-5.8.6-1.7-2.3-5.3-4.4-7-20.2-16.6-49.3-19.3-72.1-4.6-12.9,8.3-22.6,8.5-36.1.8-20-11.6-40.8-11.2-56.8,8.5-7,8.6-15,8.9-24.8,9.3-20.6.9-40.9-8.5-62.1,2.1Z"/>
        <g>
          <path class="cls-1" d="M457.8,628.8c-24.9-96.8-68.8-183.3-92.4-276.8-8.7-34.5-12.4-69.7-6.3-104.8,10.7-61.1,59.5-98.9,120.4-95.7,62.2,3.3,103.2,45.5,108.1,111.2,4.1,55.2-12,105.1-39.6,152-32.1,54.6-65.3,108.7-79.7,171.6-2.9,12.8-.9,26.8-10.5,42.4ZM464.8,228.5c-37.3-.5-69.1,30.5-69.3,67.7-.2,37.3,31.1,68.6,68.5,68.5,36.7,0,67-29.9,67.7-66.5.7-37.9-29.3-69.2-66.9-69.7Z"/>
          <path class="cls-4" d="M457.8,628.8c-24.9-96.8-68.8-183.3-92.4-276.8-8.7-34.5-12.4-69.7-6.3-104.8,10.7-61.1,59.5-98.9,120.4-95.7,62.2,3.3,103.2,45.5,108.1,111.2,4.1,55.2-12,105.1-39.6,152-32.1,54.6-65.3,108.7-79.7,171.6-2.9,12.8-.9,26.8-10.5,42.4ZM464.8,228.5c-37.3-.5-69.1,30.5-69.3,67.7-.2,37.3,31.1,68.6,68.5,68.5,36.7,0,67-29.9,67.7-66.5.7-37.9-29.3-69.2-66.9-69.7Z"/>
        </g>
        <path class="cls-3" d="M925.4,665.8l-1.1.7s-1.2-.5-1.2-.5c-138.7-12.9-278-11.7-417.1-16.9-17.8-.7-20.7-6.1-17.7-22,3.2-16.7,5.1-33,14.9-48,13.3-20.4,35.5-29.6,57.6-20.9,8.7,3.4,16.9,8,25.4,12.2,36.7,17.9,72.7,16.5,107.1-5.5,21.7-13.9,41.8-30.3,63.7-44,39.1-24.4,70.8-19.1,98,18.4,28.4,39.2,50.2,82.5,70.5,126.5Z"/>
        <path class="cls-3" d="M413,584.2c-30.1,7-55.7,23.6-83.2,35.5-39.5,17.2-80.9,23-123.5,22.1-4.3,0-10.2,1.8-12.5-3.5-2.3-5.2,2.5-8.5,5.5-11.8,6.8-7.6,14.5-14.3,24.1-18.3,60.9-25.5,125.1-25,189.7-24Z"/>
        <path class="cls-3" d="M293.5,664.2c46.6-11.5,85.3-36.5,123.2-69.7,5.6,17.4,11.1,33.7,16.1,50.2,4.7,15.6-9.1,13.9-16.6,15.5-40.5,8.9-81.5,5.2-122.7,4Z"/>
        <path class="cls-6" d="M1092,895.9c-2.6-1.7-4.5-3.9-1.9-6.6.7-.7,3.6.9,5.6,1.5-1.2,1.7-2.5,3.4-3.7,5.1Z"/>
        <path class="cls-6" d="M403.4,555.5c0,1.9.1,3.8.2,5.7-1.8-.5-3.7-1-5.5-1.5,1.8-1.4,3.5-2.8,5.3-4.2Z"/>
        <path class="cls-6" d="M128.7,224.4c2-.6,5.2-2.1,5.7-1.5,1.9,2.6-.1,4-2.6,4.8-1.1-1-2.1-2.1-3.1-3.2Z"/>
        <path class="cls-5" d="M604.1,766.5c30.6,2.7,58.3-8.9,86.6-17.1,20.4-5.9,40.1-6.7,58.8,5,10,6.3,20.7,7.3,31.6,4.2,30.2-8.7,57-4,80.4,18,6.1,5.7,13.5,11,23.3,7.2,2.7-1,6.1-7.1,8.7-.4,1.5,3.8,0,7.6-3.4,10.4-9.9,7.8-20.4,4.7-28.1-1.8-26-21.8-54-25.6-85.4-14.1-9.2,3.4-19.1.7-27.1-4.5-21.4-14.2-43.4-10.5-65.2-2.8-27.1,9.4-53.6,15.3-80.1-4Z"/>
        <path class="cls-5" d="M198.1,776.6c21.2-10.6,41.5-1.2,62.1-2.1,9.7-.4,17.8-.7,24.8-9.3,15.9-19.8,36.7-20.1,56.8-8.5,13.4,7.8,23.2,7.5,36.1-.8,22.8-14.7,51.8-12,72.1,4.6,2.1,1.7,5,5.3,4.4,7-1.2,3.5-4.5,7-8.9,5.8-5.9-1.6-11.5-4.6-17.4-6.4-13.7-4.3-28-7.6-40.1,2.7-17,14.6-33.3,13-51.2,2.1-12.9-7.8-26.9-10.6-37.7,3.6-9.9,13-23.2,15.5-37.6,13.2-21.1-3.4-42.1-7.9-63.1-11.9Z"/>
        <path class="cls-5" d="M464.8,228.5c37.6.5,67.7,31.8,66.9,69.7-.7,36.7-31.1,66.5-67.7,66.5-37.4,0-68.7-31.3-68.5-68.5.2-37.2,32-68.2,69.3-67.7ZM463.3,340.7c26.1-.3,45.7-20.1,45.5-45.8-.3-24.9-19.4-43.5-44.9-43.5-26.3,0-45.9,19.8-45.2,45.7.7,26,19,43.9,44.6,43.6Z"/>
        <path class="cls-6" d="M463.3,340.7c-25.6.3-43.8-17.6-44.6-43.6-.7-25.9,18.9-45.8,45.2-45.7,25.5,0,44.6,18.6,44.9,43.5.3,25.7-19.4,45.5-45.5,45.8Z"/>
        <path class="cls-5" d="M1047.8,878.9c-4,15.5-15.7,17.6-29.2,16.9-108-5.2-216-10-324-15.4-101.7-5.1-203.4-10.6-305-16.3-102.4-5.8-204.8-12-307.1-18.2-5.7-.3-10.3-1-14.8,3.8-6.1,6.4-13.9,12.5-22.1,4.1-7.9-8.1-1.8-16.2,3.4-23,31.2-40.6,54.6-85.7,75.8-131.9,8.1-17.6,11.8-40.4,21.8-53.7,23.4-30.9,49.2-62.7,90.9-73.2,52.9-13.3,106.2-18.7,160.6-12.3,1.8.5,3.7,1,5.5,1.5,0-1.9-.1-3.8-.2-5.7-17.5-60.8-46.8-117.7-62.4-179.1-12-47.3-20.3-95.2-8.2-143.8,18-72,80.4-117.5,150.8-110.7,76.9,7.4,127.2,59.3,133,136.3,4.5,59-10.3,113.1-39,164.2-19.1,33.9-41.1,66.2-57.5,105.4,30.2-6.8,54.3,3.3,77.9,15.7,28.4,15,55.8,12.9,82-4.8,15.5-10.5,30.5-21.9,45.9-32.7,57.3-40.3,114.2-32.1,155.5,25,34.5,47.6,59,101.3,84.7,153.9,27.4,56.2,50.5,114.6,89.1,164.7,4.8,6.2,8.5,13.5,7.8,21.7-1,10.8-7.1,4.2-11.6,2.9-1.8-.5-4.7-2.1-5.3-1.4-2.5,2.6-.7,4.7,1.8,6.3ZM925.4,665.8c-20.3-43.9-42.2-87.3-70.5-126.5-27.2-37.6-58.9-42.8-98-18.4-21.9,13.6-42,30-63.7,44-34.4,22.1-70.4,23.5-107.1,5.5-8.4-4.1-16.7-8.7-25.4-12.2-22.1-8.7-44.3.5-57.6,20.9-9.8,15-11.7,31.3-14.9,48-3,15.9-.2,21.3,17.7,22,139,5.2,278.4,4,417.1,16.9-12.3,18-31,10-46.6,9.9-125.3-.4-250.5,1.1-375.7-5.5-12-.6-18.5,3.4-23.6,13.8-3.7,7.6-3,20.3-16.3,19.6-13.6-.6-15.2-12.4-17.3-21.9-2.5-11.9-6.9-12.9-17.7-8.6-21.2,8.3-44,10.8-66.7,11.1-57.9.8-115.9,1.6-173.8.5-17.9-.3-26.4,5.9-33.3,21.6-16.3,37.3-35.3,73.2-57.9,107.2-2.3,3.5-7,6.9-2,13.3,9.1.7,19.2,1.7,29.3,2.1,127.5,5,255,9.6,382.6,14.8,107.2,4.3,214.3,9.2,321.5,13.8,61,2.6,122,4.9,183,7.8,8.7.4,16.3-1.4,20.5-8.3,4.7-7.7-3.3-12.8-7.1-18.1-28.4-39.5-52.6-81.3-71.6-126.2-6.9-16.4-14-33-25.1-47.3ZM457.8,628.8c9.7-15.7,7.6-29.6,10.5-42.4,14.4-63,47.6-117,79.7-171.6,27.6-46.9,43.7-96.8,39.6-152-4.9-65.7-46-107.9-108.1-111.2-60.9-3.2-109.7,34.6-120.4,95.7-6.2,35-2.4,70.3,6.3,104.8,23.6,93.4,67.5,179.9,92.4,276.8ZM413,584.2c-64.6-1.1-128.8-1.5-189.7,24-9.6,4-17.3,10.7-24.1,18.3-3,3.3-7.8,6.6-5.5,11.8,2.3,5.3,8.2,3.4,12.5,3.5,42.6.9,84-4.9,123.5-22.1,27.5-11.9,53.1-28.5,83.2-35.5ZM293.5,664.2c41.2,1.2,82.2,4.9,122.7-4,7.5-1.6,21.3,0,16.6-15.5-5-16.5-10.5-32.8-16.1-50.2-37.9,33.2-76.6,58.2-123.2,69.7Z"/>
        <g>
          <path class="cls-2" d="M906.3,200.5c-62.4,2.6-80.6-28.9-46.3-80.1-45.5,41.9-79.7,29.5-86.9-31.6-7.3,61.1-41.4,73.5-86.9,31.6,34.3,51.3,16.2,82.7-46.3,80.1,59.9,17,66.2,52.7,16.1,91.1,57.4-25.7,85.3-2.4,70.9,59.5,28.1-56.9,64.4-56.9,92.5,0-14.4-61.9,13.4-85.2,70.9-59.5-50.2-38.4-43.8-74.2,16.1-91.1Z"/>
          <path class="cls-2" d="M906.3,200.5c-62.4,2.6-80.6-28.9-46.3-80.1-45.5,41.9-79.7,29.5-86.9-31.6-7.3,61.1-41.4,73.5-86.9,31.6,34.3,51.3,16.2,82.7-46.3,80.1,59.9,17,66.2,52.7,16.1,91.1,57.4-25.7,85.3-2.4,70.9,59.5,28.1-56.9,64.4-56.9,92.5,0-14.4-61.9,13.4-85.2,70.9-59.5-50.2-38.4-43.8-74.2,16.1-91.1Z"/>
        </g>
      </g>
    </g>
  </g>
</svg>