<?xml version="1.0" encoding="UTF-8"?>
<svg xmlns="http://www.w3.org/2000/svg" version="1.1" viewBox="0 0 1080 1080">
  <defs>
    <style>
      .cls-1 {
        fill: #65b0d6;
      }

      .cls-2 {
        fill: #535b9e;
      }

      .cls-3 {
        fill: #272e56;
      }

      .cls-4 {
        fill: #757ab3;
      }

      .cls-5 {
        fill: #82c6e9;
      }
    </style>
  </defs>
  <!-- Generator: Adobe Illustrator 28.6.0, SVG Export Plug-In . SVG Version: 1.2.0 Build 709)  -->
  <g>
    <g id="Layer_1">
      <g>
        <path class="cls-3" d="M863.1,844.2c9.1,2.6,15.5,8.4,19.3,17,.6,1.3,1,2.5,2.4,3.6,5,3.7,4.5,9.8-.9,12.9-3.9,2.2-8.3,2.6-12.7,2.7-19,.2-38,0-56.9.6-12.8.4-25.5,2.6-38.4,2-6.1-.3-12.2-.6-18.1-2-17.1-4.1-23.8-15-20-32,5.7-25.7,6.8-51.8,7.1-77.9.1-13.1-4-26.2-5-39.4-2.2-28.2-7-56.2-6.7-85.2-10.9,7.7-24.3,9.6-34.6,17.8-1.1.8-3.2,1.4-4.3.9-8.7-3.4-18.2-.9-27-3.9-1.4-.5-3-.8-4.5-.9-10-.7-10.7-.1-8.1,9.6,1.5,5.7-1.3,10.9-.5,16.6,7.6,55.4-13.1,99.9-55.7,134-21.3,17.1-47.4,26.2-73.6,33.9-22.4,6.6-45.3,8.4-68.3,8.8-.4,1.4.5,1.6,1.3,1.9,33.7,13.1,68.4,23,103.1,33.1,1.8.5,3.1.7,4.7-.8,13.4-13.2,30.7-17.4,48.3-20.8,23.6-4.7,46.9-.7,70.3,2,30.3,3.5,59.4,13.2,89.3,18.7,47.5,8.8,94.6,19.1,141.9,29.1,24.4,5.2,48.7,11.2,73.1,16.9,2.7.6,5.4,1.7,8,2.7,3.6,1.4,4.6,4.6,4.3,8-.3,3.2-3,3.9-5.7,4.2-15.6,2.1-31.1,4.1-46.6,6.3-31.8,4.4-63.8,5.5-95.7,8.2-.8,0-1.6.5-2.4,1.7,12.2,1.5,24.4,3.2,36.6,4.3,28.6,2.6,57.3,5.1,85.7,10,11.6,2,23.5,1.3,35,4.3,10.7,2.8,20.3,7.7,29.1,14.2,3.3,2.4,7.5,5,6,9.9-1.4,4.3-6.2,4.5-10,4.9-10.9,1-21.8.8-32.7-.2-21.6-2-43.1-1.1-64.7.8-19.8,1.8-39.6,2.3-59.5,2.9-39.9,1.3-79.8,2.9-119.7,4.1-37.9,1.2-76,.2-113.4-7.3-30.6-6.2-59.5-16.5-83.8-37.2-10.9-9.3-19.1-20.9-27.4-32.4-2-2.8-4-3.7-7.4-4.1-67.5-8.1-135.1-3.5-202.7-2.6-27.1.3-53.8,5.6-80.7,7.5-27.4,1.9-54.8,4-82.3,2-32-2.4-60.9-13.2-87.2-31.4-19.7-13.6-27.8-31.8-22.7-55.4,3.7-17.3,7.7-34.4,17.2-49.8,3.5-5.6,7.6-10.6,12.1-15.4,38.9-41.7,79.7-81.3,125.6-115.5,28.5-21.2,59.8-37.5,90.3-55.2,22.4-12.9,44.4-26.8,69-35.6,1-.4,2-.9,3.1-1.1,33.3-6.2,59.1-26.3,84.8-46.3,10.3-8.1,21.4-15.1,32.1-22.5,6.6-4.6,10.3-9.9,10.2-18.9-.2-13.9,1.3-27.9,2.4-41.8,1.8-24.2,0-48.4,0-72.6,0-21.1,4-41.6,11.9-61.2,9.7-24.2,28.1-36.3,53.9-37.7,15.5-.8,30.9-2.1,46.3-3.8,3.6-.4,6.3-1.7,8-4.8,12-20.9,16.7-43.3,12.2-67.2-1.7-8.9-6.3-15.6-16.2-18.2-12.4-3.3-23.7-9.7-34.2-17.2-8.1-5.8-8.4-11.3-1.6-18.4,2.4-2.5,4.5-4.4,1.7-8.1-1.1-1.5-1.5-4.4-.9-6.2,2.3-6.3,8.6-11.1,6.2-19-.1-.5,1.3-2,2.2-2.1,6.8-1.1,8-5.2,8-11.5,0-5.8,4.1-9.4,10.3-9.6,2,0,3.9,0,5.9-.1,7.9-.7,8.5-1.5,6.4-8.8-.2-.8-.7-1.7-.7-2.5,0-2.3-1.4-5.7,1.4-6.4,3-.7,2.9,3,3.7,5,.8,1.8,1.4,3.6,2.3,6.1,5.9-4.2,8.9-9.8,11.9-15.4,5.1-9.7,12.2-17.4,21.4-23.3,3.1-2,6.8-2.8,10.4-3.5,2.6.5,4.3,1.6,2.2,4.5-13.9,2.5-22,12.3-28.7,23.6-3.3,5.6-6.3,11.4-11.2,15.9-2.6,2.4-2.1,3.8.1,6.2,3.8,4.1,4.8-1.6,7.3-1.7q2.1,2.1-1.9,6.6c4.7,3.7,9,7.9,14.9,9.7,0,.9,0,1.7,0,2.6-3.9,1-7.2-.9-10.6-2.3-3.2-2.5-7.1-4.5-9.5-7.7-4.5-6-10-7.5-16.6-5.4-4.4,1.4-9.7-.9-13.3,3.3-2.6,4.4-.5,9.9-3.1,14.4-8.1,2.8-9.2,7.8-6,15.4,1.6,3.8,2.8,9-2.4,12.2-2.4-2.1-1.1-4.8-1.5-7.3-.3-1.4.9-4.3-1.7-3.8-2.2.4-4.6,4.6-4.3,4.8,4.3,2,.9,6.8,3.6,9.1,1.2,2.5,3.2,4.7,2.6,7.8-.2,1.2-.7,2.2-1.9,2.2-.6,0-1.5-1-1.8-1.7-.4-1.1-.4-2.4-.7-3.8-8.8,9.7-8.5,11.8,2.2,18.3,11.5,7,23.7,12.5,36.8,15.9,13.3,3.4,25.8,3.2,36.8-6.2.7-.6,1.5-.9,2.2-1.4.9-.6,1.8-1.3,2.9-.2,1,1.1.2,1.9-.3,2.9-1.4,3.2-5.1,3.9-7.1,6.5-8.3,6.1-18,5.8-28.2,5.5,9.8,15.4,8.8,31.2,6.5,47.3-2.4,12.1-6.1,23.7-12.8,35.3,8.7-2.2,16.3-4.1,25-6.3-3,5.3-7.6,5.9-11.4,7.4-24,8.9-49.3,10.2-74.5,11.9-21.6,1.5-37.1,11.3-45.8,31.3-7.1,16.3-11.8,33.4-11.8,51.2,0,43.8.5,87.7-3.9,131.4-.2,2.1.3,4.4-1.5,6.2-3.6,3.4-6.9,7.3-10.9,10.3-21.1,15.8-41.1,33.1-63.6,47.1-1.7,1.1-4.1,1.6-4.9,4.4,23-3.5,46.2-3.7,68.9-8.2,3.7,0,7.4.4,11.1,0,5-.6,9.6,2.4,14.8.8,14.1-4.4,24.2-12.8,27.8-27.5,9.1-37.1,20.2-73.8,24.8-111.9,1.8-14.9,5.5-29.5,5.3-44.6.4-1.8,1.1-4.3,2.6-1,1.9,4,1.7,8.5,1.2,12.9-.9,7.4-1.5,14.7-2.4,22.1-1.8,15.4-2.2,30.9-6.2,45.9-7.3,27.6-12.6,55.8-20.8,83.5,1.1-.2,1.7-.2,2.3-.4,8.3-2.3,16.4-.6,24.4,1.1,1.8.4,4,1.6,3.3,4-.8,2.7-2.7,2-4.7,1.1-1.2-.5-2.5-.8-3.8-1-8.9-1-17.9-3.5-25.5,4.5-5.1,5.4-10.8,10.6-18.8,13.9,14.4,9.6,24.4,22,33.7,34.9,12.6,17.5,19.9,37.1,21.6,58.7-.6,9.3-.6,9.3,8.6,9.3,5.6,0,11.3.2,16.9.2,13.5,0,26.9,0,39.5-5.8.6.7,3.3-.2,1.8,2.1-1.4,2.1-3.8,2.7-6.1,3.5-23.3,8.2-47.5,4.7-71.4,6.2-.1-.8-.3-1.5-.4-2.3,0-.5.1-.9.2-1.4,5.9-5.5,4.6-12.4,3.4-19-4.7-25.6-17.7-46.8-34.9-66.1-13.5-15.2-29.7-21.3-49.1-17.9-28.7,5.1-57.9,5.9-86.4,12.9-19.6,4.8-38.5,10.9-56.2,20.2-21.2,11.1-41.5,24-62.7,35.2-52.1,27.8-99,62.6-141.6,103.2-19.1,18.2-37,37.7-55.2,56.8-14.9,15.7-22,35.2-25.8,56.2-6.3,20.6-1.9,35.6,14.5,48.6,14,11.1,30.7,16.9,46.7,24.4,17.7,8.3,36.2,11.6,55.1,10.9,19.3-.8,38.7.5,58.1-1.9,15.3-2,30.7-2.7,46-4.3,22.7-2.4,45.4-4.9,68.2-5,24.9,0,49.7-.3,74.6-.4,10.8,0,21.7,0,32.5,0,6.1.7,12.3.5,18.4.2,9.5.8,19.1,1.5,28.6,2.3,3.4.4,6.9.9,10.3,1.3,16.6,1.9,33.1,4.7,49.8,5.6,27.6,1.5,55.3,1.1,83,.3,3.2-.1,6.3-.3,9.1-3.4-14.2-7.1-27.8-14.4-42.2-20-11.7-5.4-23.7-9.9-36.1-13.3-55.3-15.2-109.3-34-163-53.8-32.7-12.1-63.3-29.3-96.7-39.5-28.9-8.8-56.8-21.4-87.3-23.9-22-1.8-42.9.8-57.5,20.4-.6.8-1.3,1.8-2.6,1.4,0-.4-.3-.9-.2-1.2,4.8-14.7,17-20.3,30.4-23.8,23-6,45.5-2,67.7,4.3,18.6,5.3,37.1,11.2,55.6,16.8,28.6,10,55.7,23.4,83.7,34.7,14.5,5.9,28.4,15.2,45.7,11,5.1-1.2,10.8-1.3,16.2-1.2,33.5.6,64.8-8.7,95.4-21.2,40.3-16.5,67.3-46,82.3-86.2,9-24.2,6.6-49.7,4.3-75-1.7-7.5-2.4-14.9-1.6-22.7,3.2-27.7,14.1-52.5,28.2-76,16.1-26.7,36.3-50.7,51.9-77.8,10.6-18.3,21.9-36.1,28.5-56.4,4.3-13.2,5.9-26.6,4.7-40.6,1.3,1.7,2.3,3.3,2.8,5.1,2.7,9.7,1.3,19.4-.8,29-4.2,19.7-14,36.9-23.4,54.4-1,2-2.5,3.5-1.4,6.5,10.2,26.6,11.5,54.4,9.9,82.4-1.3,22.6-4.1,45.1-6.5,67.6-3.3,30.5,3.2,60.8,5.8,91.2,1.4,16.7,5.6,33.1,4.2,50.1-1.2,15.6-2.3,31.3-4,46.9-.8,7.8-2.9,15.4-4.1,23.1-1.1,6.8,1.9,11.8,7.7,15.3,7.4,4.5,15.5,5.3,23.9,4.5,11.1.6,22.2,1.3,33.2-1.6,3.3-.2,6.5-.6,9.8-.6,19,0,37.9.1,56.9.1,3.2,0,6.9.4,8.9-2.8,2.4-3.6-2.4-4.4-3.3-6.8-.2-.6-.5-1.2-.9-1.7-5.6-8.1-11.8-15.1-23.3-12.5-2,.4-4.3-.5-6.4-.6-10.1-.3-19.9-5.5-30.2-1.9-2.8-3.4,0-4.1,2.3-4.6,4.7-1.1,9.5-.3,14.3,0,9.3.6,18.3,6.7,27.8,1.2ZM735.9,506c.5-2.9-.8-5.3-2.1-8.3-.9,1-1.5,1.5-1.9,2.2-14.9,24.8-31.9,48.2-47.7,72.4-9.9,15.3-18.6,31.3-23.8,49-3.5,8.8-5.4,18-6.8,27.3-.7,4.3.7,6.1,5.1,5.1,3.3.2,6.5.5,9.5,1.9,5.3,2.5,11,2.2,16.6,2.3,2.2,0,3.5-.5,4.4-2.8,2.7-6.6,6.2-12.9,7.6-20.1,3-15.7,3.3-31.8,7.6-47.4,2.4-8.6,3.2-17.6,8.1-25.6-10.1,30.6-6.2,63.4-15.8,94.4,3.7-1.9,7.2-3.6,10.6-5.3,7.7-1.6,14.5-5.6,22-7.6,3.6-1,4.8-2.7,5.3-6.2,2.1-13.1,2.8-26.3,4.2-39.4,3.4-30.8,4-61.4-3.1-91.8ZM578.8,903.3c28.2,9,54.8,21.4,80.6,35.6,2.6,1.4,4.5,4.2,7.8,4.5,18.9,1.7,37.5,4.8,56.2,7.7,31.2,4.8,62.7,7.7,93.1,16.8,5.8,1.7,11.7,4.2,17.9,2.9,13.9-2.8,28.1-3.7,42.1-4.8,30.4-2.3,60.8-5.1,91-9.6,9.1-1.4,18.1-2.6,27.2-3.8-13-5.5-26.5-7.6-39.9-10.3-1.5-.4-2.9-.9-4.4-1.2-58.1-11.9-115.7-26.2-174.1-37-35.4-6.6-69.8-18.1-105.9-21.7-22.9-2.3-45.6-4.1-68.1,2.1-11.7,3.2-23.1,7.2-33,16.4,3.7,1,6.6,1.8,9.4,2.5ZM960.4,994c-18.8-4-37.9-5.2-56.9-7.4-20.3-2.4-40.8-3.8-60.9-7.5-38.3-7-75.8-17.9-114.6-22-25.7-2.7-50.5-9.8-77.3-6.8-26.4,3-53.5,3.5-80.3,2-11.4-.6-22.7-1.4-34.5-2.2,1.7,3.3,3.7,5.8,6.2,7.9.7,1.1,1.2,2.3,2,3.3,18.9,25.1,44.6,40.1,74.1,48.6,45.5,13.1,92.3,14.7,139.3,13.7,29.2-.6,58.3-3,87.6-3.3,29-.3,58-2,86.9-3.6,20.9-1.2,41.7-4,62.6-1.4,11.7,1.5,23.5,1.9,35.3,1.3,2,0,4.4.7,6.3-2-10.3-8.5-22-14.1-35-16.2-13.5-2.2-27.2-3.1-40.9-4.5Z"/>
        <path class="cls-3" d="M670.5,59.2c3.5-8.1,12.1-11,22-7.2,5.5,2.1,11,4.2,16.1,7.1,27.3,15.6,57.2,26.3,80.7,48.5,14.2,13.4,20.5,29.1,22.9,47.6,4.1,31.6,2.1,63-2.1,94.5-3.5,25.9-5.2,52-8.7,77.8-.9,6.5,1.2,11.5,2.8,17,4.8,17,6.3,34.3,5.2,51.8-2,32.7-3.4,65.4-7.8,97.8-2.8,21-2.4,42.2-5.1,63.2-.9,7.3-2,14.7-2.6,22.1-1.1,12.9,1.3,25.5,3.6,38.2,5.4,30,2.9,59.8-3,89.6-6.4,32.7-13.4,65.4-12.4,99,.2,6.8.9,13.5,2.7,20,.4,1.3.1,3.4,2.9,3,13.2-1.8,26.4,0,39.6,1,11.3.9,22,3.9,31.8,9.6.5.4,1,.8,1.4,1.2,0,0,0,0,0,0,0,2.9-1.7,2.4-3.5,1.7-4-1.5-8-3.2-12.2-4.3-18.8-5-38.1-3.6-57.6-4.7,1.7,4.8,3.2,9.1,2.8,13.7-.9,1.9-2.7,1.1-4.1,1.4-6.7-18.1-10.5-36.6-9.5-56.1,1.6-32.5,8.1-64.3,14-96.2,4.7-25.1,6.2-50.3,1.7-75.4-2.8-15.5-6.7-30.9-4.6-46.6,3.1-22.6,5.5-45.3,7.3-68.1,3.1-39.3,7-78.6,8.5-118,.6-15.1-1.2-30-5.7-44.5-2.6-8.4-7.4-15.2-15.5-19.3-2-1.3-3.9-2.6-6-3.8-14.8-8.2-29.8-16.3-44.6-24.6-12.2-6.9-20.6-17-26.1-29.9-4.2-9.9-6.3-20.3-8.1-30.7-.2-1.7-.5-3.4-.7-5.1.2-2,.4-4-.9-5.7-.5-10.1-.9-20.2-1.4-30.4-2.9.6-5.2,1.5-7.6,1.6-7.4.2-14.9.4-21-4.8-1.8-1.6-2.8-3.8-.9-5.7,1.9-2,2.8.6,4,1.7,7.5,6.5,21.3,5.4,27.2-2.3,2.7-3.5,6.2-6,10-8.2,3.4-.7,6.8-1.5,10.8-2.3-4.6-3.1-8.4-6.3-12.8-8.5-6.9-3.5-14.1-9-21.6-.8-1.6.1-3.1,2.2-4.7.2-1.2-1.6-.7-3.3.2-4.9,1.8-3.4,3.6-6.9,5.6-10.3,3.9-6.9,4-13.5-1.2-18.6-4.6-4.5-4.5-9-2.5-14.2,1.9-4.9,3.5-9.8,2.5-15.2-1-5.5.4-10.3,4.3-14.3,8.4-5.9,8.3-10.7-.3-16.1-4.2-2.6-8.4-5.4-12.9-7.5-2.7-1.2-2.2-3.4-2.9-5.3ZM780.7,316c5.1,3.6,10.4,6.9,14.9,11.4.5-.7.9-1,.9-1.4,2.1-25.4,5.2-50.6,8.1-75.9,3.7-32.8,6.1-65.4.9-98.2-1.5-9.7-3-19.7-9.4-27.5-8.6-10.4-17.6-21.2-29.4-27.7-18.3-10.1-36.6-20.1-54.8-30.5-.5-.3-1.3-.3-1.9-.4-7.5-3.9-15.3-7.1-23.3-9.7-3-1-6-1.1-9-.2-1.6.5-3.4,1.2-3.7,3.3-.3,2.4,1.9,2.6,3.3,3.4,4.5,2.6,9.3,4.8,13.6,7.7,8.2,5.7,8.4,13.7.3,19.6-4.1,3-5.3,6.4-5,11.2.2,4.3,1,8.7-1,12.9-3.2,7-5.5,13.7,2.1,19.9,2.3,1.9,2.9,5.6,3.1,9,.3,5.5-3.2,9.3-5.2,14.1,1.9.9,3.8-.1,5.5,0,13.3.4,21.7,10.3,32.2,16.1,2.4,1.3,5.2,3.8,3.6,6.9-1.4,2.7-4.8,1.6-7.1.9-8.1-2.2-13.9,1.3-19.1,6.9-1.2,1.2-2.3,2.7-1.9,4.7,3.6,17,2.7,34.6,6.2,51.7,4.1,20.2,12,37.8,31.1,48.2,14.9,8.1,30,15.9,45,23.9Z"/>
        <path class="cls-5" d="M790.1,847.7c.3-4.6-1.1-9-2.8-13.7,19.5,1.1,38.8-.4,57.6,4.7,4.1,1.1,8.1,2.8,12.2,4.3,1.8.7,3.5,1.2,3.5-1.7,1.7.3,1.6,2.1,2.6,3-9.5,5.5-18.6-.6-27.8-1.2-4.8-.3-9.5-1-14.3,0-2.3.5-5.2,1.3-2.3,4.6-2.2,0-4.2-.2-6.3-1-7.6-3.1-15.1-4.9-22.3,1Z"/>
        <path class="cls-1" d="M670.5,59.2c.7,1.9.2,4,2.9,5.3,4.5,2.1,8.7,4.9,12.9,7.5,8.6,5.4,8.7,10.2.3,16.1-1.4-5.6-3.5-11.1-8-14.8-3.6-3-8.1-4.8-10.7-9,2.1-2.9.5-3.9-2.2-4.5,1.5-1.3,3.2-.2,4.8-.6Z"/>
        <path class="cls-5" d="M860.6,841.3c-.5-.4-1-.8-1.4-1.2,1.9-1.2,1.1.6,1.4,1.2Z"/>
        <path class="cls-4" d="M57.4,865.4c3.7-21,10.8-40.5,25.8-56.2,18.2-19.1,36.1-38.6,55.2-56.8,42.6-40.7,89.5-75.5,141.6-103.2,21.2-11.3,41.5-24.1,62.7-35.2,17.7-9.3,36.6-15.4,56.2-20.2,28.5-7,57.7-7.8,86.4-12.9,19.3-3.4,35.6,2.7,49.1,17.9,17.1,19.4,30.1,40.5,34.9,66.1,1.2,6.5,2.5,13.5-3.4,19-.2.1-.5.3-.5.4,0,.4.2.7.3,1,.1.8.3,1.5.4,2.3-3.6.7-6.2,3-8.7,5.5-6.3,6.4-12.1,13.3-19.1,18.8-21.8,16.9-44.5,32.4-69.8,44.2-28.5,13.3-57.6,24.5-86.9,35.7-20.1,7.6-42,9-61.1,19.4-18.5-5.6-37-11.5-55.6-16.8-22.2-6.3-44.7-10.3-67.7-4.3-13.4,3.5-25.6,9.1-30.4,23.8-.1.3.1.8.2,1.2,1.3.4,2-.6,2.6-1.4,14.6-19.6,35.5-22.2,57.5-20.4,30.5,2.5,58.5,15,87.3,23.9,33.4,10.2,64.1,27.4,96.7,39.5,53.7,19.8,107.8,38.7,163,53.8,12.4,3.4,24.4,8,36.1,13.3-1.9,1.8-4,.9-6.1.5-15.3-2.8-30.8-5.1-46.4-6-17.6-1-35-3.3-52-7.5-14.6-3.6-29.4-5.4-44.1-8.1-18.7-3.4-37.7-5.1-56.1-10.6-18.1-5.5-36.8-8.3-55.5-10.5-10.5-1.3-20.7-4.4-31.4-5.5-11.6-1.2-23.3-1.6-34.9-3.6-9-1.6-17.6-4.8-26.8-5.4-13.4-.9-26.7-2.4-40-4.6-25.7-4.3-51.4-8.5-77.5-8.5-12.3,0-24.2,2.1-36.2,4.1-14.2,2.4-28.7,4.1-42.4,8.8-2,.7-3.3,1.1-3.4-1.7Z"/>
        <path class="cls-5" d="M667.9,64.3c2.6,4.1,7.1,6,10.7,9,4.5,3.7,6.6,9.2,8,14.8-3.9,4-5.3,8.8-4.3,14.3,1,5.4-.6,10.3-2.5,15.2-2,5.2-2.1,9.7,2.5,14.2,5.2,5.1,5.1,11.7,1.2,18.6-1.9,3.4-3.7,6.8-5.6,10.3-.9,1.6-1.4,3.3-.2,4.9,1.6,2,3.1-.1,4.7-.2,4.4,4.4,9.7,6.4,16,6.8,3,.2,6.4,1.1,7.6,4.8-3.8,2.2-7.3,4.6-10,8.2-5.9,7.7-19.7,8.8-27.2,2.3-1.2-1-2-3.7-4-1.7-1.8,1.9-.9,4.1.9,5.7,6.1,5.2,13.6,5,21,4.8,2.3,0,4.7-.9,7.6-1.6.5,10.2.9,20.3,1.4,30.4-.2,2-.8,4,.9,5.7.2,1.7.5,3.4.7,5.1-2.4,1.4-1.8,3.8-1.7,5.9.2,3.9,1.4,7.9.8,11.6-1.8,10.5-.6,21.2-1.9,31.8-1.7,13.7-.7,27.8-1.2,41.7-.7,20.6-1.5,41.3-1.7,61.9,0,3.3-.3,6.5-1.4,9.6-1.1,8.1-1.8,16.3-3.3,24.4-6.4,35.4-19.6,68.4-36.6,100-10.4,19.3-22.1,38-28.7,59.2-4.2,13.4-7.7,27.1-11.6,40.6-1.1.2-1.8.8-2.3,1.9-4.4,9.2-8.3,18.6-13.5,27.3-4.7,7.8-8.9,16.3-17.8,20.6-1.7-21.6-9-41.2-21.6-58.7-9.3-12.9-19.3-25.3-33.7-34.9,8-3.3,13.7-8.5,18.8-13.9,7.6-8.1,16.6-5.5,25.5-4.5,1.3.1,2.6.4,3.8,1,2,.9,4,1.6,4.7-1.1.7-2.5-1.5-3.7-3.3-4-8.1-1.7-16.2-3.4-24.4-1.1-.6.2-1.2.2-2.3.4,8.2-27.8,13.5-55.9,20.8-83.5,4-15,4.4-30.6,6.2-45.9.9-7.4,1.5-14.7,2.4-22.1.5-4.4.7-8.9-1.2-12.9-1.6-3.3-2.3-.8-2.6,1-4.1-.1-10.2-3.9-11.2,3.2-2.8,18.7-7.3,37-12.1,55.2-4.3,16.4-9.8,32.6-17,47.8-8.4,17.7-15.1,36.1-22.4,54.1-2.6-.3-2.5,1.3-2.2,3-2.6,4.6-5.9,8.3-10.3,11.4-3.2,2.3-7.5,3.8-8.4,8.5-22.7,4.5-45.9,4.7-68.9,8.2.8-2.8,3.2-3.3,4.9-4.4,22.5-13.9,42.5-31.3,63.6-47.1,4-3,7.3-6.8,10.9-10.3,1.8-1.7,1.3-4,1.5-6.2,4.5-43.7,4-87.5,3.9-131.4,0-17.8,4.6-34.9,11.8-51.2,8.8-20,24.3-29.8,45.8-31.3,25.2-1.8,50.5-3,74.5-11.9,3.9-1.4,8.4-2.1,11.4-7.4-8.7,2.2-16.3,4.1-25,6.3,6.7-11.6,10.4-23.2,12.8-35.3,7-1,8-7.2,10-12.1,4.3-11,5.9-22.9,11.7-33.4,1.4-2.5,1.7-4.8,0-7.3,1.9-2.6,5.7-3.3,7.1-6.5.4-1,1.2-1.9.3-2.9-1-1.1-1.9-.4-2.9.2-.7.5-1.5.8-2.2,1.4-11.1,9.3-23.5,9.6-36.8,6.2-13.2-3.4-25.3-8.9-36.8-15.9-10.7-6.5-11-8.6-2.2-18.3.2,1.4.2,2.7.7,3.8.3.7,1.1,1.7,1.8,1.7,1.2,0,1.7-1,1.9-2.2.6-3.1-1.4-5.3-2.6-7.8,1.3-.9,2.7-1.8,4-2.8,5.2-3.2,4-8.3,2.4-12.2-3.2-7.6-2-12.6,6-15.4,2.6,0,5.3,3.3,7.6,0,2-2.8.6-5.8-.9-8.4-1.1-2.1-2.4-4-3.7-6,3.6-4.2,8.9-1.9,13.3-3.3,6.5-2.1,12.1-.6,16.6,5.4,2.4,3.2,6.3,5.1,9.5,7.7,0,2.6.8,4.9,3.8,4.8,2.4,0,5.8,1.7,6.8-2.5,0-.9,0-1.7,0-2.6,2.9-8.5-4.1-17.4-13-16.4-2.5.1-3.5,5.8-7.3,1.7-2.2-2.4-2.7-3.9-.1-6.2,4.9-4.5,7.9-10.3,11.2-15.9,6.6-11.3,14.7-21,28.7-23.6ZM662.8,114.2c-2.9-9.3-8.2-17.1-16.3-22.7-1.4-1-4-3.1-5.5-.9-1.6,2.4-1.3,5.8,1.6,7.5,7.2,4.3,12.2,10.4,16.5,17.3.6.9,1.2,2,2.5,1.6,1.5-.4,1.1-1.6,1.2-2.9Z"/>
        <path class="cls-1" d="M690.3,398.2c1-3.1,1.3-6.3,1.4-9.6.2-20.6,1-41.3,1.7-61.9.5-13.9-.5-27.9,1.2-41.7,1.3-10.6,0-21.2,1.9-31.8.6-3.7-.6-7.7-.8-11.6,0-2.1-.7-4.5,1.7-5.9,1.9,10.5,3.9,20.8,8.1,30.7,5.5,12.9,13.9,23.1,26.1,29.9,14.8,8.3,29.7,16.4,44.6,24.6,2.1,1.1,4,2.5,6,3.8,2.1,10.8,5.6,21.6,6.2,32.5,1.3,25.6-.2,51.1-5.2,76.5-5,25-12.2,49.6-14.4,75.2-2,23.7-2.2,47.6.9,71,2.8,21.2,0,42.6,4.5,63.5,1.3,5.9-3.2,11.3-3.6,17-1.7,21.8-3.1,43.7-4,65.6-.5,13-.6,26.1,1.1,39.1,1.3,10.2-1.1,20.4-1.3,30.6-.3,14.6,1.7,29.2-1.3,43.7-1.8,8.8-2.3,17.1,2.5,25.3,1.8,3.1,2.1,6.7-.2,10,2.7,1,5.1-.3,7,1.4-8.4.8-16.5,0-23.9-4.5-5.8-3.5-8.8-8.5-7.7-15.3,1.2-7.7,3.3-15.4,4.1-23.1,1.6-15.6,2.7-31.3,4-46.9,1.4-16.9-2.8-33.4-4.2-50.1-2.6-30.4-9.1-60.7-5.8-91.2,2.4-22.5,5.2-45,6.5-67.6,1.6-28,.3-55.8-9.9-82.4-1.1-3,.3-4.5,1.4-6.5,9.3-17.5,19.2-34.7,23.4-54.4,2-9.6,3.4-19.3.8-29-.5-1.8-1.4-3.5-2.8-5.1,1.2,13.9-.4,27.4-4.7,40.6-6.6,20.3-18,38.1-28.5,56.4-15.6,27-35.8,51-51.9,77.8-14.1,23.5-25,48.3-28.2,76-.9,7.8-.1,15.2,1.6,22.7-2.4.2-4.4,1.2-6.4,2.4-12.6,5.8-26,5.9-39.5,5.8-5.6,0-11.3-.2-16.9-.2-9.2,0-9.2,0-8.6-9.3,8.8-4.3,13.1-12.8,17.8-20.6,5.2-8.7,9.1-18.1,13.5-27.3.5-1.1,1.2-1.7,2.3-1.9.1,4.3-3.5,8.2-1.9,13.1,2.9-1.5,2.9-4.2,3.4-6.3,9.4-40.1,26.4-76.9,46.3-112.8,18.5-33.3,31.2-68.8,34.2-107.3.3-3.8,1.6-7.8-1.9-10.9Z"/>
        <path class="cls-2" d="M57.4,865.4c0,2.8,1.4,2.3,3.4,1.7,13.8-4.7,28.2-6.4,42.4-8.8,11.9-2,23.9-4.2,36.2-4.1,26.2,0,51.9,4.2,77.5,8.5,13.3,2.2,26.6,3.8,40,4.6,9.2.6,17.8,3.8,26.8,5.4,11.6,2,23.3,2.4,34.9,3.6,10.6,1.1,20.8,4.2,31.4,5.5,18.7,2.3,37.4,5.1,55.5,10.5,18.4,5.6,37.4,7.2,56.1,10.6,14.7,2.6,29.5,4.4,44.1,8.1,17,4.2,34.5,6.5,52,7.5,15.6.9,31,3.1,46.4,6,2.1.4,4.2,1.3,6.1-.5,14.4,5.6,28,12.9,42.2,20-2.8,3.1-5.9,3.3-9.1,3.4-27.7.9-55.4,1.3-83-.3-16.6-.9-33.2-3.7-49.8-5.6-3.4-.4-6.9-.8-10.3-1.3,1.1-3.7-2.1-3.2-3.7-3.2-20.1-1-40.3-2.5-60.4-2.3-8.8,0-17.7.6-26.6,1-1.4,0-3.1-.7-4.4.8,5.2,1.1,10.5-.8,15.5,1.2-24.9.1-49.7.3-74.6.4-22.9,0-45.5,2.6-68.2,5-15.3,1.6-30.8,2.4-46,4.3-19.3,2.5-38.7,1.2-58.1,1.9-18.8.7-37.4-2.6-55.1-10.9-15.9-7.5-32.7-13.3-46.7-24.4-16.4-13-20.8-28.1-14.5-48.6Z"/>
        <path class="cls-2" d="M641.6,675.8c2-1.2,4-2.2,6.4-2.4,2.2,25.2,4.7,50.7-4.3,75-15,40.2-42,69.7-82.3,86.2-30.6,12.5-61.9,21.9-95.4,21.2-5.4-.1-11.2,0-16.2,1.2-17.4,4.1-31.2-5.2-45.7-11-28-11.3-55.1-24.8-83.7-34.7,19.1-10.3,41-11.7,61.1-19.4,29.3-11.2,58.4-22.4,86.9-35.7,25.3-11.8,48-27.3,69.8-44.2,7-5.4,12.8-12.4,19.1-18.8,2.5-2.5,5.1-4.8,8.7-5.5,23.8-1.5,48.1,2,71.4-6.2,2.3-.8,4.7-1.5,6.1-3.5,1.5-2.3-1.2-1.3-1.8-2.1Z"/>
        <path class="cls-1" d="M960.4,994c13.6,1.5,27.4,2.4,40.9,4.5,13,2.1,24.7,7.7,35,16.2-1.9,2.7-4.3,1.9-6.3,2-11.8.5-23.6.2-35.3-1.3-21-2.7-41.8.2-62.6,1.4-29,1.7-57.9,3.3-86.9,3.6-29.2.3-58.4,2.7-87.6,3.3-47,1-93.8-.6-139.3-13.7-29.5-8.5-55.3-23.5-74.1-48.6-.8-1-1.3-2.2-2-3.3,1.4-5,5.2-4.8,8.9-3.7,11.3,3.1,22.6,6,34,8.5,19.1,4.2,38.3,7.4,57.9,7.9,17.8.5,35.4,3.1,52.9,6.2,24.4,4.3,48.8,7.9,73.6,8.4,6.7.1,13.6.3,20,1.9,27,6.5,54.5,7.5,82,8.4,19.6.6,39.2-1.1,58.7-1.6,8.5-.2,16.8-.4,25.1,1.5,1.9.4,4,.6,5.2-1.5Z"/>
        <path class="cls-1" d="M954.9,942.2c13.4,2.7,26.8,4.8,39.9,10.3-9.1,1.3-18.1,2.5-27.2,3.8-30.2,4.5-60.5,7.4-91,9.6-14,1-28.2,2-42.1,4.8-6.2,1.2-12.2-1.2-17.9-2.9-30.4-9-61.9-11.9-93.1-16.8-18.7-2.9-37.4-6.1-56.2-7.7-3.3-.3-5.2-3.1-7.8-4.5-25.9-14.2-52.5-26.6-80.6-35.6,1.5-5.3,5.6-6.6,10.5-7.1,4.2-.4,8.2,1.3,12.3,1.3,26.2,0,51.6,6.2,77.2,10,30.8,4.5,61.3,11.3,92.2,15.1,27.3,3.4,53.9,10.6,81,15.4,16.4,2.9,32.9,5.7,49.3,7.8,15.3,2,30.8-1.2,46.3-1.2,2.6,0,5.1-.8,7.3-2.4Z"/>
        <path class="cls-5" d="M774.1,876.1c-1.8-1.7-4.2-.4-7-1.4,2.3-3.2,2.1-6.8.2-10-4.8-8.1-4.3-16.5-2.5-25.3,3-14.4,1-29.1,1.3-43.7.2-10.2,2.6-20.4,1.3-30.6-1.7-13-1.6-26.1-1.1-39.1.9-21.9,2.3-43.8,4-65.6.4-5.7,4.9-11.1,3.6-17-4.5-21-1.7-42.4-4.5-63.5-3.1-23.4-3-47.2-.9-71,2.2-25.6,9.5-50.2,14.4-75.2,5-25.4,6.5-50.9,5.2-76.5-.5-10.9-4-21.6-6.2-32.5,8.1,4.1,12.9,10.9,15.5,19.3,4.5,14.5,6.3,29.4,5.7,44.5-1.5,39.4-5.4,78.7-8.5,118-1.8,22.8-4.3,45.4-7.3,68.1-2.1,15.7,1.8,31.1,4.6,46.6,4.5,25.1,3,50.4-1.7,75.4-5.9,31.9-12.4,63.6-14,96.2-1,19.5,2.8,38,9.5,56.1,7.1,8.5,14.2,17,21.3,25.5-10.9,2.8-22.1,2.1-33.2,1.6Z"/>
        <path class="cls-5" d="M954.9,942.2c-2.2,1.6-4.7,2.4-7.3,2.4-15.5,0-30.9,3.1-46.3,1.2-16.5-2.1-32.9-4.9-49.3-7.8-27.1-4.8-53.7-12-81-15.4-31-3.8-61.4-10.6-92.2-15.1-25.6-3.8-51.1-9.9-77.2-10-4.1,0-8.1-1.7-12.3-1.3-4.9.5-9,1.8-10.5,7.1-2.8-.8-5.7-1.5-9.4-2.5,9.9-9.2,21.2-13.1,33-16.4,22.5-6.2,45.2-4.4,68.1-2.1,36.1,3.6,70.5,15.1,105.9,21.7,58.4,10.8,116,25.2,174.1,37,1.5.3,2.9.8,4.4,1.2Z"/>
        <path class="cls-5" d="M960.4,994c-1.3,2.1-3.3,2-5.2,1.5-8.3-1.9-16.5-1.7-25.1-1.5-19.6.5-39.2,2.2-58.7,1.6-27.5-.8-55-1.9-82-8.4-6.5-1.5-13.3-1.7-20-1.9-24.8-.5-49.2-4.1-73.6-8.4-17.5-3.1-35-5.7-52.9-6.2-19.5-.6-38.7-3.8-57.9-7.9-11.4-2.5-22.7-5.4-34-8.5-3.7-1-7.5-1.2-8.9,3.7-2.5-2.1-4.5-4.6-6.2-7.9,11.8.7,23.1,1.5,34.5,2.2,26.8,1.5,53.9,1,80.3-2,26.8-3.1,51.6,4,77.3,6.8,38.8,4.1,76.3,15,114.6,22,20.1,3.7,40.6,5.1,60.9,7.5,19,2.2,38.1,3.4,56.9,7.4Z"/>
        <path class="cls-2" d="M707.5,651.1c-3.4,1.7-6.9,3.5-10.6,5.3,9.6-31.1,5.7-63.8,15.8-94.4-4.8,8-5.7,17-8.1,25.6-4.3,15.5-4.6,31.6-7.6,47.4-1.4,7.1-4.9,13.4-7.6,20.1-.9,2.3-2.3,2.8-4.4,2.8-5.7,0-11.3.2-16.6-2.3-3-1.4-6.3-1.7-9.5-1.9-.4-9.1-2.2-18.2,1.9-27,.8-1.8,1.5-3.6-.2-5.3,5.2-17.7,13.9-33.7,23.8-49,15.8-24.2,32.7-47.6,47.7-72.4.4-.7,1.1-1.2,1.9-2.2,1.3,3,2.7,5.4,2.1,8.3-.3.6-.9,1.1-.9,1.7-.5,15.7-4.9,30.8-8.1,46-4.8,22.7-8,45.6-14.3,68-2.7,9.6-1.7,19.9-5.1,29.4Z"/>
        <path class="cls-1" d="M506.8,552.1c7.4-18.1,14-36.4,22.4-54.1,7.2-15.2,12.7-31.4,17-47.8,4.8-18.2,9.3-36.5,12.1-55.2,1.1-7.1,7.1-3.3,11.2-3.2.2,15.1-3.5,29.7-5.3,44.6-4.6,38.1-15.6,74.8-24.8,111.9-3.6,14.7-13.6,23.1-27.8,27.5-5.1,1.6-9.8-1.4-14.8-.8-3.6.4-7.4,0-11.1,0,.9-4.7,5.2-6.2,8.4-8.5,4.4-3.1,7.7-6.8,10.3-11.4,1.8,1.8,3.4,4,5.6,5.4,3.5,2.3,7.5,3.7,11.8,2.4,1.5-.4,2.7-1.6,2.3-3.4-.2-1.1-.4-1.8-2.1-1.1-7.1,2.9-11.3-1.6-15.4-6.3Z"/>
        <path class="cls-4" d="M707.5,651.1c3.4-9.5,2.4-19.8,5.1-29.4,6.3-22.4,9.5-45.3,14.3-68,3.2-15.2,7.6-30.3,8.1-46,0-.6.6-1.1.9-1.7,7.2,30.4,6.5,61,3.1,91.8-1.4,13.1-2.2,26.3-4.2,39.4-.5,3.5-1.7,5.2-5.3,6.2-7.5,2-14.3,6-22,7.6Z"/>
        <path class="cls-1" d="M807.3,874.6c-7.1-8.5-14.2-17-21.3-25.5,1.4-.3,3.3.5,4.1-1.4,7.2-5.9,14.7-4.1,22.3-1,2.1.9,4.1,1.1,6.3,1,10.3-3.6,20.1,1.6,30.2,1.9,2.2,0,4.4,1,6.4.6,11.5-2.6,17.7,4.4,23.3,12.5.4.5.6,1.1.9,1.7.9,2.4,5.6,3.2,3.3,6.8-2.1,3.2-5.7,2.8-8.9,2.8-19,0-37.9-.1-56.9-.1-3.3,0-6.5.4-9.8.6ZM863.3,860.7c0-.5,0-1,0-1.5-4,0-8.1.5-12.1-.1-6.8-1-15.1,2.2-19.4-6.5-.5-1.1-1.8-1.2-2.8-.5-1.3.8-1.5,2.2-.9,3.5,2.3,4.7,5.8,8.1,10.7,9.9,1.4.6,3-.7,2.8-1.9-.7-3.9,2-2.9,3.9-2.9,5.9,0,11.9,0,17.8,0Z"/>
        <path class="cls-1" d="M654.8,200.3c1.6,2.4,1.4,4.8,0,7.3-5.8,10.4-7.4,22.4-11.7,33.4-1.9,4.9-2.9,11.2-10,12.1,2.3-16,3.3-31.9-6.5-47.3,10.2.4,19.9.6,28.2-5.5Z"/>
        <path class="cls-4" d="M420.6,937.6c-5-2-10.3,0-15.5-1.2,1.3-1.6,2.9-.8,4.4-.8,8.9-.4,17.8-.9,26.6-1,20.1-.2,40.3,1.3,60.4,2.3,1.6,0,4.8-.4,3.7,3.2-9.5-.8-19.1-1.5-28.6-2.3-6.1-1.9-12.3-1.6-18.4-.2-10.8,0-21.7,0-32.5,0Z"/>
        <path class="cls-1" d="M635.4,108.3c8.9-1,15.9,7.8,13,16.4-5.9-1.8-10.2-6.1-14.9-9.7q4.1-4.6,1.9-6.6Z"/>
        <path class="cls-4" d="M660.4,621.3c1.7,1.7,1.1,3.6.2,5.3-4.1,8.8-2.3,17.9-1.9,27-4.4,1.1-5.8-.7-5.1-5.1,1.4-9.3,3.2-18.5,6.8-27.3Z"/>
        <path class="cls-1" d="M598.4,115.2c1.2,2,2.5,3.9,3.7,6,1.5,2.7,2.9,5.6.9,8.4-2.3,3.2-5.1,0-7.6,0,2.6-4.5.5-9.9,3.1-14.4Z"/>
        <path class="cls-1" d="M586.9,157.2c-1.3.9-2.7,1.8-4,2.8-2.6-2.4.7-7.1-3.6-9.1-.3-.1,2.1-4.4,4.3-4.8,2.6-.4,1.5,2.4,1.7,3.8.4,2.4-.9,5.2,1.5,7.3Z"/>
        <path class="cls-1" d="M648.4,127.3c-1,4.2-4.4,2.4-6.8,2.5-3,0-3.8-2.2-3.8-4.8,3.4,1.4,6.7,3.3,10.6,2.3Z"/>
        <path class="cls-2" d="M453.1,937.6c6.2-1.4,12.3-1.7,18.4.2-6.1.3-12.3.5-18.4-.2Z"/>
        <path class="cls-2" d="M565.6,685.3c-.1-.3-.3-.7-.3-1,0-.1.3-.3.5-.4,0,.5-.1.9-.2,1.4Z"/>
        <path class="cls-2" d="M780.7,316c-15-7.9-30.1-15.8-45-23.9-19.1-10.4-27-28-31.1-48.2-3.5-17.1-2.6-34.6-6.2-51.7-.4-2,.7-3.4,1.9-4.7,5.1-5.5,11-9.1,19.1-6.9,2.3.6,5.7,1.8,7.1-.9,1.6-3.1-1.2-5.6-3.6-6.9-10.5-5.8-18.8-15.7-32.2-16.1-1.7,0-3.6.9-5.5,0,2-4.8,5.5-8.7,5.2-14.1-.2-3.4-.7-7.1-3.1-9-7.6-6.2-5.3-12.9-2.1-19.9,2-4.2,1.2-8.6,1-12.9-.3-4.8.9-8.2,5-11.2,8.1-5.8,7.9-13.9-.3-19.6-4.3-3-9.1-5.2-13.6-7.7-1.4-.8-3.6-.9-3.3-3.4.3-2.1,2.1-2.8,3.7-3.3,2.9-.9,6-.8,9,.2,8,2.7,15.9,5.8,23.3,9.7,5.5,9.5,13.5,17,21.5,24,6.6,5.7,14.6,10.1,21.2,16,7.1,6.3,15.2,11.6,21.8,18.1,12,11.9,17.2,27.8,17.9,44.8,1.3,34.6-2.1,69.1-2.6,103.6-.1,7.4.7,14.9-1.5,22-2.2,7.3-.3,16.2-7.7,21.7Z"/>
        <path class="cls-4" d="M780.7,316c7.4-5.5,5.5-14.3,7.7-21.7,2.1-7.1,1.4-14.6,1.5-22,.5-34.6,3.9-69,2.6-103.6-.7-17.1-5.9-33-17.9-44.8-6.6-6.5-14.7-11.8-21.8-18.1-6.6-5.9-14.6-10.3-21.2-16-8-7-16-14.5-21.5-24,.6.1,1.4.1,1.9.4,18.1,10.4,36.5,20.4,54.8,30.5,11.8,6.5,20.8,17.3,29.4,27.7,6.4,7.7,7.8,17.7,9.4,27.5,5.2,32.8,2.9,65.4-.9,98.2-2.9,25.3-6,50.5-8.1,75.9,0,.3-.4.6-.9,1.4-4.5-4.5-9.9-7.7-14.9-11.4Z"/>
        <path class="cls-1" d="M706,176.9c-1.2-3.7-4.6-4.7-7.6-4.8-6.3-.4-11.6-2.3-16-6.8,7.5-8.2,14.7-2.7,21.6.8,4.4,2.2,8.2,5.4,12.8,8.5-4,.8-7.4,1.6-10.8,2.3Z"/>
        <path class="cls-1" d="M696.6,230.8c-1.6-1.7-1.1-3.7-.9-5.7,1.3,1.8,1,3.7.9,5.7Z"/>
        <path class="cls-3" d="M690.3,398.2c3.5,3.1,2.2,7.1,1.9,10.9-3,38.4-15.8,74-34.2,107.3-19.9,35.9-37,72.7-46.3,112.8-.5,2.1-.5,4.8-3.4,6.3-1.6-4.9,2-8.8,1.9-13.1,3.8-13.5,7.4-27.2,11.6-40.6,6.6-21.1,18.3-39.8,28.7-59.2,17-31.6,30.2-64.5,36.6-100,1.5-8.1,2.2-16.2,3.3-24.4Z"/>
        <path class="cls-3" d="M662.8,114.2c-.1,1.2.3,2.5-1.2,2.9-1.3.3-1.9-.7-2.5-1.6-4.4-6.8-9.4-13-16.5-17.3-2.9-1.7-3.2-5.1-1.6-7.5,1.5-2.3,4.1-.1,5.5.9,8.1,5.6,13.4,13.4,16.3,22.7Z"/>
        <path class="cls-3" d="M506.8,552.1c4.1,4.7,8.3,9.3,15.4,6.3,1.7-.7,1.9,0,2.1,1.1.4,1.9-.9,3-2.3,3.4-4.3,1.3-8.3,0-11.8-2.4-2.1-1.4-3.7-3.6-5.6-5.4-.3-1.8-.4-3.3,2.2-3Z"/>
        <path class="cls-3" d="M863.3,860.7c-5.9,0-11.9,0-17.8,0-1.9,0-4.6-1-3.9,2.9.2,1.2-1.3,2.4-2.8,1.9-4.8-1.9-8.4-5.3-10.7-9.9-.6-1.3-.4-2.6.9-3.5,1-.7,2.3-.6,2.8.5,4.3,8.7,12.6,5.4,19.4,6.5,3.9.6,8.1.1,12.1.1,0,.5,0,1,0,1.5Z"/>
      </g>
    </g>
  </g>
</svg>