<?xml version="1.0" encoding="UTF-8"?>
<svg xmlns="http://www.w3.org/2000/svg" version="1.1" viewBox="0 0 1080 1080">
  <defs>
    <style>
      .cls-1 {
        fill: #64b0d5;
      }

      .cls-2 {
        fill: #66a847;
      }

      .cls-3 {
        fill: #212547;
      }

      .cls-4 {
        fill: #fff;
      }

      .cls-5 {
        fill: #7479b2;
      }

      .cls-6 {
        fill: #515b9e;
      }
    </style>
  </defs>
  <!-- Generator: Adobe Illustrator 28.6.0, SVG Export Plug-In . SVG Version: 1.2.0 Build 709)  -->
  <g>
    <g id="Layer_1">
      <g>
        <path class="cls-3" d="M1055.7,602.8c5.4,35-5.4,67.8-25.5,98.4-10.4,15.9-17.2,33.6-24.1,51.3-9.8,25.1-24.4,46.5-45.4,63.6-8.6,7-16.5,14.9-23.9,23.1-16.5,18.3-36.1,29.7-60.7,34-21.3,3.7-39.5,13.1-50.8,33.7-7.1,12.9-19,22.6-31.2,31.2-12.9,9.1-26.8,17-39.1,26.9-30.3,24.2-64.7,32.7-102.4,27.7-53-7.1-104.4,1-154.1,18-47.9,16.3-94.5,19.1-141.7-.9-8.6-3.7-18.4-4.6-27.3-7.8-24.7-9-46.5-5.9-68.3,10.1-25.2,18.6-46.7,17.5-70.2-3.8-25.2-22.9-51.7-42.1-83-56.3-30.8-13.9-48.8-42.3-56.4-74.6-9.6-40.9-20-81.8-24.4-123.7-1-9.4-1.8-19.1-.8-28.4,3.4-32.2,3-64.3-1.9-96.3-4-25.9.4-50.7,11.1-73.9,12.6-27.2,17.4-54.1,12.6-84.3-4.4-27.5,3.7-54.4,16.3-79.3,13.1-25.9,28.3-50.5,45.5-73.9,13.2-17.9,29.9-31.5,51-38.4,24.4-7.9,38-24.6,44.7-48.7,6.1-22,14-45.2,34-57.2,19.2-11.5,31.8-27.7,45.7-43.7,17.4-19.8,40.5-29.8,66.2-33.9,21-3.3,41.1-9.3,59.1-20.7,32.3-20.5,66.8-24.4,103.1-14,26.9,7.7,54,13.7,82,16.1,17,1.5,32.3,8.7,45.7,19.9,10.9,9.2,22.3,17.8,33.6,26.5,3.8,2.9,8.2,6.3,13,3.7,17.4-9.6,31.6-2.3,47.5,5.5,18.7,9.2,39.2,15,59,21.9,50.2,17.5,86.2,51.4,107.5,99,21.1,47,53.3,87.2,76.6,132.6,18,35.1,36,70.2,55,104.9,18.6,33.9,25.8,71.1,22.1,112ZM60.9,863.2c7.3,36,24.8,65.6,59.6,79.8,27,11,49.5,27,70.7,46.4,26.8,24.7,35.5,24.9,66.6,5.1,16.5-10.5,33.8-17,53.8-11.6,11.6,3.1,23.9,4.4,35.1,8.6,50.7,19.3,100.3,19.6,152.1,1.2,47.6-16.9,97.4-25.5,148.9-19.6,32.2,3.7,63.5,1.2,91.7-19.9,33.2-24.8,71.1-43.8,92-82.3,1.2-2.2,3.7-3.7,5.6-5.5,38.5-7.7,76.1-16.8,101.2-51.2,4.2-5.8,11-9.7,16.6-14.5,8.8-7.6,18.6-14.6,23.4-25.4,16.9-37.9,36.8-74.5,52.7-112.7,17.3-41.3,11.1-85.4,0-127.2-14.3-53.8-50.6-97.5-73.2-147.7-4.3-7.8-8.1-16-13-23.4-22.8-34.2-43.7-69.4-60.2-107.2-9.1-20.9-23.1-38.9-40.1-54.3-34.5-31.3-78.4-43.8-120.7-59.4-10-9.1-19.8-5.8-29.6.3-20.3-2.8-36.1-13.8-50.7-27.1-16.9-15.3-36.2-25.5-59.3-26.4-18.6-.7-36.7-3.6-54.1-9.7-45.8-16.2-87.8-9.2-126.9,18.8-12.1,2.9-23.3,8.9-35.9,10.4-42.6,5-74.7,25.1-91.5,66-1.8,4.4-5.3,6.3-9.7,6.9-11-6.9-16.4,2.6-22.3,8.3-14.8,14.4-21.5,33.4-27.8,52.4-6.6,20-17.8,35.6-37.8,43.9-13.7,5.4-28,10.1-39,20.2-35.3,32.5-57.5,73.4-72.9,118.1-4.3,12.3-6.3,25.6-4.6,38.8,3.9,30.2,4.3,59.9-8.4,88.5-8.6,19.4-15.7,40.4-13.6,61,3.7,37.9,6.3,75.3,2,113.3-5.2,47,12.1,91.3,19.4,136.8Z"/>
        <path class="cls-5" d="M403.2,98.5c39.1-28,81.1-35,126.9-18.8,17.4,6.1,35.5,9,54.1,9.7,23.1.9,42.4,11.2,59.3,26.4,14.6,13.2,30.5,24.3,50.7,27.1,10,13.1,19.8,3.3,29.6-.3,42.3,15.6,86.1,28.1,120.7,59.4,17,15.4,31,33.3,40.1,54.3,16.5,37.8,37.4,73,60.2,107.2,4.9,7.4,8.7,15.6,13,23.4-7,17.2-2,33.1,5.3,48.6,10.7,22.9,24.8,44.2,32.9,68.2,18.8,55.8,15.6,109.6-4.8,166.1-28.5,79.1-78.4,138.2-145.4,185.4-4,2.8-8.2,4.9-8.8,10.3-1.9,1.8-4.5,3.3-5.6,5.5-20.9,38.5-58.8,57.5-92,82.3-28.3,21-59.5,23.5-91.7,19.9-51.5-5.9-101.3,2.8-148.9,19.6-51.8,18.4-101.4,18.1-152.1-1.2-11.2-4.3-23.5-5.5-35.1-8.6-20-5.3-37.2,1.1-53.8,11.6-31.1,19.7-39.8,19.6-66.6-5.1-21.1-19.5-43.6-35.4-70.7-46.4-34.8-14.2-52.4-43.7-59.6-79.8,8.5,0,12.5-4.3,12-12.7-.4-7.8-1.3-15.7-1.4-23.3-.3-18.8-8-37.5-1.5-56.5,4.6.6,9.2,1.8,13.8,1.5,13.9-.8,16-5.1,10.1-19q-8.9,11.9-26.7,8.8c-.1-6.8-1.4-13.9-.2-20.5,6.5-37.1,13.5-74,20.6-111,10.2-53.6,16.4-106.8,5.7-161.6-6.5-33,3.1-64.5,29-88.8,2.5.8,5,1.5,7.5,2.4,6.6,2.7,12.5,1.7,17-3.9,1.1-1.4,2.3-4.7,1.6-5.5-4.2-4.6-9.8-1.3-14.8-1.8-10.7.6-8.4-4.8-4.2-10,10.9-13.3,19.6-28.4,32.9-39.5,11.2-9.3,17.4-20.6,16-35.4,20-8.3,31.2-23.9,37.8-43.9,6.3-19,13-38.1,27.8-52.4,5.9-5.7,11.3-15.2,22.3-8.3,10.1,13.4,21.6,9.5,33.6,3.1,29.2-15.8,56.3-34.6,81.3-56.4,9.6-8.4,23.3-13.6,22.3-29.9ZM355.1,929.5c.5,5.3-1.5,11,2.7,15.7,1.7,4.6-2.2,11.7,6.5,14.1.2-3.9.9-7.1.4-10.1-2-14,1.4-17.2,16.8-14.2,38.6,7.5,76.4,2.6,111.9-15.6,14.4-7.4,28.5-15.9,44.8-18.8,6.3,9.7,8,23.7,26.7,18.2,21.8-6.4,44.6-10.5,67.2-1.9,8.6,3.3,17.5,3.3,26.5,3,5.8-.2,11,.7,16.5,3.9,19.4,11.5,34.5,5.6,41.8-15.6,2.2-6.4,5.2-13.1,5.4-19.7.4-12.3,7.3-18.8,16.8-24.6,17.4-10.5,34.4-21.7,51.8-32.3,7.8-4.7,13.6-10,11.5-20.1,11.2-6.8,22.8-12.9,33.5-20.4,39.9-27.9,74.9-60.3,88.1-109.3,3.9-14.4,11-24.4,23.2-31.8,5.8-3.5,11.1-7.7,16.7-11.6-3-7.3-16.6-7.2-14.5-16.6,2.7-12.2-.2-24.5,2.8-36.1,2-7.9-2-20.5,12.2-22-4.6-8.6-10.5-15.9-10.2-27.1,1.5-50.4-13.4-97.8-35-142.1-13.9-28.5-33.4-54.4-46.4-83.7-4-7.2-3.4-16.5-9.8-22.7-6.5-20.7-20.7-36.9-35.9-50.3-10-8.8-27.3-1.8-41.3-2.8-4.2-.3-8.4,0-12.6-.1-5.8-.3-10.1,2.1-13.2,6.8-1.6-.5-3.2-.9-4.7-1.4-1.4-.7-2.8-1.4-4.1-2.2-14.1-2.1-28.3-1.2-42.4-1.5-21.3-.5-38.6-12.5-56.9-21.6-48.2-23.8-96.9-45.5-153-32.8,5.2-52.7,4.9-56.6-5.3-66-4.5,8.6-.1,17.8-2.3,26.3-4.9,0-9.8.9-12.6,5.4-14.3,23.2-38.1,29.9-62.2,36.6-35.9,10-70.6,23-94.4,54-15.7,20.4-29.5,42.3-45.2,62.8-14.6,19.1-25.1,41.3-43.5,57.5-1.7-6.5-2.6-13.4-5.4-19.4-2.8-6.3-5.5-17.5-13.5-14.2-7.3,3,.5,12,1.6,18.2,1.3,7.7,4.7,15.3,5.1,23,.5,10.7,4.1,22-2.7,32.2-21.9,32.8-43.9,65.6-65.6,98.5-6.9,10.5-13.7,21.3-17.5,33.5-17.5,56.4-20.1,114.1-9.8,171.7,6.7,37.6,17.6,74.6,28.3,111.4,8.4,28.9,19.3,57.1,44.7,76.3-1.5,1.4-3.6,2.5-4.4,4.2-6.4,13.8.8,28.7,19.7,38.9,37.7,20.6,77.9,13.6,117.7,9.9,10.1-.9,17.8-5.4,23.5-13.6h0ZM968.7,577.5c8.5,5.3,15.5,0,22.3-3.4,3-1.5,2.8-5.8.3-8.1-1.6-1.4-4.7-1.1-7.1-1.5,1.3,11.9-12.1,5.5-15.5,12.9ZM402.2,164.7c8-1.3,11.8-6.7,12.7-14.4.1-1.2-2.4-4-3.7-4-8.8-.3-3.9,9.3-8.5,12.5-1.1.7-3.1,3.1-.4,5.9ZM170.9,904.2c-1-3.8-4-7.1-8.8-8.1-2.6-.5-3.7,2.5-3.1,4.1,1.4,4.1,1.7,9.6,7.7,10,3,.2,4.6-1.8,4.2-6.1Z"/>
        <path class="cls-6" d="M178.1,286.4c1.4,14.8-4.8,26.1-16,35.4-13.4,11.1-22.1,26.3-32.9,39.5-4.3,5.2-6.5,10.5,4.2,10-1,6.4-13.5-1.8-11.2,8.8-25.8,24.3-35.5,55.8-29,88.8,10.7,54.8,4.5,108-5.7,161.6-7.1,37-14,74-20.6,111-1.2,6.6,0,13.6.2,20.5-1.1,3.5,1.6,5.8,2.8,8.6-6.5,19,1.2,37.7,1.5,56.5.1,7.6,1,15.5,1.4,23.3.5,8.5-3.5,12.8-12,12.7-7.3-45.5-24.6-89.8-19.4-136.8,4.2-38,1.7-75.5-2-113.3-2-20.7,5-41.6,13.6-61,12.7-28.6,12.3-58.3,8.4-88.5-1.7-13.2.4-26.5,4.6-38.8,15.4-44.7,37.6-85.7,72.9-118.1,11-10.1,25.3-14.8,39-20.2Z"/>
        <path class="cls-6" d="M837,865.5c.6-5.5,4.9-7.5,8.8-10.3,67-47.2,116.9-106.3,145.4-185.4,20.4-56.5,23.5-110.3,4.8-166.1-8.1-24-22.2-45.3-32.9-68.2-7.2-15.5-12.3-31.5-5.3-48.6,22.6,50.2,58.9,94,73.2,147.7,11.1,41.7,17.2,85.9,0,127.2-16,38.1-35.8,74.8-52.7,112.7-4.8,10.8-14.7,17.8-23.4,25.4-5.6,4.8-12.4,8.7-16.6,14.5-25.1,34.4-62.8,43.5-101.2,51.2Z"/>
        <path class="cls-6" d="M403.2,98.5c1,16.3-12.7,21.5-22.3,29.9-25,21.8-52.1,40.6-81.3,56.4-11.9,6.5-23.5,10.3-33.6-3.1,4.4-.6,7.9-2.5,9.7-6.9,16.9-40.9,48.9-61,91.5-66,12.7-1.5,23.8-7.5,35.9-10.4Z"/>
        <path class="cls-6" d="M723.9,142.6c-9.8,3.6-19.6,13.4-29.6.3,9.8-6.2,19.7-9.4,29.6-.3Z"/>
        <path class="cls-3" d="M198.7,890.1c-25.5-19.2-36.4-47.4-44.7-76.3-10.7-36.8-21.6-73.8-28.3-111.4-10.3-57.6-7.7-115.3,9.8-171.7,3.8-12.3,10.5-23,17.5-33.5,21.7-33,43.7-65.7,65.6-98.5,6.8-10.2,3.3-21.5,2.7-32.2-.4-7.7-3.8-15.2-5.1-23-1.1-6.3-8.9-15.3-1.6-18.2,8-3.3,10.7,7.9,13.5,14.2,2.7,6.1,3.6,12.9,5.4,19.4.7,8.7,1.4,17.5,2.2,27.9,30.1-21.8,61.2-39.9,68.9-79.5,3-15.4,10.3-29.8,18.6-43.3,17.2-28.1,39.7-49.4,74.1-53.4,13.6-1.6,27.4-.7,41.1-.8,20.5-.1,34.9-9.6,44.3-27.6,6.5-12.4,9.8-25.4,8.5-39.5,2.1-8.6-2.2-17.8,2.3-26.3,10.2,9.4,10.5,13.3,5.3,66,56.1-12.7,104.8,9,153,32.8,18.3,9.1,35.7,21.1,56.9,21.6,14.1.3,28.3-.6,42.4,1.5,1.4.7,2.8,1.4,4.1,2.2,1.6.5,3.2.9,4.8,1.4,9.6,9,19.4,18,25.1,30.2,14.6,31.3,38.1,53.8,67.7,70.7,19.4,11,33.8,27,43.8,46.7,10.2,20.2,20.3,40.5,28.8,61.5,6.1,14.9,12.9,31,8.9,47.3-12.2,50-8.5,100.1-3.8,151.5,11.2-4.6,20.1-15.4,33.5-11.1-5.6,3.9-10.9,8.1-16.7,11.6-12.2,7.4-19.3,17.4-23.2,31.8-13.2,49.1-48.3,81.4-88.1,109.3-10.7,7.5-22.3,13.7-33.5,20.4-63.3,26.3-133.1,33.7-194,67.4-21.6,12-47.7,11.5-70.2,21.6-16.4,2.9-30.4,11.4-44.8,18.8-35.6,18.2-73.3,23.1-111.9,15.6-15.4-3-18.8.3-16.8,14.2.4,3-.2,6.2-.4,10.1-8.7-2.4-4.9-9.5-6.5-14.1,0-5.4,2.8-11.2-2.7-15.7,0,0,0,0,0,0-15.4-8.7-31-17.1-46.1-26.3-15.3-9.3-32-10.7-48.7-7.6-21.3,4-41.7,3.3-61.7-5.5ZM761.4,266.1c-6.2-9.1-14.6-13.3-25.6-12.1-25.5.8-50.6-.1-73.7-13.4-24.8-14.2-51.8-23.7-78.6-33.4-37-13.3-72.6-15.1-107,9.3-16.3,11.6-36.2,18.1-56.9,14.2-21.9-4.2-40.7,1.2-57.5,15-20.6,17-34.2,38.8-41.1,64.4-8.3,31-25.8,54.6-51.8,73.2-17,12.2-35.6,23-47.9,40.8-19.2,27.8-38.2,55.7-57.4,83.4-8.8,12.7-16.5,25.9-20,41-8.6,37.2-10.8,75-9.6,113.2,1.8,53.5,23.3,102.4,35.2,153.5,3.6,15.3,12.6,29,21.3,42.2,10.8,16.3,26.5,26,45.6,22.7,39.7-6.7,74,3.4,108.6,22.8,41.8,23.5,87.4,24.3,131.1,3.9,31.2-14.6,63-26.4,96.6-34,49.3-11.1,94.6-34.6,144-46.5,45.9-11.1,91.3-26.1,128.7-57.6,39.1-32.9,70.4-70.2,69.8-125.2-.1-10-1-20-1.4-30-1.6-36.4-2.4-72.6,4.7-108.8,6.5-32.9-12.7-59.8-24.6-88.3-12.7-30.3-32.5-54.1-61.5-69.9-25.5-13.9-43.5-34.6-57.3-59.6-4-7.3-9.2-14-13.9-21Z"/>
        <path class="cls-6" d="M964,638.3c-13.4-4.3-22.3,6.6-33.5,11.1-4.7-51.5-8.4-101.6,3.8-151.5,4-16.3-2.8-32.4-8.9-47.3-8.5-20.9-18.6-41.3-28.8-61.5-10-19.7-24.4-35.6-43.8-46.7-29.6-16.9-53.1-39.4-67.7-70.7-5.7-12.2-15.5-21.2-25.1-30.2,3.1-4.7,7.4-7.1,13.2-6.8,4.2.2,8.4-.1,12.6.1,14,.9,31.2-6,41.3,2.8,15.3,13.4,29.4,29.6,35.9,50.3-6,9.5-1.3,18.8,2.9,26.4,3.7,6.7,5.8,0,6.9-3.8,13,29.3,32.5,55.2,46.4,83.7,21.7,44.3,36.5,91.7,35,142.1-.3,11.3,5.6,18.6,10.2,27.1-14.2,1.5-10.2,14.1-12.2,22-2.9,11.6-.1,23.9-2.8,36.1-2.1,9.4,11.5,9.3,14.5,16.6Z"/>
        <path class="cls-6" d="M538.3,900.5c22.5-10.2,48.6-9.7,70.2-21.6,60.9-33.7,130.7-41.1,194-67.4,2.1,10.1-3.7,15.4-11.5,20.1-17.4,10.6-34.4,21.8-51.8,32.3-9.5,5.8-16.5,12.2-16.8,24.6-.2,6.6-3.1,13.2-5.4,19.7-7.3,21.3-22.4,27.2-41.8,15.6-5.4-3.2-10.6-4.1-16.5-3.9-9,.3-17.9.3-26.5-3-22.7-8.7-45.5-4.6-67.2,1.9-18.7,5.5-20.4-8.5-26.7-18.2ZM718.3,849.6c-2.2,1.3-4.6,2.3-6.5,3.9-9.1,7.7-15.3,37.8-10.1,48.7,1.1,2.4,2.7,4.7,5.8,4.1,3.6-.7,3-4,2.9-6.3-.6-13.8-.4-27,10.8-37.8,3.5-3.4,4.7-9.5-2.9-12.7Z"/>
        <path class="cls-6" d="M491.3,142.6c1.3,14-2.1,27-8.5,39.5-9.4,18-23.9,27.5-44.3,27.6-13.7,0-27.6-.7-41.1.8-34.3,4-56.9,25.2-74.1,53.4-8.3,13.5-15.6,27.9-18.6,43.3-7.7,39.6-38.8,57.8-68.9,79.5-.8-10.5-1.5-19.2-2.2-27.9,18.4-16.2,28.9-38.4,43.5-57.5,15.6-20.5,29.5-42.3,45.2-62.8,23.8-31,58.4-43.9,94.4-54,24.1-6.7,47.9-13.4,62.2-36.6,2.8-4.5,7.6-5.3,12.6-5.4Z"/>
        <path class="cls-6" d="M198.7,890.1c19.9,8.8,40.4,9.5,61.7,5.5,16.7-3.1,33.4-1.7,48.7,7.6,15.1,9.2,30.7,17.6,46.1,26.3-5.7,8.2-13.4,12.6-23.5,13.6-39.9,3.7-80,10.7-117.7-9.9-18.9-10.3-26.1-25.1-19.7-38.9.8-1.7,2.9-2.8,4.4-4.2Z"/>
        <path class="cls-3" d="M69.9,770.6c-1.2-2.8-3.8-5.1-2.8-8.6q17.9,3.1,26.7-8.8c5.9,13.9,3.7,18.2-10.1,19-4.6.3-9.2-1-13.8-1.5Z"/>
        <path class="cls-3" d="M122.1,380.1c-2.3-10.6,10.2-2.4,11.2-8.8,5,.5,10.6-2.8,14.8,1.8.7.8-.4,4.1-1.6,5.5-4.5,5.7-10.4,6.6-17,3.9-2.4-1-5-1.6-7.5-2.4Z"/>
        <path class="cls-3" d="M872.9,310.7c-1.2,3.8-3.3,10.5-6.9,3.8-4.2-7.6-8.9-16.9-2.9-26.4,6.5,6.2,5.8,15.4,9.8,22.7Z"/>
        <path class="cls-3" d="M968.7,577.5c3.4-7.4,16.7-1,15.5-12.9,2.4.4,5.6.1,7.1,1.5,2.5,2.2,2.7,6.6-.3,8.1-6.8,3.4-13.9,8.6-22.3,3.4Z"/>
        <path class="cls-3" d="M402.2,164.7c-2.7-2.8-.6-5.2.4-5.9,4.7-3.2-.3-12.8,8.5-12.5,1.4,0,3.9,2.8,3.7,4-.9,7.7-4.7,13.1-12.7,14.4Z"/>
        <path class="cls-3" d="M170.9,904.2c.4,4.3-1.3,6.2-4.2,6.1-6-.4-6.3-5.9-7.7-10-.6-1.7.5-4.7,3.1-4.1,4.9.9,7.9,4.3,8.8,8.1Z"/>
        <path class="cls-6" d="M355.1,929.5c5.5,4.5,2.6,10.3,2.7,15.7-4.2-4.7-2.2-10.4-2.7-15.7Z"/>
        <path class="cls-6" d="M755.3,240.2c-1.4-.7-2.8-1.4-4.1-2.2,1.4.7,2.8,1.4,4.1,2.2Z"/>
        <path class="cls-1" d="M761.4,266.1c4.7,7,9.8,13.7,13.9,21,13.8,25.1,31.8,45.8,57.3,59.6,28.9,15.8,48.8,39.6,61.5,69.9,11.9,28.5,31.1,55.3,24.6,88.3-7.1,36.2-6.3,72.4-4.7,108.8.4,10,1.3,20,1.4,30,.6,55-30.7,92.3-69.8,125.2-37.4,31.5-82.8,46.5-128.7,57.6-49.4,11.9-94.6,35.3-144,46.5-33.5,7.6-65.3,19.4-96.6,34-43.7,20.4-89.3,19.5-131.1-3.9-34.6-19.4-69-29.5-108.6-22.8-19.2,3.2-34.8-6.4-45.6-22.7-8.8-13.2-17.8-26.9-21.3-42.2-11.9-51.1-33.4-100.1-35.2-153.5-1.3-38.1,1-75.9,9.6-113.2,3.5-15.1,11.3-28.3,20-41,19.2-27.8,38.2-55.7,57.4-83.4,12.3-17.8,30.9-28.6,47.9-40.8,26-18.6,43.5-42.3,51.8-73.2,6.9-25.5,20.4-47.4,41.1-64.4,16.8-13.8,35.6-19.2,57.5-15,20.8,4,40.6-2.6,56.9-14.2,34.4-24.5,70-22.7,107-9.3,26.8,9.7,53.8,19.1,78.6,33.4,23.1,13.3,48.2,14.2,73.7,13.4,3.4,14.9,14.7,13.1,25.6,12.1ZM446.7,636.2c-.6,17.1,1.5,33.6,8.9,49.4,5,10.7,12.2,12,21.7,6.2,41.1-25,65.6-84.1,52.8-131.1-5-18.5-15.3-35.7-4.2-55.5,1.9-3.5.2-9.4-.7-14-10.7-50.3-42.1-83.9-86.7-106.5-8.7-4.4-18.5-5.2-27.9-3.6-9.4,1.5-15.4,8.5-8.6,16.6,5.7,6.7,4.6,12.8,3.3,18.9-2.7,12.1-2.5,24.2-2.1,36.3,1.2,40,27.7,76.8,61.2,85.6q16.9,4.4,6.8,19.2c-16.1,23.7-25.9,49.4-24.4,78.6ZM727,345.9c-23.3.4-43.5,6.2-53.1,27.2-9.8,21.4-25.2,32.6-46.8,40.9-46.2,17.7-60.3,60.3-38.6,104.6,15.2,31,42.6,45.5,72.2,57.9,19.2,8,37.3,6.6,53.1-7.7,12.4-11.2,26.6-18.4,42.4-23.6,19-6.3,36.8-16.2,43.4-36.3,11.2-34.1,13-68.2-8-100-2.3-3.4-5.3-5.3-1.9-10.6,8.5-13.3,1.9-24.3-8.4-33-15.9-13.5-35.3-18.1-54.2-19.3ZM222,641.6c-1.2,8.9.8,19.3,3.7,29.4,6.3,22.7,27.7,38.2,47.6,31.4,34.1-11.5,59.6-34.4,75.7-67,2.5-5,2.8-11.2,3.3-16.9,1.9-24.8-7.2-46.7-19-67.4-8.3-14.5-20.2-17.9-36.7-12.8-48.9,15.4-74.3,49.9-74.5,103.2ZM475.9,348.8c0,2.1-.2,4.2,0,6.3,3.2,31,39.3,53.4,61.9,37.9,24.5-16.7,36.6-40.9,35.7-70.2-1.1-35.7-29.2-55.8-56.5-40.9-25.9,14.2-38.5,37.7-41.2,66.8ZM633.8,724.5c1.4-17.4-9.2-31.9-12.9-48.3-2.2-9.7-9.1-13.8-17.8-15.6-11.9-2.4-23.4-.5-33.3,6.5-23.5,16.6-35.6,39.7-37,68.2-.6,12.5,5,22.4,15.9,28.9,22.9,13.7,65.3,3.8,79.5-18.7,4-6.3,7-13,5.6-21.1ZM750.7,704.5c41.2,2.1,62.2-21.9,73-54.2,3.5-10.5,4-24.8-9.6-30.4-28.5-11.8-52.6-.5-76.6,15.4-16.3,10.8-16.8,23.9-14.8,40.8,2.9,24,4.1,26.5,28,28.4ZM422,765.4c.9-8-2.3-14.2-11.1-17.5-10.5-3.9-21-4.4-29.7,2.8-7.3,6-9,14.7-7.3,24.3.7,3.9,5.3,5.1,3.9,10.8-3.1,12.8,3.7,19.1,16.6,17.6,15-1.8,27.6-18.7,27.7-38.1ZM341.9,860.7c.3-4.2-1.4-7.1-5.8-7.8-3.4-.5-6.4.7-7.3,4.3-1.1,4.1.3,7.4,4.6,8.5,4.3,1.2,7-1,8.5-5Z"/>
        <path class="cls-6" d="M761.4,266.1c-10.9,1-22.2,2.8-25.6-12.1,11-1.2,19.5,3,25.6,12.1Z"/>
        <path class="cls-3" d="M718.3,849.6c7.6,3.3,6.5,9.3,2.9,12.7-11.2,10.8-11.4,24-10.8,37.8,0,2.3.7,5.6-2.9,6.3-3.1.6-4.7-1.7-5.8-4.1-5.2-11,1-41,10.1-48.7,1.9-1.6,4.3-2.6,6.5-3.9Z"/>
        <path class="cls-3" d="M446.7,636.2c-1.5-29.2,8.3-54.9,24.4-78.6q10-14.8-6.8-19.2c-33.5-8.8-60.1-45.6-61.2-85.6-.4-12.1-.6-24.2,2.1-36.3,1.4-6.1,2.4-12.1-3.3-18.9-6.8-8.1-.8-15,8.6-16.6,9.4-1.5,19.1-.8,27.9,3.6,44.6,22.7,76.1,56.2,86.7,106.5,1,4.6,2.7,10.5.7,14-11.1,19.8-.8,37,4.2,55.5,12.8,47-11.7,106.1-52.8,131.1-9.5,5.8-16.7,4.5-21.7-6.2-7.3-15.7-9.4-32.3-8.9-49.4ZM471.7,587.5c-11,18.4-13.2,38.4-11.4,59.3-1.4,8.1,2.4,15.4,3.8,23.1,1.6,8.9,5.6,10.4,13.7,4.5,45.8-33.3,51-88.3,36.1-130.9-2.7-7.7-5.7-5.7-9.9-1.9-14,13-25.5,27.8-32.3,45.8ZM415.4,441.4c-1.4,17.8.8,34.8,9.6,50.4,13.5,23.8,37.3,43.4,71.7,32.6,15.3-4.8,13.6-14.9,13.3-24-1.2-38.2-40.4-89.1-77.2-102.3-7.8-2.8-13-2.4-14.4,7.7-1.7,12-4,23.8-3.1,35.7Z"/>
        <path class="cls-3" d="M727,345.9c18.9,1.3,38.3,5.8,54.2,19.3,10.3,8.7,16.9,19.7,8.4,33-3.4,5.3-.4,7.2,1.9,10.6,21.1,31.8,19.3,65.9,8,100-6.6,20.1-24.4,30-43.4,36.3-15.8,5.2-30,12.4-42.4,23.6-15.8,14.3-33.9,15.7-53.1,7.7-29.6-12.4-57-26.9-72.2-57.9-21.7-44.3-7.6-86.9,38.6-104.6,21.6-8.3,37-19.5,46.8-40.9,9.6-21,29.8-26.8,53.1-27.2ZM792.9,462c1.2-9-.7-19.5-3.7-29.5-4.3-14.3-15.7-26.5-9.5-43.6,1.9-5.2-4-10.4-8.7-14.1-9-6.9-19.4-10.8-30.4-12.6-29.7-4.9-47.7,1.5-56.7,22.2-8.6,19.7-22.2,32.6-42,40.2-8.3,3.2-16.5,7.2-24,11.9-24.3,15.4-31,37.4-21.2,64.2,11.7,31.9,36.2,49.2,66.4,61,16.2,6.4,30.7,5.6,44.1-6.3,10.7-9.6,23.1-16.3,36.6-21.4,40.3-15.2,49.1-28,49.1-72Z"/>
        <path class="cls-3" d="M222,641.6c.2-53.2,25.6-87.8,74.5-103.2,16.5-5.2,28.4-1.8,36.7,12.8,11.8,20.8,21,42.7,19,67.4-.4,5.7-.8,11.9-3.3,16.9-16,32.5-41.6,55.4-75.7,67-19.8,6.7-41.3-8.8-47.6-31.4-2.8-10.1-4.9-20.5-3.7-29.4ZM234.8,643.9c-.9,8.1.3,17.6,3.8,26.5,3.5,9.1,9.3,16.3,19.6,19,10.1,2.6,8.8,1.7,17.5-6.9,7.2-7.1,17.6-11.2,26.9-16.2,25.8-14,39.8-36.8,36-61.2-2.4-15.1-7.8-29.3-15.2-42.9-6-11.1-14.9-13.2-25.3-8.4-44.9,20.9-63.7,43.7-63.3,90.1Z"/>
        <path class="cls-3" d="M475.9,348.8c2.6-29.1,15.3-52.6,41.2-66.8,27.3-14.9,55.4,5.2,56.5,40.9.9,29.2-11.2,53.5-35.7,70.2-22.7,15.4-58.7-7-61.9-37.9-.2-2.1,0-4.2,0-6.3ZM488.5,342.2c-.9,22,7.6,33.1,22.2,39.9,14.3,6.7,24.1-2.3,33.2-11.3,14.4-14,20.7-48.6,12.7-66.7-6.4-14.5-19.8-19.8-33.7-11.9-21.3,12-31.4,31.5-34.5,50Z"/>
        <path class="cls-3" d="M633.8,724.5c1.5,8.1-1.6,14.9-5.6,21.1-14.2,22.5-56.5,32.4-79.5,18.7-10.9-6.5-16.5-16.4-15.9-28.9,1.4-28.5,13.5-51.7,37-68.2,9.9-7,21.4-8.9,33.3-6.5,8.7,1.8,15.6,5.9,17.8,15.6,3.7,16.4,14.3,30.9,12.9,48.3ZM575,758.3c33.8,0,54.5-19.7,49.7-47.8-1.8-10.5-7.7-19.3-13.5-28.1-5.9-9-13.3-10.9-23-7.5-22.6,7.9-33.9,25.4-40.2,47-7.2,24.5,1.8,36.3,27.1,36.4Z"/>
        <path class="cls-3" d="M750.7,704.5c-23.9-1.9-25.1-4.5-28-28.4-2-16.9-1.6-30,14.8-40.8,24-15.9,48.1-27.2,76.6-15.4,13.6,5.6,13.1,19.9,9.6,30.4-10.8,32.3-31.8,56.3-73,54.2ZM787.2,628.1c-12.5-3.8-21.7,6.6-32.4,12.7-24.4,13.7-24.1,13.8-19.5,40.6,1.2,6.7,3.2,9.7,10.6,10.5,29.1,3.1,44.5-5.4,60-34.5,11-20.7,6.4-28.6-18.8-29.3Z"/>
        <path class="cls-3" d="M422,765.4c0,19.4-12.7,36.3-27.7,38.1-12.9,1.5-19.7-4.7-16.6-17.6,1.4-5.7-3.3-6.9-3.9-10.8-1.6-9.7,0-18.4,7.3-24.3,8.8-7.2,19.2-6.7,29.7-2.8,8.8,3.3,12,9.5,11.1,17.5ZM413,764.9c-.3-4.1.2-8.3-6.2-10.4-7.6-2.5-14.4-3.2-20.6,2.1-5.7,4.8-6.8,11.5-5.2,18.6.6,2.7,7,4.6,3.5,6.8-7.4,4.5-3.2,7,.2,10.3,4.1,4.1,9.1,2.9,13,.5,10.1-6.1,14.9-15.6,15.3-27.9Z"/>
        <path class="cls-3" d="M341.9,860.7c-1.5,4-4.2,6.2-8.5,5-4.3-1.2-5.7-4.5-4.6-8.5.9-3.6,3.9-4.8,7.3-4.3,4.4.7,6.1,3.6,5.8,7.8Z"/>
        <path class="cls-2" d="M415.4,441.4c-.9-11.9,1.4-23.8,3.1-35.7,1.5-10,6.6-10.5,14.4-7.7,36.7,13.2,75.9,64.2,77.2,102.3.3,9.1,2,19.2-13.3,24-34.4,10.8-58.3-8.8-71.7-32.6-8.8-15.6-11-32.5-9.6-50.4Z"/>
        <path class="cls-2" d="M471.7,587.5c6.8-18.1,18.3-32.8,32.3-45.8,4.1-3.8,7.2-5.8,9.9,1.9,14.9,42.6,9.6,97.5-36.1,130.9-8.1,5.9-12.1,4.3-13.7-4.5-1.4-7.7-5.2-15-3.8-23.1,12.2-18.1,3.3-40.4,11.4-59.3Z"/>
        <path class="cls-1" d="M471.7,587.5c-8.1,18.9.8,41.2-11.4,59.3-1.8-20.8.4-40.9,11.4-59.3Z"/>
        <path class="cls-4" d="M792.9,462c0,44.1-8.8,56.9-49.1,72-13.5,5.1-25.9,11.8-36.6,21.4-13.3,11.9-27.8,12.6-44.1,6.3-30.2-11.8-54.7-29.1-66.4-61-9.8-26.8-3.1-48.8,21.2-64.2,7.5-4.8,15.7-8.8,24-11.9,19.8-7.6,33.4-20.4,42-40.2,9-20.7,27.1-27.1,56.7-22.2,11,1.8,21.4,5.7,30.4,12.6,4.7,3.6,10.6,8.9,8.7,14.1-6.2,17.1,5.2,29.4,9.5,43.6,3,10,4.9,20.5,3.7,29.5Z"/>
        <path class="cls-4" d="M234.8,643.9c-.4-46.4,18.4-69.1,63.3-90.1,10.3-4.8,19.2-2.7,25.3,8.4,7.4,13.6,12.8,27.8,15.2,42.9,3.8,24.4-10.1,47.2-36,61.2-9.2,5-19.6,9-26.9,16.2-8.8,8.6-7.5,9.5-17.5,6.9-10.3-2.7-16.1-9.9-19.6-19-3.5-8.9-4.7-18.4-3.8-26.5Z"/>
        <path class="cls-4" d="M488.5,342.2c3.1-18.5,13.2-38,34.5-50,13.9-7.8,27.3-2.6,33.7,11.9,7.9,18.1,1.6,52.7-12.7,66.7-9.1,8.9-18.9,17.9-33.2,11.3-14.6-6.8-23.1-18-22.2-39.9Z"/>
        <path class="cls-4" d="M575,758.3c-25.3,0-34.2-11.8-27.1-36.4,6.3-21.6,17.6-39.2,40.2-47,9.8-3.4,17.1-1.4,23,7.5,5.8,8.8,11.7,17.5,13.5,28.1,4.8,28.1-15.9,47.8-49.7,47.8Z"/>
        <path class="cls-4" d="M787.2,628.1c25.2.6,29.8,8.6,18.8,29.3-15.5,29.1-30.9,37.5-60,34.5-7.4-.8-9.5-3.7-10.6-10.5-4.6-26.8-4.9-26.9,19.5-40.6,10.7-6,19.9-16.4,32.4-12.7Z"/>
        <path class="cls-4" d="M413,764.9c-.3,12.2-5.2,21.7-15.3,27.9-3.9,2.4-8.9,3.6-13-.5-3.3-3.3-7.5-5.9-.2-10.3,3.6-2.1-2.9-4.1-3.5-6.8-1.6-7.1-.5-13.8,5.2-18.6,6.2-5.2,13-4.5,20.6-2.1,6.4,2.1,5.8,6.3,6.2,10.4Z"/>
      </g>
    </g>
  </g>
</svg>