<?xml version="1.0" encoding="UTF-8"?>
<svg xmlns="http://www.w3.org/2000/svg" version="1.1" viewBox="0 0 1080 1080">
  <defs>
    <style>
      .cls-1 {
        fill: #64b0d5;
      }

      .cls-2 {
        fill: #66a847;
      }

      .cls-3 {
        fill: #212547;
      }

      .cls-4 {
        fill: #fff;
      }

      .cls-5 {
        fill: #7479b2;
      }

      .cls-6 {
        fill: #515b9e;
      }
    </style>
  </defs>
  <!-- Generator: Adobe Illustrator 28.6.0, SVG Export Plug-In . SVG Version: 1.2.0 Build 709)  -->
  <g>
    <g id="Layer_1">
      <g>
        <path class="cls-6" d="M538.5,122.8c.1-6.3-2.9-11.4-6.6-16.2-11-14.4-9.2-18.1,9.8-20.7,38.2-5.2,72.1,12.4,89.3,46.3,3,5.8,5.7,11.8,8.6,17.6-21.1.6-41.9,3-62,9.3-6.3,2-10.5,1.5-13.1-4.7-5.5-13-16.5-21.7-25.9-31.6Z"/>
        <g>
          <path class="cls-3" d="M556,50.4c2.8-11.8,13-11.1,21.6-11.4,38.7-1.2,64.4,21.4,86,48.8,19.9,25.3,26.5,53.3,7.3,82.5-4.1,6.3-.6,9.2,3,13.3,32.5,37.2,65.7,73.8,97.1,111.8,65.2,79.2,97.8,170.3,101.6,272.2,1.7,44.3,8.8,88.5,10.2,132.8,3,96.1-3.2,191-51.7,278-10.5,18.8-22.3,36.8-38.7,51.3-8.5,7.6-18.4,13.7-30.1,10.1-11.6-3.6-14-14.3-16.1-24.9-4.5-23.3.2-46.2,5.4-68.3,11.2-47.7-6.3-85.7-35.7-121.1-22.2-26.8-47.3-50.9-72.9-74.4-18.1-16.6-39.9-29.2-64-35.2-25.6-6.5-50.5-17.1-78-15.7-5.6.3-9.1-7.5-16.1-9.3-33.1-8.6-66.4-17.4-96.4-34.3-6.3-3.5-9.4-1.2-13.5,2.9-11.1,11.3-22,22.7-33.8,33.2-20.6,18.5-44.4,29.4-72.5,20.5-26-8.2-45.9-23.9-51.6-52.2-4.2-20.7,2.5-40.4,6.5-60.3,4.4-22.1,4.6-44-6.6-64-24.1-43.1-25.3-87.2-9.4-133,7.4-21.3,9.2-44,11-66.3,3-36.7,16.9-68.6,39.6-97.2,21.6-27.2,43.2-54.3,64.6-81.6,20.6-26.3,45.7-46.1,78.7-55.3,26.9-7.5,53.2-16.9,78.5-28.8,5.6-2.6,12.1-3.3,18.2-4.9,3.4,1.9,8.1-1.7,11.4,2.5-13.7,10.8-31.6,13-45.4,23-15,5.9-30,11.9-45.1,17.6-18.6,6.9-37.4,13.5-52.8,26.5-13.4,9.4-24.5,21.1-33.6,34.5-23.1,33.9-53.2,62.7-74.6,97.8-.5.8-.8,1.6-.9,2.5h0c-10.2,14.9-16.1,31.6-18.3,49.3-5,38.8-9.2,77.5-21.3,115.1-6.3,19.6-6,40.2,1.9,60,4.3,10.7,8.7,21.3,13.4,31.7,8.8,19.5,12.6,39.2,9.7,60.8-2.8,21.1-12.5,41.2-9.7,63.1.3,26.4,35.5,52.8,59.5,49.9,27.6-3.3,44.4-24.1,63.5-41.2,6.6-5.9,1-9.6.9-14.6-.6-24.3-4-28.9-26.7-34.9-27.1-7.1-50.1.2-72.8,19.6,1.9-6.5,2.9-9.8,3.9-13.1h-.1c1.1-1,2.2-2.1,3.3-3.2,0,0-.1.1-.1.1,1.2-1.1,2.4-2.2,3.6-3.2,11.1-5.7,21.8-12.2,34.7-13.2,16.5,1,33.3-1.2,49.3,7-1.7-19.4-4.4-36.9-4.5-54.4-.3-53.8,7.4-106.6,19.8-158.9,2.6-11.1,9.3-21.6,6-34.3-5.8-22.7-32.7-48.4-57.6-44.6-4,.6-9.6,2.8-12.7-2.9,18-8.3,35.5-8.1,52.6,2.8,10.2,6.4,16.6,15.9,23.6,25.1.7,1.1,1.3,3,2.2,3.1,2.3.4,3.2-1.3,3.2-3.5.4-1.5.7-3,1.1-4.6,1.2-1.7,2.6-3.3,3.5-5.1,35.2-71.4,90.8-123.3,160-161.9,8.8-4.9,6.8-8.6,3.1-14.1-11.3-17.1-28.3-27.5-45.7-37.5-.8-.7-1.6-1.5-2.5-2.2,5.5-5.7,11.1-3.4,16.8-.4,6.9,3.6,13.7,7.3,20.6,10.9,8.3,8.7,17.9,16.3,22.8,27.8,2.3,5.5,6,5.9,11.5,4.1,17.7-5.5,36-7.6,54.5-8.1,11.6,3,23.5,5.1,33.6,11.5,5.1-8.7,5.6-17.5,4.7-26.4-3.7-37.8-54.9-80.7-93.7-78.9-6.4.3-13.9,4.1-18.2-4.3ZM368,517.7c-4.8,24.4-3,48.9-.7,73.2,2.8,30.8,3.5,31,35.4,38.5,26.5,6.2,53.8,3.4,80.7,5.8,46.5,4.3,90.8,14.4,130.4,40,45.8,29.6,82.6,68.2,115,111.4,37.6,50.1,48,106.2,37.6,166.2-3.5,19.8-11.2,38.9-9.6,59.6.5,6.8.2,14.6,7.2,17.9,8.1,3.9,14-2.4,19.3-7.3,21.1-19.7,35.8-43.9,47.4-69.8,36.2-80.2,42.4-165.2,39.3-251.2-1.7-46.4-8.1-92.6-10.9-139-5.2-87.2-29.4-167.6-81.2-239.8-34.8-48.5-74.4-92.4-117.2-133.9-6.5-6.3-12.9-12.5-18.7-22.7,4.5,1.5,5.9,2,7.3,2.5,2.6,1,4,5.7,7.8,2.9,1-.8,1.7-3,1.4-4.2-1.4-4.1-5.2-2.3-8-2.4-12.2-.4-24.4-.8-36.6-.6-23.9.3-65.5,18-79.8,33.6,27.7-5.4,54.3-5.7,63.3-.3-9.1-1.2-15.7,2.2-22.8,6.5-14,8.4-30.6,7.4-44.4,2.3-5.9-2.2-7.6-2.3-11.6.5-108.2,75.9-145.5,185.3-150.3,309.9v.5ZM499.1,680.4c-10.1-11.9-6.2-28.8-24.4-29.1-16.8-.3-33.7.7-50.4-2.5-5.2-1-10.1,2-7.6,6,4.2,6.6,17.9,10.6,19.6,7.4,6.8-12.5,8.3-2.5,10.9,1.3,2.6,3.8,6,5.4,10.3,6.5,12.2,3,24.3,6.1,41.6,10.5ZM538.8,660.7c2.9,9.7,8.1,17.5,8.9,26.9.4,4.8,32.1,16.4,36.2,13.8.8-.5,1.7-1.7,1.6-2.5-.3-10.3,1.3-21.8-10.1-27.5-11.2-5.5-23.2-9.5-36.6-10.6ZM593.5,681.7c4.3,10-4,20.5,7.4,26.7,15,8.1,31.6,13.3,44.5,27.5-.9-23.3-15.3-38.3-51.9-54.2ZM494.9,654.9c3.9,8.5,7.3,16,10.9,23.4,1.7,3.5,29.4,13.2,32.5,11.6.8-.4,1.5-1.4,1.9-2.2,1.9-3.9-10-29.5-14.4-30.1-9.8-1.2-19.4-5.1-30.9-2.6ZM742.8,840.4c-11.7-29-29.6-54.1-51.1-77.8-6.2,7.7-7.6,13.2,0,20.3,18.9,17.5,35.3,37.2,51,57.6ZM654.2,723.9c-6.4,17.2.7,28.8,25.9,44,6.1-23.1-15-30.1-25.9-44ZM377,636.3c10.2,8.3,21,15.5,35.4,14-11.8-4.7-23.6-9.4-35.4-14Z"/>
          <path class="cls-6" d="M463.9,95.3c13.8-10,31.8-12.2,45.4-23-3.3-4.2-8-.6-11.4-2.5,19.3-6.6,37.7-15.7,58-19.3,4.3,8.5,11.8,4.6,18.2,4.3,38.8-1.8,90,41.1,93.7,78.9.9,8.9.4,17.7-4.7,26.4-10.1-6.4-22.1-8.5-33.6-11.5-2.5-5.2-4.9-10.4-7.5-15.5-15.1-29.8-44.9-45.2-78.4-40.7-16.7,2.3-18.2,5.5-8.6,18.2,3.2,4.2,5.9,8.7,5.8,14.2-6.9-3.6-13.7-7.3-20.6-10.9-5.7-3-11.3-5.4-16.8.4-14.8-2.9-27.4-10.5-39.4-19Z"/>
          <path class="cls-1" d="M368.1,517.2c4.8-124.7,42.1-234,150.3-310,4-2.8,5.7-2.7,11.6-.5,13.8,5.2,30.4,6.2,44.4-2.3,7.1-4.3,13.7-7.6,22.8-6.5-9-5.4-35.6-5.1-63.3.3,14.3-15.6,55.9-33.3,79.8-33.6,12.2-.1,24.4.3,36.6.6,2.8,0,6.6-1.7,8,2.4.4,1.2-.3,3.5-1.4,4.2-3.8,2.9-5.2-1.9-7.8-2.9-1.4-.5-2.8-1-7.3-2.5,5.8,10.2,12.3,16.5,18.7,22.7,42.8,41.5,82.4,85.4,117.2,133.9,51.8,72.2,75.9,152.5,81.2,239.8,2.8,46.4,9.2,92.6,10.9,139,3.1,86-3.1,171.1-39.3,251.2-11.7,25.9-26.3,50-47.4,69.8-5.3,5-11.2,11.2-19.3,7.3-7-3.4-6.7-11.1-7.2-17.9-1.5-20.7,6.2-39.8,9.6-59.6,10.4-60,0-116.1-37.6-166.2-32.4-43.2-69.2-81.8-115-111.4-39.6-25.6-83.9-35.7-130.4-40-26.9-2.5-54.2.4-80.7-5.8-31.9-7.5-32.5-7.6-35.4-38.5-2.2-24.3-4-48.9.7-73.2,2.1,17.5-4.7,36.5,8.4,52.2-10.9-.8-8.8,4.2-4.3,9.8,10.4,12.8,34,16.1,47.8,6.9,25.2-16.9,30.3-68.9,8.9-90.2-14.9-14.9-34.5-14.7-45,.5,15.1,1.2,32.5-1.6,40.3,15.5,8.4,18.4,8.7,37.1-4.6,54.1-1.5-4.9.9-9.1,2.6-13.5,7.2-19.2,2.9-36.7-11.3-46-14.4-9.4-24.4-7-42.8,10.2ZM682.6,420.6c4.8,6.7,11.3,6.1,12.7-.8,2.2-10.9,5.4-23.5-7.6-32.2-2.6,7.1,6.7,13.2-.2,19.5-6.1-.2-4.6-12.7-11.7-8.6-5.1,3-3.8,15.3-15.2,10.4-1.5,8.4,4.6,13.5,9.5,18.1,4.1,3.8,10.3,4.1,10.3-4.7.7-.6,1.4-1.2,2.2-1.8ZM795.3,426.2c5.8-19.2-11.4-39.8-34.6-41.6-13.6-1.1-24.3,8.1-25.5,21.9-2.1,24.6,16.2,42.1,42.1,40.9,10.3-.5,15.9-4.3,15.2-15.1.9-2,1.9-4,2.8-6ZM514.3,533.9c10.8,6.7,21.5,2.4,32.2-.3,6.5,3,12.2,1.3,17.9-2.2,22.6-13.9,37.5-33.3,43.4-59,1.2-5.1,3-10.3,2.6-15.4-2.2-28.3,10.5-48,32.9-65,23.9-18,25.9-42,8-65.9-14.8-19.7-33.7-34.7-58.5-40.6-27.4-6.5-53.2-3.9-76.6,15.9,3.9.7,6.4,1.2,9,1.6-5.4,5.8-10.8,11.5-16.2,17.3-38.8,5.5-70.3,32.8-69.8,65.3,1,60.6,27.8,109.8,75.1,148.2ZM639.1,588.5c37.1.3,61.4-10.8,76.4-38,13.9-25.2,23.3-52.4,21.4-81.9-.4-6.7-1.1-13.7-3.3-20-4.3-12.8-17.5-15-25.5-4.1-7.4,10.1-13.7,21.3-14.2,34-.3,8.1-3.5,9-10.4,9.4-38.1,2.6-90,44.2-100.2,79.8-3.4,11.8,2.9,23.1,13.4,20.8,15-3.3,29.4,1.6,42.4.1ZM769.3,533.9c11,31.4,8.6,62.8,3.2,94.2-3.2,18.2-3.2,36.4-2.2,54.6,1.6,27.1,20.5,47.8,41.7,46.7,22.9-1.2,40.9-22.5,40.7-49.4,0-8.8-1.3-17.7-3.2-26.2-6.1-27.8-10.8-56-22.1-82.4-5.2-12-13.1-23.8-27.5-21.8-10.1,1.4-14-1.8-18.8-8.4-2.3-3.2-5.1-6.8-11.8-7.2ZM812.9,880.8c2.3-18.7-15.2-29.4-17.3-46.1-.5-3.8-2.4-6.3-6-5.3-4.4,1.3-4.3,3.7-2,8.2,8.8,16.9,16.2,34.4,17.3,53.9.1,2,.8,4.2,2,5.7,1.9,2.2,6.1,2.7,6.3,0,.9-11,15-14.2,14.1-26.7-1.3-17.6-.3-35.5-.3-53.2,0-3.9-.7-8.2-5.4-7.9-7.1.5-3,5.7-3.2,9.4-1.1,20.3,7.7,41.1-5.6,62ZM474.1,597.4c7.4,5.9,14.9,8.6,22.2,1.3,4-3.9,6.1-5,12.4-1.7,6.5,3.4,16.7.4,20.8-6.8,3.8-6.7-1.8-12.9-7.3-17-3.1-2.3-8.5-5.2-11.3-.7-2.7,4.2,2.5,5.4,5.6,7.2,2.7,1.5,6.2,4,4.2,7.2-1.5,2.4-5.6,2.9-8.5.6-5.3-4.3-11.6-4.7-15.8-.4-6.3,6.4-13.9,8.2-22.3,10.4ZM618.7,230.8c1.8,10,9.4,13.3,17.1,15.5,4.8,1.3,7,3.6,8.5,7.8,5.4,15.1,11.3,17.4,27,11,2.9-1.2,6.7-1.8,5-6-1.3-3.4-4.5-3.9-7.9-2.5-5.3,2.1-13.9,5.4-14.6-1.6-2.5-23.4-24.7-14.4-35.2-24.1ZM681.4,657.3c9.6,1.5,15.4,6.7,19.2,14.6,1.7,3.4,5.3,5.6,9.2,3.9,4.8-2.1,2.1-6.1,1.3-9.4-3.5-14.4-13.2-17.8-29.8-9.1ZM792.4,942.2c-4.7,9-2.6,18.7-3,28-.1,3.2.7,6.6,4.7,6.6,4.1,0,3.6-4,4.9-6.6,5.8-11.1-4.7-18.4-6.6-27.9ZM759.8,819c.7-8.5-1.1-17.1,7.7-22.7,2.3-1.5,3.2-4.1.7-6.6-3.2-3.1-4.1.3-6,1.9-9.9,8.3-7.2,17.8-2.5,27.3ZM420.3,453.4c2.8-.9,8.4,1.9,8.3-3.5,0-6.3-5.9-5.9-10.5-5.6-3.3.2-8.4-1.5-7.8,4.2.5,5.4,5.7,4.7,10,5Z"/>
          <path class="cls-5" d="M463.9,95.3c12,8.5,24.6,16.1,39.4,19,.8.7,1.6,1.5,2.5,2.2,1.4,15.3,3,30.6,8.9,45.2,2.6,6.3-.6,11.8-5.4,16.8-12.7,13.3-27.1,24.8-41.6,36-32.6,25.4-62.4,53.2-79.6,91.4-4,9-11.3,18.5-3.2,29.1-.4,1.5-.7,3-1.1,4.6-1.8.1-3.6.3-5.4.4-7-9.2-13.4-18.7-23.6-25.1-17.2-10.8-34.6-11.1-52.6-2.8-8.2,11.6-6.5,17.9,8.4,26.1,20.1,11,31.1,27.6,32.6,50,1.3,18.8-2.4,37.2-4.8,55.7-5.4,41.6-12.6,83-14,125-.9,25-.2,25-22.4,31.3-12.9,1-23.6,7.5-34.7,13.2-1.2,1.1-2.4,2.2-3.6,3.2,0,0,.1-.1.1-.1-1.1,1.1-2.2,2.2-3.3,3.3,0,0,.1-.1.1-.1-10,2.7-11.6,12.3-16.4,19.2-3.6,5.2-3.3,13.5-11.8,15.1-2.8-21.9,7-42,9.7-63.1,2.9-21.6-1-41.4-9.7-60.8-4.7-10.5-9.1-21.1-13.4-31.7-7.9-19.7-8.2-40.3-1.9-60,12.1-37.6,16.3-76.3,21.3-115.1,2.3-17.7,8.1-34.4,18.3-49.4.2,3.1.6,6.3.4,9.4-.4,6.3,1.3,12,7.4,14.3,6.4,2.4,11.7-1.9,14.9-6.4,19.3-27.2,49.2-42.2,73.6-63.5,7.1-10.9,22.2-19.1,12.7-35.7-1.2-5.6,1.9-10,4.2-14.6,6.8-13.6,7.9-26.5-4-38.2,15.4-13,34.2-19.6,52.8-26.5,15.1-5.6,30.1-11.7,45.1-17.6ZM278.8,463.2c7.8-.1,9.1-6,10.1-11.4.8-4.1-2.5-4.6-5.9-5-12.2-1.5-3.8,8.8-7.3,12.5-3.2,3.5,1.1,3.3,3.1,3.9ZM399.5,194.8c5.3,5.2,7.5,11.8,15.6,10.1,2.7-.6,5.1-2.5,3.1-5.5-3.8-5.8-9.1-8.4-18.8-4.6Z"/>
          <path class="cls-6" d="M232.4,654.1c8.5-1.5,8.2-9.8,11.8-15.1,4.8-7,6.4-16.6,16.4-19.2-1,3.3-2,6.7-3.9,13.1,22.7-19.4,45.7-26.8,72.8-19.6,22.7,6,26.2,10.6,26.7,34.9.1,5,5.7,8.7-.9,14.6-19.1,17.1-35.9,37.9-63.5,41.2-24,2.9-59.2-23.5-59.5-49.9Z"/>
          <path class="cls-6" d="M301.9,600.3c22.2-6.3,21.5-6.3,22.4-31.3,1.4-42,8.6-83.4,14-125,2.4-18.5,6.1-37,4.8-55.7-1.5-22.5-12.4-39-32.6-50-15-8.2-16.7-14.4-8.4-26.1,3.1,5.7,8.7,3.5,12.7,2.9,25-3.8,51.8,22,57.6,44.6,3.3,12.7-3.4,23.2-6,34.3-12.4,52.4-20.1,105.2-19.8,158.9.1,17.5,2.8,34.9,4.5,54.4-16-8.2-32.8-5.9-49.3-7Z"/>
          <path class="cls-6" d="M353.1,227.8c-24.4,21.2-54.3,36.3-73.6,63.5-3.2,4.6-8.5,8.9-14.9,6.4-6.1-2.3-7.8-8-7.4-14.3.2-3.1-.2-6.3-.4-9.4,0,0,0,.1,0,.1.5-.1,1-.3,1.5-.4-.2-.7-.4-1.4-.6-2.1,21.4-35.1,51.5-63.9,74.6-97.8,9.1-13.4,20.2-25,33.6-34.5,11.9,11.6,10.8,24.6,4,38.2-2.3,4.6-5.3,9-4.2,14.6-8.4,9.4-12,21.2-15.9,32.7-.2.6,2.1,2,3.2,3ZM328.5,215.9c-.5,2.9-.9,4.9-1.2,6.9-.4,3.1,0,6.5-1.1,9.2-2.1,5.1-.8,8,4,4.7,5.9-4.2,3.9-11.3,2.4-17.4-.2-.8-1.5-1.3-4.1-3.5Z"/>
          <path class="cls-6" d="M384.9,335.1c-8.1-10.6-.8-20.1,3.2-29.1,17.1-38.3,46.9-66,79.6-91.4,14.5-11.3,28.9-22.7,41.6-36,4.8-5,8-10.5,5.4-16.8-5.9-14.6-7.4-29.8-8.9-45.2,17.3,10,34.3,20.4,45.7,37.5,3.7,5.6,5.8,9.2-3.1,14.1-69.2,38.5-124.8,90.5-160,161.9-.9,1.8-2.3,3.4-3.5,5.1Z"/>
          <path class="cls-4" d="M376.4,569.9c-13.1-15.8-6.4-34.7-8.4-52.2,0,0,0-.5,0-.5,18.4-17.1,28.5-19.5,42.8-10.2,14.2,9.3,18.6,26.7,11.3,46-1.6,4.4-4.1,8.5-2.6,13.5,0,0,.1-.1.1-.1-2.3,0-3.3,1.2-3,3.5h0c-2.4-.3-3.5.8-3.3,3.2h0c-7.6,1.1-15.3,2.2-22.9,3.3-4.7-2.1-9.5-4.2-14.2-6.3Z"/>
          <path class="cls-1" d="M499.1,680.4c-17.3-4.4-29.4-7.6-41.6-10.5-4.2-1-7.7-2.7-10.3-6.5-2.7-3.9-4.2-13.9-10.9-1.3-1.7,3.2-15.4-.8-19.6-7.4-2.5-3.9,2.4-7,7.6-6,16.7,3.2,33.6,2.2,50.4,2.5,18.2.4,14.3,17.2,24.4,29.1Z"/>
          <path class="cls-1" d="M538.8,660.7c13.4,1.1,25.4,5.1,36.6,10.6,11.4,5.6,9.8,17.2,10.1,27.5,0,.8-.9,2-1.6,2.5-4.1,2.7-35.7-8.9-36.2-13.8-.9-9.4-6-17.2-8.9-26.9Z"/>
          <path class="cls-1" d="M593.5,681.7c36.6,15.9,51.1,30.9,51.9,54.2-12.9-14.2-29.5-19.4-44.5-27.5-11.5-6.2-3.2-16.7-7.4-26.7Z"/>
          <path class="cls-1" d="M494.9,654.9c11.5-2.5,21.1,1.4,30.9,2.6,4.4.6,16.3,26.2,14.4,30.1-.4.9-1.1,1.8-1.9,2.2-3.2,1.6-30.9-8.1-32.5-11.6-3.6-7.4-7-14.9-10.9-23.4Z"/>
          <path class="cls-1" d="M742.8,840.4c-15.8-20.4-32.2-40.1-51-57.6-7.6-7.1-6.3-12.5,0-20.3,21.5,23.7,39.4,48.8,51.1,77.8Z"/>
          <path class="cls-1" d="M654.2,723.9c11,13.9,32.1,20.8,25.9,44-25.2-15.1-32.3-26.7-25.9-44Z"/>
          <path class="cls-1" d="M377,636.3c11.8,4.7,23.6,9.4,35.4,14-14.4,1.4-25.2-5.8-35.4-14Z"/>
          <path class="cls-6" d="M378.4,340.1c1.8-.1,3.6-.3,5.4-.4,0,2.2-.8,3.9-3.2,3.5-.9-.1-1.5-2-2.2-3.1Z"/>
          <path class="cls-5" d="M257.7,271.6c.2.7.4,1.4.6,2.1-.5.1-1,.3-1.5.4,0-.9.4-1.8.9-2.5Z"/>
          <path class="cls-6" d="M263.7,616.8c1.2-1.1,2.4-2.2,3.6-3.2-1.2,1.1-2.4,2.2-3.6,3.2Z"/>
          <path class="cls-6" d="M260.5,619.9c1.1-1.1,2.2-2.2,3.3-3.3-1.1,1.1-2.2,2.2-3.3,3.3Z"/>
          <path class="cls-4" d="M546.5,533.6c-10.7,2.8-21.4,7-32.2.3,2.3-9.4-5.4-14.3-10-20-22-27.3-37.5-57.8-47.5-91.1-12.1-40.3.2-67,38.5-86.3,7.8-3.9,16.8-6.2,23.4-14.1-3.7-.8-6.7-1.4-9.7-2.1,5.4-5.8,10.8-11.5,16.2-17.3,46-15.6,85.7-6.4,112.1,26.1,18.4,22.6,16.6,38.7-8.1,54.3-23.4,14.9-35.3,34.6-35.1,62.3.2,27.5-10.4,50.6-31.8,68.9-6.2,5.3-13.8,10-15.9,18.9Z"/>
          <path class="cls-3" d="M639.1,588.5c-13,1.5-27.3-3.5-42.4-.1-10.5,2.3-16.8-8.9-13.4-20.8,10.3-35.6,62.2-77.2,100.2-79.8,6.9-.5,10.1-1.4,10.4-9.4.4-12.7,6.8-23.9,14.2-34,8-10.9,21.2-8.6,25.5,4.1,2.1,6.3,2.8,13.3,3.3,20,1.9,29.5-7.5,56.7-21.4,81.9-15,27.2-39.4,38.2-76.4,38ZM641.9,578.2c27,.5,59.9-22.3,69.1-47.3,1.5-4,1.3-6.4-1.2-9.8-8.8-11.9-22.6-16.1-37.6-11.8-19,5.4-33.8,16.9-46.6,30.8-7.8,8.5-23,17.2-18.5,28.1,4.3,10.3,21.7,6.9,33.3,9.9.5.1,1.1.1,1.6.2ZM721.4,507.4c1.2-20.4,3.4-38.1-.8-57.3-16.8,21.1-16.8,38.4.8,57.3Z"/>
          <path class="cls-3" d="M546.5,533.6c2.2-8.9,9.7-13.6,15.9-18.9,21.4-18.2,32-41.4,31.8-68.9-.2-27.7,11.8-47.4,35.1-62.3,24.7-15.7,26.5-31.7,8.1-54.3-26.4-32.5-66.2-41.7-112.1-26.1-2.5-.5-5.1-.9-9-1.6,23.4-19.9,49.2-22.4,76.6-15.9,24.7,5.9,43.7,20.9,58.5,40.6,17.9,23.8,15.9,47.8-8,65.9-22.5,16.9-35.1,36.7-32.9,65,.4,5-1.4,10.3-2.6,15.4-5.9,25.7-20.8,45.1-43.4,59-5.7,3.5-11.5,5.2-17.9,2.2Z"/>
          <path class="cls-3" d="M769.3,533.9c6.6.4,9.4,4,11.8,7.2,4.8,6.6,8.7,9.9,18.8,8.4,14.4-2.1,22.3,9.8,27.5,21.8,11.4,26.4,16,54.6,22.1,82.4,1.9,8.6,3.1,17.5,3.2,26.2.2,26.8-17.8,48.2-40.7,49.4-21.2,1.1-40.1-19.6-41.7-46.7-1-18.2-1-36.4,2.2-54.6,5.4-31.3,7.9-62.8-3.2-94.2ZM792.2,570.3c-1.9,17.6-4.1,35.2-5.7,52.8-2.2,24.3-7.9,48.6-.6,72.9,3.5,11.8,9.7,20.7,23.8,21.1,14.3.4,22.5-7.5,27.2-19.6,5.9-15.3,4-30.7,0-46-7.2-27.9-8.9-57.4-25.1-82.6-3.3-6.7-8.5-9.7-16-7.6-4.7,1.3-6.8,4.3-3.6,9Z"/>
          <path class="cls-3" d="M509,320.4c3,.6,6,1.3,9.7,2.1-6.5,8-15.6,10.2-23.4,14.1-38.3,19.2-50.7,46-38.5,86.3,10,33.2,25.5,63.7,47.5,91.1,4.6,5.7,12.3,10.7,10,20-47.3-38.5-74-87.6-75-148.2-.6-32.5,30.9-59.9,69.8-65.3Z"/>
          <path class="cls-3" d="M376.4,569.9c4.7,2.1,9.5,4.2,14.2,6.3,8.5,4.6,16.4,5.6,22.9-3.3,0,0,0,0,0,0,2.4.2,3.5-.9,3.3-3.2,0,0,0,0,0,0,2.5.1,3.1-1.4,3-3.5,0,0-.1.1-.1.1,13.2-17.1,13-35.8,4.6-54.1-7.8-17.1-25.3-14.3-40.3-15.5,10.4-15.2,30.1-15.3,45-.5,21.4,21.3,16.3,73.3-8.9,90.2-13.8,9.2-37.4,5.9-47.8-6.9-4.5-5.5-6.6-10.6,4.3-9.8Z"/>
          <path class="cls-3" d="M792.5,432.3c.8,10.7-4.9,14.6-15.2,15.1-25.9,1.2-44.3-16.3-42.1-40.9,1.2-13.8,11.9-22.9,25.5-21.9,23.2,1.9,40.3,22.5,34.6,41.6-5.3.5-12.1.9-12.3-5.6-.6-17.1-9.4-27.2-24.9-27-6.2,0-11.1,2.7-12.5,7.6-3.2,11.2-1.2,22,8.6,29.5,9.1,7,19.4,10.7,30.3,3.7,2.7-1.8,4.4-4.3,7.9-2.2Z"/>
          <path class="cls-4" d="M792.5,432.3c-3.5-2.1-5.2.5-7.9,2.2-10.9,7-21.2,3.3-30.3-3.7-9.8-7.5-11.9-18.3-8.6-29.5,1.4-4.9,6.3-7.6,12.5-7.6,15.4-.2,24.3,9.9,24.9,27,.2,6.5,7,6.1,12.3,5.6-.9,2-1.9,4-2.8,6Z"/>
          <path class="cls-3" d="M812.9,880.8c13.3-20.9,4.5-41.7,5.6-62,.2-3.6-3.9-8.9,3.2-9.4,4.6-.3,5.4,4,5.4,7.9,0,17.7-1,35.5.3,53.2.9,12.5-13.2,15.7-14.1,26.7-.2,2.8-4.5,2.2-6.3,0-1.2-1.5-1.9-3.7-2-5.7-1.1-19.4-8.5-36.9-17.3-53.9-2.3-4.5-2.4-7,2-8.2,3.5-1,5.5,1.5,6,5.3,2,16.7,19.6,27.3,17.3,46.1Z"/>
          <path class="cls-3" d="M680.4,422.4c0,8.8-6.2,8.5-10.3,4.7-4.9-4.6-11-9.8-9.5-18.1,11.3,4.9,10-7.5,15.2-10.4,7.1-4.1,5.6,8.4,11.7,8.6,6.9-6.3-2.4-12.4.2-19.5,13.1,8.7,9.9,21.3,7.6,32.2-1.4,6.9-7.9,7.6-12.7.8-2.1-1.6-.2-7.1-4-5.8-2,.7-1.6,5.6,1.9,7.5Z"/>
          <path class="cls-3" d="M474.1,597.4c8.5-2.3,16-4,22.3-10.4,4.2-4.3,10.5-3.9,15.8.4,2.9,2.3,6.9,1.9,8.5-.6,2-3.3-1.5-5.8-4.2-7.2-3.1-1.7-8.3-3-5.6-7.2,2.9-4.4,8.3-1.6,11.3.7,5.4,4.1,11.1,10.4,7.3,17-4.1,7.3-14.3,10.2-20.8,6.8-6.3-3.3-8.4-2.2-12.4,1.7-7.4,7.3-14.9,4.6-22.2-1.3Z"/>
          <path class="cls-3" d="M618.7,230.8c10.5,9.7,32.7.8,35.2,24.1.7,6.9,9.3,3.6,14.6,1.6,3.4-1.3,6.6-.8,7.9,2.5,1.6,4.2-2.1,4.8-5,6-15.7,6.5-21.6,4.2-27-11-1.5-4.2-3.7-6.4-8.5-7.8-7.7-2.2-15.4-5.5-17.1-15.5Z"/>
          <path class="cls-3" d="M681.4,657.3c16.6-8.7,26.2-5.3,29.8,9.1.8,3.3,3.5,7.3-1.3,9.4-3.9,1.7-7.6-.5-9.2-3.9-3.8-8-9.6-13.1-19.2-14.6Z"/>
          <path class="cls-3" d="M759.8,819c-4.8-9.5-7.4-19,2.5-27.3,1.8-1.6,2.8-4.9,6-1.9,2.5,2.4,1.6,5.1-.7,6.6-8.8,5.6-7.1,14.2-7.7,22.7Z"/>
          <path class="cls-3" d="M420.3,453.4c-4.3-.2-9.4.5-10-5-.6-5.7,4.5-4,7.8-4.2,4.7-.2,10.4-.7,10.5,5.6,0,5.3-5.5,2.6-8.3,3.5Z"/>
          <path class="cls-3" d="M353.1,227.8c-1.1-1-3.4-2.4-3.2-3,3.9-11.6,7.5-23.3,15.9-32.7,9.5,16.6-5.6,24.8-12.7,35.7Z"/>
          <path class="cls-3" d="M278.8,463.2c-2-.5-6.3-.4-3.1-3.9,3.5-3.8-4.9-14,7.3-12.5,3.4.4,6.7.9,5.9,5-1.1,5.4-2.3,11.3-10.1,11.4Z"/>
          <path class="cls-3" d="M399.5,194.8c9.7-3.8,15-1.3,18.8,4.6,1.9,3-.4,5-3.1,5.5-8.1,1.7-10.3-4.9-15.6-10.1Z"/>
          <path class="cls-3" d="M328.5,215.9c2.6,2.1,3.9,2.7,4.1,3.5,1.5,6.1,3.5,13.2-2.4,17.4-4.8,3.3-6.1.4-4-4.7,1.2-2.7.7-6.1,1.1-9.2.2-2,.7-4,1.2-6.9Z"/>
          <path class="cls-1" d="M413.5,572.9c-6.5,8.9-14.4,7.9-22.9,3.3,7.6-1.1,15.3-2.2,22.9-3.3Z"/>
          <path class="cls-1" d="M419.7,566.3c0,2-.5,3.6-3,3.5-.3-2.3.7-3.4,3-3.5Z"/>
          <path class="cls-1" d="M416.8,569.7c.2,2.4-.9,3.4-3.3,3.2-.2-2.3.9-3.4,3.3-3.2Z"/>
          <path class="cls-2" d="M641.9,578.2c-.5,0-1.1,0-1.6-.2-11.6-3-29,.3-33.3-9.9-4.5-10.8,10.7-19.5,18.5-28.1,12.8-14,27.6-25.4,46.6-30.8,15.1-4.3,28.9,0,37.6,11.8,2.5,3.4,2.7,5.8,1.2,9.8-9.2,25-42.1,47.8-69.1,47.3Z"/>
          <path class="cls-2" d="M721.4,507.4c-17.6-19-17.6-36.2-.8-57.3,4.2,19.2,2,36.9.8,57.3Z"/>
          <path class="cls-4" d="M811.8,569c16.2,25.2,18,54.7,25.1,82.6,3.9,15.3,5.8,30.8,0,46-4.7,12.1-12.9,20-27.2,19.6-14.1-.4-20.3-9.3-23.8-21.1-7.2-24.3-1.6-48.6.6-72.9,1.6-17.6,3.8-35.2,5.7-52.8,6.4-2.3,13-1.9,19.5-1.4Z"/>
          <path class="cls-1" d="M811.8,569c-6.6-.6-13.2-.9-19.5,1.4-3.3-4.7-1.1-7.6,3.6-9,7.4-2.1,12.7.9,16,7.6Z"/>
          <path class="cls-1" d="M680.4,422.4c-3.5-1.9-3.9-6.8-1.9-7.5,3.9-1.4,2,4.2,4,5.8-.7.6-1.4,1.2-2.2,1.8Z"/>
        </g>
      </g>
    </g>
  </g>
</svg>