<?xml version="1.0" encoding="UTF-8"?>
<svg xmlns="http://www.w3.org/2000/svg" version="1.1" viewBox="0 0 1080 1080">
  <defs>
    <style>
      .cls-1 {
        fill: #64b0d5;
      }

      .cls-2 {
        fill: #66a847;
      }

      .cls-3 {
        fill: #212547;
      }

      .cls-4 {
        fill: #fff;
      }

      .cls-5 {
        fill: #7479b2;
      }

      .cls-6 {
        fill: #515b9e;
      }
    </style>
  </defs>
  <!-- Generator: Adobe Illustrator 28.6.0, SVG Export Plug-In . SVG Version: 1.2.0 Build 709)  -->
  <g>
    <g id="Layer_1">
      <g>
        <path class="cls-5" d="M151.4,807.3c-2.9-2.2-5.9-4.5-8.8-6.7,1.9-4.1-2.7-7.2-1.6-11.2,17.5,13.4,23.3,11.1,27.2-10.5.2-1.1,1.6-2,2.5-3-.9,6.3.4,11.8,6.3,15.1,3.2,1.7,7.2,2.7,9.8-.7,2.7-3.4-1.8-4.3-3.4-5.8-5-4.7-2-7.9,1.7-10.9,5.5-4.4,11.8-6,18.8-6,3.7,0,9.7,1.4,9.2-4.6-.5-5.9-6.6-3.2-10-3.2-10.2,0-19.1,3.9-27.1,10.2-3.9-9.5-12.6-13.2-21.1-16.9-21.2-9.2-42-20.1-66.4-15.1-28.4-22.4-53.4-46.5-42.8-88,.7-2.8,1.8-7.1-1.2-8.7-4.2-2.2-6.1,2.4-8.3,4.9-1.5,1.6-2.4,3.7-3.6,5.5.9-8.1,1.8-16.2,2.7-24.3,4.4,2.9,7,.7,7.7-3.5,1.3-7,3.6-14.4,2.7-21.2-4.3-30,6.3-58.7,7-88.4.6-23.3,3.2-48.5,18.1-69.3,7.8-11,14.7-22.6,22.1-34,16.6-25.7,35.8-49,57.6-70.8,25.4-25.4,43.4-57.1,63.6-86.9,21.1-31.2,50.2-53.9,86.8-62.7,29.9-7.1,61.1-8.6,91.7-12.6,15.4,20.6,37.4,24,60.9,23.8,3.6,0,7.7-.9,10.7.5,22.4,10.4,45.3,5.9,66.9-.5,37.2-11,74.2-20,113.4-16.3,7.8.7,18.5.6,20.4-8.4,1.8-8.2-10-8.1-14.8-12.8,9.2-2.7,18.7-1.9,28-3.4,58.5-9,108.2,10.9,153.8,45.4,7.3,5.5,5.8,8.3-.6,11.9-1.2-6.9-4.1-4.4-8-1.9-7.6,4.9-12.9,13.1-22.2,15.4-3.1,0-6.3-.4-9.4,0-13.8,1.7-28.3,14.2-30.8,26.8-.9,4.6-.9,9.7,4.9,10.9,6.5,1.3,5.5-3.8,5.7-7.8.3-5.8,4.7-9.4,8-13.5,5,5.4-1.5,10.7,0,16.3,1,3.9.4,8.4,5.1,9.9,4.9,1.5,6.3-2.4,8.8-5.8,7.6-10.3,17.9-17.6,29.6-22.9.3,2.2-.1,5.3,1.1,6.3,2.4,1.9,3.6-1.2,4.8-2.8,3.4-4.4,4.1-9.7,5.2-15,2.1-10.2,10.2-15.9,19.5-18.3,9.2-2.3,14.7,3.6,18.7,11.7,4.9,9.9,13.2,16.9,21.4,23.9,19.1,16.4,40.8,29.9,57,49.5,30.6,36.9,52.9,79.1,76.6,120.4,5.3,9.3,7.9,20,7.1,31.1,1,10.4-10,14.5-11.6,24.7-8.1,51.2-13,103-29,152.8-17.1,53.5-40.6,99.7-97.8,122.3-52.3,20.8-99.8,51.6-145.9,84-25.8,18.1-52.8,34.3-82.4,45.7-31,11.9-61.8,21.8-96.3,20.4-19.2-.8-39.2-.7-59,2.7-17.1,2.9-34.4,3.9-52.2-4.3-23.3-10.7-48.9-8.3-73.4-.2-3.1-.3-6.5,0-9.3-1-23.5-9.1-48.3-12.5-72.6-18.4-53.4-12.9-106-27.6-141.2-75-4.5-6-9-6.5-12.1,1.5ZM278.2,299c-17,13-25.7,32.1-36.7,49.6-6.5,10.4-12.5,21.4-25.1,27.8-.6-8.8,2-17.2-6.4-22.7-3.6,8.7-1.6,17-5.5,25.7-5.8,12.7-2.8,14.1-12.4,23.6-16.9,16.6-27.5,36.6-31.6,59.9-1.9,11.1-2.5,22.4-3.8,33.5-5.9.5-7.9,5.5-10.4,9.6-17.2,29.1-30,60.1-40,92.3-1.1,3.6-1.5,7.1,1.9,9.8.5,6.2,6.6,4.6,9.8,7-.4,2.5-.8,4.9-1.2,7.4-3.6-.3-7.2-1.1-10.7-.8-4.4.3-10.3.9-10.7,6-.4,5,5.6,5.3,9.3,5.8,12.1,1.5,23.8,4.3,34.7,10,24.8,12.8,45.7,30.6,62.9,52.2,15.6,19.7,35.3,32.9,58.5,41.8,16.8,6.4,33.4,13.8,46.7,26.4,9.5,8.9,17.9,19,27.2,28.1,1.7,1.7,4.2,9.3,8.7,1.9,1.1.4,2.1.7,3.2,1.1-.4,7.1,4.5,10.6,10,12.9,40.3,17.3,80.5,25.7,121.1.4,10.7-6.6,22.3-11.4,34.9-13.9,22.2-4.4,41.4,4.8,61.1,12.1,22.6,8.3,45.4,15,68.7,4.1,4.6,2.7-.9,9.2,4.5,10.2,3.9.7,5.9-3.5,8.6-5.8,8.7-7.5,13.9-17.6,19.4-27.4,13.3-23.4,32-39.5,58.7-45.9,21.4-5.1,41.8-13.5,61.9-22.5,16-7.2,33-11.1,50.2-14.6,11.9-2.4,25.3,0,35.8-7.2,14-9.5,24.2-22.2,28.7-39.3,6-22.5,11.9-45,20.1-66.8,1.5-4.1,3.7-9,.3-13.6.4-3.7.7-7.3,1.1-11,20.5-16.7,34.1-37.2,38.4-63.9,3.6-22.4,1.7-44.7,2.1-67.1.7-37.5-7.8-47.5-43.7-54.5,1.6-9.6-4.9-12.2-12.1-14.8-9.2-3.2-19-3.8-28.1-8.4-26.8-13.4-47.3-34-67.7-54.9-20.6-21.1-20.7-21-44.7-9.4,0,0-.8-.4-.8-.4-1.2-.8-2.3-1.7-3.5-2.5-5.4-4-10.8-8-16.2-12.1-28.5-21.8-58.1-40.5-95.3-43.8-17.8-1.6-35,2.6-52.5,2.1-5.9.3-12-1.9-17.5,2.1-1.4.2-2.9.4-4.3.6-14.6-7.4-28.9.7-43.4,1.2-18.3.7-35.9,7.8-54.6,6.8-7.9-.4-15.2-3.1-23.8-1.3-21,4.4-42.5,6.1-63.7,9.4-33.6,5.3-67.2,11.5-99.5,22.2-9.7,3.2-20.8,7.6-22.3,20.8ZM763.8,795.6c4.2,7.7,8.5,15.4,16.9,6.7,7.4-7.6,8.3-17.9,3.3-27.4-5.4-10.4-13-18.8-25.5-20,7.9,8.1,16.8,15,20.4,26.3,1.8,5.6,0,10.8-3.1,15.3-3.8,5.7-6.5-2.5-12-.8ZM92.4,534.6c2,0,6,1.2,6.1-3.4,0-4-3.8-5.8-7.3-6.8-9.3-2.6-27.7,8.5-30.1,17.9-1.6,6.4,1.4,10.3,6.8,12.8,4.1,1.9,7.4-.7,9.1-3.6,2.4-4.3-2.3-3.1-4.2-4.2-4.7-2.9-2.6-6.1.5-8.4,5.3-3.9,10.8-8,19.2-4.2ZM299.7,245.8c2.1,5.1-4.9,11,3,12.2,4.2.6,4.9-4.7,5.6-7.9,1-4.6.6-9.7-5.5-10.3-9.1-.9-12.3,5-12.7,13.6,3.1-2.4,6.1-4.8,9.7-7.6ZM623,873.1c-.2-2.7.2-5.6-.8-8-1.4-3.3-3.2-8.8-8-6.2-5.5,3.1.8,4.9,1.9,7.6,2.3,5.1,2.1,11.5-2.7,14.7-3.3,2.2-6.9,3.2-3.4,6.9,3,3.1,6.7.8,9.1-2.4,2.7-3.7,4.3-7.9,3.9-12.6ZM687.4,200.3c.3-5.2-1.8-6.8-5.6-6.8-4.7,0-8.3,2.5-8.3,6.8,0,4.6,4.4,6.7,8.6,6.6,4.5-.2,5.1-4.2,5.3-6.6Z"/>
        <path class="cls-3" d="M392.4,177.9c-30.6,4-61.8,5.5-91.7,12.6-36.6,8.8-65.7,31.5-86.8,62.7-20.1,29.8-38.2,61.5-63.6,86.9-21.8,21.8-40.9,45.2-57.6,70.8-7.3,11.3-14.2,23-22.1,34-14.9,20.9-17.5,46-18.1,69.3-.8,29.7-11.4,58.4-7,88.4,1,6.8-1.3,14.2-2.7,21.2-.8,4.2-3.3,6.4-7.7,3.5-2.3-39,1.4-78,5.8-116.5,3.3-28.8,8.6-58.2,24.6-84,20-32.2,40.1-64.2,67.5-90.9,21.4-20.9,40-43.9,54.5-70.2,38.5-69.6,99.5-96.8,176.8-97.5,30.7-.3,61.9,5.8,92.1-2.2,23.9-6.4,48.2-9.1,72.3-14,8.8-1.8,17.8-2.8,26.8-3,53.2-1.1,106.3-7.2,159.3-6.6,49.9.6,94.6,20.1,129.3,57.9,3.4,3.7,6.7,3.9,10.7,3.9,8.9,0,17.2,3.6,20.7,10.7,8.3,16.8,23.4,25.7,37.7,35.1,34.5,22.9,62.2,51.6,83.2,87.2,11.9,20.2,25.2,39.5,36.9,59.7,17.6,30.6,21.3,63.5,14.1,97.9-1.9,9.2-6.3,18.6,1.2,27.6.9,1.1-.4,4.4-1.2,6.4-8.7,20.5-7.9,42.1-7.8,63.7.2,29.4-6.4,56.7-22.7,81.9-10.7,16.5-19.4,34.4-28.5,51.9-12.3,23.8-28.2,45-53.3,55.3-58.7,24.1-104.8,65.8-152.2,105.9-21.7,18.4-43.6,36.4-72.3,43.1-16.8,4-33.9,5.6-51,4.1-32.5-2.8-64.8-.2-97.2,2.1-17.6,1.3-34.9-2.6-52.4-4.4-27.3-2.8-54.7-4.4-82-7.1-39.6-3.9-75.8-22.1-115-28.1-36.7-5.6-71.4-17.7-103.9-35.7-23.8-13.2-46.3-28.1-57.7-54.6,3.1-8,7.6-7.5,12.1-1.5,35.1,47.5,87.8,62.1,141.2,75,24.3,5.9,49.1,9.3,72.6,18.4,2.8,1.1,6.2.7,9.3,1,1.5.8,3,1.9,4.6,2.4,47.8,14.1,97.7,11.2,146.5,18.5,40.5,6.1,81.6-4.7,122.6.3,15.2,1.9,30.4-1,45.4-4.2,31-6.7,52.8-27.9,75.6-47.4,44.2-37.6,87.4-76.3,142.6-98,15.5-6.1,30.9-15.4,38.6-30.5,19.1-37.4,48.3-69.6,54.7-113.7,4-27.9,9.4-55.4,12.2-83.6,2-20.1.6-40.3,4-60.4,1.7-10,7-20.9,1-31.5.8-11.1-1.7-21.8-7.1-31.1-23.7-41.3-46-83.5-76.6-120.4-16.3-19.6-37.9-33.1-57-49.5-8.3-7.1-16.5-14.1-21.4-23.9-4-8.1-9.5-14-18.7-11.7-9.3,2.4-17.3,8.1-19.5,18.3-1.1,5.3-1.8,10.6-5.2,15-1.2,1.6-2.5,4.6-4.8,2.8-1.2-1-.8-4.1-1.1-6.3,4.5-8.6,1.9-19.3,8.3-27.3,6.4-3.7,7.9-6.4.6-11.9-45.7-34.5-95.3-54.5-153.8-45.4-9.3,1.4-18.9.7-28,3.4-48.9,0-97.7-1-146.3,7.5-36.7,6.4-73.5,16.5-111.2,6.4Z"/>
        <path class="cls-3" d="M32.5,651.7c1.2-1.9,2.1-3.9,3.6-5.5,2.3-2.5,4.1-7.1,8.3-4.9,3,1.6,2,5.9,1.2,8.7-10.6,41.5,14.4,65.6,42.8,88,3.4,2.9,6.6,6,10.1,8.8,16,12.4,31.9,24.8,42.4,42.7-1.1,4,3.6,7.1,1.6,11.2-7.7-2.5-12-9-17-14.7-9.3-10.6-22.4-16.6-32.5-25.4-28.2-24.6-63.8-45.4-63.9-90.4,0-6.4,1.6-12.4,3.3-18.4Z"/>
        <path class="cls-1" d="M931.5,567c-.4,3.7-.7,7.3-1.1,11-5.4,6.7-9.6,14.1-12.3,22.2-6.5,19-12.9,38.1-18.9,57.4-5.6,18.1-17.2,28.9-36.1,31.9-12.9,2-25.8,3.9-38.4,7.1-37,9.6-70.8,28.3-107.9,38.1-23.9,6.3-40.2,22.9-52.9,43.6-16,26.1-39.2,33.5-67.9,22-12.5-5-24.9-10.3-37.5-15.2-24.8-9.7-49.2-8.7-73.3,2.7-8.9,4.3-18,8.3-26.8,12.8-18.5,9.5-37.9,11.1-57.8,6.1-12.2-3.1-24.1-7.1-36-11.1-6.2-2.1-12.1-3.3-18.3-.5-1.1-.4-2.1-.7-3.2-1.1-4.5-11.9-12.3-21.5-20.9-30.9-17.9-19.5-41.4-29.7-64.5-40.5-17.7-8.3-32.7-19.4-45.2-35.1-24.9-31.5-54.8-56.9-95.9-64.9.4-2.5.8-4.9,1.2-7.4,6.1,1.1,16.7,8.6,15.8-4.1-1.3-16.7,7.2-28.4,14.8-40.5,14.9-24.1,22.6-49.8,21.9-78-.9-33.5,10.7-62.3,36-83.9,25.3-21.8,46.1-46.5,61.3-76.2,6.9-13.4,18.1-22.2,32.3-26.9,11.6-3.8,23.6-4.8,35.8-5.4,39.1-1.9,76.9-12.6,115.6-17,4.8-.3,10.2,1.5,13.8-3.5v-.2c7.2.4,14.6.8,22,1.1-1.4,3-6,5.8-2.1,9.3,3.7,3.3,7.9.2,11.2-1.6,37.8-21.5,78.5-32.3,121.7-36.7,39.7-4,75.7,1.4,108.5,26.3,33.6,25.5,65.6,51.8,88.4,88.2,18.5,29.5,46.3,39.6,80.7,32.3,9.6-2,19.7-2.1,29.6-2,23.9.2,34.7,10.4,35.5,34.5,1.6,46.1,3.9,92.5-30.7,130.2-1.2,1.3-2.9,3.1-2.8,4.5.2,2.2,2.7,1.5,4.4,1.5ZM823.9,538.2c7,7.7,15.2,9.1,24.7,5.1,7.1-.7,14.3-1.2,20.5-5.4,7.8-5.2,13.9-11.6,13.3-21.8-.6-10.7-7.5-17-16.5-20.8-15.6-6.6-36.9-1-47.6,12.1-9.8,12-7.9,22.2,5.7,30.7ZM460,339.6c-2.6-.7-5.1-1.3-7.7-2-23.9-15.4-49-15.2-74.5-5.2-9,3.5-16.4,9.7-15.3,21.3,1,10.9,9.2,15,17.8,17.9,15.7,5.3,32,4.6,48,2.3,13-1.9,25.6-2.9,38.6.6,16.9,4.5,33.8,4.3,49.8-3.9,5.7-2.9,10.6-7.3,11-14.2.3-5.9-4.2-9.2-8.7-10.8-19.1-6.6-38.6-11-58.9-5.9ZM771.9,580c-4,.4-7.9.7-11.9,1.1-18.2-9.7-37.6-6.6-56.5-4.3-12,1.4-23.4,5.9-33.4,13.3-7.5,5.6-13.7,12.1-12.3,22.4,1.4,10.2,9.1,15.1,17.9,18.1,9,3,18.3,3.9,27.8,3.1,29-2.5,56.4-14.4,86.1-13.2,8.7.4,18.5-3,26.1-9.4,9.5-8.1,10.1-18.6.5-26.3-12.4-10.1-27.7-11.9-42.8-13.7-2.2-.3-5.8.5-6.5,3.5-.8,3.4,4,3,4.9,5.6ZM491.6,467.1c-26.3-27-58.5-36.2-95-29.5-21.9,4-42.6,11.5-57.7,29.2-5.1,6-4.7,11.6,3.4,12.8,22.6,3.4,42.2,15.4,64.8,19.7,39.9,7.7,80.1,12.5,120.1,18.1,39.6,5.5,77.4-7.5,111.6-28.4,9.8-6,18-13.9,17-27,1.6,2.7,3.1,5.5,4.7,8.2-2.8,14.6,6.1,22.1,17.8,26.2,24.8,8.8,67.2,4.5,85.5-27.7,4.8-8.5,10-16.9,17.1-24.1,13.2-13.2,13.2-24.5,1.1-38.9-14-16.7-32.6-24.4-53.6-28.2-28-5.1-57.3-.6-84.3-8.4-39.8-11.5-75.3-.6-111.1,13.6-14.7,5.8-25.1,16-26.7,32.6-1.6,16.2,7.9,25.8,21.1,32.7,5.4,10.3,16.2,8.5,25,11-5.5,4.4-12.2,6.1-18.6,8.5-14.1,1-28.2,2.1-42.3-.5ZM476.2,564.4c-26.6.9-50.8,10.1-76.3,8.6-32.4-1.9-60.3,11.8-87.9,26.1-7.6,4-7.9,8.9-2,14.9,6.4,6.5,10.9,14.2,15,22.3,15.7,30.7,34,39.6,68.4,33,16.7-3.2,32.9-3.2,49.2,2.2,37.7,12.5,93.8-6.3,110.9-44.8,7.3-16.5,7.4-23.6-6.6-35.6-20.6-17.8-45.2-25.2-70.6-26.7ZM290.9,548.3c6.9-.8,13.1-2.1,18.5-5.5,17.1-10.7,16.6-32.7-1.2-44-11.9-7.6-25.2-8.8-38.9-6.4-12.8,2.3-25.5,4.8-38.2,7.2-19.1,3.6-29.4,13.9-28.4,28.2,1,13.6,13.8,22.4,33.1,22.7,1.8,0,3.6,0,5.4-.2,16.8-1.4,33.3-8.1,49.7-2.1ZM618.1,651.2c-5.3,1.9-12,3.6-12.4,11.3-.2,4.9,1.2,10.7,8,9.9,7.6-.9,12-6.3,12.7-13.6.4-4.4-2.7-7.4-8.3-7.6Z"/>
        <path class="cls-6" d="M1034.4,452.2c5.9,10.6.7,21.5-1,31.5-3.4,20.1-2,40.3-4,60.4-2.8,28.1-8.2,55.7-12.2,83.6-6.3,44.1-35.6,76.3-54.7,113.7-7.7,15.1-23.1,24.4-38.6,30.5-55.2,21.7-98.4,60.4-142.6,98-22.8,19.4-44.7,40.7-75.6,47.4-15,3.2-30.2,6.1-45.4,4.2-40.9-5-82.1,5.8-122.6-.3-48.7-7.3-98.7-4.5-146.5-18.5-1.6-.5-3.1-1.6-4.6-2.4,24.5-8.1,50.1-10.5,73.4.2,17.9,8.2,35.2,7.3,52.2,4.3,19.7-3.4,39.8-3.5,59-2.7,34.5,1.4,65.3-8.5,96.3-20.4,29.6-11.3,56.6-27.6,82.4-45.7,46.2-32.4,93.6-63.2,145.9-84,57.2-22.7,80.7-68.8,97.8-122.3,16-49.9,20.9-101.6,29-152.8,1.6-10.2,12.6-14.3,11.6-24.7Z"/>
        <path class="cls-3" d="M931.5,567c-1.7,0-4.2.7-4.4-1.5-.1-1.4,1.6-3.2,2.8-4.5,34.5-37.7,32.2-84.1,30.7-130.2-.8-24.2-11.6-34.3-35.5-34.5-9.9,0-20,0-29.6,2-34.4,7.3-62.2-2.7-80.7-32.3-22.8-36.4-54.8-62.7-88.4-88.2-32.7-24.9-68.7-30.3-108.5-26.3-43.2,4.4-83.9,15.2-121.7,36.7-3.3,1.9-7.5,4.9-11.2,1.6-3.9-3.5.7-6.3,2.1-9.3,10.7-6.4,21.4-12.7,32-19.2,20.5-12.5,44.1-15.2,66.5-21.6,1.4-.2,2.9-.4,4.3-.6,5.9,0,12.1,2.1,17.5-2.1,17.5.5,34.7-3.7,52.5-2.1,37.3,3.3,66.9,22,95.3,43.8,5.3,4.1,10.8,8.1,16.2,12.1,1.2.8,2.3,1.7,3.5,2.5,0,0,.8.4.8.4,22,19.6,39.8,42.6,55.7,67.3,11.1,17.2,26.4,26.6,47.5,24.7,16.5-1.5,33-2.9,49.5-4.4,35.9,7,44.4,17,43.7,54.5-.4,22.3,1.6,44.7-2.1,67.1-4.3,26.7-17.9,47.2-38.4,63.9Z"/>
        <path class="cls-3" d="M346.4,795c6.2-2.8,12.1-1.6,18.3.5,11.9,4,23.9,8,36,11.1,19.9,5.1,39.2,3.4,57.8-6.1,8.8-4.5,17.8-8.6,26.8-12.8,24-11.4,48.5-12.4,73.3-2.7,12.6,4.9,25,10.1,37.5,15.2,28.7,11.5,51.9,4.1,67.9-22,12.7-20.7,29-37.3,52.9-43.6,37.1-9.8,70.9-28.5,107.9-38.1,12.6-3.3,25.5-5.1,38.4-7.1,18.9-3,30.5-13.7,36.1-31.9,6-19.2,12.4-38.3,18.9-57.4,2.8-8.1,6.9-15.5,12.3-22.2,3.4,4.6,1.2,9.5-.3,13.6-8.2,21.8-14.1,44.3-20.1,66.8-4.5,17.1-14.7,29.8-28.7,39.3-10.5,7.1-23.8,4.7-35.8,7.2-17.3,3.5-34.3,7.4-50.2,14.6-20.1,9.1-40.5,17.4-61.9,22.5-26.7,6.4-45.4,22.5-58.7,45.9-5.5,9.8-10.7,19.9-19.4,27.4-2.6,2.3-4.7,6.5-8.6,5.8-5.5-1,.1-7.5-4.5-10.2-23.3,10.9-46.1,4.2-68.7-4.1-19.8-7.3-38.9-16.6-61.1-12.1-12.6,2.5-24.2,7.2-34.9,13.9-40.6,25.3-80.8,16.9-121.1-.4-5.5-2.3-10.3-5.8-10-12.9Z"/>
        <path class="cls-3" d="M451.3,283c-38.7,4.4-76.6,15.1-115.6,17-12.2.6-24.2,1.5-35.8,5.4-14.2,4.7-25.5,13.5-32.3,26.9-15.2,29.7-36,54.4-61.3,76.2-25.2,21.7-36.8,50.4-36,83.9.7,28.2-6.9,53.9-21.9,78-7.6,12.2-16,23.8-14.8,40.5,1,12.7-9.7,5.2-15.8,4.1-3.2-2.4-9.2-.9-9.8-7,4.2-2.3,11.7,3.4,13.3-5.1,3.5-18.5,14.3-33.6,22.6-49.8,9.2-17.9,14.6-36.5,12.6-56.8,1.2-11.2,1.8-22.5,3.8-33.5,4-23.3,14.7-43.2,31.6-59.9,9.6-9.5,6.6-10.9,12.4-23.6,3.9-8.7,1.9-17,5.5-25.7,8.4,5.5,5.9,13.9,6.4,22.7,12.6-6.4,18.6-17.4,25.1-27.8,11-17.5,19.8-36.5,36.7-49.6,10.6-4.6,20.7-10.7,32.8-10.6,35.6.2,70.1-7.7,105.1-12.1,18.9-2.4,37.6-8.1,57-7.7-.2,6.6-7.8,5.8-8.1,11,0,0,.1.2.1.2-5-.5-9.7.3-13.8,3.5ZM216,378.9c-.2-.3-.4-.6-.7-1-.3.3-.8.5-.8.8,0,.3.4.6.6,1,.3-.3.6-.5.9-.8Z"/>
        <path class="cls-6" d="M392.4,177.9c37.8,10.1,74.6,0,111.2-6.4,48.6-8.5,97.4-7.5,146.3-7.5,4.8,4.8,16.6,4.6,14.8,12.8-1.9,9-12.6,9.1-20.4,8.4-39.2-3.7-76.2,5.3-113.4,16.3-21.6,6.4-44.4,10.9-66.9.5-3-1.4-7.1-.5-10.7-.5-23.5.2-45.6-3.1-60.9-23.8Z"/>
        <path class="cls-6" d="M465,279.4c.4-5.2,7.9-4.3,8.1-11-19.4-.3-38.1,5.3-57,7.7-35,4.4-69.6,12.3-105.1,12.1-12.1,0-22.2,6-32.8,10.6,1.5-13.2,12.6-17.6,22.3-20.8,32.4-10.7,65.9-16.9,99.5-22.2,21.2-3.3,42.7-5.1,63.7-9.4,8.6-1.8,15.9.9,23.8,1.3,18.6.9,36.3-6.2,54.6-6.8,14.4-.5,28.7-8.6,43.4-1.2-22.4,6.4-46,9.1-66.5,21.6-10.6,6.5-21.3,12.8-32,19.2-7.4-.4-14.7-.8-22.1-1.1Z"/>
        <path class="cls-6" d="M928.3,381.5c-16.5,1.5-33,2.9-49.5,4.4-21.1,1.9-36.5-7.5-47.5-24.7-15.9-24.6-33.7-47.7-55.7-67.3,23.9-11.6,24.1-11.7,44.7,9.4,20.4,21,41,41.5,67.7,54.9,9.2,4.6,18.9,5.2,28.1,8.4,7.3,2.5,13.7,5.2,12.1,14.8Z"/>
        <path class="cls-3" d="M116.8,622.5c41.2,8,71,33.3,95.9,64.9,12.4,15.7,27.4,26.8,45.2,35.1,23.1,10.8,46.7,21,64.5,40.5,8.6,9.4,16.4,18.9,20.9,30.9-4.5,7.4-6.9-.2-8.7-1.9-9.4-9.1-17.8-19.1-27.2-28.1-13.3-12.6-29.8-19.9-46.7-26.4-23.2-8.9-42.8-22.1-58.5-41.8-17.2-21.7-38.1-39.4-62.9-52.2-10.9-5.7-22.6-8.5-34.7-10-3.7-.5-9.7-.8-9.3-5.8.4-5.1,6.3-5.8,10.7-6,3.5-.2,7.2.5,10.7.8Z"/>
        <path class="cls-6" d="M140.9,789.4c-10.5-17.8-26.4-30.2-42.4-42.7-3.5-2.7-6.7-5.8-10.1-8.8,24.4-5.1,45.2,5.9,66.4,15.1,8.6,3.7,17.2,7.4,21.1,16.9-1.8,2-3.6,3.9-5.4,5.9-.8,1-2.2,1.9-2.5,3-3.9,21.7-9.7,23.9-27.2,10.5Z"/>
        <path class="cls-6" d="M156.8,496.4c1.9,20.3-3.4,38.9-12.6,56.8-8.3,16.2-19.1,31.3-22.6,49.8-1.6,8.5-9.1,2.8-13.3,5.1-3.4-2.7-3-6.3-1.9-9.8,10-32.2,22.9-63.2,40-92.3,2.4-4.1,4.4-9.1,10.4-9.6Z"/>
        <path class="cls-6" d="M831.2,218.1c-6.3,8-3.8,18.7-8.3,27.3-11.7,5.3-22,12.6-29.6,22.9-2.6,3.4-3.9,7.3-8.8,5.8-4.8-1.4-4.1-6-5.1-9.9-1.5-5.6,5-10.9,0-16.3,3.1-5.9,9.3-6.3,14.7-8.1,4.3-1.4,9.3-1.6,6.9-8.3,9.3-2.3,14.6-10.5,22.2-15.4,3.9-2.5,6.8-5,8,1.9Z"/>
        <path class="cls-3" d="M801.1,231.5c2.4,6.7-2.7,7-6.9,8.3-5.4,1.7-11.6,2.2-14.7,8.1-3.3,4.1-7.7,7.6-8,13.5-.2,4,.8,9.2-5.7,7.8-5.8-1.2-5.8-6.3-4.9-10.9,2.5-12.6,16.9-25.1,30.8-26.8,3.1-.4,6.3,0,9.4,0Z"/>
        <path class="cls-3" d="M170.6,775.8c1.8-2,3.6-3.9,5.4-5.9,7.9-6.3,16.9-10.2,27.1-10.2,3.5,0,9.5-2.8,10,3.2.5,6-5.5,4.6-9.2,4.6-7,0-13.4,1.6-18.8,6-3.8,3-6.8,6.2-1.7,10.9,1.6,1.5,6,2.4,3.4,5.8-2.6,3.4-6.7,2.4-9.8.7-5.9-3.2-7.2-8.8-6.3-15.1Z"/>
        <path class="cls-3" d="M763.8,795.6c5.5-1.6,8.2,6.5,12,.8,3-4.5,4.8-9.7,3.1-15.3-3.5-11.3-12.5-18.2-20.4-26.3,12.5,1.3,20.1,9.7,25.5,20,5,9.5,4.1,19.9-3.3,27.4-8.5,8.7-12.7,1-16.9-6.7Z"/>
        <path class="cls-3" d="M92.4,534.6c-8.3-3.8-13.9.3-19.2,4.2-3,2.2-5.2,5.5-.5,8.4,1.9,1.2,6.6,0,4.2,4.2-1.7,2.9-5,5.5-9.1,3.6-5.4-2.5-8.4-6.4-6.8-12.8,2.4-9.4,20.9-20.6,30.1-17.9,3.5,1,7.4,2.8,7.3,6.8,0,4.6-4.1,3.5-6.1,3.4Z"/>
        <path class="cls-3" d="M299.7,245.8c-3.6,2.8-6.6,5.2-9.7,7.6.4-8.6,3.7-14.5,12.7-13.6,6.1.6,6.4,5.7,5.5,10.3-.7,3.2-1.4,8.5-5.6,7.9-7.9-1.1-.8-7.1-3-12.2Z"/>
        <path class="cls-3" d="M623,873.1c.4,4.7-1.2,8.9-3.9,12.6-2.3,3.2-6.1,5.5-9.1,2.4-3.5-3.7,0-4.7,3.4-6.9,4.8-3.2,5-9.6,2.7-14.7-1.2-2.6-7.4-4.5-1.9-7.6,4.7-2.7,6.5,2.9,8,6.2,1,2.3.6,5.3.8,8Z"/>
        <path class="cls-3" d="M687.4,200.3c-.2,2.5-.8,6.5-5.3,6.6-4.2.1-8.6-2-8.6-6.6,0-4.3,3.5-6.8,8.3-6.8,3.8,0,5.9,1.5,5.6,6.8Z"/>
        <path class="cls-6" d="M607.3,237.1c-5.4,4.1-11.6,2.1-17.5,2.1,5.4-3.9,11.6-1.8,17.5-2.1Z"/>
        <path class="cls-6" d="M774.8,293.5c-1.2-.8-2.3-1.7-3.5-2.5,1.2.8,2.3,1.7,3.5,2.5Z"/>
        <path class="cls-4" d="M660.5,470.3c-1.6-2.7-3.1-5.5-4.7-8.3-5.1-10.7-14.7-13.3-25.3-14.3-24-2.3-47,3.1-69.9,9.1-3.1-.3-6.3-.9-8.4,2.4h.3c-8.8-2.6-19.6-.8-25-11.1,4.7-.5,10.1,1.8,13.6-4.4-1.5-1.3-3-3.1-4.9-4-10.5-4.9-20.9-10.2-19.1-24.3,1.7-13.4,11.8-19.6,23.3-23.5,12.3-4.2,24.8-7.7,37.3-11.5,13.5-4.1,26.9-6.3,41.1-3.3,15.4,3.3,30.7,6.6,46.6,7.3,20.2,1,40.5.9,60.6,4,18.4,2.8,34.6,9.7,47.5,23.1,6,6.2,11.7,13.8,3.9,22.3-10.1,11-17.5,23.9-25.9,36.1-5.6,8.1-13.1,13.2-22.4,16.2-26.1,8.4-50,7.8-68.6-15.9Z"/>
        <path class="cls-3" d="M560.6,456.8c22.9-6.1,45.9-11.4,69.9-9.1,10.6,1,20.2,3.6,25.3,14.3,1,13.2-7.2,21.1-17,27.1-34.2,20.9-72,34-111.6,28.4-40-5.6-80.3-10.5-120.1-18.1-22.6-4.3-42.2-16.4-64.8-19.7-8.2-1.2-8.6-6.8-3.4-12.8,15.2-17.8,35.9-25.2,57.7-29.2,36.5-6.7,68.7,2.5,95,29.5,4.6,9.9,14.4,19,4.3,31.9-3.8-4.4-8.1-7.9-10.6-12.5-10.2-18.7-26.3-29.2-46.4-33.8-22.9-5.2-45.3-2.3-67.2,6.2-5.1,2-10.7,4-11.1,9.9-.5,6.9,6.7,6.4,10.8,8,34.4,13.5,70.6,18.6,107.1,22.8,12.8,1.5,27,12.8,31-12.1,1.6-9.7,15.9-13.5,24.5-19.9,6.4-2.4,13.1-4.1,18.6-8.5,0,0-.3,0-.3,0,3.1.3,6.1.3,8.4-2.4ZM538.6,507.7c32.6,0,72.5-12.1,96-28.4,5.2-3.6,12.1-7.3,9.7-14.4-2-5.9-9.2-5.9-15.2-6.1-33.3-1-64.8,6.4-94.5,21.4-9.9,5-25,11.1-23.1,20.8,1.5,7.8,18.4,7.4,27.1,6.6Z"/>
        <path class="cls-3" d="M476.2,564.4c25.4,1.5,50,8.9,70.6,26.7,14,12,13.9,19.1,6.6,35.6-17.1,38.4-73.2,57.2-110.9,44.8-16.3-5.4-32.5-5.4-49.2-2.2-34.4,6.6-52.7-2.4-68.4-33-4.1-8.1-8.6-15.8-15-22.3-5.9-6-5.6-10.9,2-14.9,27.6-14.3,55.5-28,87.9-26.1,25.5,1.5,49.7-7.7,76.3-8.6ZM401.1,585.9c-22.1-2.4-42.8,2.5-62.8,11.5-19.1,8.6-19.1,8.5-8.5,26.8,1.8,3.1,3.8,6.1,5.2,9.4,8.7,20.8,24.9,28.9,46.4,25.9,24.3-3.3,47.8.3,71.9,3.7,32.7,4.7,62.6-4.7,84.5-31.3,10.4-12.5,9-21.1-3.9-30.7-22.7-16.7-48.5-23.4-76.4-19.7-18.8,2.5-37.4,5.2-56.4,4.2Z"/>
        <path class="cls-3" d="M660.5,470.3c18.6,23.7,42.5,24.3,68.6,15.9,9.4-3,16.8-8.1,22.4-16.2,8.4-12.2,15.8-25,25.9-36.1,7.8-8.6,2.1-16.2-3.9-22.3-12.9-13.4-29.1-20.3-47.5-23.1-20.1-3-40.4-3-60.6-4-15.8-.8-31.2-4.1-46.6-7.3-14.3-3-27.7-.9-41.1,3.3-12.4,3.8-25,7.3-37.3,11.5-11.4,3.9-21.5,10.2-23.3,23.5-1.8,14.1,8.6,19.4,19.1,24.3,1.9.9,3.3,2.7,4.9,4-3.5,6.2-9,3.9-13.6,4.4-13.2-7-22.7-16.6-21.1-32.7,1.6-16.6,12-26.8,26.7-32.6,35.8-14.1,71.3-25,111.1-13.6,27,7.8,56.3,3.2,84.3,8.4,20.9,3.9,39.5,11.6,53.6,28.2,12.1,14.4,12.1,25.7-1.1,38.9-7.1,7.1-12.3,15.5-17.1,24.1-18.3,32.2-60.7,36.5-85.5,27.7-11.6-4.1-20.6-11.6-17.8-26.2Z"/>
        <path class="cls-2" d="M533.9,467.7c-8.6,6.4-22.9,10.2-24.5,19.9-4,24.9-18.2,13.6-31,12.1-36.4-4.2-72.7-9.3-107.1-22.8-4.1-1.6-11.3-1.1-10.8-8,.4-6,5.9-8,11.1-9.9,21.8-8.4,44.3-11.4,67.2-6.2,20.1,4.5,36.2,15.1,46.4,33.8,2.5,4.6,6.9,8.2,10.6,12.5,10.1-12.9.2-22-4.3-31.9,14.1,2.6,28.2,1.5,42.3.5Z"/>
        <path class="cls-4" d="M760,581.1c4-.4,7.9-.7,11.9-1.1,6.6,1.2,13.4,1.7,19.7,3.8,8.8,2.9,23.2,2.8,22.1,14.8-1,11.4-15,12.9-24.9,14.2-21.3,2.9-42.8,3.9-63.8,8.8-10.6,2.5-21.3,4-32,3.2-10.6-.7-24.6-1-26.3-13.7-1.5-11.5,11.4-15.9,20.9-19.6,16.5-6.3,33.7-8,51.5-6.5,6.7.6,15.9,7.1,20.7-4.1Z"/>
        <path class="cls-3" d="M460,339.6c20.3-5,39.8-.7,58.9,5.9,4.6,1.6,9.1,5,8.7,10.8-.4,7-5.3,11.3-11,14.2-16,8.2-32.9,8.4-49.8,3.9-13-3.5-25.6-2.4-38.6-.6-16,2.3-32.3,3-48-2.3-8.5-2.9-16.7-7-17.8-17.9-1.1-11.6,6.3-17.7,15.3-21.3,25.5-10.1,50.6-10.3,74.5,5.2,1,2.2,3.7,4.8-1.5,5.3-5.9.6-11.4-1.2-17.1-2.7-17.7-4.8-35.3-5.8-52.6,2.2-4.3,2-8.7,4.5-8.7,9.3,0,5.5,5,7.8,9.7,9.8,9.5,3.9,19.5,3.5,29.3,2.8,24.3-1.7,48.2-1.7,72.1,4.2,8.9,2.2,17.7-1,26.3-3.9,3.6-1.2,7.4-2.9,7.2-6.9-.2-4.3-5-5.3-8.1-5.8-10.1-1.8-20.4-2.7-30.7-3.9-7-.8-14.5-.4-18.1-8.3Z"/>
        <path class="cls-3" d="M760,581.1c-4.8,11.1-14,4.6-20.7,4.1-17.8-1.5-35,.2-51.5,6.5-9.5,3.6-22.4,8-20.9,19.6,1.6,12.7,15.7,12.9,26.3,13.7,10.7.7,21.4-.7,32-3.2,21-4.9,42.5-5.9,63.8-8.8,9.8-1.3,23.8-2.9,24.9-14.2,1.1-12-13.3-11.9-22.1-14.8-6.3-2.1-13.1-2.6-19.7-3.8-.9-2.6-5.7-2.2-4.9-5.6.7-2.9,4.3-3.7,6.5-3.5,15.1,1.8,30.5,3.6,42.8,13.7,9.5,7.8,9,18.3-.5,26.3-7.6,6.4-17.4,9.8-26.1,9.4-29.7-1.2-57.1,10.7-86.1,13.2-9.6.8-18.9,0-27.8-3.1-8.8-2.9-16.5-7.9-17.9-18.1-1.4-10.3,4.8-16.8,12.3-22.4,9.9-7.4,21.4-11.9,33.4-13.3,19-2.3,38.3-5.4,56.5,4.3Z"/>
        <path class="cls-3" d="M290.9,548.3c-16.4-6-32.9.7-49.7,2.1-1.8.2-3.6.2-5.4.2-19.3-.3-32.1-9.1-33.1-22.7-1-14.3,9.3-24.6,28.4-28.2,12.7-2.4,25.5-4.9,38.2-7.2,13.7-2.5,26.9-1.3,38.9,6.4,17.7,11.3,18.2,33.3,1.2,44-5.4,3.4-11.5,4.7-18.5,5.5ZM281.9,501.3c-18,3.4-36.1,6.3-53.9,10.3-7.4,1.6-15.3,4.9-14.7,14.7.7,10.6,9.7,11.7,17.5,13.4,3,.7,6.3.5,9.4,0,21.2-3,42.3-6.7,63-12.5,11.7-3.3,9.4-9.4,4.4-15.6-6.4-7.8-15.7-9.8-25.7-10.4Z"/>
        <path class="cls-4" d="M460,339.6c3.6,8,11.2,7.5,18.1,8.3,10.2,1.2,20.5,2.1,30.7,3.9,3.1.5,8,1.5,8.1,5.8.2,4-3.6,5.7-7.2,6.9-8.5,2.9-17.4,6.1-26.3,3.9-23.8-5.9-47.8-5.9-72.1-4.2-9.7.7-19.8,1.2-29.3-2.8-4.7-2-9.7-4.2-9.7-9.8,0-4.8,4.4-7.4,8.7-9.3,17.2-7.9,34.9-7,52.6-2.2,5.7,1.5,11.2,3.3,17.1,2.7,5.1-.5,2.5-3.1,1.5-5.3,2.6.7,5.1,1.3,7.7,2Z"/>
        <path class="cls-3" d="M823.9,538.2c-13.7-8.5-15.6-18.6-5.7-30.7,10.7-13.1,32-18.7,47.6-12.1,9.1,3.9,15.9,10.2,16.5,20.8.6,10.2-5.5,16.6-13.3,21.8-6.2,4.1-13.4,4.6-20.5,5.4-8.4-.9-15.8-6.3-24.7-5.1ZM851.6,502c-11.6.9-21.5,4.2-26.4,14.4-2.4,4.9,16.9,16.1,27.3,15.6,9.7-.5,18.7-4.2,18.7-15.2,0-12.7-11.2-13-19.6-14.8Z"/>
        <path class="cls-3" d="M618.1,651.2c5.6.2,8.7,3.2,8.3,7.6-.7,7.3-5.1,12.8-12.7,13.6-6.8.8-8.3-5-8-9.9.4-7.7,7.1-9.3,12.4-11.3Z"/>
        <path class="cls-4" d="M823.9,538.2c8.8-1.2,16.3,4.2,24.7,5.1-9.4,4-17.7,2.5-24.7-5.1Z"/>
        <path class="cls-6" d="M451.3,283c4.1-3.2,8.8-3.9,13.8-3.5-3.6,5-9,3.2-13.8,3.5Z"/>
        <path class="cls-5" d="M216,378.9c-.3.3-.6.5-.9.8-.2-.3-.6-.7-.6-1,0-.3.5-.5.8-.8.2.3.4.6.7,1Z"/>
        <path class="cls-1" d="M560.6,456.8c-2.3,2.7-5.3,2.6-8.4,2.4,2.1-3.2,5.3-2.7,8.4-2.4Z"/>
        <path class="cls-2" d="M538.6,507.7c-8.7.9-25.6,1.2-27.1-6.6-1.9-9.7,13.2-15.8,23.1-20.8,29.7-15,61.2-22.4,94.5-21.4,5.9.2,13.1.2,15.2,6.1,2.4,7.1-4.5,10.8-9.7,14.4-23.6,16.3-63.4,28.3-96,28.4Z"/>
        <path class="cls-4" d="M401.1,585.9c19,1,37.6-1.7,56.4-4.2,27.9-3.7,53.7,2.9,76.4,19.7,13,9.5,14.3,18.1,3.9,30.7-22,26.6-51.9,36-84.5,31.3-24.1-3.4-47.5-7-71.9-3.7-21.6,2.9-37.7-5.1-46.4-25.9-1.4-3.3-3.4-6.3-5.2-9.4-10.6-18.3-10.6-18.2,8.5-26.8,20-9,40.7-13.9,62.8-11.5Z"/>
        <path class="cls-4" d="M281.9,501.3c10,.6,19.3,2.7,25.7,10.4,5,6.1,7.3,12.3-4.4,15.6-20.7,5.8-41.8,9.5-63,12.5-3.1.4-6.4.6-9.4,0-7.8-1.8-16.8-2.8-17.5-13.4-.6-9.8,7.3-13.1,14.7-14.7,17.9-4,35.9-6.9,53.9-10.3Z"/>
        <path class="cls-4" d="M851.6,502c8.4,1.8,19.6,2.1,19.6,14.8,0,10.9-9,14.6-18.7,15.2-10.4.5-29.7-10.6-27.3-15.6,4.9-10.2,14.8-13.5,26.4-14.4Z"/>
      </g>
    </g>
  </g>
</svg>