<?xml version="1.0" encoding="UTF-8"?>
<svg xmlns="http://www.w3.org/2000/svg" version="1.1" viewBox="0 0 1080 1080">
  <defs>
    <style>
      .cls-1, .cls-2, .cls-3, .cls-4 {
        fill: none;
      }

      .cls-1, .cls-3 {
        stroke: #4a569b;
        stroke-linecap: round;
        stroke-linejoin: round;
        stroke-width: 1.7px;
      }

      .cls-5 {
        font-size: 103.7px;
      }

      .cls-5, .cls-6 {
        fill: #0a67a4;
        font-family: Amatic, Amatic;
      }

      .cls-5, .cls-6, .cls-2 {
        isolation: isolate;
      }

      .cls-6 {
        font-size: 103.7px;
      }

      .cls-2 {
        stroke: #0e262c;
        stroke-width: 5px;
      }

      .cls-2, .cls-4 {
        stroke-miterlimit: 10;
      }

      .cls-3 {
        stroke-dasharray: 2.3 5.7;
      }

      .cls-7 {
        fill: #ebde86;
      }

      .cls-8 {
        fill: #6fbde2;
      }

      .cls-4 {
        stroke: #1d353e;
        stroke-width: 2px;
      }
    </style>
  </defs>
  <!-- Generator: Adobe Illustrator 28.6.0, SVG Export Plug-In . SVG Version: 1.2.0 Build 709)  -->
  <g>
    <g id="Layer_1">
      <path class="cls-8" d="M733.3,392.7c58.2-11.8,116.7-23.6,176-27-4.1,17.1-9.9,33.7-17.2,49.7,13.9,1.5,27.5,5.3,40,11.3-7,10.3-14.1,20.6-21.1,31-1.6,2.3-3.2,4.9-3,7.7.3,3.5,3.5,6,6.4,8.1,15.3,10.9,30.7,21.7,46,32.6-12.3,13.1-24.5,26.3-36.8,39.4,20.4,7.8,40.9,15.6,61.3,23.4-13.5,10.9-25.8,23.3-36.5,37,14.2,10.4,29.6,19.1,45.7,26.1-3,14.3-29.3,17.7-26.6,32.1.9,4.7,5.1,8.1,8.9,11,10.5,7.9,21.1,15.8,31.6,23.6-48.9,45.8-544.5,172.3-729.5,193,11.1-11.1,20.3-24,27.2-38.1-20.8-1.5-41.6-4.8-61.8-9.9,13.8-18,27.6-35.9,41.3-53.9-21.6-6.8-43.1-13.6-64.7-20.5,18.4-15.4,32.8-35.4,41.5-57.7-22.6-2.2-45-7.2-66.4-14.8-4.4-1.6-9.5-4.1-10.1-8.8-.5-3.7,2.2-7,4.7-9.8,14.1-15.7,28.2-31.3,42.4-47-22.6,5.9-47.1,4.3-68.7-4.4,19.4-16.3,38.8-32.6,58.2-48.9-13.8,11.6-69.5-7.7-82.3-15.4,42.5-56.5,544.3-159.9,593.4-169.8Z"/>
      <path class="cls-2" d="M733.7,393.8c58.3-11.7,116.8-23.4,176.1-26.7-4.1,17.1-9.9,33.7-17.3,49.7,13.9,1.5,27.5,5.3,40,11.3-7.1,10.3-14.1,20.6-21.2,30.9-1.6,2.3-3.3,4.9-3,7.7.3,3.5,3.5,6,6.4,8.1,15.3,10.9,30.7,21.8,46,32.7-12.3,13.1-24.6,26.2-36.9,39.4,20.4,7.9,40.8,15.7,61.3,23.6-13.6,10.9-25.8,23.3-36.6,36.9,14.2,10.4,29.5,19.2,45.6,26.2-3.1,14.3-29.4,17.6-26.6,32,.9,4.8,5.1,8.1,8.9,11,10.5,7.9,21,15.8,31.6,23.7-48.9,45.7-544.8,171.3-729.8,191.6,11.1-11.1,20.3-24,27.3-38-20.8-1.5-41.6-4.8-61.8-10,13.8-17.9,27.6-35.9,41.4-53.8-21.6-6.9-43.1-13.7-64.7-20.6,18.4-15.4,32.8-35.4,41.6-57.7-22.6-2.2-45-7.2-66.4-14.9-4.4-1.6-9.5-4.1-10.1-8.8-.5-3.7,2.2-7,4.8-9.8,14.1-15.6,28.3-31.2,42.4-46.9-22.6,5.8-47.1,4.2-68.7-4.6,19.4-16.3,38.9-32.6,58.3-48.8-13.8,11.6-69.5-7.9-82.3-15.6,42.6-56.5,544.6-158.9,593.7-168.7Z"/>
      <g>
        <path class="cls-1" d="M389.7,505c0,.4.2.7.3,1.1"/>
        <path class="cls-3" d="M391.4,511.7c29,110.5,63,219.7,101.8,327.2"/>
        <path class="cls-1" d="M494.2,841.6c.1.4.3.7.4,1.1"/>
      </g>
      <path class="cls-7" d="M531.9,781.5c.9,2.3,2,4.8,4.1,6.1,2.6,1.6,6,.8,8.9,0,27.2-7.6,54.1-16.7,81-25.2,87.4-27.6,176.5-49.4,266.7-65.2-26.5-89.8-53.1-179.7-79.6-269.5-1.5-5.1-238.1,56.1-259.9,61.9-23,6.1-91.6,11.8-103.5,35.2-7.1,13.9,6.5,39.1,10.7,52.6,6.5,20.9,13.2,41.8,20.2,62.6,15.9,47.6,33,94.8,51.3,141.6Z"/>
      <g>
        <path class="cls-4" d="M306.4,531.9c6.1,7,13.4,12.8,21.5,17.3-15.8,6.2-31.6,12.4-47.5,18.6"/>
        <path class="cls-4" d="M339,589.4c4.6,4.9,7.8,11.2,9.1,17.8-7.4,8.1-20.6,4.9-30.8,1-7.9-3-15.8-5.9-23.7-8.9-.1,11.9,1,23.8,3.4,35.4"/>
        <path class="cls-4" d="M360.2,648.7c3.2,3.7,6.5,7.6,8,12.2,1.5,4.7.8,10.4-2.9,13.5-3.8,3.1-9.5,2.7-13.8.4-4.3-2.4-7.4-6.3-10.3-10.3,4.4,8.7-4.7,19.3-14.3,20-9.7.7-18.6-5-26.2-11"/>
        <path class="cls-4" d="M338.9,738.7c17.4-6.3,34.4-13.8,50.8-22.5-11-4.1-22.2-7.6-33.5-10.5,3.6,11.9,7.9,23.7,12.8,35.2"/>
        <path class="cls-4" d="M414,778.4c-3.5-8.9-6.9-17.9-10.4-26.8-8.2,3.2-16.5,6.3-24.7,9.5,5.3,6.8,4.2,17.4-1.7,23.7-5.9,6.3-15.7,8.2-23.8,5.4-8.1-2.8-14.5-9.8-17.5-17.8"/>
        <path class="cls-4" d="M427.4,818c-8.3-3.3-17.4-4.7-26.3-4.2-5.2.3-10.4,1.4-14.7,4.4-4.2,3-7.2,8.2-6.3,13.3.9,5.1,6.4,9.3,11.3,7.7,4.3-1.4,6.6-6.5,6.3-11-.3-4.6-2.6-8.7-4.8-12.7"/>
      </g>
      <text class="cls-6" transform="translate(548.2 610.6) rotate(-13.9)"><tspan x="0" y="0">Napuleth</tspan><tspan x="63.7" y="126.8">2025</tspan></text>
      <path class="cls-8" d="M487.4,184.4c47.5-35.7,95.2-71.6,147.2-100.2,3.6,17.2,5.6,34.7,5.9,52.2,13.1-4.7,27.1-7.1,41-7.1-1.9,12.4-3.8,24.7-5.7,37.1-.4,2.8-.8,5.8.6,8.2,1.8,3.1,5.7,4,9.2,4.6,18.5,3.2,37.1,6.4,55.6,9.6-5.4,17.1-10.8,34.3-16.2,51.4,21.8-1.8,43.6-3.5,65.4-5.3-7.5,15.6-13.2,32.2-17,49.1,17.3,3.2,34.9,4.5,52.5,3.9,3.4,14.2-18.8,28.6-10.2,40.4,2.9,3.9,8.1,5.1,12.8,6.1,12.9,2.6,25.8,5.1,38.7,7.7-24.4,62.4-417.2,390.1-575.2,488.4,5.2-14.8,8-30.4,8.1-46.1-19.4,7.7-39.6,13.6-60,17.7,4.7-22.1,9.4-44.3,14.1-66.4-22.4,3.1-44.8,6.3-67.2,9.4,9.9-21.8,14.3-46.1,12.6-70-21.4,7.8-43.7,12.9-66.3,15.3-4.7.5-10.4.4-12.9-3.6-2-3.2-1-7.3,0-10.9,6-20.2,12-40.4,18-60.6-17.9,15-40.6,24.1-63.9,25.6,10.5-23.1,21-46.2,31.4-69.2-7.5,16.4-66.1,23-80.9,21.5,14-69.3,422.3-378.8,462.4-408.9Z"/>
      <g>
        <path class="cls-1" d="M214.9,420.1c.2.3.5.6.7.9"/>
        <path class="cls-3" d="M219.3,425.3c73.8,87.2,151.5,171.2,232.9,251.4"/>
        <path class="cls-1" d="M454.2,678.7c.3.3.5.5.8.8"/>
      </g>
      <path class="cls-7" d="M462.3,608.3c1.8,1.7,3.9,3.5,6.4,3.8,3,.3,5.7-1.8,8-3.9,21.3-18.6,41.6-38.3,62.3-57.6,67-62.5,138-120.6,212.6-173.7-62.6-69.7-125.3-139.3-187.9-209-3.6-4-190.7,153.2-207.9,167.8-18.2,15.4-77.6,50.1-78.3,76.4-.4,15.6,22.7,32.4,32.3,42.8,14.9,16.1,30,32,45.2,47.8,34.9,36.1,70.6,71.3,107.3,105.7Z"/>
      <g>
        <path class="cls-4" d="M151.4,480.1c8.5,3.7,17.6,5.8,26.8,6.4-11.6,12.4-23.2,24.8-34.8,37.2"/>
        <path class="cls-4" d="M205.5,518.1c6.3,2.5,11.8,6.7,15.9,12.1-3.2,10.5-16.5,13.3-27.4,14.2-8.4.7-16.8,1.4-25.2,2.2,5,10.8,11.2,21,18.3,30.5"/>
        <path class="cls-4" d="M250.2,562.3c4.5,2,9.1,4,12.5,7.6,3.4,3.6,5.2,9,3.2,13.5-2.1,4.4-7.4,6.6-12.3,6.3-4.9-.3-9.4-2.5-13.7-4.8,7.7,5.9,4.1,19.4-4.3,24.3-8.4,4.8-18.9,3.5-28.4,1.3"/>
        <path class="cls-4" d="M269.7,652.8c13-13.2,25.1-27.3,36.1-42.2-11.7,1.1-23.3,2.7-34.7,4.9,8.4,9.2,17.3,18,26.7,26.2"/>
        <path class="cls-4" d="M354.6,656.3c-7-6.6-14-13.2-20.9-19.7-6.1,6.4-12.1,12.8-18.2,19.2,7.7,3.9,11.3,13.9,8.7,22.1-2.6,8.2-10.6,14.1-19.2,15.1-8.5,1-17.3-2.6-23.5-8.6"/>
        <path class="cls-4" d="M383.8,686.2c-8.9.6-17.7,3.2-25.6,7.6-4.5,2.5-8.8,5.8-11.4,10.3-2.5,4.5-2.9,10.5,0,14.7,3,4.2,9.8,5.6,13.5,2,3.3-3.1,3.2-8.7,1-12.7-2.2-4-6.1-6.8-9.8-9.4"/>
      </g>
      <text class="cls-5" transform="translate(398.9 444.6) rotate(-39.4)"><tspan x="0" y="0">Napuleth</tspan><tspan x="63.7" y="126.8">2025</tspan></text>
      <path class="cls-2" d="M488.5,184.2c47.5-35.7,95.2-71.6,147.2-100.2,3.6,17.2,5.6,34.7,5.9,52.2,13.1-4.7,27.1-7.1,41-7.1-1.9,12.4-3.8,24.7-5.7,37.1-.4,2.8-.8,5.8.6,8.2,1.8,3.1,5.7,4,9.2,4.6,18.5,3.2,37.1,6.4,55.6,9.6-5.4,17.1-10.8,34.3-16.2,51.4,21.8-1.8,43.6-3.5,65.4-5.3-7.5,15.6-13.2,32.2-17,49.1,17.3,3.2,34.9,4.5,52.5,3.9,3.4,14.2-18.8,28.6-10.2,40.4,2.9,3.9,8.1,5.1,12.8,6.1,12.9,2.6,25.8,5.1,38.7,7.7-24.4,62.4-417.2,390.1-575.2,488.4,5.2-14.8,8-30.4,8.1-46.1-19.4,7.7-39.6,13.6-60,17.7,4.7-22.1,9.4-44.3,14.1-66.4-22.4,3.1-44.8,6.3-67.2,9.4,9.9-21.8,14.3-46.1,12.6-70-21.4,7.8-43.7,12.9-66.3,15.3-4.7.5-10.4.4-12.9-3.6-2-3.2-1-7.3,0-10.9,6-20.2,12-40.4,18-60.6-17.9,15-40.6,24.1-63.9,25.6,10.5-23.1,21-46.2,31.4-69.2-7.5,16.4-66.1,23-80.9,21.5,14-69.3,422.3-378.8,462.4-408.9Z"/>
    </g>
  </g>
</svg>